<svg xmlns="http://www.w3.org/2000/svg" width="482" height="120">
  <g fill="none" fill-rule="evenodd">
    <path stroke="#1C1F23" stroke-width="3" d="M414.2121 3.4995l-1.414 1.414m-5.657 5.6571l-1.414 1.414m8.485.0002l-1.414-1.414m-5.657-5.6571l-1.414-1.414M11.9853 107.0357l-1.414 1.414m-5.6571 5.6571l-1.414 1.414m8.4851.0002l-1.414-1.414m-5.6571-5.6571l-1.414-1.414m445.6588-35.873l-1.414 1.414m-5.657 5.6571l-1.414 1.414m8.485.0002l-1.414-1.414m-5.657-5.6571l-1.414-1.414M148.8945 17.8427l-1.414 1.414m-5.6571 5.657l-1.414 1.414m8.4851.0002l-1.414-1.414m-5.6571-5.657l-1.414-1.414m199.4516-5.8581c0 1.657-1.343 3-3 3s-3-1.343-3-3 1.343-3 3-3 3 1.343 3 3zm137.9155 87.6036c0 1.657-1.343 3-3 3s-3-1.343-3-3 1.343-3 3-3 3 1.343 3 3zM63.8622 8.9848c0 1.657-1.343 3-3 3s-3-1.343-3-3 1.343-3 3-3 3 1.343 3 3zm57.1317 23.6872v6m3-3h-6m332.9225 9.6559v6m3-3h-6m-428.86 24.9998v6m3-3h-6M367.2657 29.672v6m3-3h-6m-105.5544 3v6m3-3h-6" stroke-linecap="round" stroke-linejoin="round"/>
    <path d="M0 0h482v120H0z"/>
  </g>
</svg>