<?xml version="1.0" encoding="UTF-8"?>
<svg width="16px" height="16px" viewBox="0 0 16 16" version="1.1" xmlns="http://www.w3.org/2000/svg" xmlns:xlink="http://www.w3.org/1999/xlink">
    <!-- Generator: Sketch 44.1 (41455) - http://www.bohemiancoding.com/sketch -->
    <title>svg/ic_videocam_white_16px</title>
    <desc>Created with Sketch.</desc>
    <defs></defs>
    <g id="Page-1" stroke="none" stroke-width="1" fill="none" fill-rule="evenodd">
        <g id="ic_videocam_white_16px">
            <g id="Group-2">
                <g id="ic_videocam_white_24px">
                    <g id="Group">
                        <polygon id="Shape" points="0 0 16 0 16 16 0 16"></polygon>
                        <path d="M11,7 L11,4.66666667 C11,4.3 10.7,4 10.3333333,4 L2.66666667,4 C2.3,4 2,4.3 2,4.66666667 L2,11.3333333 C2,11.7 2.3,12 2.66666667,12 L10.3333333,12 C10.7,12 11,11.7 11,11.3333333 L11,9 L14,11.5 L14,4.5 L11,7 Z" id="Shape" fill="#FFFFFF" fill-rule="nonzero"></path>
                        <polygon id="Shape" points="0 0 16 0 16 16 0 16"></polygon>
                    </g>
                </g>
            </g>
        </g>
    </g>
</svg>