<svg xmlns="http://www.w3.org/2000/svg" xmlns:xlink="http://www.w3.org/1999/xlink" width="140" height="96" viewBox="0 0 140 96">
  <defs>
    <polygon id="a" points=".942 .4 2.872 .4 2.872 2.558 .942 2.558 .942 .4"/>
  </defs>
  <g fill="none" fill-rule="evenodd">
    <g transform="translate(1 10)">
      <path fill="#72767D" fill-opacity=".3" d="M83.1832,10.0305 L21.7202,10.0305 C17.6632,10.0305 14.3742,13.3195 14.3742,17.3765 C14.3742,21.4335 17.6632,24.7215 21.7202,24.7215 L33.9912,24.7215 C36.3092,24.7215 38.1882,26.6015 38.1882,28.9195 L38.1882,28.9215 C38.1882,31.2395 36.3092,33.1185 33.9912,33.1185 L7.1132,33.1185 C3.8132,33.1185 1.1372,35.7935 1.1372,39.0935 C1.1372,42.3935 3.8132,45.0685 7.1132,45.0685 L36.8982,45.0685 C41.1642,45.0685 44.6232,48.5275 44.6232,52.7945 C44.6232,57.0615 41.1642,60.5205 36.8982,60.5205 L27.8882,60.5205 C24.7262,60.5205 22.1622,63.0835 22.1622,66.2455 C22.1622,69.4085 24.7262,71.9715 27.8882,71.9715 L91.7672,71.9715"/>
      <path fill="#7687B2" d="M102.2085,55.84 C99.5755,57.049 96.7715,57.657 93.9575,57.657 C91.6365,57.657 89.3095,57.243 87.0675,56.412 C82.1095,54.574 78.1635,50.915 75.9565,46.109 C71.4015,36.187 75.7665,24.407 85.6855,19.851 C90.4915,17.644 95.8685,17.441 100.8265,19.278 C105.7845,21.116 109.7305,24.776 111.9375,29.582 C116.4925,39.504 112.1285,51.283 102.2085,55.84 M82.9315,13.856 C69.6825,19.94 63.8735,35.613 69.9585,48.861 C76.0425,62.111 91.7155,67.919 104.9635,61.835 C118.2125,55.75 124.0205,40.078 117.9375,26.829 C111.8525,13.58 96.1805,7.772 82.9315,13.856"/>
      <path fill="#202225" d="M27.7505,34.9199 L36.7595,34.9199 C41.5705,34.9199 45.4855,31.0049 45.4855,26.1939 C45.4855,21.3819 41.5705,17.4679 36.7595,17.4679 L6.9745,17.4679 C4.2305,17.4679 1.9995,15.2359 1.9995,12.4929 C1.9995,9.7499 4.2305,7.5179 6.9745,7.5179 L33.8535,7.5179 C36.7195,7.5179 39.0505,5.1859 39.0505,2.3189 C39.0505,1.4989 38.8435,0.7339 38.5035,0.0439 C38.0605,0.5759 37.5095,1.0139 36.8675,1.2969 C36.9785,1.6209 37.0505,1.9609 37.0505,2.3209 C37.0505,4.0839 35.6165,5.5179 33.8535,5.5179 L6.9745,5.5179 C3.1285,5.5179 -0.0005,8.6469 -0.0005,12.4929 C-0.0005,16.3389 3.1285,19.4679 6.9745,19.4679 L36.7595,19.4679 C40.4685,19.4679 43.4855,22.4849 43.4855,26.1939 C43.4855,29.9029 40.4685,32.9199 36.7595,32.9199 L27.7505,32.9199 C24.0415,32.9199 21.0235,35.9369 21.0235,39.6459 C21.0235,43.3549 24.0415,46.3719 27.7505,46.3719 L38.8715,46.3719 C39.4235,46.3719 39.8715,45.9239 39.8715,45.3719 C39.8715,44.8189 39.4235,44.3719 38.8715,44.3719 L27.7505,44.3719 C25.1445,44.3719 23.0235,42.2519 23.0235,39.6459 C23.0235,37.0399 25.1445,34.9199 27.7505,34.9199" transform="translate(0 26.6)"/>
      <path fill="#202225" d="M21.5826,9.0305 C16.9806,9.0305 13.2366,12.7745 13.2366,17.3765 C13.2366,21.9785 16.9806,25.7215 21.5826,25.7215 C22.1356,25.7215 22.5826,25.2745 22.5826,24.7215 C22.5826,24.1695 22.1356,23.7215 21.5826,23.7215 C18.0836,23.7215 15.2366,20.8755 15.2366,17.3765 C15.2366,13.8775 18.0836,11.0305 21.5826,11.0305 L52.7776,11.0305 C52.4106,10.4195 52.1356,9.7485 51.9806,9.0305 L21.5826,9.0305 Z"/>
      <path fill="#7289DA" d="M37.5611,23.7775 C37.5611,22.3935 36.4351,21.2685 35.0521,21.2685 L33.2401,21.2685 C31.8571,21.2685 30.7311,22.3935 30.7311,23.7775 C30.7311,25.1605 31.8571,26.2865 33.2401,26.2865 L35.0521,26.2865 C36.4351,26.2865 37.5611,25.1605 37.5611,23.7775"/>
      <path fill="#4F5D7F" d="M103.9488,59.6247 C91.9208,65.1477 77.6918,59.8747 72.1688,47.8467 C66.6448,35.8187 71.9178,21.5897 83.9458,16.0657 C95.9738,10.5427 110.2028,15.8157 115.7258,27.8437 C121.2508,39.8727 115.9768,54.1007 103.9488,59.6247 M125.5498,23.2927 C120.0598,11.3387 108.4708,3.5857 95.3058,3.0597 C95.2258,3.0567 95.1468,3.0427 95.0708,3.0217 L58.4438,3.0217 C55.8998,3.0217 53.8298,5.0917 53.8298,7.6357 C53.8298,10.1807 55.8998,12.2497 58.4438,12.2497 L67.8858,12.2497 C67.9208,12.2497 67.9558,12.2517 67.9898,12.2557 C70.4248,12.3117 72.3948,14.3207 72.3948,16.7597 C72.3948,19.2457 70.3728,21.2687 67.8858,21.2687 L48.5898,21.2687 C47.2068,21.2687 46.0808,22.3937 46.0808,23.7777 C46.0808,25.1607 47.2068,26.2867 48.5898,26.2867 L61.5698,26.2867 C64.0558,26.2867 66.0788,28.3097 66.0788,30.7957 C66.0788,33.2817 64.0558,35.3047 61.5698,35.3047 L55.8458,35.3047 C54.4628,35.3047 53.3378,36.4297 53.3378,37.8137 C53.3378,39.1967 54.4628,40.3227 55.8458,40.3227 L58.3458,40.3227 C58.8598,40.3227 59.2908,40.7127 59.3418,41.2247 C59.7208,45.0727 60.7318,48.8047 62.3448,52.3177 C66.2208,60.7587 73.1528,67.1857 81.8628,70.4137 C90.5718,73.6407 100.0178,73.2847 108.4598,69.4077 C125.8858,61.4057 133.5518,40.7187 125.5498,23.2927"/>
      <path fill="#EBEFF7" d="M110.1207,30.4162 C108.1367,26.0952 104.5897,22.8062 100.1317,21.1532 C98.1167,20.4072 96.0237,20.0352 93.9377,20.0352 C91.4087,20.0352 88.8877,20.5812 86.5197,21.6682 C77.6027,25.7642 73.6797,36.3542 77.7737,45.2742 C79.7587,49.5952 83.3057,52.8852 87.7637,54.5372 C92.2227,56.1892 97.0547,56.0072 101.3737,54.0222 C110.2917,49.9262 114.2157,39.3362 110.1207,30.4162"/>
      <g transform="translate(135 .6)">
        <mask id="b" fill="white">
          <use xlink:href="#a"/>
        </mask>
        <path fill="#FFFFFF" d="M1.441,2.5581 C1.587,2.5581 1.733,2.4941 1.832,2.3711 L2.762,1.2121 C2.935,0.9971 2.901,0.6831 2.686,0.5101 C2.471,0.3371 2.156,0.3711 1.983,0.5861 L1.052,1.7451 C0.879,1.9601 0.914,2.2751 1.129,2.4481 C1.221,2.5221 1.332,2.5581 1.441,2.5581" mask="url(#b)"/>
      </g>
      <path fill="#FFFFFF" d="M132.2974 6.028L131.3654 7.187C131.1934 7.402 131.2274 7.716 131.4434 7.889 131.5344 7.964 131.6454 8 131.7554 8 131.9014 8 132.0464 7.936 132.1454 7.813L133.0764 6.654C133.2494 6.439 133.2154 6.124 132.9994 5.951 132.7844 5.779 132.4704 5.813 132.2974 6.028M137.9351 7.0173L136.9291 5.9073C136.7441 5.7023 136.4271 5.6873 136.2231 5.8723 136.0181 6.0583 136.0021 6.3733 136.1881 6.5783L137.1941 7.6883C137.2921 7.7973 137.4281 7.8523 137.5641 7.8523 137.6841 7.8523 137.8041 7.8093 137.9001 7.7233 138.1051 7.5383 138.1211 7.2223 137.9351 7.0173M132.5699 3.2565C132.6889 3.2565 132.8089 3.2135 132.9049 3.1275 133.1099 2.9415 133.1259 2.6255 132.9399 2.4215L131.9349 1.3115C131.7499 1.1055 131.4339 1.0915 131.2289 1.2765 131.0239 1.4615 131.0079 1.7775 131.1939 1.9825L132.1989 3.0915C132.2979 3.2015 132.4329 3.2565 132.5699 3.2565M53.521 66.6936C52.453 66.6936 51.584 65.8246 51.584 64.7566 51.584 63.6886 52.453 62.8196 53.521 62.8196 54.588 62.8196 55.458 63.6886 55.458 64.7566 55.458 65.8246 54.588 66.6936 53.521 66.6936M53.521 61.8196C51.901 61.8196 50.583 63.1366 50.583 64.7566 50.583 66.3766 51.901 67.6936 53.521 67.6936 55.14 67.6936 56.458 66.3766 56.458 64.7566 56.458 63.1366 55.14 61.8196 53.521 61.8196M35.5435 49.656C35.2675 49.656 35.0435 49.88 35.0435 50.156L35.0435 50.156C35.0435 51.226 34.1765 52.094 33.1055 52.094 32.8295 52.094 32.6055 52.317 32.6055 52.594 32.6055 52.87 32.8295 53.094 33.1055 53.094 34.1765 53.094 35.0435 53.961 35.0435 55.031 35.0435 55.307 35.2675 55.531 35.5435 55.531 35.8195 55.531 36.0435 55.307 36.0435 55.031 36.0435 53.961 36.9105 53.094 37.9805 53.094 38.2565 53.094 38.4805 52.87 38.4805 52.594 38.4805 52.317 38.2565 52.094 37.9805 52.094 36.9105 52.094 36.0435 51.226 36.0435 50.156L36.0435 50.156C36.0435 49.88 35.8195 49.656 35.5435 49.656"/>
      <path fill="#202225" d="M46.0835,70.9719 L44.1595,70.9719 C43.6075,70.9719 43.1595,71.4199 43.1595,71.9719 C43.1595,72.5239 43.6075,72.9719 44.1595,72.9719 L46.0835,72.9719 C46.6355,72.9719 47.0835,72.5239 47.0835,71.9719 C47.0835,71.4199 46.6355,70.9719 46.0835,70.9719"/>
      <path fill="#040405" d="M35.0523 26.2863L33.2403 26.2863C31.8573 26.2863 30.7313 25.1613 30.7313 23.7773 30.7313 22.3933 31.8573 21.2683 33.2403 21.2683L35.0523 21.2683C36.4353 21.2683 37.5613 22.3933 37.5613 23.7773 37.5613 25.1613 36.4353 26.2863 35.0523 26.2863M35.0523 19.2683L33.2403 19.2683C30.7533 19.2683 28.7313 21.2913 28.7313 23.7773 28.7313 26.2643 30.7533 28.2863 33.2403 28.2863L35.0523 28.2863C35.6983 28.2863 36.3113 28.1443 36.8673 27.8973 37.5093 27.6143 38.0603 27.1763 38.5033 26.6433 39.1543 25.8623 39.5613 24.8713 39.5613 23.7773 39.5613 21.2913 37.5383 19.2683 35.0523 19.2683M108.4595 69.4079C100.0185 73.2839 90.5715 73.6409 81.8625 70.4139 73.1525 67.1859 66.2215 60.7589 62.3455 52.3179 60.7315 48.8049 59.7215 45.0729 59.3415 41.2239 59.2905 40.7129 58.8595 40.3229 58.3465 40.3229L55.8465 40.3229C54.4625 40.3229 53.3375 39.1969 53.3375 37.8139 53.3375 36.4299 54.4625 35.3039 55.8465 35.3039L61.5695 35.3039C64.0565 35.3039 66.0785 33.2819 66.0785 30.7959 66.0785 28.3089 64.0565 26.2859 61.5695 26.2859L48.5895 26.2859C47.2065 26.2859 46.0805 25.1609 46.0805 23.7779 46.0805 22.3939 47.2065 21.2679 48.5895 21.2679L67.8865 21.2679C70.3725 21.2679 72.3955 19.2459 72.3955 16.7599 72.3955 14.3209 70.4245 12.3119 67.9895 12.2559 67.9555 12.2519 67.9205 12.2499 67.8865 12.2499L58.4435 12.2499C55.8995 12.2499 53.8295 10.1799 53.8295 7.6359 53.8295 5.0919 55.8995 3.0219 58.4435 3.0219L95.0705 3.0219C95.1465 3.0429 95.2265 3.0559 95.3065 3.0589 108.4715 3.5859 120.0605 11.3389 125.5495 23.2929 133.5515 40.7189 125.8855 61.4059 108.4595 69.4079M128.3855 24.8969C123.1315 10.9679 110.3475 1.7699 95.6685 1.0739 95.5665 1.0389 95.4595 1.0219 95.3515 1.0219L58.7395 1.0219C55.7705 1.0219 53.0245 2.8629 52.1325 5.6959 51.7635 6.8659 51.7565 7.9909 51.9805 9.0309 52.1355 9.7479 52.4105 10.4199 52.7775 11.0309 53.9365 12.9549 56.0395 14.2499 58.4435 14.2499L67.8315 14.2499C67.8755 14.2539 67.9205 14.2559 67.9665 14.2549 68.7055 14.2369 69.4525 14.5109 69.8645 15.1249 71.2105 17.1299 69.7935 19.2679 67.8865 19.2679L48.7905 19.2679C46.4375 19.2679 44.3315 20.9849 44.1035 23.3269 43.8415 26.0149 45.9545 28.2859 48.5895 28.2859L61.4215 28.2859C62.7335 28.2859 63.9325 29.2279 64.0655 30.5329 64.2195 32.0329 63.0405 33.3039 61.5695 33.3039L56.0475 33.3039C53.6935 33.3039 51.5875 35.0209 51.3585 37.3639 51.0975 40.0509 53.2115 42.3229 55.8465 42.3229 56.7685 42.3229 57.5295 43.0019 57.6825 43.9109 58.2185 47.1009 59.1715 50.1999 60.5275 53.1529 64.6265 62.0789 71.9565 68.8749 81.1675 72.2889 85.3315 73.8319 89.6545 74.5999 93.9665 74.5999 99.3925 74.5999 104.8015 73.3839 109.8535 70.9639 126.9225 62.7859 135.0645 42.6059 128.3855 24.8969"/>
      <path fill="#040405" d="M101.3736,54.0227 C97.0546,56.0077 92.2226,56.1897 87.7636,54.5377 C83.3056,52.8847 79.7586,49.5957 77.7736,45.2747 C73.6796,36.3547 77.6026,25.7647 86.5196,21.6687 C88.8876,20.5807 91.4086,20.0347 93.9376,20.0347 C96.0236,20.0347 98.1166,20.4067 100.1316,21.1537 C104.5896,22.8057 108.1366,26.0957 110.1206,30.4167 C114.2156,39.3367 110.2916,49.9257 101.3736,54.0227 M100.8266,19.2787 C95.8686,17.4407 90.4916,17.6437 85.6856,19.8507 C75.7666,24.4077 71.4016,36.1867 75.9566,46.1087 C78.1636,50.9157 82.1096,54.5747 87.0676,56.4127 C89.3096,57.2437 91.6366,57.6567 93.9576,57.6567 C96.7706,57.6567 99.5756,57.0497 102.2086,55.8397 C112.1286,51.2837 116.4926,39.5037 111.9376,29.5817 C109.7306,24.7757 105.7846,21.1167 100.8266,19.2787"/>
      <path fill="#B7C2CE" d="M100.272,28.2971 C99.969,27.7661 99.408,27.4391 98.8,27.4391 L88.865,27.4391 C88.257,27.4391 87.696,27.7661 87.392,28.2971 L82.424,36.9871 C82.121,37.5181 82.121,38.1721 82.424,38.7041 L87.392,47.3931 C87.696,47.9241 88.257,48.2521 88.865,48.2521 L98.8,48.2521 C99.408,48.2521 99.969,47.9241 100.272,47.3931 L105.241,38.7041 C105.544,38.1721 105.544,37.5181 105.241,36.9871 L100.272,28.2971 Z"/>
    </g>
    <rect width="140" height="96"/>
  </g>
</svg>
