<svg width="80" height="40" viewBox="0 0 80 40" fill="none" xmlns="http://www.w3.org/2000/svg">
<path d="M51 10.7317H59.9C62.7 10.7317 65 12.9756 65 15.7073V15.8049C65 17.8537 66.7 19.5122 68.7 19.5122C73.8 19.5122 77.9 23.5122 77.9 28.4878V40H51V10.7317Z" fill="#83DDC5"/>
<path d="M57 40H11C8.8 40 7 38.2439 7 36.0976V7.80488C7 5.65854 8.8 3.90244 11 3.90244H57C59.2 3.90244 61 5.65854 61 7.80488V36.0976C61 38.2439 59.2 40 57 40Z" fill="#D4E4FF"/>
<path d="M21 40H11C8.8 40 7 38.2439 7 36.0976V7.80488C7 5.65854 8.8 3.90244 11 3.90244H21V40Z" fill="#AEC7FF"/>
<path d="M52 14.6341H33C31.9 14.6341 31 13.7561 31 12.6829C31 11.6098 31.9 10.7317 33 10.7317H52C53.1 10.7317 54 11.6098 54 12.6829C54 13.7561 53.1 14.6341 52 14.6341Z" fill="#AEC7FF"/>
<path d="M27 14.6341C25.9 14.6341 25 13.7561 25 12.6829C25 11.6098 25.9 10.7317 27 10.7317C28.1 10.7317 29 11.6098 29 12.6829C29 13.7561 28.1 14.6341 27 14.6341Z" fill="#AEC7FF"/>
<path d="M52 23.4146H33C31.9 23.4146 31 22.5366 31 21.4634C31 20.3902 31.9 19.5122 33 19.5122H52C53.1 19.5122 54 20.3902 54 21.4634C54 22.5366 53.1 23.4146 52 23.4146Z" fill="#AEC7FF"/>
<path d="M27 23.4146C25.9 23.4146 25 22.5366 25 21.4634C25 20.3902 25.9 19.5122 27 19.5122C28.1 19.5122 29 20.3902 29 21.4634C29 22.5366 28.1 23.4146 27 23.4146Z" fill="#AEC7FF"/>
<path d="M52 32.1951H33C31.9 32.1951 31 31.3171 31 30.2439C31 29.1707 31.9 28.2927 33 28.2927H52C53.1 28.2927 54 29.1707 54 30.2439C54 31.3171 53.1 32.1951 52 32.1951Z" fill="#AEC7FF"/>
<path d="M27 32.1951C25.9 32.1951 25 31.3171 25 30.2439C25 29.1707 25.9 28.2927 27 28.2927C28.1 28.2927 29 29.1707 29 30.2439C29 31.3171 28.1 32.1951 27 32.1951Z" fill="#AEC7FF"/>
<path d="M14 14.6341C12.3 14.6341 11 13.3659 11 11.7073C11 10.0488 12.3 8.78049 14 8.78049C15.7 8.78049 17 10.0488 17 11.7073C17 13.3659 15.7 14.6341 14 14.6341Z" fill="#7196FF"/>
<path d="M14 24.3902C12.3 24.3902 11 23.1219 11 21.4634C11 19.8049 12.3 18.5366 14 18.5366C15.7 18.5366 17 19.8049 17 21.4634C17 23.1219 15.7 24.3902 14 24.3902Z" fill="#7196FF"/>
<path d="M14 34.1463C12.3 34.1463 11 32.878 11 31.2195C11 29.561 12.3 28.2927 14 28.2927C15.7 28.2927 17 29.561 17 31.2195C17 32.878 15.7 34.1463 14 34.1463Z" fill="#7196FF"/>
<path d="M38 31.2195C38 36.0976 42 40 47 40C50.9 40 54.2 37.561 55.5 34.1463C56.7 37.561 60.1 40 64 40C67.9 40 71.2 37.561 72.5 34.1463H76V40H80V30.2439H72.9C72.4 25.8537 68.6 22.439 64 22.439C60.1 22.439 56.7 24.878 55.5 28.3902C54.3 24.878 50.9 22.439 47 22.439C42 22.439 38 26.3415 38 31.2195ZM48.7 36.7805C48.2 36.9756 47.6 37.0732 47 37.0732C46.8 37.0732 46.6 37.0732 46.5 37.0732C45.9 36.9756 45.2 36.878 44.7 36.5854C43.7 36.1951 42.9 35.5122 42.3 34.7317C41.6 33.7561 41.1 32.5854 41.1 31.2195C41.1 28 43.8 25.3659 47.1 25.3659C48.5 25.3659 49.8 25.8537 50.9 26.6341C51.7 27.2195 52.3 28.0976 52.7 28.9756C52.9 29.4634 53 29.9512 53.1 30.439C53.1 30.6341 53.2 30.9268 53.2 31.2195C53.2 31.5122 53.2 31.8049 53.1 32C52.6 34.3415 50.9 36.1951 48.7 36.7805ZM68.1 26.9268C68.9 27.6098 69.5 28.5854 69.8 29.561C70 30.0488 70 30.6341 70 31.2195C70 34.439 67.3 37.0732 64 37.0732C63.4 37.0732 62.9 36.9756 62.3 36.878C61.3 36.5854 60.5 36.0976 59.8 35.4146C58.7 34.3415 58 32.878 58 31.2195C58 28 60.7 25.3659 64 25.3659C65.6 25.3659 67 25.9512 68.1 26.9268Z" fill="#3E70DD"/>
<path d="M58 31.2195C58 32.878 58.7 34.3415 59.8 35.4146C60 34.9268 60.4 34.439 61.1 33.7561C62.9 32 63.7 32.6829 65.5 30.8293C67.2 29.1707 66.7 28.4878 68.1 26.9268C67 25.9512 65.6 25.3659 64 25.3659C60.7 25.3659 58 28 58 31.2195Z" fill="#7196FF"/>
<path d="M67.6 32.878C65.8 34.6341 65.0001 33.9512 63.2001 35.8049C62.8001 36.1951 62.5 36.4878 62.3 36.878C62.8 37.0732 63.4 37.0732 64 37.0732C67.3 37.0732 70 34.439 70 31.2195C70 30.6341 69.9001 30.1463 69.8001 29.561C68.9001 30.7317 69.1 31.5122 67.6 32.878Z" fill="#7196FF"/>
<path d="M65.5 30.8293C63.7 32.5854 62.9 31.9024 61.1 33.7561C60.4 34.439 60.1 34.9268 59.8 35.4146C60.5 36.0976 61.4 36.5854 62.3 36.878C62.5 36.5854 62.8001 36.1951 63.2001 35.8049C65.0001 34.0488 65.8 34.7317 67.6 32.878C69.1 31.4146 68.9 30.7317 69.7 29.561C69.4 28.4878 68.8 27.6098 68 26.9268C66.7 28.4878 67.2 29.1707 65.5 30.8293Z" fill="white"/>
<path d="M46.7 29.2683C48.4 27.6098 49.2 28.0976 50.8 26.6341C49.8 25.8537 48.5 25.3659 47 25.3659C43.7 25.3659 41 28 41 31.2195C41 32.4878 41.4 33.7561 42.2 34.7317C42.6 34.5366 43.1 34.1463 43.7 33.561C45.5 31.8049 44.8 31.0244 46.7 29.2683Z" fill="#7196FF"/>
<path d="M49.9 32.3902C51.2 31.122 52 31.122 53 30.5366C52.9 30.0488 52.7999 29.561 52.5999 29.0732C51.1999 30.1463 50.5 29.8537 48.9 31.4146C47.1 33.1707 47.8 33.9512 45.9 35.7073C45.4 36.1951 45 36.4878 44.7 36.6829C45.3 36.878 45.9 37.0732 46.5 37.1707C46.6 37.0732 46.8 36.9756 46.9 36.7805C48.7 34.8293 48 34.1463 49.9 32.3902Z" fill="#7196FF"/>
<path d="M51 33.3659C49.5 34.8293 49.7 35.6098 48.8 36.7805C51 36.0976 52.7 34.2439 53 32C52.4 32.2927 51.8 32.5854 51 33.3659Z" fill="#7196FF"/>
<path d="M48.8 31.3171C50.4 29.7561 51.1 30.0488 52.5 28.9756C52.1 28.0976 51.5 27.2195 50.7 26.6341C49.1 28.0976 48.4 27.5122 46.6 29.2683C44.8 31.0244 45.5 31.8049 43.6 33.561C43 34.1463 42.5 34.439 42.1 34.7317C42.7 35.5122 43.6 36.1951 44.5 36.5854C44.9 36.3902 45.3 36.0976 45.7 35.6098C47.7 33.8537 47 33.0732 48.8 31.3171Z" fill="white"/>
<path d="M51 33.3659C51.8 32.5854 52.4 32.2927 53 32C53 31.7073 53.1 31.5122 53.1 31.2195C53.1 30.9268 53.1 30.7317 53 30.439C52 31.0244 51.3 31.0244 49.9 32.2927C48.1 34.0488 48.7 34.7317 46.9 36.5854C46.8 36.6829 46.6 36.8781 46.5 36.9756C46.7 36.9756 46.9 36.9756 47 36.9756C47.6 36.9756 48.2 36.878 48.7 36.6829C49.6 35.6098 49.4 34.9268 51 33.3659Z" fill="white"/>
<path d="M0 40V25.8537C0 24 1.6 22.439 3.5 22.439C5.4 22.439 7 24 7 25.8537V28.2927C7 29.6585 8.1 30.7317 9.5 30.7317C13.6 30.7317 17 34.0488 17 38.0488V40H0Z" fill="#83DDC5"/>
<path d="M5.99999 36L5.39999 37.2683C5.29999 37.561 5.59999 37.8537 5.89999 37.7561L7.19999 37.1707C7.29999 37.1707 7.39999 37.1707 7.49999 37.1707L8.79999 37.7561C9.09999 37.8537 9.39999 37.561 9.29999 37.2683L8.69999 36C8.69999 35.9024 8.69999 35.8049 8.69999 35.7073L9.29999 34.439C9.39999 34.1463 9.09999 33.8537 8.79999 33.9512L7.49999 34.5366C7.39999 34.5366 7.29999 34.5366 7.19999 34.5366L5.89999 33.9512C5.59999 33.8537 5.29999 34.1463 5.39999 34.439L5.99999 35.7073C5.99999 35.8049 5.99999 35.9024 5.99999 36Z" fill="white"/>
<path d="M77 3.90244H73V0H69V3.90244H65V7.80488H69V11.7073H73V7.80488H77V3.90244Z" fill="#FF9A15"/>
</svg>
