<svg xmlns="http://www.w3.org/2000/svg" width="140" height="96" viewBox="0 0 140 96">
  <g fill="none" fill-rule="evenodd">
    <g transform="translate(5 8)">
      <path fill="#4F545C" d="M34.2335 12.4912C39.2045 16.7092 45.5175 19.2202 52.4935 19.7542 52.8395 19.7802 53.1965 19.7942 53.5615 19.7942 57.3815 19.7942 62.0375 18.3452 64.3355 15.3322 64.9305 14.5522 65.3415 13.6982 65.5585 12.7972 65.8485 11.5872 65.4315 10.3362 64.4685 9.5332 63.5025 8.7272 62.1915 8.5412 61.0505 9.0472 58.7315 10.0732 56.8235 10.7212 55.4555 10.9292 55.2075 10.9292 55.0005 10.7522 54.9625 10.5072 54.9195 10.2352 55.1065 9.9782 55.3785 9.9352 57.1615 9.6562 58.8845 9.1552 60.4995 8.4462 61.5215 7.9972 62.1575 7.0252 62.1575 5.9112 62.1585 4.8072 61.5295 3.8452 60.4785 3.3822 57.9135 2.2602 54.7475 2.2202 52.2535 3.2802 50.9045 3.8532 49.6745 4.6072 48.3725 5.4062 47.6895 5.8242 47.0065 6.2432 46.3095 6.6322 43.9845 7.9282 41.4895 8.9022 38.8915 9.5282 37.9975 9.7442 37.0875 9.9182 36.1905 10.0462L36.0385 10.0672C35.3795 10.1602 34.7585 10.2482 34.2615 10.5542 33.8365 10.8152 33.4815 11.3742 33.6505 11.8212 33.7425 12.0622 33.9785 12.2752 34.2335 12.4912M7.0001 26.0615C3.9671 26.0615 1.5001 28.5285 1.5001 31.5615L1.5001 43.8115C1.5001 46.8435 3.9671 49.3115 7.0001 49.3115 8.9301 49.3115 10.5001 47.7415 10.5001 45.8115L10.5001 29.5615C10.5001 27.6315 8.9301 26.0615 7.0001 26.0615M91.0001 26.0615C89.0701 26.0615 87.5001 27.6315 87.5001 29.5615L87.5001 45.8115C87.5001 47.7415 89.0701 49.3115 91.0001 49.3115 94.0321 49.3115 96.5001 46.8435 96.5001 43.8115L96.5001 31.5615C96.5001 28.5285 94.0321 26.0615 91.0001 26.0615"/>
      <path fill="#4F545C" d="M73.0001,11.9297 L72.8051,11.9297 C69.8521,11.9297 67.0631,13.3787 65.1311,15.9377 C62.3971,19.5227 57.1971,20.7937 53.5751,20.7937 C53.1781,20.7937 52.7901,20.7807 52.4161,20.7507 C45.2291,20.2007 38.7181,17.6087 33.5781,13.2477 C32.5781,12.3977 31.3271,11.9297 30.0551,11.9297 L25.0001,11.9297 C17.5561,11.9297 11.5001,17.9867 11.5001,25.4297 L11.5001,51.6307 C11.5001,59.0747 17.5561,65.1307 25.0001,65.1307 L73.0001,65.1307 C80.4431,65.1307 86.5001,59.0747 86.5001,51.6307 L86.5001,25.4297 C86.5001,17.9867 80.4431,11.9297 73.0001,11.9297"/>
      <path fill="#202225" d="M34.5235,10.9795 C34.9315,10.7285 35.5035,10.6475 36.1095,10.5625 L36.2605,10.5415 C37.1745,10.4105 38.0995,10.2335 39.0085,10.0145 L39.0095,10.0145 C41.6505,9.3775 44.1885,8.3865 46.5525,7.0685 C47.2565,6.6765 47.9455,6.2545 48.6325,5.8325 C49.9195,5.0435 51.1335,4.2995 52.4485,3.7415 C53.6175,3.2445 54.9055,2.9975 56.2065,2.9975 C57.5925,2.9975 58.9945,3.2785 60.2775,3.8405 L60.3165,3.8575 C62.1175,4.6495 62.0985,7.1975 60.2975,7.9885 C58.7365,8.6745 57.0575,9.1665 55.3005,9.4415 C54.7555,9.5275 54.3825,10.0395 54.4675,10.5835 C54.5445,11.0785 54.9705,11.4295 55.4555,11.4295 C55.5055,11.4295 55.5585,11.4255 55.6115,11.4175 C57.2375,11.1635 59.4425,10.3045 61.2535,9.5045 C63.3395,8.5825 65.6045,10.4615 65.0725,12.6805 C64.8725,13.5155 64.4935,14.2995 63.9375,15.0285 C61.5255,18.1925 56.3755,19.5475 52.5305,19.2555 C45.6615,18.7295 39.4465,16.2585 34.5565,12.1105 C34.4125,11.9885 34.1705,11.7835 34.1175,11.6435 C34.0605,11.4925 34.2365,11.1565 34.5235,10.9795 L34.5235,10.9795 Z M2.0005,43.8115 L2.0005,31.5615 C2.0005,28.8005 4.2385,26.5615 7.0005,26.5615 C8.6575,26.5615 10.0005,27.9045 10.0005,29.5615 L10.0005,45.8115 C10.0005,47.4685 8.6575,48.8115 7.0005,48.8115 C4.2385,48.8115 2.0005,46.5725 2.0005,43.8115 L2.0005,43.8115 Z M12.0005,51.6305 L12.0005,25.4305 C12.0005,18.2505 17.8205,12.4305 25.0005,12.4305 L30.0545,12.4305 C31.2305,12.4305 32.3585,12.8675 33.2535,13.6285 L33.2625,13.6355 C38.4755,18.0585 45.0865,20.6915 52.3775,21.2505 C52.7645,21.2795 53.1655,21.2945 53.5755,21.2945 C57.6785,21.2945 62.8215,19.7915 65.5285,16.2415 C65.5375,16.2295 65.5455,16.2185 65.5545,16.2065 C67.2945,13.9005 69.9165,12.4305 72.8045,12.4305 L73.0005,12.4305 C80.1795,12.4305 86.0005,18.2505 86.0005,25.4305 L86.0005,51.6305 C86.0005,58.8105 80.1795,64.6305 73.0005,64.6305 L25.0005,64.6305 C17.8205,64.6305 12.0005,58.8105 12.0005,51.6305 L12.0005,51.6305 Z M96.0005,43.8115 C96.0005,46.5725 93.7615,48.8115 91.0005,48.8115 C89.3425,48.8115 88.0005,47.4685 88.0005,45.8115 L88.0005,29.5615 C88.0005,27.9045 89.3425,26.5615 91.0005,26.5615 C93.7615,26.5615 96.0005,28.8005 96.0005,31.5615 L96.0005,43.8115 Z M91.0005,24.5615 L88.7045,24.5615 C88.2805,24.5615 87.9395,24.2355 87.8945,23.8145 C87.0855,16.3025 80.7235,10.4305 73.0005,10.4305 L70.2585,10.4305 C68.5935,10.4305 67.1665,9.3395 66.6075,7.7705 C66.6045,7.7615 66.6005,7.7525 66.5975,7.7435 C66.4665,7.3795 66.3095,7.0295 66.1365,6.6875 C67.0575,5.9085 67.9085,5.0525 68.6695,4.1175 C69.0175,3.6895 68.9535,3.0585 68.5245,2.7105 C68.0965,2.3655 67.4665,2.4295 67.1185,2.8555 C66.4905,3.6275 65.7865,4.3325 65.0355,4.9865 C64.0185,3.7295 62.6765,2.7065 61.0795,2.0075 C58.0965,0.7035 54.5785,0.6635 51.6665,1.9005 C50.2145,2.5165 48.8785,3.3355 47.5875,4.1275 C46.9225,4.5355 46.2575,4.9425 45.5795,5.3215 C43.3735,6.5515 41.0055,7.4765 38.5415,8.0705 C37.6925,8.2745 36.8305,8.4395 35.9785,8.5615 L35.8315,8.5825 C35.0855,8.6875 34.2395,8.8065 33.4755,9.2765 C33.0475,9.5395 32.6675,9.9505 32.4145,10.4305 L25.0005,10.4305 C17.2765,10.4305 10.9155,16.3025 10.1055,23.8145 C10.0605,24.2355 9.7185,24.5615 9.2945,24.5615 L7.0005,24.5615 C3.1335,24.5615 0.0005,27.6955 0.0005,31.5615 L0.0005,43.8115 C0.0005,47.6775 3.1335,50.8115 7.0005,50.8115 L9.1805,50.8115 C9.6325,50.8115 10.0005,51.1785 10.0005,51.6305 C10.0005,59.9155 16.7155,66.6305 25.0005,66.6305 L73.0005,66.6305 C81.2845,66.6305 88.0005,59.9155 88.0005,51.6305 C88.0005,51.1785 88.3675,50.8115 88.8195,50.8115 L91.0005,50.8115 C94.8665,50.8115 98.0005,47.6775 98.0005,43.8115 L98.0005,31.5615 C98.0005,27.6955 94.8665,24.5615 91.0005,24.5615 L91.0005,24.5615 Z"/>
      <path fill="#72767D" d="M40.2237 12.4912C45.1947 16.7092 51.5087 19.2202 58.4837 19.7542 58.8297 19.7802 59.1877 19.7942 59.5517 19.7942 63.3727 19.7942 68.0277 18.3452 70.3267 15.3322 70.9207 14.5522 71.3327 13.6982 71.5497 12.7972 71.8397 11.5872 71.4217 10.3362 70.4597 9.5332 69.4937 8.7272 68.1827 8.5412 67.0417 9.0472 64.7217 10.0732 62.8147 10.7212 61.4457 10.9292 61.1987 10.9292 60.9907 10.7522 60.9527 10.5072 60.9107 10.2352 61.0967 9.9782 61.3697 9.9352 63.1527 9.6562 64.8747 9.1552 66.4897 8.4462 67.5127 7.9972 68.1487 7.0252 68.1487 5.9112 68.1487 4.8072 67.5207 3.8452 66.4687 3.3822 63.9047 2.2602 60.7387 2.2202 58.2437 3.2802 56.8947 3.8532 55.6647 4.6072 54.3627 5.4062 53.6807 5.8242 52.9977 6.2432 52.2997 6.6322 49.9757 7.9282 47.4797 8.9022 44.8827 9.5282 43.9877 9.7442 43.0787 9.9182 42.1817 10.0462L42.0287 10.0672C41.3707 10.1602 40.7487 10.2482 40.2527 10.5542L40.2517 10.5542C39.8277 10.8152 39.4717 11.3742 39.6407 11.8212 39.7337 12.0622 39.9697 12.2752 40.2237 12.4912M12.9903 26.0615C9.9583 26.0615 7.4903 28.5285 7.4903 31.5615L7.4903 43.8115C7.4903 46.8435 9.9583 49.3115 12.9903 49.3115 14.9203 49.3115 16.4903 47.7415 16.4903 45.8115L16.4903 29.5615C16.4903 27.6315 14.9203 26.0615 12.9903 26.0615M96.9903 26.0615C95.0603 26.0615 93.4903 27.6315 93.4903 29.5615L93.4903 45.8115C93.4903 47.7415 95.0603 49.3115 96.9903 49.3115 100.0233 49.3115 102.4903 46.8435 102.4903 43.8115L102.4903 31.5615C102.4903 28.5285 100.0233 26.0615 96.9903 26.0615"/>
      <path fill="#72767D" d="M78.9903,11.9297 L78.7963,11.9297 C75.8423,11.9297 73.0533,13.3787 71.1213,15.9377 C68.3883,19.5227 63.1883,20.7937 59.5663,20.7937 C59.1693,20.7937 58.7813,20.7807 58.4073,20.7507 C51.2203,20.2007 44.7093,17.6087 39.5683,13.2477 C38.5693,12.3977 37.3173,11.9297 36.0453,11.9297 L30.9903,11.9297 C23.5473,11.9297 17.4903,17.9867 17.4903,25.4297 L17.4903,51.6307 C17.4903,59.0747 23.5473,65.1307 30.9903,65.1307 L78.9903,65.1307 C86.4343,65.1307 92.4903,59.0747 92.4903,51.6307 L92.4903,25.4297 C92.4903,17.9867 86.4343,11.9297 78.9903,11.9297"/>
      <path fill="#202225" d="M40.5148,10.9795 C40.9228,10.7285 41.4948,10.6475 42.1008,10.5625 L42.2518,10.5415 C43.1658,10.4105 44.0908,10.2335 44.9998,10.0145 L45.0008,10.0145 C47.6418,9.3775 50.1798,8.3865 52.5438,7.0685 C53.2478,6.6765 53.9368,6.2545 54.6238,5.8325 C55.9108,5.0435 57.1248,4.2995 58.4398,3.7415 C59.6088,3.2445 60.8968,2.9975 62.1978,2.9975 C63.5838,2.9975 64.9858,3.2785 66.2688,3.8405 L66.3078,3.8575 C68.1088,4.6495 68.0898,7.1975 66.2888,7.9885 C64.7268,8.6745 63.0488,9.1665 61.2918,9.4415 C60.7468,9.5275 60.3738,10.0395 60.4588,10.5835 C60.5358,11.0785 60.9618,11.4295 61.4468,11.4295 C61.4968,11.4295 61.5498,11.4255 61.6028,11.4175 C63.2288,11.1635 65.4338,10.3045 67.2438,9.5045 C69.3308,8.5825 71.5958,10.4615 71.0638,12.6805 C70.8628,13.5155 70.4848,14.2995 69.9288,15.0285 C67.5168,18.1925 62.3668,19.5475 58.5218,19.2555 C51.6528,18.7295 45.4378,16.2585 40.5478,12.1105 C40.4038,11.9885 40.1618,11.7835 40.1088,11.6435 C40.0518,11.4925 40.2278,11.1565 40.5148,10.9795 L40.5148,10.9795 Z M7.9918,43.8115 L7.9918,31.5615 C7.9918,28.8005 10.2298,26.5615 12.9918,26.5615 C14.6478,26.5615 15.9918,27.9045 15.9918,29.5615 L15.9918,45.8115 C15.9918,47.4685 14.6478,48.8115 12.9918,48.8115 C10.2298,48.8115 7.9918,46.5725 7.9918,43.8115 L7.9918,43.8115 Z M17.9918,51.6305 L17.9918,25.4305 C17.9918,18.2505 23.8118,12.4305 30.9918,12.4305 L36.0448,12.4305 C37.2208,12.4305 38.3488,12.8675 39.2448,13.6285 L39.2538,13.6355 C44.4668,18.0585 51.0778,20.6915 58.3688,21.2505 C58.7558,21.2795 59.1568,21.2945 59.5668,21.2945 C63.6698,21.2945 68.8128,19.7915 71.5198,16.2415 C71.5288,16.2295 71.5368,16.2185 71.5458,16.2065 C73.2858,13.9005 75.9078,12.4305 78.7958,12.4305 L78.9918,12.4305 C86.1708,12.4305 91.9918,18.2505 91.9918,25.4305 L91.9918,51.6305 C91.9918,58.8105 86.1708,64.6305 78.9918,64.6305 L30.9918,64.6305 C23.8118,64.6305 17.9918,58.8105 17.9918,51.6305 L17.9918,51.6305 Z M101.9918,43.8115 C101.9918,46.5725 99.7518,48.8115 96.9918,48.8115 C95.3338,48.8115 93.9918,47.4685 93.9918,45.8115 L93.9918,29.5615 C93.9918,27.9045 95.3338,26.5615 96.9918,26.5615 C99.7518,26.5615 101.9918,28.8005 101.9918,31.5615 L101.9918,43.8115 Z M96.9918,24.5615 L94.6958,24.5615 C94.2718,24.5615 93.9308,24.2355 93.8848,23.8145 C93.0758,16.3025 86.7138,10.4305 78.9918,10.4305 L76.2498,10.4305 C74.5838,10.4305 73.1568,9.3395 72.5988,7.7705 C72.5948,7.7615 72.5918,7.7525 72.5888,7.7435 C72.4578,7.3795 72.3008,7.0295 72.1278,6.6875 C73.0488,5.9085 73.8998,5.0525 74.6608,4.1175 C75.0088,3.6895 74.9448,3.0585 74.5158,2.7105 C74.0878,2.3655 73.4578,2.4295 73.1098,2.8555 C72.4818,3.6275 71.7778,4.3325 71.0268,4.9865 C70.0088,3.7295 68.6678,2.7065 67.0708,2.0075 C64.0878,0.7035 60.5698,0.6635 57.6578,1.9005 C56.2058,2.5165 54.8698,3.3355 53.5788,4.1275 C52.9138,4.5355 52.2488,4.9425 51.5708,5.3215 C49.3648,6.5515 46.9968,7.4765 44.5328,8.0705 C43.6838,8.2745 42.8218,8.4395 41.9698,8.5615 L41.8228,8.5825 C41.0768,8.6875 40.2308,8.8065 39.4668,9.2765 C39.0388,9.5395 38.6588,9.9505 38.4058,10.4305 L30.9918,10.4305 C23.2678,10.4305 16.9068,16.3025 16.0968,23.8145 C16.0508,24.2355 15.7098,24.5615 15.2858,24.5615 L12.9918,24.5615 C9.1248,24.5615 5.9918,27.6955 5.9918,31.5615 L5.9918,43.8115 C5.9918,47.6775 9.1248,50.8115 12.9918,50.8115 L15.1718,50.8115 C15.6238,50.8115 15.9918,51.1785 15.9918,51.6305 C15.9918,59.9155 22.7058,66.6305 30.9918,66.6305 L78.9918,66.6305 C87.2758,66.6305 93.9918,59.9155 93.9918,51.6305 C93.9918,51.1785 94.3578,50.8115 94.8108,50.8115 L96.9918,50.8115 C100.8568,50.8115 103.9918,47.6775 103.9918,43.8115 L103.9918,31.5615 C103.9918,27.6955 100.8568,24.5615 96.9918,24.5615 L96.9918,24.5615 Z"/>
      <path fill="#8BA4E8" d="M106.6046 24.5923C106.4026 24.5713 106.1986 24.5613 105.9916 24.5613L102.9916 22.5613 102.9916 50.8113 105.9916 48.8113C106.1986 48.8113 106.4026 48.8003 106.6046 48.7803 108.2176 48.6163 109.6426 47.8133 110.6216 46.6283 111.4766 45.5913 111.9916 44.2613 111.9916 42.8113L111.9916 30.5613C111.9916 29.1113 111.4766 27.7813 110.6216 26.7443 109.6426 25.5593 108.2176 24.7563 106.6046 24.5923M21.9913 24.5615C18.6773 24.5615 15.9913 27.2475 15.9913 30.5615L15.9913 42.8115C15.9913 46.1245 18.6773 48.8115 21.9913 48.8115L24.9913 50.8115 24.9913 22.5615 21.9913 24.5615z"/>
      <path fill="#AABFF2" d="M38.4913,34.3115 C38.4913,35.7125 37.3763,36.8275 36.0063,36.8275 L35.9753,36.8275 C34.6053,36.8275 33.4913,35.7125 33.4913,34.3425 C33.4913,32.9415 34.6053,31.8275 35.9753,31.8275 C37.3763,31.8275 38.4913,32.9415 38.4913,34.3115 M83.1593,31.9835 L83.1593,36.1625 C83.1593,44.4735 76.3973,51.2335 68.0883,51.2335 L60.2303,51.2335 C51.9203,51.2335 45.1593,44.4735 45.1593,36.1625 L45.1593,31.9835 C45.1593,29.2275 47.4013,26.9835 50.1593,26.9835 L78.1593,26.9835 C80.9163,26.9835 83.1593,29.2275 83.1593,31.9835 M65.9913,57.5245 C65.9913,57.8165 65.7633,58.0445 65.4843,58.0445 L62.4973,58.0445 C62.2183,58.0445 61.9913,57.8165 61.9913,57.5375 C61.9913,57.2445 62.2183,57.0175 62.4973,57.0175 L65.4843,57.0175 C65.7633,57.0175 65.9913,57.2445 65.9913,57.5245 M89.4913,34.3585 L89.4913,34.2955 C89.4913,32.9175 90.6123,31.7955 91.9913,31.7955 C93.3693,31.7955 94.4913,32.9175 94.4913,34.2955 L94.4913,34.3585 C94.4913,35.7365 93.3693,36.8585 91.9913,36.8585 C90.6123,36.8585 89.4913,35.7365 89.4913,34.3585 M87.9913,9.4295 L82.2163,9.4295 L81.2403,9.4295 L81.2173,10.4055 C81.1783,11.9635 80.6763,13.3865 79.7233,14.6355 C77.1013,18.0745 72.0753,19.2945 68.5673,19.2945 C68.1843,19.2945 67.8073,19.2805 67.4453,19.2525 C60.3643,18.7105 53.9523,16.1585 48.9003,11.8735 C48.6543,11.6645 48.3183,11.3785 48.1743,10.9985 C48.1123,10.8375 48.0893,10.6745 48.1003,10.4995 L48.1763,9.4295 L47.1033,9.4295 L39.9913,9.4295 C31.7203,9.4295 24.9913,16.1595 24.9913,24.4295 L24.9913,24.5615 L24.9913,48.8115 L24.9913,50.6305 C24.9913,58.9015 31.7203,65.6305 39.9913,65.6305 L87.9913,65.6305 C90.1033,65.6305 92.1473,65.1995 94.0643,64.3475 C94.4323,64.1845 94.8003,64.0025 95.1543,63.8095 C95.8573,63.4255 96.5363,62.9815 97.1723,62.4885 C98.0143,61.8335 98.7903,61.0875 99.4773,60.2695 C99.5543,60.1785 99.6273,60.0835 99.7003,59.9895 L99.7833,59.8815 C100.1753,59.3835 100.5463,58.8405 100.8863,58.2675 C101.3873,57.4225 101.8063,56.5235 102.1333,55.5965 C102.7023,53.9745 102.9913,52.3045 102.9913,50.6305 L102.9913,48.8115 L102.9913,24.5615 L102.9913,24.4295 C102.9913,16.1595 96.2623,9.4295 87.9913,9.4295"/>
      <path fill="#CBDAF7" d="M73.1593,44.1695 C73.1593,45.0015 72.4843,45.6755 71.6523,45.6755 L68.6653,45.6755 C67.8333,45.6755 67.1593,45.0015 67.1593,44.1695 L67.1593,44.1555 C67.1593,43.3235 67.8333,42.6495 68.6653,42.6495 L71.6523,42.6495 C72.4843,42.6495 73.1593,43.3235 73.1593,44.1555 L73.1593,44.1695 Z M60.6593,44.1695 C60.6593,45.0015 59.9843,45.6755 59.1523,45.6755 L56.1653,45.6755 C55.3333,45.6755 54.6593,45.0015 54.6593,44.1695 L54.6593,44.1555 C54.6593,43.3235 55.3333,42.6495 56.1653,42.6495 L59.1523,42.6495 C59.9843,42.6495 60.6593,43.3235 60.6593,44.1555 L60.6593,44.1695 Z M78.1593,25.9835 L50.1593,25.9835 C46.8453,25.9835 44.1593,28.6705 44.1593,31.9835 L44.1593,36.1625 C44.1593,45.0385 51.3543,52.2335 60.2303,52.2335 L68.0883,52.2335 C76.9643,52.2335 84.1593,45.0385 84.1593,36.1625 L84.1593,31.9835 C84.1593,28.6705 81.4723,25.9835 78.1593,25.9835 L78.1593,25.9835 Z"/>
      <path fill="#AABFF2" d="M71.6525 42.6494L68.6655 42.6494C67.8335 42.6494 67.1595 43.3234 67.1595 44.1554L67.1595 44.1694C67.1595 45.0014 67.8335 45.6754 68.6655 45.6754L71.6525 45.6754C72.4845 45.6754 73.1595 45.0014 73.1595 44.1694L73.1595 44.1554C73.1595 43.3234 72.4845 42.6494 71.6525 42.6494M59.1525 42.6494L56.1655 42.6494C55.3335 42.6494 54.6595 43.3234 54.6595 44.1554L54.6595 44.1694C54.6595 45.0014 55.3335 45.6754 56.1655 45.6754L59.1525 45.6754C59.9845 45.6754 60.6595 45.0014 60.6595 44.1694L60.6595 44.1554C60.6595 43.3234 59.9845 42.6494 59.1525 42.6494"/>
      <path fill="#43B581" d="M49.547,11.1104 C54.438,15.2584 60.652,17.7294 67.522,18.2564 C71.365,18.5554 76.516,17.1934 78.928,14.0294 C80.349,12.1664 80.61,9.9414 79.705,7.4184 C79.647,7.2524 79.572,7.0934 79.501,6.9324 C76.915,8.7034 73.88,9.9044 70.602,10.4184 C70.549,10.4254 70.496,10.4294 70.445,10.4294 C69.961,10.4294 69.535,10.0784 69.458,9.5844 C69.373,9.0394 69.746,8.5274 70.291,8.4414 C73.309,7.9684 76.093,6.8574 78.454,5.2224 C77.637,4.2224 76.558,3.4034 75.269,2.8394 C72.782,1.7524 69.855,1.7144 67.439,2.7414 C66.126,3.2984 64.912,4.0424 63.628,4.8304 C62.939,5.2534 62.248,5.6744 61.543,6.0684 C59.18,7.3864 56.643,8.3784 54,9.0144 C53.098,9.2324 52.173,9.4094 51.253,9.5414 L51.101,9.5624 C50.494,9.6484 49.922,9.7284 49.514,9.9804 C49.227,10.1564 49.051,10.4924 49.108,10.6424 C49.161,10.7834 49.402,10.9884 49.547,11.1104"/>
      <path fill="#8BA4E8" d="M65.4845,56.0176 L62.4975,56.0176 C61.6655,56.0176 60.9915,56.6916 60.9915,57.5246 L60.9915,57.5376 C60.9915,58.3696 61.6655,59.0446 62.4975,59.0446 L65.4845,59.0446 C66.3165,59.0446 66.9915,58.3696 66.9915,57.5376 L66.9915,57.5246 C66.9915,56.6916 66.3165,56.0176 65.4845,56.0176"/>
      <path fill="#000000" d="M90.2433 30.6699C88.8303 31.2909 87.9913 32.7719 87.9913 34.3159L87.9913 34.3379C87.9913 35.8819 88.8303 37.3639 90.2433 37.9839 93.1493 39.2599 95.9913 37.1269 95.9913 34.3629L95.9913 34.2919C95.9913 31.5269 93.1493 29.3949 90.2433 30.6699M35.9913 30.3272L35.9913 30.3272C33.7913 30.3272 31.9913 32.1272 31.9913 34.3272 31.9913 36.5272 33.7913 38.3272 35.9913 38.3272 38.1903 38.3272 39.9913 36.5272 39.9913 34.3272 39.9913 32.1272 38.1903 30.3272 35.9913 30.3272"/>
      <path fill="#000000" d="M111.9913,42.8115 C111.9913,44.2615 111.4763,45.5905 110.6213,46.6275 C109.6423,47.8125 108.2183,48.6165 106.6043,48.7805 C106.4023,48.8005 106.1983,48.8115 105.9913,48.8115 L103.8103,48.8115 C102.8053,48.8115 101.9913,49.6255 101.9913,50.6305 C101.9913,52.2575 101.6993,53.8125 101.1893,55.2645 C100.8823,56.1395 100.4923,56.9715 100.0253,57.7565 C99.7143,58.2825 99.3723,58.7865 98.9973,59.2645 C98.9023,59.3855 98.8103,59.5085 98.7123,59.6265 C98.0693,60.3915 97.3473,61.0855 96.5583,61.6985 C95.9673,62.1575 95.3373,62.5705 94.6753,62.9315 C94.3443,63.1125 94.0053,63.2795 93.6583,63.4335 C91.9273,64.2035 90.0093,64.6305 87.9913,64.6305 L39.9913,64.6305 C32.2593,64.6305 25.9913,58.3625 25.9913,50.6305 C25.9913,49.6255 25.1763,48.8115 24.1713,48.8115 L21.9913,48.8115 C18.6773,48.8115 15.9913,46.1245 15.9913,42.8115 L15.9913,30.5615 C15.9913,27.2475 18.6773,24.5615 21.9913,24.5615 L24.3363,24.4845 C25.2463,24.4545 25.9773,23.7525 26.0793,22.8475 C26.8653,15.8605 32.7943,10.4295 39.9913,10.4295 L47.1033,10.4295 C47.0823,10.7335 47.1213,11.0445 47.2383,11.3535 C47.4743,11.9755 47.9623,12.3885 48.2533,12.6355 C53.4673,17.0585 60.0773,19.6915 67.3683,20.2495 C67.7563,20.2795 68.1563,20.2945 68.5673,20.2945 C72.6703,20.2945 77.8123,18.7905 80.5183,15.2425 C80.9893,14.6245 81.3613,13.9725 81.6363,13.2895 C82.3123,11.6055 83.8523,10.4295 85.6683,10.4295 L87.9913,10.4295 C95.1873,10.4295 101.1163,15.8605 101.9023,22.8475 C102.0043,23.7525 102.7353,24.4545 103.6453,24.4845 L105.9913,24.5615 C106.1983,24.5615 106.4023,24.5715 106.6043,24.5925 C108.2183,24.7565 109.6423,25.5595 110.6213,26.7445 C111.4763,27.7815 111.9913,29.1115 111.9913,30.5615 L111.9913,42.8115 Z M49.5133,9.9805 C49.9223,9.7285 50.4943,9.6485 51.1003,9.5625 L51.2533,9.5405 C52.1733,9.4095 53.0973,9.2325 54.0003,9.0145 C56.6423,8.3775 59.1793,7.3865 61.5433,6.0685 C62.2483,5.6745 62.9383,5.2525 63.6283,4.8305 C64.9123,4.0415 66.1263,3.2985 67.4383,2.7415 C69.8543,1.7145 72.7823,1.7515 75.2683,2.8395 L75.3073,2.8565 C77.1083,3.6495 77.0903,6.1965 75.2883,6.9885 C73.7263,7.6745 72.0493,8.1655 70.2913,8.4415 C69.7463,8.5275 69.3733,9.0395 69.4583,9.5835 C69.5353,10.0785 69.9613,10.4295 70.4453,10.4295 C70.4963,10.4295 70.5493,10.4255 70.6013,10.4175 C72.1583,10.1745 73.6603,9.7755 75.0853,9.2345 C77.7963,8.2045 80.5413,11.1225 79.1583,13.6715 C79.0893,13.7995 79.0123,13.9185 78.9283,14.0295 C76.5153,17.1935 71.3653,18.5555 67.5213,18.2555 C60.6523,17.7295 54.4373,15.2585 49.5473,11.1105 C49.4023,10.9885 49.1613,10.7835 49.1073,10.6425 C49.0513,10.4925 49.2263,10.1565 49.5133,9.9805 L49.5133,9.9805 Z M105.9913,22.5615 L105.6913,22.5615 C104.6733,22.5615 103.8143,21.8445 103.5873,20.8525 C101.9583,13.7465 95.5833,8.4295 87.9913,8.4295 L83.8903,8.4295 C82.8443,8.4295 81.9463,7.7465 81.5953,6.7605 C81.5933,6.7545 81.5913,6.7485 81.5883,6.7435 C81.4583,6.3795 81.3003,6.0295 81.1283,5.6875 C82.0483,4.9085 82.8993,4.0525 83.6593,3.1175 C84.0083,2.6895 83.9433,2.0585 83.5143,1.7105 C83.0873,1.3655 82.4573,1.4295 82.1083,1.8555 C81.4803,2.6275 80.7773,3.3325 80.0263,3.9865 C79.0093,2.7295 77.6683,1.7065 76.0703,1.0075 C73.0883,-0.2955 69.5693,-0.3375 66.6563,0.9005 C65.2073,1.5155 63.8733,2.3335 62.5823,3.1245 C61.9163,3.5335 61.2503,3.9415 60.5683,4.3225 C58.3643,5.5515 55.9973,6.4765 53.5313,7.0705 C52.6893,7.2735 51.8273,7.4385 50.9693,7.5615 L50.8213,7.5825 C50.0753,7.6875 49.2303,7.8065 48.4663,8.2765 C48.3933,8.3215 48.3253,8.3775 48.2553,8.4295 L39.9913,8.4295 C32.3983,8.4295 26.0233,13.7465 24.3943,20.8525 C24.1673,21.8445 23.3083,22.5615 22.2903,22.5615 L21.9913,22.5615 C17.5723,22.5615 13.9913,26.1435 13.9913,30.5615 L13.9913,42.8115 C13.9913,47.2295 17.5723,50.8115 21.9913,50.8115 C23.0893,50.8115 23.9843,51.6405 24.1283,52.7285 C25.1583,60.5635 31.8793,66.6305 39.9913,66.6305 L87.9913,66.6305 C96.1023,66.6305 102.8233,60.5635 103.8533,52.7285 C103.9973,51.6405 104.8923,50.8115 105.9913,50.8115 C110.4093,50.8115 113.9913,47.2295 113.9913,42.8115 L113.9913,30.5615 C113.9913,26.1435 110.4093,22.5615 105.9913,22.5615 L105.9913,22.5615 Z"/>
      <path fill="#FFFFFF" d="M76.5958 75.1358L76.5958 75.1358C75.5268 75.1358 74.6588 74.2688 74.6588 73.1988L74.6588 73.1988C74.6588 72.9218 74.4358 72.6978 74.1588 72.6978 73.8828 72.6978 73.6588 72.9218 73.6588 73.1988L73.6588 73.1988C73.6588 74.2688 72.7918 75.1358 71.7218 75.1358 71.4458 75.1358 71.2218 75.3598 71.2218 75.6358 71.2218 75.9118 71.4458 76.1358 71.7218 76.1358 72.7918 76.1358 73.6588 77.0028 73.6588 78.0728 73.6588 78.3488 73.8828 78.5728 74.1588 78.5728 74.4358 78.5728 74.6588 78.3488 74.6588 78.0728 74.6588 77.0028 75.5268 76.1358 76.5958 76.1358 76.8718 76.1358 77.0958 75.9118 77.0958 75.6358 77.0958 75.3598 76.8718 75.1358 76.5958 75.1358M118.7491 10.4502C118.8951 10.4502 119.0411 10.3862 119.1401 10.2632L120.0701 9.1042C120.2431 8.8892 120.2091 8.5752 119.9941 8.4022 119.7781 8.2292 119.4651 8.2632 119.2911 8.4782L118.3601 9.6372C118.1871 9.8522 118.2221 10.1672 118.4371 10.3402 118.5291 10.4142 118.6401 10.4502 118.7491 10.4502M114.6056 13.3198L113.6736 14.4788C113.5016 14.6938 113.5356 15.0078 113.7516 15.1808 113.8426 15.2558 113.9536 15.2918 114.0636 15.2918 114.2096 15.2918 114.3546 15.2278 114.4536 15.1048L115.3846 13.9458C115.5576 13.7308 115.5236 13.4158 115.3076 13.2428 115.0926 13.0708 114.7786 13.1048 114.6056 13.3198M118.5314 13.1646C118.3264 13.3506 118.3104 13.6666 118.4964 13.8716L119.5024 14.9806C119.6004 15.0896 119.7364 15.1446 119.8724 15.1446 119.9924 15.1446 120.1124 15.1016 120.2084 15.0156 120.4134 14.8296 120.4284 14.5136 120.2434 14.3086L119.2374 13.1996C119.0524 12.9946 118.7354 12.9806 118.5314 13.1646M114.5069 10.3838C114.6059 10.4928 114.7409 10.5488 114.8779 10.5488 114.9969 10.5488 115.1169 10.5058 115.2129 10.4188 115.4179 10.2338 115.4339 9.9178 115.2479 9.7128L114.2429 8.6028C114.0579 8.3968 113.7409 8.3838 113.5369 8.5678 113.3319 8.7538 113.3169 9.0698 113.5019 9.2738L114.5069 10.3838z"/>
      <path fill="#8EA1E1" d="M125.0284,46.6309 L89.0284,46.6309 C87.0984,46.6309 85.5284,48.2009 85.5284,50.1309 L85.5284,68.1309 C85.5284,70.0609 87.0984,71.6309 89.0284,71.6309 L125.0284,71.6309 C126.9584,71.6309 128.5284,70.0609 128.5284,68.1309 L128.5284,50.1309 C128.5284,48.2009 126.9584,46.6309 125.0284,46.6309"/>
      <path fill="#040405" d="M125.0284,44.6309 L89.0284,44.6309 C85.9964,44.6309 83.5284,47.0979 83.5284,50.1309 L83.5284,68.1309 C83.5284,71.1639 85.9964,73.6309 89.0284,73.6309 L125.0284,73.6309 C128.0614,73.6309 130.5284,71.1639 130.5284,68.1309 L130.5284,50.1309 C130.5284,47.0979 128.0614,44.6309 125.0284,44.6309 M125.0284,46.6309 C126.9584,46.6309 128.5284,48.2009 128.5284,50.1309 L128.5284,68.1309 C128.5284,70.0609 126.9584,71.6309 125.0284,71.6309 L89.0284,71.6309 C87.0984,71.6309 85.5284,70.0609 85.5284,68.1309 L85.5284,50.1309 C85.5284,48.2009 87.0984,46.6309 89.0284,46.6309 L125.0284,46.6309"/>
      <path fill="#040405" d="M103.088 61.4175L103.088 59.4555C103.088 58.7785 102.539 58.2295 101.862 58.2295L98.821 58.2295C98.145 58.2295 97.596 58.7785 97.596 59.4555L97.596 59.5795C97.596 60.2565 98.145 60.8055 98.821 60.8055L100.495 60.8055 100.495 61.4175C100.495 62.5515 99.289 63.1095 98.101 63.1095 96.912 63.1095 95.741 62.5515 95.741 61.4175L95.741 56.7715C95.741 55.6375 96.858 55.0065 98.011 55.0065 98.736 55.0065 99.471 55.2385 99.976 55.7445 100.337 56.1065 100.909 56.1545 101.361 55.9155 102.056 55.5475 102.258 54.6055 101.719 54.0335 100.724 52.9765 99.388 52.5755 98.083 52.5755 95.598 52.5755 93.112 53.9805 93.112 56.7715L93.112 61.4175C93.112 64.2805 95.615 65.7035 98.119 65.6855 100.604 65.6675 103.088 64.2445 103.088 61.4175M107.5118 52.7559L107.3168 52.7559C106.6398 52.7559 106.0908 53.3049 106.0908 53.9819L106.0908 64.2799C106.0908 64.9569 106.6398 65.5049 107.3168 65.5049L107.5118 65.5049C108.1888 65.5049 108.7378 64.9569 108.7378 64.2799L108.7378 53.9819C108.7378 53.3049 108.1888 52.7559 107.5118 52.7559M114.9835 56.9146L114.9835 56.5566C114.9835 55.8796 115.5315 55.3316 116.2085 55.3316L119.7185 55.3316C120.3955 55.3316 120.9445 54.7826 120.9445 54.1056L120.9445 53.9816C120.9445 53.3046 120.3955 52.7556 119.7185 52.7556L113.5435 52.7556C112.8665 52.7556 112.3175 53.3046 112.3175 53.9816L112.3175 64.2796C112.3175 64.9566 112.8665 65.5046 113.5435 65.5046L113.7575 65.5046C114.4345 65.5046 114.9835 64.9566 114.9835 64.2796L114.9835 61.9766C114.9835 61.2996 115.5315 60.7516 116.2085 60.7516L118.9805 60.7516C119.6575 60.7516 120.2065 60.2026 120.2065 59.5256L120.2065 59.3656C120.2065 58.6886 119.6575 58.1396 118.9805 58.1396L116.2085 58.1396C115.5315 58.1396 114.9835 57.5916 114.9835 56.9146"/>
    </g>
    <rect width="140" height="96"/>
  </g>
</svg>
