<svg xmlns="http://www.w3.org/2000/svg" width="26" height="26">
  <g fill="none" fill-rule="evenodd">
    <path fill="#FFF" d="M11 13c2.21 0 4-1.79 4-4s-1.79-4-4-4-4 1.79-4 4 1.79 4 4 4zm0 2c-2.67 0-8 1.34-8 4v2h16v-2c0-2.66-5.33-4-8-4zm9.0681106-4.07373388V8.56108936c0-.17620545 0-.56108936-.5667747-.56108936-.5667748 0-.5723981.3848839-.5723981.56108936v2.36517676h-2.3148144c-.1749332 0-.6077147 0-.6077147.57239798 0 .5723981.4327815.5735014.6077147.5735014h2.3148144v2.2992671c0 .1749332.0056233.6258957.5723981.6258957.5667747 0 .5667747-.393799.5667747-.5687322v-2.3564306h2.3391338c.1755693 0 .5927556-.0011033.5927556-.5735014 0-.57239798-.4171863-.57239798-.5927556-.57239798h-2.3391338z"/>
    <path d="M1 1h24v24H1V1z"/>
  </g>
</svg>