<svg xmlns="http://www.w3.org/2000/svg" xmlns:xlink="http://www.w3.org/1999/xlink" width="140" height="96" viewBox="0 0 140 96">
  <defs>
    <polygon id="img_1080p_dark-a" points="0 96 140 96 140 0 0 0"/>
  </defs>
  <g fill="none" fill-rule="evenodd">
    <path fill="#202225" d="M11.4272 31.8496L23.0052 31.8496C23.5522 31.8496 23.9942 31.4066 23.9942 30.8596 23.9942 30.3136 23.5522 29.8706 23.0052 29.8706L11.4272 29.8706C10.8812 29.8706 10.4382 30.3136 10.4382 30.8596 10.4382 31.4066 10.8812 31.8496 11.4272 31.8496M1.2808 35.813C.7348 35.813.2918 36.256.2918 36.803.2918 37.349.7348 37.792 1.2808 37.792L28.8598 37.792 28.8598 35.813 1.2808 35.813zM8.459 62.5264C7.913 62.5264 7.47 62.9694 7.47 63.5154 7.47 64.0624 7.913 64.5054 8.459 64.5054L28.859 64.5054 28.859 62.5264 8.459 62.5264zM24.7007 67.4736L19.0587 67.4736C18.5127 67.4736 18.0697 67.9156 18.0697 68.4626 18.0697 69.0086 18.5127 69.4526 19.0587 69.4526L24.7007 69.4526C25.2467 69.4526 25.6897 69.0086 25.6897 68.4626 25.6897 67.9156 25.2467 67.4736 24.7007 67.4736M13.4058 51.6436C13.4058 52.1896 13.8488 52.6326 14.3958 52.6326L23.9948 52.6326C24.5408 52.6326 24.9848 52.1896 24.9848 51.6436 24.9848 51.0966 24.5408 50.6546 23.9948 50.6546L14.3958 50.6546C13.8488 50.6546 13.4058 51.0966 13.4058 51.6436M13.1323 45.377L11.3003 45.377C10.7543 45.377 10.3113 45.82 10.3113 46.366 10.3113 46.913 10.7543 47.356 11.3003 47.356L13.1323 47.356C13.6783 47.356 14.1223 46.913 14.1223 46.366 14.1223 45.82 13.6783 45.377 13.1323 45.377M17.3169 45.377C16.7709 45.377 16.3279 45.82 16.3279 46.366 16.3279 46.913 16.7709 47.356 17.3169 47.356L28.8589 47.356 28.8589 45.377 17.3169 45.377z"/>
    <mask id="img_1080p_dark-b" fill="#fff">
      <use xlink:href="#img_1080p_dark-a"/>
    </mask>
    <polygon fill="#EBEFF7" points="79.317 85.654 86.243 85.654 86.243 80.368 79.317 80.368" mask="url(#img_1080p_dark-b)"/>
    <polygon fill="#7687B2" points="66.456 85.654 79.317 85.654 79.317 80.368 66.456 80.368" mask="url(#img_1080p_dark-b)"/>
    <polygon fill="#EBEFF7" points="87.232 87.633 87.232 87.633 87.232 90.601 89.09 90.601 96.136 90.601 96.136 87.633 89.211 87.633" mask="url(#img_1080p_dark-b)"/>
    <polygon fill="#7687B2" points="87.232 87.633 87.232 87.633 64.477 87.633 58.541 87.633 58.541 90.601 67.445 90.601 87.232 90.601" mask="url(#img_1080p_dark-b)"/>
    <path fill="#EBEFF7" d="M112.9561,58.0186 C113.5031,58.0186 113.9461,58.4616 113.9461,59.0076 L113.9461,59.7556 C113.9461,60.3016 113.5031,60.7456 112.9561,60.7456 L112.9561,66.4976 C112.9811,66.5096 113.0081,66.5196 113.0321,66.5326 C113.2811,66.5516 113.5051,66.6546 113.6681,66.8236 C114.7131,67.2586 115.8071,67.5056 116.9141,67.5056 C117.4601,67.5056 117.9031,67.9496 117.9031,68.4956 C117.9031,69.0416 117.4601,69.4846 116.9141,69.4846 C115.9041,69.4846 114.9061,69.6896 113.9461,70.0536 L113.9461,75.4206 C113.9461,76.5396 113.5591,77.5596 112.9311,78.3896 L117.9031,78.3896 C119.5401,78.3896 120.8711,77.0576 120.8711,75.4206 L120.8711,23.9736 C120.8711,22.3366 119.5401,21.0056 117.9031,21.0056 L112.9311,21.0056 C113.5591,21.8346 113.9461,22.8556 113.9461,23.9736 L113.9461,54.3146 C113.9461,54.8606 113.5031,55.3036 112.9561,55.3036 L112.9561,58.0186 Z" mask="url(#img_1080p_dark-b)"/>
    <path fill="#7687B2" d="M45.8135 21.0054C42.6045 21.0054 39.5565 24.1434 38.9175 27.7894L105.1565 27.7894C105.7025 27.7894 106.1455 28.2324 106.1455 28.7784L106.1455 56.4934C106.7045 60.7954 109.4795 64.7174 112.9565 66.4974L112.9565 60.7454C112.4105 60.7454 111.9665 60.3014 111.9665 59.7554L111.9665 59.0074C111.9665 58.4624 112.4105 58.0184 112.9565 58.0184L112.9565 55.3034C112.4105 55.3034 111.9665 54.8604 111.9665 54.3144L111.9665 23.9734C111.9665 22.3374 110.6355 21.0054 108.9995 21.0054L102.1265 21.0054 51.8335 21.0054C51.2865 21.0054 50.8435 20.5624 50.8435 20.0164L46.8025 20.0164C46.8025 20.5624 46.3595 21.0054 45.8135 21.0054M111.9668 75.4209L111.9668 71.0669C109.5138 72.6719 107.5208 75.3479 106.5948 78.3899L108.9988 78.3899C110.6388 78.3899 111.9668 77.0609 111.9668 75.4209" mask="url(#img_1080p_dark-b)"/>
    <path fill="#7687B2" d="M38.6387,71.4639 C38.0927,71.4639 37.6497,71.0209 37.6497,70.4739 L37.6497,30.1339 C37.1777,30.0589 36.8097,29.6679 36.8097,29.1739 C36.8097,25.8989 34.7297,22.7719 32.1017,21.5509 C31.3407,22.0889 30.8387,22.9719 30.8387,23.9739 L30.8387,75.4209 C30.8387,77.0579 32.1697,78.3899 33.8067,78.3899 L66.4557,78.3899 L103.4887,78.3899 C102.6327,75.5809 100.8647,73.0939 98.6667,71.4639 L38.6387,71.4639 Z" mask="url(#img_1080p_dark-b)"/>
    <path fill="#040405" d="M113.9463,59.7559 L113.9463,59.0079 C113.9463,58.4619 113.5033,58.0189 112.9563,58.0189 C112.4103,58.0189 111.9673,58.4619 111.9673,59.0079 L111.9673,59.7559 C111.9673,60.3019 112.4103,60.7449 112.9563,60.7449 C113.5033,60.7449 113.9463,60.3019 113.9463,59.7559" mask="url(#img_1080p_dark-b)"/>
    <path fill="#4F5D7F" d="M97.6211,59.4492 C97.6211,61.0862 96.2901,62.4182 94.6531,62.4182 L50.1311,62.4182 C48.4951,62.4182 47.1631,61.0862 47.1631,59.4492 L47.1631,37.6832 C47.1631,36.0462 48.4951,34.7152 50.1311,34.7152 L94.6531,34.7152 C96.2901,34.7152 97.6211,36.0462 97.6211,37.6832 L97.6211,59.4492 Z M105.1561,27.7892 L38.9171,27.7892 C38.8371,28.2452 38.7881,28.7082 38.7881,29.1742 C38.7881,29.7202 38.3461,30.1642 37.7991,30.1642 C37.7461,30.1642 37.7001,30.1412 37.6491,30.1342 L37.6491,70.4732 C37.6491,71.0202 38.0921,71.4642 38.6391,71.4642 L98.6671,71.4642 C97.0081,70.2322 95.1091,69.4842 93.1691,69.4842 C92.6231,69.4842 92.1801,69.0422 92.1801,68.4952 C92.1801,67.9492 92.6231,67.5062 93.1691,67.5062 C98.7631,67.5062 104.0521,61.3922 104.0521,54.9272 C104.0521,54.3812 104.4951,53.9372 105.0411,53.9372 C105.5881,53.9372 106.0311,54.3812 106.0311,54.9272 C106.0311,55.4532 106.0781,55.9742 106.1451,56.4932 L106.1451,28.7792 C106.1451,28.2322 105.7021,27.7892 105.1561,27.7892 Z" mask="url(#img_1080p_dark-b)"/>
    <path fill="#FFD773" d="M112.5098 68.4951C109.2148 66.9941 106.4458 63.9211 105.0408 60.2251 103.6378 63.9211 100.8678 66.9941 97.5728 68.4951 100.8678 69.9971 103.6378 73.0701 105.0408 76.7661 106.4458 73.0701 109.2148 69.9971 112.5098 68.4951M33.4653 20.0161C35.3003 21.0271 36.8533 22.7361 37.7993 24.7781 38.7453 22.7361 40.2983 21.0271 42.1333 20.0161 40.2983 19.0051 38.7453 17.2961 37.7993 15.2541 36.8533 17.2961 35.3003 19.0051 33.4653 20.0161" mask="url(#img_1080p_dark-b)"/>
    <path fill="#FFF" d="M52.9775 5.3403C53.1225 5.3403 53.2665 5.2773 53.3635 5.1553L54.2845 4.0083C54.4555 3.7963 54.4215 3.4853 54.2085 3.3133 53.9965 3.1423 53.6855 3.1763 53.5135 3.3893L52.5925 4.5353C52.4215 4.7483 52.4555 5.0603 52.6685 5.2313 52.7595 5.3043 52.8685 5.3403 52.9775 5.3403M48.8774 8.1792L47.9564 9.3252C47.7854 9.5382 47.8184 9.8502 48.0324 10.0212 48.1234 10.0942 48.2324 10.1302 48.3414 10.1302 48.4864 10.1302 48.6294 10.0672 48.7274 9.9452L49.6484 8.7992C49.8194 8.5862 49.7854 8.2742 49.5724 8.1032 49.3594 7.9332 49.0484 7.9672 48.8774 8.1792M52.7617 8.0259C52.5587 8.2099 52.5437 8.5229 52.7267 8.7249L53.7217 9.8219C53.8197 9.9299 53.9537 9.9849 54.0887 9.9849 54.2077 9.9849 54.3257 9.9419 54.4207 9.8569 54.6237 9.6729 54.6387 9.3599 54.4547 9.1579L53.4607 8.0599C53.2767 7.8569 52.9637 7.8439 52.7617 8.0259M48.7803 5.2744C48.8783 5.3824 49.0123 5.4374 49.1473 5.4374 49.2653 5.4374 49.3843 5.3954 49.4793 5.3094 49.6813 5.1254 49.6973 4.8134 49.5133 4.6104L48.5193 3.5124C48.3363 3.3084 48.0233 3.2954 47.8203 3.4784 47.6173 3.6614 47.6023 3.9744 47.7853 4.1764L48.7803 5.2744z" mask="url(#img_1080p_dark-b)"/>
    <path fill="#EBEFF7" d="M75.9199,47.7529 C76.6949,47.7529 77.6609,47.4199 77.6609,46.5339 C77.6609,45.7729 76.9169,45.3299 76.1249,45.3299 L75.8719,45.3299 C75.0649,45.3299 74.3199,45.7729 74.3199,46.5339 C74.3199,47.4199 75.1439,47.7529 75.9199,47.7529" mask="url(#img_1080p_dark-b)"/>
    <path fill="#EBEFF7" d="M94.6533,36.6938 L50.1313,36.6938 C49.5863,36.6938 49.1413,37.1378 49.1413,37.6828 L49.1413,59.4488 C49.1413,59.9948 49.5863,60.4388 50.1313,60.4388 L94.6533,60.4388 C95.1983,60.4388 95.6423,59.9948 95.6423,59.4488 L95.6423,37.6828 C95.6423,37.1378 95.1983,36.6938 94.6533,36.6938" mask="url(#img_1080p_dark-b)"/>
    <path fill="#040405" d="M95.6426,59.4492 C95.6426,59.9952 95.1986,60.4382 94.6536,60.4382 L50.1316,60.4382 C49.5856,60.4382 49.1416,59.9952 49.1416,59.4492 L49.1416,37.6832 C49.1416,37.1372 49.5856,36.6942 50.1316,36.6942 L94.6536,36.6942 C95.1986,36.6942 95.6426,37.1372 95.6426,37.6832 L95.6426,59.4492 Z M94.6536,34.7152 L50.1316,34.7152 C48.4946,34.7152 47.1636,36.0462 47.1636,37.6832 L47.1636,59.4492 C47.1636,61.0862 48.4946,62.4182 50.1316,62.4182 L94.6536,62.4182 C96.2896,62.4182 97.6216,61.0862 97.6216,59.4492 L97.6216,37.6832 C97.6216,36.0462 96.2896,34.7152 94.6536,34.7152 Z" mask="url(#img_1080p_dark-b)"/>
    <path fill="#FFF" d="M137.04 41.5552C135.982 41.5552 135.123 40.6952 135.123 39.6382 135.123 38.5822 135.982 37.7222 137.04 37.7222 138.096 37.7222 138.956 38.5822 138.956 39.6382 138.956 40.6952 138.096 41.5552 137.04 41.5552M137.04 36.7322C135.437 36.7322 134.134 38.0362 134.134 39.6382 134.134 41.2412 135.437 42.5442 137.04 42.5442 138.642 42.5442 139.945 41.2412 139.945 39.6382 139.945 38.0362 138.642 36.7322 137.04 36.7322M133.5146 31.6851C132.4556 31.6851 131.5976 30.8271 131.5976 29.7681 131.5976 29.4951 131.3766 29.2731 131.1036 29.2731 130.8296 29.2731 130.6086 29.4951 130.6086 29.7681 130.6086 30.8271 129.7506 31.6851 128.6926 31.6851L128.6916 31.6851C128.4176 31.6851 128.1976 31.9061 128.1976 32.1801 128.1976 32.4531 128.4176 32.6751 128.6916 32.6751L128.6926 32.6751C129.7506 32.6751 130.6086 33.5331 130.6086 34.5911 130.6086 34.8641 130.8296 35.0851 131.1036 35.0851 131.3766 35.0851 131.5976 34.8641 131.5976 34.5911 131.5976 33.5331 132.4556 32.6751 133.5146 32.6751 133.7876 32.6751 134.0086 32.4531 134.0086 32.1801 134.0086 31.9061 133.7876 31.6851 133.5146 31.6851" mask="url(#img_1080p_dark-b)"/>
    <path fill="#040405" d="M57.6987 50.0771C57.6987 48.6631 54.4147 48.6781 54.4147 50.0771L54.4147 50.6321C54.4147 52.0311 57.6987 52.0451 57.6987 50.6321L57.6987 50.0771zM58.3327 46.0071C58.0037 46.1481 57.6457 46.0401 57.3817 45.7991 56.4097 44.9101 54.4147 45.4011 54.4147 46.5291L54.4147 47.9421C56.0777 46.2241 59.6537 47.4311 59.6537 50.0631L59.6537 50.6451C59.6537 52.6281 57.9067 53.6251 56.0777 53.6251 54.2487 53.6401 52.4467 52.6411 52.4467 50.6451L52.4467 46.5151C52.4467 44.5201 54.2487 43.5221 56.0777 43.5351 57.0547 43.5351 57.9807 43.8351 58.7217 44.5671 59.1497 44.9891 59.0207 45.7131 58.4687 45.9491L58.3327 46.0071zM62.5962 50.6592C62.7072 52.0872 65.6732 52.0872 65.7842 50.6592L65.7842 46.5152C65.6732 45.0602 62.7072 45.0602 62.5962 46.5152L62.5962 50.6592zM60.6422 50.6592L60.6422 46.5152C60.6422 44.4512 62.5272 43.5352 64.1902 43.5352 65.8672 43.5352 67.7382 44.4512 67.7382 46.5152L67.7382 50.6592C67.7382 52.7112 65.8672 53.6252 64.1902 53.6252 62.5272 53.6252 60.6422 52.7112 60.6422 50.6592zM72.6064 47.8179L74.9494 47.8179C75.4124 47.8179 75.7884 48.1929 75.7884 48.6559L75.7884 48.9889C75.7884 49.4519 75.4124 49.8269 74.9494 49.8269L72.6064 49.8269C72.1434 49.8269 71.7684 50.2029 71.7684 50.6659L71.7684 52.6489C71.7684 53.1109 71.3924 53.4859 70.9304 53.4859L70.5554 53.4859C70.0924 53.4859 69.7174 53.1109 69.7174 52.6489L69.7174 44.5129C69.7174 44.0499 70.0924 43.6749 70.5554 43.6749L75.5174 43.6749C75.9804 43.6749 76.3554 44.0499 76.3554 44.5129L76.3554 44.8179C76.3554 45.2809 75.9804 45.6569 75.5174 45.6569L72.6064 45.6569C72.1434 45.6569 71.7684 46.0319 71.7684 46.4949L71.7684 46.9799C71.7684 47.4429 72.1434 47.8179 72.6064 47.8179M81.2119 48.5386C83.1929 48.5386 83.2219 45.7256 81.2119 45.7256L80.2059 45.7256C79.7429 45.7256 79.3679 46.1016 79.3679 46.5646L79.3679 47.7006C79.3679 48.1636 79.7429 48.5386 80.2059 48.5386L81.2119 48.5386zM77.3449 44.5136C77.3449 44.0506 77.7209 43.6746 78.1839 43.6746L81.2119 43.6746C85.9099 43.6886 85.8549 50.4526 81.2259 50.4526L80.2059 50.4526C79.7429 50.4526 79.3679 50.8276 79.3679 51.2896L79.3679 52.6486C79.3679 53.1116 78.9929 53.4866 78.5299 53.4866L78.1839 53.4866C77.7209 53.4866 77.3449 53.1116 77.3449 52.6486L77.3449 44.5136z" mask="url(#img_1080p_dark-b)"/>
    <path fill="#040405" d="M86.5361,51.0439 C86.8601,50.7949 87.2961,50.8419 87.6161,51.0959 C88.7181,51.9699 90.6231,51.8219 90.6941,50.6459 C90.7361,49.8009 89.8221,49.6069 88.8101,49.4669 C87.2711,49.2319 85.6781,48.5119 85.7061,46.3489 C85.8161,44.4919 87.5211,43.5229 89.2811,43.5229 C90.2511,43.5229 91.1881,43.8109 91.9411,44.4909 C92.3311,44.8439 92.2471,45.4859 91.8101,45.7789 L91.5231,45.9709 C91.1981,46.1889 90.7821,46.1299 90.4801,45.8789 C90.1311,45.5859 89.7191,45.4489 89.2811,45.4489 C88.5051,45.4489 87.8261,45.7399 87.7841,46.4189 L87.7841,46.4329 C87.7991,47.2359 88.6161,47.3469 89.4751,47.5269 C91.1801,47.8459 92.8441,48.4699 92.7461,50.7839 C92.5801,52.6279 90.8061,53.6249 89.0181,53.6249 C88.0191,53.6249 87.0041,53.2419 86.2121,52.4779 C85.8491,52.1289 85.9051,51.5259 86.3051,51.2209 L86.5361,51.0439 Z" mask="url(#img_1080p_dark-b)"/>
    <path fill="#040405" d="M42.1333,20.0161 C40.2983,21.0271 38.7453,22.7361 37.7993,24.7781 C36.8533,22.7361 35.3003,21.0271 33.4653,20.0161 C35.3003,19.0051 36.8533,17.2961 37.7993,15.2541 C38.7453,17.2961 40.2983,19.0051 42.1333,20.0161 Z M79.3173,85.6541 L69.0983,85.6541 C67.6393,85.6541 66.4563,84.4711 66.4563,83.0111 L66.4563,81.3571 C66.4563,80.8101 66.8993,80.3681 67.4453,80.3681 L79.3173,80.3681 L85.2543,80.3681 C85.8003,80.3681 86.2433,80.8101 86.2433,81.3571 L86.2433,83.0111 C86.2433,84.4711 85.0593,85.6541 83.6003,85.6541 L79.3173,85.6541 Z M96.1363,89.1171 C96.1363,89.9361 95.4723,90.6001 94.6533,90.6001 L89.0913,90.6001 L87.2323,90.6001 L67.4453,90.6001 L60.0253,90.6001 C59.2053,90.6001 58.5413,89.9361 58.5413,89.1171 C58.5413,88.2971 59.2053,87.6331 60.0253,87.6331 L64.4773,87.6331 L87.2323,87.6331 L89.2123,87.6331 L94.6533,87.6331 C95.4723,87.6331 96.1363,88.2971 96.1363,89.1171 Z M111.9663,73.5531 L111.9663,75.4211 C111.9663,77.0601 110.6383,78.3901 108.9993,78.3901 L108.0153,78.3901 C107.3073,78.3901 106.8193,77.6621 107.0963,77.0111 C107.7893,75.3871 108.7843,73.9091 109.9773,72.7021 C110.7053,71.9671 111.9663,72.5171 111.9663,73.5531 Z M97.5733,68.4951 C100.8683,66.9941 103.6373,63.9211 105.0413,60.2251 C106.4453,63.9211 109.2153,66.9941 112.5093,68.4951 C109.2153,69.9971 106.4453,73.0701 105.0413,76.7661 C103.6373,73.0701 100.8683,69.9971 97.5733,68.4951 Z M117.9033,19.0271 L108.9993,19.0271 L102.1263,19.0271 L51.8333,19.0271 C51.2863,19.0271 50.8433,19.4701 50.8433,20.0161 C50.8433,20.5621 51.2863,21.0051 51.8333,21.0051 L102.1263,21.0051 L108.9993,21.0051 C110.6383,21.0051 111.9663,22.3341 111.9663,23.9741 L111.9663,54.3141 C111.9663,54.8601 112.4103,55.3041 112.9563,55.3041 C113.5033,55.3041 113.9463,54.8601 113.9463,54.3141 L113.9463,29.9101 L113.9453,29.8761 C113.9403,28.2621 115.2563,26.9421 116.8703,26.9421 L117.9033,26.9421 C119.5433,26.9421 120.8713,28.2701 120.8713,29.9101 L120.8713,75.4211 C120.8713,77.0601 119.5433,78.3901 117.9033,78.3901 L116.7163,78.3901 C115.1813,78.3901 113.9393,77.1421 113.9453,75.6091 L113.9463,75.4211 L113.9463,72.4291 C113.9463,70.8061 115.2593,69.4881 116.8833,69.4851 L116.9143,69.4841 C117.4603,69.4841 117.9033,69.0421 117.9033,68.4951 C117.9033,67.9491 117.4603,67.5061 116.9143,67.5061 C115.8063,67.5061 114.7133,67.2591 113.6683,66.8231 C113.5053,66.6541 113.2813,66.5521 113.0323,66.5321 C113.0083,66.5191 112.9813,66.5101 112.9563,66.4971 C109.4793,64.7181 106.7043,60.7951 106.1453,56.4931 C106.0783,55.9741 106.0313,55.4531 106.0313,54.9271 C106.0313,54.3811 105.5883,53.9371 105.0413,53.9371 C104.4953,53.9371 104.0513,54.3811 104.0513,54.9271 C104.0513,61.3921 98.7623,67.5061 93.1693,67.5061 C92.6233,67.5061 92.1793,67.9491 92.1793,68.4951 C92.1793,69.0421 92.6233,69.4841 93.1693,69.4841 C95.1093,69.4841 97.0083,70.2321 98.6673,71.4641 C100.4993,72.8221 102.0333,74.7781 102.9883,77.0181 C103.2643,77.6671 102.7743,78.3901 102.0693,78.3901 L66.4563,78.3901 L33.8063,78.3901 C32.1673,78.3901 30.8383,77.0601 30.8383,75.4211 L30.8383,23.9741 L30.8383,23.9431 C30.8463,22.4281 32.6243,21.6511 33.7713,22.6411 C35.5593,24.1831 36.8103,26.6341 36.8103,29.1741 C36.8103,29.6681 37.1773,30.0581 37.6493,30.1341 C37.7003,30.1411 37.7463,30.1641 37.7993,30.1641 C38.3453,30.1641 38.7883,29.7211 38.7883,29.1741 C38.7883,28.7081 38.8373,28.2451 38.9173,27.7891 C39.5563,24.1431 42.6043,21.0051 45.8133,21.0051 C46.3603,21.0051 46.8023,20.5621 46.8023,20.0161 C46.8023,19.4701 46.3603,19.0271 45.8133,19.0271 C42.2023,19.0271 38.7883,15.0571 38.7883,10.8571 C38.7883,10.3101 38.3453,9.8681 37.7993,9.8681 C37.2533,9.8681 36.8103,10.3101 36.8103,10.8571 C36.8103,15.0571 33.3963,19.0271 29.7853,19.0271 C29.2383,19.0271 28.7963,19.4701 28.7963,20.0161 C28.7963,20.5891 29.2823,21.0481 29.8643,21.0021 C29.8683,21.0081 29.8663,21.0051 29.8703,21.0111 C29.2443,21.8391 28.8593,22.8581 28.8593,23.9741 L28.8593,35.8131 L28.8593,37.7921 L28.8593,45.3771 L28.8593,47.3561 L28.8593,62.5261 L28.8593,64.5051 L28.8593,75.4211 C28.8593,78.1531 31.0743,80.3681 33.8063,80.3681 L63.4873,80.3681 C64.0343,80.3681 64.4773,80.8101 64.4773,81.3571 L64.4773,83.0111 C64.4773,84.4711 63.2943,85.6541 61.8343,85.6541 L58.5413,85.6541 C57.4483,85.6541 56.5623,86.5401 56.5623,87.6331 L56.5623,90.6001 C56.5623,91.6931 57.4483,92.5791 58.5413,92.5791 L67.4453,92.5791 L89.0913,92.5791 L96.1363,92.5791 C97.2293,92.5791 98.1163,91.6931 98.1163,90.6001 L98.1163,87.6331 C98.1163,86.5401 97.2293,85.6541 96.1363,85.6541 L90.8653,85.6541 C89.4053,85.6541 88.2213,84.4711 88.2213,83.0111 L88.2213,81.3571 C88.2213,80.8101 88.6653,80.3681 89.2123,80.3681 L103.9183,80.3681 C103.9973,80.9291 104.0513,81.4941 104.0513,82.0641 C104.0513,82.6101 104.4953,83.0541 105.0413,83.0541 C105.5883,83.0541 106.0313,82.6101 106.0313,82.0641 C106.0313,81.4941 106.0863,80.9291 106.1643,80.3681 L108.9993,80.3681 L117.9033,80.3681 C120.6353,80.3681 122.8503,78.1531 122.8503,75.4211 L122.8503,23.9741 C122.8503,21.2421 120.6353,19.0271 117.9033,19.0271 Z" mask="url(#img_1080p_dark-b)"/>
    <rect width="140" height="96"/>
  </g>
</svg>
