<svg xmlns="http://www.w3.org/2000/svg" width="190" height="164" viewBox="0 0 190 164">
  <g fill="none" fill-rule="evenodd">
    <path fill="#DCDDDE" fill-opacity=".3" d="M47.485,164.1592 L160.079,164.1592 C167.693,164.1592 190,159.2192 190,134.9452 C190,110.5382 155.024,106.9032 145.974,104.9152 C133.072,102.0792 120.382,89.2652 112.353,72.3632 C107.466,62.0762 103.314,50.7132 97.654,41.6132 C90.418,29.9792 78.835,21.9142 69.34,30.5292 C63.244,36.0602 59.714,47.0382 54.614,54.9142 C46.755,67.0522 35.736,71.0942 25.291,74.8172 C19.692,76.8132 13.961,78.9442 9.153,84.1602 C3.582,90.2052 -1.096,104.6912 0.226,116.0072 C4.931,156.2712 45.728,163.3862 47.485,164.1592"/>
    <path fill="#DCDDDE" fill-opacity=".3" d="M181.2399,77.0557 C181.8969,64.3447 166.3289,50.2367 156.4219,45.3047 C148.4549,41.3387 136.9869,40.0447 130.9439,48.2417 C124.7699,56.6157 129.7929,70.2187 135.8299,77.1897 C144.0069,86.6307 162.0339,98.0467 174.0829,89.1197 C178.9179,85.5367 181.0159,81.3767 181.2399,77.0557"/>
    <polygon fill="#4F545C" points="47.485 164.159 118.1 164.159 118.1 111.718 47.485 111.718"/>
    <polygon fill="#4F545C" points="67.883 37.436 84.049 37.436 68.575 92.707 51.984 92.707"/>
    <polygon fill="#202225" points="117.51 12.987 117.51 37.435 131.465 37.435 99.611 74.631 97.615 91.54 99.589 107.806 113.491 111.844 113.491 164.159 154.691 164.159 154.691 12.987"/>
    <polygon fill="#B9BBBE" points="59.757 91.269 115.98 91.269 131.465 37.436 117.51 37.436 75.328 37.436"/>
    <g transform="translate(7 -.841)">
      <path fill="#F6F6F7" d="M119.8698,105.8947 L133.9338,106.0087 C134.8768,104.6137 135.3728,103.0027 135.3728,101.3207 C135.3728,96.6707 131.5898,92.8877 126.9398,92.8877 C122.2898,92.8877 118.5068,96.6707 118.5068,101.3207 C118.5068,102.9517 118.9758,104.5227 119.8698,105.8947 Z M134.9358,108.0167 L118.8348,107.8857 L118.5378,107.4827 C117.2088,105.6737 116.5068,103.5427 116.5068,101.3207 C116.5068,95.5687 121.1868,90.8877 126.9398,90.8877 C132.6928,90.8877 137.3728,95.5687 137.3728,101.3207 C137.3728,103.6067 136.6358,105.7847 135.2398,107.6187 L134.9358,108.0167 Z"/>
      <polygon fill="#202225" points="76.993 144.899 82.323 144.899 82.323 121.973 76.993 121.973"/>
      <polygon fill="#4F545C" points="50.557 134.397 75.346 134.397 75.346 123.59 50.557 123.59"/>
      <path fill="#B9BBBE" d="M74.7077,133.1389 L63.0637,133.1389 L62.1837,133.1389 L50.9367,133.1389 L50.9367,124.2569 L62.2517,124.2569 L63.0557,124.2569 L74.7077,124.2569 L74.7077,133.1389 Z M74.6657,121.9729 L63.0557,121.9729 L62.2517,121.9729 L48.6507,121.9729 L48.6507,144.8989 L62.2517,144.8989 L63.0637,144.8989 L74.6657,144.8989 L76.9917,144.8989 L76.9917,121.9729 L74.6657,121.9729 Z"/>
      <polygon fill="#36393F" points="120.586 102.063 118.304 109.77 140.936 116.474 143.218 108.767"/>
      <polygon fill="#F6F6F7" points="64.198 92.109 65.635 92.109 65.635 84.118 64.198 84.118"/>
      <polygon fill="#F6F6F7" points="34.355 92.109 35.792 92.109 35.792 84.118 34.355 84.118"/>
      <path fill="#72767D" d="M64.9167,85.3664 C66.7597,85.3664 68.2587,83.8664 68.2587,82.0244 C68.2587,80.1814 66.7597,78.6814 64.9167,78.6814 C63.0737,78.6814 61.5747,80.1814 61.5747,82.0244 C61.5747,83.8664 63.0737,85.3664 64.9167,85.3664"/>
      <path fill="#36393F" d="M45.902 89.4426L41.841 89.4426C41.492 89.4426 41.207 89.7266 41.207 90.0776L41.207 92.1096 46.537 92.1096 46.537 90.0776C46.537 89.7266 46.253 89.4426 45.902 89.4426M51.359 92.1096L56.689 92.1096 56.689 90.0776C56.689 89.7266 56.404 89.4426 56.054 89.4426L51.993 89.4426C51.643 89.4426 51.359 89.7266 51.359 90.0776L51.359 92.1096zM76.9928 92.1096L76.9928 90.0776C76.9928 89.7266 76.7078 89.4426 76.3568 89.4426L72.2968 89.4426C71.9468 89.4426 71.6618 89.7266 71.6618 90.0776L71.6618 92.1096 76.9928 92.1096zM87.1442 92.1096L87.1442 90.0776C87.1442 89.7266 86.8592 89.4426 86.5092 89.4426L82.4492 89.4426C82.0982 89.4426 81.8142 89.7266 81.8142 90.0776L81.8142 92.1096 87.1442 92.1096z"/>
      <polygon fill="#4F545C" points="50.936 141.962 56.121 141.962 56.121 135.786 50.936 135.786"/>
      <polygon fill="#4F545C" points="61.774 141.962 74.348 141.962 74.348 135.786 61.774 135.786"/>
      <path fill="#B9BBBE" d="M130.7604,19.843 C131.2624,19.843 131.6714,20.252 131.6714,20.754 C131.6714,21.256 131.2624,21.665 130.7604,21.665 C130.2584,21.665 129.8494,21.256 129.8494,20.754 C129.8494,20.252 130.2584,19.843 130.7604,19.843 M130.7604,22.865 C131.9244,22.865 132.8714,21.918 132.8714,20.754 C132.8714,19.59 131.9244,18.643 130.7604,18.643 C129.5964,18.643 128.6494,19.59 128.6494,20.754 C128.6494,21.918 129.5964,22.865 130.7604,22.865"/>
      <path fill="#72767D" d="M36.2291,69.6008 C36.2291,69.8828 36.4571,70.1118 36.7391,70.1118 C37.0221,70.1118 37.2501,69.8828 37.2501,69.6008 C37.2501,68.5078 38.1351,67.6218 39.2281,67.6218 L39.2291,67.6218 C39.5111,67.6218 39.7401,67.3938 39.7401,67.1118 C39.7401,66.8298 39.5111,66.6008 39.2291,66.6008 L39.2281,66.6008 C38.1351,66.6008 37.2501,65.7148 37.2501,64.6218 C37.2501,64.3398 37.0221,64.1118 36.7391,64.1118 C36.4571,64.1118 36.2291,64.3398 36.2291,64.6218 C36.2291,65.7148 35.3431,66.6008 34.2501,66.6008 C33.9681,66.6008 33.7401,66.8298 33.7401,67.1118 C33.7401,67.3938 33.9681,67.6218 34.2501,67.6218 C35.3431,67.6218 36.2291,68.5078 36.2291,69.6008"/>
      <path fill="#4F545C" d="M119.2838 3.1418C119.5078 3.1418 119.7158 3.0418 119.8558 2.8678L120.5248 2.0348C120.7788 1.7188 120.7288 1.2558 120.4138 1.0018 120.2618.8798 120.0748.8238 119.8738.8448 119.6788.8668 119.5038.9618 119.3818 1.1158L118.7118 1.9478C118.5888 2.1008 118.5328 2.2918 118.5548 2.4878 118.5748 2.6828 118.6718 2.8578 118.8248 2.9808 118.9548 3.0848 119.1178 3.1418 119.2838 3.1418M116.0133 4.5949L115.3433 5.4279C115.2203 5.5799 115.1643 5.7729 115.1863 5.9679 115.2073 6.1629 115.3033 6.3379 115.4553 6.4589 115.5853 6.5639 115.7483 6.6219 115.9153 6.6219 116.1393 6.6219 116.3483 6.5219 116.4883 6.3469L117.1583 5.5139C117.4093 5.1989 117.3603 4.7369 117.0443 4.4819 116.7293 4.2299 116.2663 4.2799 116.0133 4.5949M120.6354 5.2893L119.9134 4.4923C119.7824 4.3473 119.6034 4.2613 119.4074 4.2513 119.1984 4.2343 119.0224 4.3083 118.8744 4.4393 118.7294 4.5713 118.6444 4.7523 118.6344 4.9473 118.6244 5.1433 118.6924 5.3323 118.8234 5.4763L119.5454 6.2723C119.6834 6.4273 119.8824 6.5163 120.0904 6.5163 120.2734 6.5163 120.4484 6.4483 120.5834 6.3263 120.7294 6.1943 120.8154 6.0143 120.8244 5.8173 120.8334 5.6213 120.7664 5.4343 120.6354 5.2893M115.9567 2.9709C116.0957 3.1239 116.2937 3.2119 116.5007 3.2119 116.6837 3.2119 116.8587 3.1449 116.9937 3.0229 117.2937 2.7509 117.3167 2.2859 117.0457 1.9859L116.3217 1.1879C116.0507.8889 115.5857.8659 115.2847 1.1359 114.9847 1.4079 114.9617 1.8719 115.2327 2.1729L115.9567 2.9709z"/>
      <path fill="#72767D" d="M31.7321,82.0246 C31.7321,83.8666 33.2311,85.3666 35.0741,85.3666 C36.9171,85.3666 38.4161,83.8666 38.4161,82.0246 C38.4161,80.1816 36.9171,78.6816 35.0741,78.6816 C33.2311,78.6816 31.7321,80.1816 31.7321,82.0246"/>
      <path fill="#B9BBBE" d="M0.2321,142.216 C0.2321,144.059 1.7311,145.558 3.5741,145.558 C5.4171,145.558 6.9161,144.059 6.9161,142.216 C6.9161,140.373 5.4171,138.874 3.5741,138.874 C1.7311,138.874 0.2321,140.373 0.2321,142.216"/>
      <polygon fill="#72767D" points="27.729 112.559 90.615 112.559 90.615 91.888 27.729 91.888"/>
      <polygon fill="#202225" points="89.244 112.559 111.1 112.559 111.1 91.888 89.244 91.888"/>
      <path fill="#202225" d="M64.0026 63.3586L65.2546 69.0936M65.2506 72.6887C63.5986 72.6887 62.1106 71.5417 61.7436 69.8607L60.4906 64.1257C60.0676 62.1867 61.2966 60.2707 63.2356 59.8477 65.1756 59.4257 67.0906 60.6527 67.5136 62.5917L68.7656 68.3267C69.1886 70.2657 67.9606 72.1817 66.0216 72.6047 65.7626 72.6617 65.5056 72.6887 65.2506 72.6887"/>
      <path fill="#202225" d="M73.3044 74.2473C73.1374 74.2473 72.9704 74.1893 72.8344 74.0723L67.3954 69.3743C67.0944 69.1153 67.0604 68.6613 67.3204 68.3603 67.5794 68.0603 68.0344 68.0283 68.3334 68.2863L73.7744 72.9843C74.0754 73.2433 74.1084 73.6973 73.8484 73.9983 73.7064 74.1623 73.5054 74.2473 73.3044 74.2473M64.7887 79.05C64.4337 79.05 64.1247 78.786 64.0767 78.425L62.9377 69.845C62.8867 69.451 63.1627 69.09 63.5567 69.038 63.9517 68.988 64.3107 69.263 64.3627 69.656L65.5017 78.237C65.5537 78.63 65.2767 78.991 64.8847 79.043 64.8507 79.047 64.8197 79.05 64.7887 79.05M62.1833 67.1115C62.1673 67.1115 62.1523 67.1115 62.1363 67.1095L56.9133 66.7795C56.5183 66.7545 56.2173 66.4125 56.2433 66.0155 56.2673 65.6205 56.6173 65.3205 57.0053 65.3435L62.2283 65.6745C62.6233 65.7005 62.9243 66.0425 62.9003 66.4385 62.8753 66.8185 62.5593 67.1115 62.1833 67.1115M67.0983 66.0383C66.9183 66.0383 66.7393 65.9713 66.5983 65.8373 66.3133 65.5603 66.3043 65.1053 66.5803 64.8203L70.1803 61.0913C70.4563 60.8053 70.9113 60.7983 71.1973 61.0733 71.4823 61.3493 71.4913 61.8043 71.2143 62.0893L67.6153 65.8183C67.4743 65.9653 67.2853 66.0383 67.0983 66.0383"/>
      <polygon fill="#72767D" points="44.185 38.277 111.1 38.277 111.1 13.829 44.185 13.829"/>
      <path fill="#36393F" d="M49.6413,26.052 C49.6413,29.393 52.3493,32.102 55.6903,32.102 L99.0043,32.102 C102.3453,32.102 105.0533,29.393 105.0533,26.052 C105.0533,22.711 102.3453,20.003 99.0043,20.003 L55.6903,20.003 C52.3493,20.003 49.6413,22.711 49.6413,26.052"/>
      <path fill="#FFFFFF" d="M45.7672,1.9192 L39.7442,12.3522 C39.4022,12.9442 39.8302,13.6852 40.5132,13.6852 L52.5602,13.6852 C53.2452,13.6852 53.6722,12.9442 53.3302,12.3522 L47.3062,1.9192 C46.9642,1.3262 46.1102,1.3262 45.7672,1.9192"/>
    </g>
  </g>
</svg>
