<?xml version="1.0" encoding="UTF-8"?>
<svg width="240px" height="160px" viewBox="0 0 240 160" version="1.1" xmlns="http://www.w3.org/2000/svg" xmlns:xlink="http://www.w3.org/1999/xlink">
    <!-- Generator: Sketch 42 (36781) - http://www.bohemiancoding.com/sketch -->
    <title>svg/img_no_video_source</title>
    <desc>Created with Sketch.</desc>
    <defs>
        <polygon id="path-1" points="0.50240707 0.258024826 16.3840707 21.21019 16.3840707 0.258024826 0.50240707 0.258024826"></polygon>
        <polygon id="path-3" points="16.9181873 0.752296878 24.1925723 10.3495207 24.1925723 31.8731582 0.603074554 0.752296878 16.9181873 0.752296878"></polygon>
        <path d="M10.0248723,11.0695995 C8.84757274,10.664291 7.77362346,9.91698034 6.965,8.85 L0.501963356,0.323524826 L10.0248723,0.323524826 L10.0248723,11.0695995 L10.0248723,11.0695995 Z" id="path-5"></path>
        <path d="M12.5315744,0.754724826 L20.2416013,10.9266986 L20.2416013,25.0800088 C17.6619274,25.958517 14.7015986,25.1414454 12.965,22.85 L0.562896878,6.48830654 L0.562896878,0.754724826 L12.5315744,0.754724826 L12.5315744,0.754724826 Z" id="path-7"></path>
        <path d="M0.822450791,21.9995158 L24.965,53.85 C25.1502684,54.094462 25.3494648,54.3221433 25.5606411,54.5327752 L34.7320343,54.5327752 C35.1398136,54.1279077 35.4844399,53.6783473 35.7640013,53.1980041 L35.7640013,46.6518652 C35.6329215,46.4273868 35.4869797,46.2083388 35.326,45.996 L0.822450791,0.474861699 L0.822450791,21.9995158 L0.822450791,21.9995158 Z" id="path-9"></path>
        <polygon id="path-11" points="0.164129255 0.480184564 25.8971231 34.4301752 9.58280393 34.4301752 0.164129255 22.0044224 0.164129255 0.480184564"></polygon>
        <polygon id="path-13" points="0.989329255 0.997283907 6.41343992 8.15340835 0.989329255 8.15340835"></polygon>
        <path d="M0.916619318,0.455896878 L1.326,0.996 C2.62466759,2.70899583 2.94465781,4.85863234 2.37826685,6.77350835 L0.226424826,6.77350835 L0.226424826,0.455896878 L0.916619318,0.455896878 L0.916619318,0.455896878 Z" id="path-15"></path>
        <path d="M0.344165279,0.381330655 L2.326,2.996 C3.02039345,3.91193345 3.43498235,4.95270278 3.58387603,6.01567074 L0.344165279,6.01567074 L0.344165279,0.381330655 L0.344165279,0.381330655 Z" id="path-17"></path>
        <path d="M2.53657232,6.002139 L1.094,4.099 C0.221244363,2.94858786 0.278616659,1.38255616 1.14176401,0.303524826 L2.53657232,0.303524826 L2.53657232,6.002139 L2.53657232,6.002139 Z" id="path-19"></path>
        <path d="M9.20368018,0.0282290426 C9.13327087,0.0234157445 9.06266692,0.021 8.992,0.021 C8.341,0.021 7.686,0.226 7.128,0.648 L1.69,4.77 C0.33,5.801 0.063,7.74 1.094,9.099 L2.33226512,10.7326031 L9.20368018,10.7326031 L9.20368018,0.0282290426 L9.20368018,0.0282290426 Z" id="path-21"></path>
        <path d="M2.19058247,0.390558853 L1.69,0.77 C0.33,1.801 0.063,3.74 1.094,5.099 L2.19058247,6.54568578 L2.19058247,0.390558853 L2.19058247,0.390558853 Z" id="path-23"></path>
        <polygon id="path-25" points="10.604806 13.6041016 0.717741682 0.560417526 10.604806 0.560417526 10.604806 13.6041016"></polygon>
        <path d="M23.5519013,17.2020156 L11.457,1.245 C10.849,0.443 9.926,0.021 8.992,0.021 C8.341,0.021 7.686,0.226 7.128,0.648 L1.69,4.77 C0.33,5.801 0.063,7.74 1.094,9.099 L10.8607602,21.9839707 L23.5519013,21.9839707 L23.5519013,17.2020156 L23.5519013,17.2020156 Z" id="path-27"></path>
        <path d="M0.225996878,0.276769954 C0.69742964,0.48118387 1.12435874,0.80621991 1.457,1.245 L12.6916532,16.0670752 L0.225996878,16.0670752 L0.225996878,0.276769954 L0.225996878,0.276769954 Z" id="path-29"></path>
    </defs>
    <g id="Page-1" stroke="none" stroke-width="1" fill="none" fill-rule="evenodd">
        <g id="img_no_video_source">
            <g id="Group-2">
                <g id="Page-1" transform="translate(3.000000, 5.000000)">
                    <polygon id="Fill-1" fill="#D5DBED" points="81.7517 141.759 51.9527 130.913 62.4877 101.966 92.2877 112.812"></polygon>
                    <polygon id="Stroke-2" stroke="#1E2126" stroke-width="2" stroke-linecap="round" stroke-linejoin="round" points="81.7517 141.759 51.9527 130.913 62.4877 101.966 92.2877 112.812"></polygon>
                    <polygon id="Fill-3" fill="#E4E9F8" points="87.7341 147.8318 43.4661 131.7198 45.9461 124.9078 90.2131 141.0198"></polygon>
                    <polyline id="Stroke-4" stroke="#1E2126" stroke-width="2" stroke-linecap="round" stroke-linejoin="round" points="71.0847 134.0574 90.2137 141.0194 87.7337 147.8314 43.4667 131.7194 45.9457 124.9074 62.4237 130.9054"></polyline>
                    <polygon id="Fill-5" fill="#7687B2" points="104.3289 3.488 112.4129 15.053 114.3889 13.599 110.4199 0"></polygon>
                    <polygon id="Fill-6" fill="#7687B2" points="168.7019 114.8577 165.8329 116.9977 171.6809 125.8767 175.2649 122.2137"></polygon>
                    <polygon id="Stroke-7" stroke="#1E2126" stroke-width="2" stroke-linecap="round" stroke-linejoin="round" points="104.3289 3.488 112.4129 15.053 114.3889 13.599 110.4199 0"></polygon>
                    <polygon id="Stroke-9" stroke="#1E2126" stroke-width="2" stroke-linecap="round" stroke-linejoin="round" points="168.7019 114.8577 165.8329 116.9977 171.6809 125.8767 175.2649 122.2137"></polygon>
                    <polygon id="Fill-10" fill="#7687B2" points="221.0623 76.9167 233.1573 76.9937 231.9093 81.8427 220.8253 80.2187"></polygon>
                    <polygon id="Stroke-11" stroke="#1E2126" stroke-width="2" stroke-linecap="round" stroke-linejoin="round" points="221.0623 76.9167 233.1573 76.9937 231.9093 81.8427 220.8253 80.2187"></polygon>
                    <g id="Group-58" transform="translate(0.000000, 12.405000)">
                        <path d="M12.613,79.6035 L136.895,124.8385 L144.017,105.2705 L130.751,92.0055 L131.329,79.6015 L114.107,65.6195 L118.051,54.7835 L109.306,55.0245 L105.069,57.3385 L104.87,55.1475 L99.844,55.2865 C99.844,55.2865 94.865,43.6195 89.708,31.4965 L37.092,12.3455 L12.613,79.6035 Z" id="Fill-12" fill="#7687B2"></path>
                        <path d="M144.0173,105.271 L130.7503,92.006 L131.3293,79.602 L114.1073,65.62 L118.0513,54.783 L109.3063,55.025 L105.0693,57.339 L104.8703,55.147 L99.8443,55.286 C99.8443,55.286 94.8653,43.619 89.7073,31.496" id="Stroke-14" stroke="#1E2126" stroke-width="2" stroke-linecap="round" stroke-linejoin="round"></path>
                        <path d="M99.8445,55.2861 L54.2655,59.0921" id="Stroke-16" stroke="#1E2126" stroke-width="2" stroke-linecap="round" stroke-linejoin="round"></path>
                        <path d="M68.1248,87.7573 L66.5068,89.0903" id="Stroke-18" stroke="#1E2126" stroke-width="2" stroke-linecap="round" stroke-linejoin="round"></path>
                        <path d="M105.0691,57.3389 L73.1561,83.6149" id="Stroke-20" stroke="#1E2126" stroke-width="2" stroke-linecap="round" stroke-linejoin="round"></path>
                        <path d="M93.364,40.0845 L58.326,33.3665" id="Stroke-22" stroke="#1E2126" stroke-width="2" stroke-linecap="round" stroke-linejoin="round"></path>
                        <path d="M32.5027,36.1231 L23.9187,35.2851" id="Stroke-24" stroke="#1E2126" stroke-width="2" stroke-linecap="round" stroke-linejoin="round"></path>
                        <path d="M40.6658,36.9204 L38.2078,36.6804" id="Stroke-26" stroke="#1E2126" stroke-width="2" stroke-linecap="round" stroke-linejoin="round"></path>
                        <path d="M76.9158,40.4614 L45.6938,37.4114" id="Stroke-28" stroke="#1E2126" stroke-width="2" stroke-linecap="round" stroke-linejoin="round"></path>
                        <path d="M114.1072,65.6196 L87.2252,111.5846" id="Stroke-30" stroke="#1E2126" stroke-width="2" stroke-linecap="round" stroke-linejoin="round"></path>
                        <polyline id="Stroke-32" stroke="#1E2126" stroke-width="2" stroke-linecap="round" stroke-linejoin="round" points="73.5916 47.0694 78.5346 37.2414 90.6356 33.6774"></polyline>
                        <polyline id="Stroke-34" stroke="#1E2126" stroke-width="2" stroke-linecap="round" stroke-linejoin="round" points="95.0105 84.9854 68.1245 57.9354 70.4385 53.3374"></polyline>
                        <path d="M131.3289,79.6016 L100.4279,89.8886" id="Stroke-36" stroke="#1E2126" stroke-width="2" stroke-linecap="round" stroke-linejoin="round"></path>
                        <path d="M115.4255,80.5884 L112.1695,100.6704" id="Stroke-38" stroke="#1E2126" stroke-width="2" stroke-linecap="round" stroke-linejoin="round"></path>
                        <path d="M136.8953,124.8384 L12.6133,79.6034 L37.0923,12.3454 L89.7073,31.4964 C88.0573,27.6174 86.3893,23.6944 84.8603,20.0894 L31.6773,0.7334 L0.9993,85.0184 L142.3103,136.4514 L154.4503,103.0974 L144.0173,105.2714 L136.8953,124.8384 Z" id="Fill-40" fill="#E4E9F8"></path>
                        <path d="M125.9519,120.8555 L12.6129,79.6035 L37.0929,12.3455 L89.7079,31.4965 C88.0569,27.6175 86.3889,23.6945 84.8599,20.0895 L31.6779,0.7325 L0.9999,85.0185 L142.3099,136.4515 L154.4499,103.0975 L144.0169,105.2715 L136.8949,124.8385 L131.0669,122.7175" id="Stroke-42" stroke="#1E2126" stroke-width="2" stroke-linecap="round" stroke-linejoin="round"></path>
                        <path d="M96.1541,25.9014 C103.4541,36.8694 110.4931,47.4214 110.4931,47.4214 L128.2981,43.5794 L131.9031,54.3984 L145.9121,65.5324 L173.4001,54.0164 L175.8701,39.1034 L96.1541,25.9014 Z" id="Fill-44" fill="#7687B2"></path>
                        <path d="M175.8699,39.103 L173.3999,54.017 L181.5699,60.134 L186.2889,31.645 L89.2929,15.581 C91.4589,18.843 93.8189,22.392 96.1539,25.901 L175.8699,39.103 Z" id="Fill-46" fill="#D5DBED"></path>
                        <path d="M175.8699,39.103 L173.3999,54.017 L181.5699,60.134 L186.2889,31.645 L89.2929,15.581 C91.4589,18.843 93.8189,22.392 96.1539,25.901 L175.8699,39.103 Z" id="Stroke-48" stroke="#1E2126" stroke-width="2" stroke-linecap="round" stroke-linejoin="round"></path>
                        <path d="M96.1541,25.9014 C103.4541,36.8694 110.4931,47.4214 110.4931,47.4214 L128.2981,43.5794 L131.9031,54.3984 L145.9121,65.5324 L173.4001,54.0164" id="Stroke-50" stroke="#1E2126" stroke-width="2" stroke-linecap="round" stroke-linejoin="round"></path>
                        <path d="M128.2976,43.5791 L135.8346,32.4731" id="Stroke-52" stroke="#1E2126" stroke-width="2" stroke-linecap="round" stroke-linejoin="round"></path>
                        <path d="M131.5496,53.3374 L153.3886,35.3794" id="Stroke-54" stroke="#1E2126" stroke-width="2" stroke-linecap="round" stroke-linejoin="round"></path>
                        <path d="M217.073,111.1045 L217.073,111.1045 C214.212,113.2735 210.134,112.7115 207.965,109.8505 L155.094,40.0995 C154.063,38.7395 154.33,36.8005 155.69,35.7705 L161.128,31.6485 C162.488,30.6175 164.427,30.8845 165.457,32.2445 L218.327,101.9955 C220.496,104.8575 219.934,108.9355 217.073,111.1045" id="Fill-56" fill="#C9957C"></path>
                    </g>
                    <g id="Group-333" transform="translate(137.000000, 43.405000)">
                        <g id="Group-67" transform="translate(45.000000, 45.000000)">
                            <mask id="mask-2" fill="white">
                                <use xlink:href="#path-1"></use>
                            </mask>
                            <g id="Clip-66"></g>
                            <path d="M7.323,39.6123 C5.71,38.7843 3.96,38.2093 2.111,37.9543 C-1.767,37.4213 -5.205,35.4083 -7.572,32.2873 L-13.037,25.0763 C-11.422,25.9063 -9.669,26.4823 -7.818,26.7373 C-3.944,27.2713 -0.508,29.2813 1.855,32.3993 L7.323,39.6123 Z M-17.281,19.4783 L-21.899,13.3863 L-31.608,0.5763 C-31.876,0.2223 -32.379,0.1533 -32.734,0.4213 C-33.087,0.6903 -33.156,1.1933 -32.889,1.5473 L-23.179,14.3573 L-18.562,20.4493 L-8.852,33.2583 C-6.228,36.7213 -2.412,38.9543 1.891,39.5463 C5.766,40.0803 9.202,42.0913 11.564,45.2083 L12.027,45.8193 L14.94,49.6613 C15.208,50.0153 15.712,50.0853 16.066,49.8173 C16.42,49.5483 16.489,49.0453 16.22,48.6913 L13.308,44.8483 L12.845,44.2373 L3.136,31.4273 C0.514,27.9693 -3.298,25.7373 -7.599,25.1443 C-11.476,24.6113 -14.915,22.5993 -17.281,19.4783 L-17.281,19.4783 Z" id="Fill-65" fill="#B5806A" mask="url(#mask-2)"></path>
                        </g>
                        <g id="Group-70" transform="translate(15.000000, 37.000000)" fill="#B5806A">
                            <path d="M7.0867,0.978 C6.7327,1.246 6.6637,1.75 6.9317,2.104 L10.1327,6.327 C11.1637,7.686 10.8957,9.631 9.5357,10.662 C8.1757,11.692 6.2317,11.425 5.2007,10.065 L1.9997,5.842 C1.7317,5.488 1.2277,5.419 0.8737,5.687 C0.5197,5.956 0.4497,6.459 0.7187,6.813 L3.9197,11.037 C5.4847,13.102 8.4407,13.509 10.5067,11.943 C12.5717,10.377 12.9797,7.421 11.4137,5.356 L8.2127,1.133 C7.9437,0.779 7.4407,0.709 7.0867,0.978" id="Fill-68"></path>
                        </g>
                        <g id="Group-93" transform="translate(8.000000, 48.000000)" fill="#B5806A">
                            <path d="M0.3757,0.3706 C0.0217,0.6386 -0.0473,1.1416 0.2217,1.4956 L11.2787,16.0846 C11.5467,16.4386 12.0507,16.5076 12.4047,16.2396 C12.7587,15.9716 12.8277,15.4676 12.5597,15.1136 L1.5017,0.5256 C1.2327,0.1716 0.7297,0.1016 0.3757,0.3706" id="Fill-91"></path>
                        </g>
                        <g id="Group-111" transform="translate(43.000000, 42.000000)">
                            <mask id="mask-4" fill="white">
                                <use xlink:href="#path-3"></use>
                            </mask>
                            <g id="Clip-110"></g>
                            <path d="M-12.1282,0.916 C-12.4822,1.185 -12.5512,1.688 -12.2822,2.042 L22.7488,48.259 C23.0178,48.613 23.5198,48.682 23.8748,48.414 C24.2278,48.145 24.2978,47.642 24.0288,47.288 L-11.0022,1.071 C-11.2712,0.717 -11.7742,0.647 -12.1282,0.916" id="Fill-109" fill="#B5806A" mask="url(#mask-4)"></path>
                        </g>
                        <path d="M32.1208,30.3721 C31.7668,30.6411 31.6978,31.1441 31.9668,31.4981 L44.5738,48.1321 C44.8428,48.4861 45.3468,48.5551 45.6998,48.2871 C46.0548,48.0181 46.1238,47.5151 45.8548,47.1611 L33.2468,30.5271 C32.9778,30.1731 32.4748,30.1041 32.1208,30.3721" id="Fill-118" fill="#B5806A"></path>
                        <g id="Group-124" transform="translate(64.000000, 70.000000)">
                            <mask id="mask-6" fill="white">
                                <use xlink:href="#path-5"></use>
                            </mask>
                            <g id="Clip-123"></g>
                            <path d="M-1.4729,0.4868 C-1.8269,0.7558 -1.8959,1.2588 -1.6269,1.6128 L8.5811,15.0808 C8.8481,15.4348 9.3521,15.5038 9.7071,15.2358 C10.0601,14.9668 10.1301,14.4638 9.8611,14.1098 L-0.3469,0.6418 C-0.6149,0.2878 -1.1189,0.2188 -1.4729,0.4868" id="Fill-122" fill="#B5806A" mask="url(#mask-6)"></path>
                        </g>
                        <path d="M36.3376,27.1763 C35.9836,27.4453 35.9136,27.9483 36.1826,28.3023 L55.7026,54.0553 C55.9706,54.4093 56.4746,54.4783 56.8286,54.2103 C57.1826,53.9423 57.2516,53.4383 56.9836,53.0843 L37.4636,27.3313 C37.1946,26.9773 36.6916,26.9073 36.3376,27.1763" id="Fill-133" fill="#B5806A"></path>
                        <g id="Group-137" transform="translate(58.000000, 56.000000)">
                            <mask id="mask-8" fill="white">
                                <use xlink:href="#path-7"></use>
                            </mask>
                            <g id="Clip-136"></g>
                            <path d="M0.8816,0.918 C0.5276,1.187 0.4576,1.69 0.7266,2.044 L18.7966,25.885 C19.0656,26.239 19.5686,26.308 19.9226,26.04 C20.2776,25.771 20.3466,25.268 20.0776,24.914 L2.0076,1.073 C1.7386,0.719 1.2356,0.65 0.8816,0.918" id="Fill-135" fill="#B5806A" mask="url(#mask-8)"></path>
                        </g>
                        <path d="M46.3308,31.3501 C45.2948,29.3721 44.7268,27.2041 44.6628,24.9721 C45.6998,26.9491 46.2668,29.1181 46.3308,31.3501 M47.2168,34.7081 C47.2188,34.7071 47.2198,34.7061 47.2218,34.7051 C47.3158,34.6791 47.4088,34.6381 47.4918,34.5751 C47.5378,34.5401 47.5648,34.4931 47.6008,34.4521 C47.6338,34.4141 47.6738,34.3841 47.6988,34.3401 C47.7528,34.2481 47.7888,34.1471 47.8028,34.0431 L47.8038,34.0411 C48.3998,29.7031 47.2728,25.3911 44.6278,21.9011 C44.5868,21.8471 44.5318,21.8131 44.4818,21.7731 C44.4518,21.7481 44.4298,21.7171 44.3958,21.6971 C44.1238,21.5351 43.7698,21.5421 43.5018,21.7461 C43.3238,21.8811 43.2188,22.0751 43.1908,22.2801 L43.1898,22.2811 C42.5928,26.6191 43.7208,30.9301 46.3658,34.4201 C46.5698,34.6891 46.9088,34.7911 47.2168,34.7081" id="Fill-138" fill="#B5806A"></path>
                        <g id="Group-142" transform="translate(46.000000, 25.000000)">
                            <mask id="mask-10" fill="white">
                                <use xlink:href="#path-9"></use>
                            </mask>
                            <g id="Clip-141"></g>
                            <path d="M28.325,43.6445 L25.895,40.4405 C23.511,37.2925 22.493,33.4035 23.031,29.4865 C23.29,27.6105 23.207,25.7435 22.837,23.9415 L25.264,27.1445 C27.65,30.2925 28.668,34.1815 28.129,38.0985 C27.87,39.9745 27.954,41.8425 28.325,43.6445 L28.325,43.6445 Z M14.408,25.2845 C12.021,22.1355 11.005,18.2475 11.544,14.3315 C11.802,12.4545 11.719,10.5865 11.347,8.7845 L18.574,18.3185 C20.961,21.4675 21.978,25.3555 21.438,29.2715 C21.179,31.1475 21.263,33.0155 21.635,34.8185 L14.408,25.2845 Z M8.631,10.4885 C8.86,8.8245 8.831,7.1655 8.564,5.5555 C9.867,8.1855 10.36,11.1425 9.951,14.1165 C9.721,15.7795 9.751,17.4385 10.018,19.0495 C8.714,16.4195 8.221,13.4625 8.631,10.4885 L8.631,10.4885 Z M26.546,26.1745 L19.855,17.3475 L10.57,5.0985 L8.367,2.1915 L5.454,-1.6515 L5.179,-2.0145 L2.266,-5.8565 C1.998,-6.2115 1.495,-6.2805 1.14,-6.0125 C0.787,-5.7435 0.718,-5.2405 0.985,-4.8865 L3.898,-1.0435 L4.174,-0.6805 C6.559,2.4675 7.577,6.3565 7.038,10.2735 C6.44,14.6105 7.568,18.9215 10.214,22.4125 L34.319,54.2145 C34.588,54.5685 35.092,54.6375 35.445,54.3695 C35.8,54.1015 35.869,53.5975 35.6,53.2435 L32.585,49.2655 C30.2,46.1185 29.183,42.2305 29.721,38.3125 C30.318,33.9745 29.191,29.6645 26.546,26.1745 L26.546,26.1745 Z" id="Fill-140" fill="#B5806A" mask="url(#mask-10)"></path>
                        </g>
                        <g id="Group-145" transform="translate(55.000000, 36.000000)">
                            <mask id="mask-12" fill="white">
                                <use xlink:href="#path-11"></use>
                            </mask>
                            <g id="Clip-144"></g>
                            <path d="M0.4822,-15.8291 C0.1282,-15.5601 0.0592,-15.0571 0.3282,-14.7031 L37.3282,34.1119 C37.5962,34.4659 38.1002,34.5349 38.4542,34.2669 C38.8082,33.9989 38.8782,33.4949 38.6092,33.1409 L1.6082,-15.6741 C1.3392,-16.0281 0.8362,-16.0971 0.4822,-15.8291" id="Fill-143" fill="#B5806A" mask="url(#mask-12)"></path>
                        </g>
                        <g id="Group-148" transform="translate(72.000000, 59.000000)">
                            <mask id="mask-14" fill="white">
                                <use xlink:href="#path-13"></use>
                            </mask>
                            <g id="Clip-147"></g>
                            <path d="M1.3074,-24.2925 C0.9534,-24.0245 0.8844,-23.5205 1.1534,-23.1665 L24.6514,7.8345 C24.9194,8.1885 25.4234,8.2585 25.7774,7.9905 C26.1314,7.7215 26.2014,7.2185 25.9324,6.8645 L2.4334,-24.1375 C2.1654,-24.4915 1.6614,-24.5615 1.3074,-24.2925" id="Fill-146" fill="#B5806A" mask="url(#mask-14)"></path>
                        </g>
                        <g id="Group-153" transform="translate(80.000000, 70.000000)">
                            <mask id="mask-16" fill="white">
                                <use xlink:href="#path-15"></use>
                            </mask>
                            <g id="Clip-152"></g>
                            <path d="M0.5447,0.6196 C0.1907,0.8876 0.1217,1.3916 0.3897,1.7456 L3.9597,6.4546 C4.2287,6.8086 4.7317,6.8786 5.0857,6.6106 C5.4397,6.3416 5.5087,5.8386 5.2407,5.4846 L1.6707,0.7746 C1.4017,0.4206 0.8987,0.3506 0.5447,0.6196" id="Fill-151" fill="#B5806A" mask="url(#mask-16)"></path>
                        </g>
                        <g id="Group-156" transform="translate(79.000000, 68.000000)">
                            <mask id="mask-18" fill="white">
                                <use xlink:href="#path-17"></use>
                            </mask>
                            <g id="Clip-155"></g>
                            <path d="M1.2986,-6.1094 C0.2386,-5.3064 0.0296,-3.7914 0.8326,-2.7314 L7.2216,5.6976 C7.4896,6.0516 7.9936,6.1206 8.3476,5.8516 C8.7016,5.5836 8.7716,5.0796 8.5026,4.7256 L2.1136,-3.7024 C1.8466,-4.0554 1.9166,-4.5614 2.2696,-4.8284 C2.6216,-5.0954 3.1276,-5.0264 3.3956,-4.6734 L9.7836,3.7556 C10.0526,4.1096 10.5556,4.1786 10.9096,3.9106 C11.2636,3.6416 11.3326,3.1386 11.0656,2.7846 L4.6756,-5.6444 C3.8726,-6.7044 2.3576,-6.9124 1.2986,-6.1094" id="Fill-154" fill="#B5806A" mask="url(#mask-18)"></path>
                        </g>
                        <g id="Group-283" transform="translate(17.000000, 5.000000)">
                            <mask id="mask-20" fill="white">
                                <use xlink:href="#path-19"></use>
                            </mask>
                            <g id="Clip-282"></g>
                            <path d="M-22.2512,0.4668 C-22.6052,0.7358 -22.6752,1.2388 -22.4062,1.5928 L1.0928,32.5948 C1.3598,32.9488 1.8638,33.0178 2.2188,32.7498 C2.5718,32.4818 2.6418,31.9778 2.3728,31.6238 L-21.1252,0.6218 C-21.3942,0.2678 -21.8972,0.1988 -22.2512,0.4668" id="Fill-281" fill="#B5806A" mask="url(#mask-20)"></path>
                        </g>
                        <g id="Group-289" transform="translate(1.000000, 41.000000)" fill="#B5806A">
                            <path d="M0.9851,0.3794 C0.6311,0.6474 0.5621,1.1514 0.8301,1.5054 L4.4001,6.2144 C4.6691,6.5684 5.1721,6.6384 5.5261,6.3704 C5.8801,6.1014 5.9491,5.5984 5.6811,5.2444 L2.1111,0.5344 C1.8421,0.1804 1.3391,0.1104 0.9851,0.3794" id="Fill-287"></path>
                        </g>
                        <g id="Group-292" transform="translate(0.000000, 32.000000)" fill="#B5806A">
                            <path d="M1.739,0.6504 C0.679,1.4534 0.47,2.9684 1.273,4.0284 L7.663,12.4574 C7.93,12.8114 8.434,12.8804 8.789,12.6114 C9.142,12.3434 9.212,11.8394 8.943,11.4854 L2.554,3.0574 C2.287,2.7044 2.357,2.1984 2.71,1.9314 C3.062,1.6644 3.568,1.7334 3.836,2.0864 L10.224,10.5154 C10.493,10.8694 10.996,10.9384 11.35,10.6704 C11.705,10.4014 11.773,9.8984 11.506,9.5444 L5.117,1.1154 C4.313,0.0554 2.799,-0.1526 1.739,0.6504" id="Fill-290"></path>
                        </g>
                        <g id="Group-295" transform="translate(17.000000, 0.000000)">
                            <mask id="mask-22" fill="white">
                                <use xlink:href="#path-21"></use>
                            </mask>
                            <g id="Clip-294"></g>
                            <path d="M-20.7678,-15.0761 C-24.6958,-12.0991 -25.4688,-6.4821 -22.4928,-2.5561 L-15.8358,6.2259 C-15.5688,6.5799 -15.0648,6.6489 -14.7098,6.3809 C-14.3568,6.1119 -14.2878,5.6089 -14.5558,5.2549 L-21.2118,-3.5271 C-23.6528,-6.7461 -23.0178,-11.3531 -19.7908,-13.8001 C-16.5698,-16.2421 -11.9638,-15.6061 -9.5228,-12.3861 L7.7592,10.4139 C8.0282,10.7679 8.5312,10.8379 8.8852,10.5689 C9.2392,10.3009 9.3082,9.7979 9.0412,9.4439 L-8.2428,-13.3571 C-11.2188,-17.2841 -16.8348,-18.0571 -20.7678,-15.0761" id="Fill-293" fill="#B5806A" mask="url(#mask-22)"></path>
                        </g>
                        <g id="Group-301" transform="translate(17.000000, 4.000000)">
                            <mask id="mask-24" fill="white">
                                <use xlink:href="#path-23"></use>
                            </mask>
                            <g id="Clip-300"></g>
                            <path d="M-0.2307,1.3613 C1.1083,3.1283 0.7603,5.6523 -1.0047,6.9913 C-2.7717,8.3303 -5.2957,7.9823 -6.6347,6.2163 L-18.2037,-9.0447 C-19.5427,-10.8117 -19.1947,-13.3357 -17.4277,-14.6747 C-15.6617,-16.0137 -13.1367,-15.6657 -11.7977,-13.8997 L-0.2307,1.3613 Z M-18.3987,-15.9557 C-20.8707,-14.0817 -21.3577,-10.5457 -19.4837,-8.0747 L-7.9167,7.1873 C-6.0427,9.6593 -2.5057,10.1463 -0.0347,8.2723 C2.4373,6.3983 2.9243,2.8623 1.0503,0.3903 L-10.5167,-14.8707 C-12.3907,-17.3427 -15.9267,-17.8297 -18.3987,-15.9557 L-18.3987,-15.9557 Z" id="Fill-299" fill="#B5806A" mask="url(#mask-24)"></path>
                        </g>
                        <path d="M30.905,22.6792 C30.551,22.9482 30.481,23.4512 30.75,23.8052 L32.769,26.4702 C33.038,26.8242 33.541,26.8932 33.895,26.6252 C34.249,26.3562 34.318,25.8532 34.051,25.4992 L32.031,22.8342 C31.762,22.4802 31.259,22.4112 30.905,22.6792" id="Fill-302" fill="#B5806A"></path>
                        <g id="Group-306" transform="translate(20.000000, 12.000000)">
                            <mask id="mask-26" fill="white">
                                <use xlink:href="#path-25"></use>
                            </mask>
                            <g id="Clip-305"></g>
                            <path d="M-1.9514,1.7007 C-4.4234,3.5747 -4.9104,7.1107 -3.0364,9.5827 L5.0836,20.2957 C5.3526,20.6497 5.8556,20.7187 6.2096,20.4507 C6.5636,20.1817 6.6326,19.6787 6.3636,19.3247 L-1.7564,8.6117 C-3.0954,6.8457 -2.7474,4.3207 -0.9804,2.9817 C0.5646,1.8107 2.6906,1.9297 4.0946,3.1607 C3.6346,3.2437 3.1866,3.4197 2.7896,3.7207 C1.4416,4.7427 1.1756,6.6717 2.1976,8.0197 L9.1596,17.2047 C9.4286,17.5587 9.9326,17.6287 10.2856,17.3607 C10.6406,17.0917 10.7096,16.5887 10.4416,16.2347 L3.4796,7.0487 C2.9916,6.4077 3.1186,5.4877 3.7606,5.0017 C4.4026,4.5147 5.3196,4.6427 5.8066,5.2837 L8.2236,8.4727 C8.4916,8.8267 8.9956,8.8957 9.3496,8.6277 C9.7036,8.3597 9.7736,7.8557 9.5046,7.5017 L5.9306,2.7857 C4.0566,0.3137 0.5206,-0.1733 -1.9514,1.7007" id="Fill-304" fill="#B5806A" mask="url(#mask-26)"></path>
                        </g>
                        <g id="Group-324" transform="translate(17.000000, 0.000000)">
                            <mask id="mask-28" fill="white">
                                <use xlink:href="#path-27"></use>
                            </mask>
                            <g id="Clip-323"></g>
                            <path d="M-10.3411,-22.4751 C-10.6951,-22.2061 -10.7651,-21.7031 -10.4961,-21.3491 L22.1079,21.6659 C22.3759,22.0199 22.8799,22.0889 23.2329,21.8199 C23.5879,21.5519 23.6569,21.0479 23.3879,20.6939 L-9.2151,-22.3201 C-9.4841,-22.6741 -9.9871,-22.7431 -10.3411,-22.4751" id="Fill-322" fill="#B5806A" mask="url(#mask-28)"></path>
                        </g>
                        <path d="M31.0496,1.1397 C30.6956,1.4077 30.6266,1.9117 30.8956,2.2657 L38.1266,11.8067 C38.3956,12.1607 38.8986,12.2297 39.2526,11.9617 C39.6066,11.6927 39.6756,11.1897 39.4076,10.8357 L32.1756,1.2947 C31.9076,0.9407 31.4036,0.8707 31.0496,1.1397" id="Fill-325" fill="#B5806A"></path>
                        <g id="Group-329" transform="translate(27.000000, 0.000000)">
                            <mask id="mask-30" fill="white">
                                <use xlink:href="#path-29"></use>
                            </mask>
                            <g id="Clip-328"></g>
                            <path d="M0.5447,-11.1352 C0.1907,-10.8662 0.1207,-10.3632 0.3897,-10.0092 L19.9137,15.7488 C20.1817,16.1028 20.6857,16.1718 21.0397,15.9038 C21.3937,15.6348 21.4627,15.1318 21.1937,14.7778 L1.6707,-10.9802 C1.4017,-11.3342 0.8987,-11.4032 0.5447,-11.1352" id="Fill-327" fill="#B5806A" mask="url(#mask-30)"></path>
                        </g>
                    </g>
                    <g id="Group-388" transform="translate(32.000000, 10.405000)">
                        <path d="M186.3269,103.9956 C188.4959,106.8576 187.9339,110.9356 185.0729,113.1046 C182.2119,115.2736 178.1339,114.7116 175.9649,111.8506 L123.0949,42.0996 C122.0629,40.7396 122.3299,38.8006 123.6899,37.7696 L129.1279,33.6486 C130.4879,32.6176 132.4269,32.8846 133.4569,34.2446 L170.0059,82.4626 L186.3269,103.9956 Z" id="Stroke-334" stroke="#1E2126" stroke-width="2" stroke-linecap="round" stroke-linejoin="round"></path>
                        <polygon id="Fill-336" fill="#D0D9EB" points="182.1765 56.75 133.7655 93.445 107.2765 58.497 155.6875 21.802"></polygon>
                        <polygon id="Fill-338" fill="#FFFFFF" points="166.6716 36.2935 118.2596 72.9885 114.9766 68.6565 163.3876 31.9615"></polygon>
                        <polygon id="Stroke-340" stroke="#1E2126" stroke-width="2" stroke-linecap="round" stroke-linejoin="round" points="182.1765 56.75 133.7655 93.445 107.2765 58.497 155.6875 21.802"></polygon>
                        <path d="M165.9812,36.8164 L159.6692,41.6014" id="Stroke-342" stroke="#1E2126" stroke-width="2" stroke-linecap="round" stroke-linejoin="round"></path>
                        <path d="M155.7986,44.5347 L122.5956,69.7017" id="Stroke-344" stroke="#1E2126" stroke-width="2" stroke-linecap="round" stroke-linejoin="round"></path>
                        <path d="M130.2322,99.3067 L136.0202,94.9187 L106.4652,55.9277 L100.6772,60.3157 C99.0822,61.5247 98.7692,63.7977 99.9782,65.3927 L125.1542,98.6077 C126.3632,100.2027 128.6362,100.5157 130.2322,99.3067" id="Fill-346" fill="#E4E9F8"></path>
                        <path d="M114.0125,77.9072 L119.8005,73.5192 L113.9185,65.7592 L108.1295,70.1462 C106.5345,71.3552 106.2215,73.6292 107.4305,75.2242 L108.9345,77.2082 C110.1435,78.8032 112.4165,79.1162 114.0125,77.9072" id="Fill-348" fill="#FFFFFF"></path>
                        <path d="M182.9871,59.3194 L188.7761,54.9314 C190.3711,53.7224 190.6831,51.4494 189.4741,49.8544 L164.2991,16.6394 C163.0901,15.0444 160.8161,14.7314 159.2211,15.9404 L153.4321,20.3284 L182.9871,59.3194 Z" id="Fill-350" fill="#E4E9F8"></path>
                        <path d="M111.7185,80.8823 L120.3955,74.3053" id="Stroke-352" stroke="#1E2126" stroke-width="2" stroke-linecap="round" stroke-linejoin="round"></path>
                        <path d="M166.7673,37.9204 L172.5553,33.5324 C174.1513,32.3234 174.4633,30.0504 173.2543,28.4554 L171.7503,26.4704 C170.5413,24.8754 168.2683,24.5624 166.6733,25.7714 L160.8843,30.1594 L166.7673,37.9204 Z" id="Fill-354" fill="#FFFFFF"></path>
                        <path d="M167.3621,38.7061 L173.1481,34.3201" id="Stroke-356" stroke="#1E2126" stroke-width="2" stroke-linecap="round" stroke-linejoin="round"></path>
                        <path d="M108.7585,69.4717 L113.8225,65.6337" id="Stroke-358" stroke="#1E2126" stroke-width="2" stroke-linecap="round" stroke-linejoin="round"></path>
                        <path d="M160.7888,30.0342 L163.6848,27.8392" id="Stroke-360" stroke="#1E2126" stroke-width="2" stroke-linecap="round" stroke-linejoin="round"></path>
                        <path d="M130.2322,99.3067 L136.0202,94.9187 L106.4652,55.9277 L100.6772,60.3157 C99.0822,61.5247 98.7692,63.7977 99.9782,65.3927 L125.1542,98.6077 C126.3632,100.2027 128.6362,100.5157 130.2322,99.3067 Z" id="Stroke-362" stroke="#1E2126" stroke-width="2" stroke-linecap="round" stroke-linejoin="round"></path>
                        <path d="M182.9871,59.3194 L188.7761,54.9314 C190.3711,53.7224 190.6831,51.4494 189.4741,49.8544 L164.2991,16.6394 C163.0901,15.0444 160.8161,14.7314 159.2211,15.9404 L153.4321,20.3284 L182.9871,59.3194 Z" id="Stroke-364" stroke="#1E2126" stroke-width="2" stroke-linecap="round" stroke-linejoin="round"></path>
                        <path d="M0.7175,88.5029 L51.7935,67.3439" id="Stroke-366" stroke="#1E2126" stroke-width="2" stroke-linecap="round" stroke-linejoin="round"></path>
                        <path d="M121.3884,2.2744 L121.3884,6.8234" id="Stroke-368" stroke="#7687B2" stroke-width="2" stroke-linecap="round" stroke-linejoin="round"></path>
                        <path d="M123.6628,4.5489 L119.1148,4.5489" id="Stroke-370" stroke="#7687B2" stroke-width="2" stroke-linecap="round" stroke-linejoin="round"></path>
                        <path d="M52.155,0.4229 L51.083,1.4949" id="Stroke-372" stroke="#7687B2" stroke-width="2" stroke-linecap="round" stroke-linejoin="round"></path>
                        <path d="M46.7947,5.7832 L45.7227,6.8552" id="Stroke-374" stroke="#7687B2" stroke-width="2" stroke-linecap="round" stroke-linejoin="round"></path>
                        <path d="M52.155,6.8555 L51.083,5.7835" id="Stroke-376" stroke="#7687B2" stroke-width="2" stroke-linecap="round" stroke-linejoin="round"></path>
                        <path d="M46.7947,1.4951 L45.7227,0.4231" id="Stroke-378" stroke="#7687B2" stroke-width="2" stroke-linecap="round" stroke-linejoin="round"></path>
                        <path d="M160.2039,119.5322 L159.1319,120.6042" id="Stroke-380" stroke="#7687B2" stroke-width="2" stroke-linecap="round" stroke-linejoin="round"></path>
                        <path d="M154.8435,124.8926 L153.7715,125.9646" id="Stroke-382" stroke="#7687B2" stroke-width="2" stroke-linecap="round" stroke-linejoin="round"></path>
                        <path d="M160.2039,125.9644 L159.1319,124.8924" id="Stroke-384" stroke="#7687B2" stroke-width="2" stroke-linecap="round" stroke-linejoin="round"></path>
                        <path d="M154.8435,120.604 L153.7715,119.532" id="Stroke-386" stroke="#7687B2" stroke-width="2" stroke-linecap="round" stroke-linejoin="round"></path>
                    </g>
                </g>
                <rect id="Rectangle-23" x="0" y="0" width="240" height="160"></rect>
            </g>
        </g>
    </g>
</svg>