<svg id="burst" xmlns="http://www.w3.org/2000/svg" viewBox="0 0 200 190"><style>.st0{fill:#738BD7;} .st1{fill:none;stroke:#7C93E4;stroke-width:2;stroke-linecap:round;stroke-linejoin:round;stroke-miterlimit:10;}</style><circle class="st0" cx="97.4" cy="108.2" r="48.9"/><circle class="st1" cx="97.4" cy="108.2" r="48.9"/><circle class="st0" cx="97.4" cy="108.2" r="37.5"/><circle class="st1" cx="97.4" cy="108.2" r="37.5"/><path class="st1" d="M97.4 50.2V17.6M97.4 10.7V7.6M104.9 42.7V21.5M97.3 180.7v-42.6"/><path class="st0" d="M127.8 102.3c2.5 0 66 3.6 63.9 4l-63.9 6.5"/><path class="st1" d="M127.8 102.3c2.5 0 66 3.6 63.9 4l-63.9 6.5"/><path class="st0" d="M72.5 102.3c-2.5 0-66 3.6-63.9 4l63.9 6.5"/><path class="st1" d="M72.5 102.3c-2.5 0-66 3.6-63.9 4l63.9 6.5"/></svg>