<?xml version="1.0" encoding="UTF-8" standalone="no"?>
<svg width="74px" height="74px" viewBox="0 0 74 74" version="1.1" xmlns="http://www.w3.org/2000/svg" xmlns:xlink="http://www.w3.org/1999/xlink" xmlns:sketch="http://www.bohemiancoding.com/sketch/ns">
    <!-- Generator: Sketch 3.3.3 (12081) - http://www.bohemiancoding.com/sketch -->
    <title>1f4a9</title>
    <desc>Created with Sketch.</desc>
    <defs>
        <path id="path-1" d="M0,77.1875 L77.1875,77.1875 L77.1875,0 L0,0 L0,77.1875 L0,77.1875 Z"></path>
    </defs>
    <g id="Welcome" stroke="none" stroke-width="1" fill="none" fill-rule="evenodd" sketch:type="MSPage">
        <g id="1f4a9" sketch:type="MSLayerGroup" transform="translate(-2.000000, -3.000000)">
            <g id="g10" transform="translate(39.000000, 39.187500) scale(1, -1) translate(-39.000000, -39.187500) translate(0.000000, 0.187500)">
                <g id="g12">
                    <g id="g14-Clipped">
                        <mask id="mask-2" sketch:name="path18" fill="white">
                            <use xlink:href="#path-1"></use>
                        </mask>
                        <g id="path18"></g>
                        <g id="g14" mask="url(#mask-2)">
                            <g transform="translate(1.000000, 1.000000)">
                                <g id="g20" transform="translate(0.098906, 0.628656)">
                                    <path d="M69.0625,26.40625 C69.801875,29.6115625 69.5560937,33.0403125 68.1321875,36.4528125 C66.755,39.7535937 64.3804687,42.36375 61.4879687,44.1167187 C62.1359375,46.54 61.9653125,49.1440625 60.8298437,51.7359375 C59.1215625,55.6359375 55.4267187,58.2379687 51.2585937,58.97125 C51.764375,60.133125 51.926875,61.5875 51.3317187,63.3729687 C49.3004687,69.4667187 41.1754687,65.4042187 35.0817187,73.5271875 C30.1275,70.5534375 29.0509375,66.1354687 29.2378125,62.3817187 C24.318125,61.5448437 21.5190625,60.4804687 21.5190625,60.4804687 L21.5190625,60.4764062 C18.7545312,59.3571875 16.8004687,56.6495312 16.8004687,53.4828125 C16.8004687,51.6973437 17.4464062,50.0784375 18.484375,48.7865625 L17.07875,48.2604687 L17.0807812,48.254375 C12.3479687,46.4871875 9.0065625,42.209375 9.0065625,37.2064062 C9.0065625,35.0817187 9.6159375,33.0890625 10.6721875,31.3604687 C4.9359375,28.7848437 0.93234375,23.1907812 0.93234375,16.6521875 C0.93234375,7.678125 8.4296875,0.4021875 17.6779687,0.4021875 C24.318125,0.4021875 31.0009375,1.83015625 37.0378125,3.78421875 C41.5939062,1.67171875 48.6057812,0.4021875 59.1621875,0.4021875 C67.38875,0.4021875 74.0573437,7.07078125 74.0573437,15.2973437 C74.0573437,19.7173437 72.1215625,23.67625 69.0625,26.40625" id="path22" fill="#DBDDE1" sketch:type="MSShapeGroup"></path>
                                </g>
                                <g id="g24" transform="translate(21.343750, 32.515625)">
                                    <path d="M14.21875,10.15625 C14.21875,5.10859375 11.0357812,1.015625 7.109375,1.015625 C3.18296875,1.015625 0,5.10859375 0,10.15625 C0,15.2039062 3.18296875,19.296875 7.109375,19.296875 C11.0357812,19.296875 14.21875,15.2039062 14.21875,10.15625" id="path26" fill="#F5F8FA" sketch:type="MSShapeGroup"></path>
                                </g>
                                <g id="g28" transform="translate(41.656250, 32.515625)">
                                    <path d="M14.21875,10.15625 C14.21875,5.10859375 11.0378125,1.015625 7.109375,1.015625 C3.1809375,1.015625 0,5.10859375 0,10.15625 C0,15.2039062 3.1809375,19.296875 7.109375,19.296875 C11.0378125,19.296875 14.21875,15.2039062 14.21875,10.15625" id="path30" fill="#F5F8FA" sketch:type="MSShapeGroup"></path>
                                </g>
                                <g id="g32" transform="translate(25.406250, 37.578125)">
                                    <path d="M8.125,5.09375 C8.125,2.28859375 6.305,0.015625 4.0625,0.015625 C1.82,0.015625 0,2.28859375 0,5.09375 C0,7.89890625 1.82,10.171875 4.0625,10.171875 C6.305,10.171875 8.125,7.89890625 8.125,5.09375" id="path34" fill="#99AAB5" sketch:type="MSShapeGroup"></path>
                                </g>
                                <g id="g36" transform="translate(43.687500, 37.578125)">
                                    <path d="M8.125,5.09375 C8.125,2.28859375 6.305,0.015625 4.0625,0.015625 C1.82,0.015625 0,2.28859375 0,5.09375 C0,7.89890625 1.82,10.171875 4.0625,10.171875 C6.305,10.171875 8.125,7.89890625 8.125,5.09375" id="path38" fill="#99AAB5" sketch:type="MSShapeGroup"></path>
                                </g>
                            </g>
                        </g>
                    </g>
                    <path d="M46.7839437,20.8477332 C46.5939437,21.0127332 46.3226937,21.0464832 46.0951937,20.9339832 L41.0951937,18.4339832 C38.7564437,17.2652332 32.6864437,17.2502332 32.6251937,17.2502332 L32.6239437,17.2502332 C32.2789437,17.2502332 32.0001937,16.9702332 32.0001937,16.6252332 C32.0001937,16.3939832 32.1251937,16.1914832 32.3126937,16.0839832 L32.3126937,16.0827332 L32.3139437,16.0827332 L32.3151937,16.0814832 C32.4039437,16.0314832 32.5064437,16.0027332 32.6151937,16.0002332 L32.6251937,16.0002332 L41.3751937,16.0002332 C44.6976937,16.0002332 46.4864437,18.7327332 46.9676937,20.1777332 C47.0476937,20.4177332 46.9751937,20.6814832 46.7839437,20.8477332" id="path62" fill="#99AAB5" sketch:type="MSShapeGroup"></path>
                </g>
            </g>
        </g>
    </g>
</svg>