<svg xmlns="http://www.w3.org/2000/svg" width="140" height="96" viewBox="0 0 140 96">
  <g fill="none" fill-rule="evenodd">
    <g transform="translate(7 2)">
      <polygon fill="#72767D" fill-opacity=".3" points="108.054 25.704 84.637 2 61.351 25.822 68.482 25.773 68.521 65.28 100.961 65.211 100.923 25.704"/>
      <g transform="translate(0 .493)">
        <path fill="#202225" d="M68.8728,37.4023 C68.8108,37.6603 68.6468,37.8823 68.4208,38.0203 L67.4178,38.6293 L69.4198,41.9263 L69.4028,25.2793 C69.4028,25.0133 69.2968,24.7573 69.1068,24.5703 C68.9208,24.3843 68.6668,24.2803 68.4028,24.2803 L68.3958,24.2803 L66.0628,24.2963 C65.1748,24.3023 64.7208,23.2323 65.3418,22.5973 L83.1618,4.3673 C83.9318,3.5803 85.1978,3.5763 85.9718,4.3603 L103.8998,22.5083 C104.5238,23.1403 104.0768,24.2113 103.1878,24.2113 L100.8448,24.2113 C100.5788,24.2113 100.3248,24.3173 100.1378,24.5053 C99.9498,24.6923 99.8448,24.9463 99.8448,25.2123 L99.8568,37.9923 C100.5808,38.2263 101.2528,38.5643 101.8578,39.0013 L101.8498,30.2153 C101.8478,28.0053 103.6398,26.2113 105.8498,26.2113 L107.9758,26.2113 C108.3788,26.2113 108.7428,25.9693 108.8978,25.5973 C109.0538,25.2243 108.9708,24.7953 108.6868,24.5083 L85.2698,0.8043 C85.0828,0.6143 84.8258,0.5073 84.5598,0.5073 L84.5568,0.5073 C84.2878,0.5073 84.0318,0.6163 83.8438,0.8083 L60.5578,24.6303 C60.2748,24.9193 60.1938,25.3483 60.3518,25.7203 C60.5108,26.0913 60.8588,26.3423 61.2788,26.3293 L63.3808,26.3143 C65.5998,26.2993 67.4058,28.0923 67.4078,30.3103 L67.4118,34.4323 L68.7568,36.6463 C68.8938,36.8723 68.9358,37.1443 68.8728,37.4023"/>
        <path fill="#8EA1E1" d="M36.2058 46.812L15.9288 46.812 26.7678 57.651C26.8008 57.648 26.8288 57.632 26.8618 57.632L39.0488 57.632 44.3938 57.632 42.1658 53.963 41.1618 54.573C41.0048 54.669 40.8248 54.718 40.6428 54.718 40.5628 54.718 40.4838 54.709 40.4058 54.689 40.1478 54.626 39.9258 54.464 39.7878 54.237L36.0258 48.042C35.7778 47.633 35.8738 47.129 36.2058 46.812M25.862 61.1274L17.549 69.4404C17.235 69.7534 16.899 70.0364 16.554 70.3034L25.862 70.3034 25.862 61.1274z"/>
        <path fill="#C7D0F0" d="M16.1355,68.0259 L25.2255,58.9369 L13.5145,47.2259 L4.4245,56.3159 C2.8615,57.8799 1.9995,59.9589 1.9995,62.1709 C1.9995,64.3829 2.8615,66.4619 4.4245,68.0259 L4.4255,68.0259 C5.9895,69.5899 8.0685,70.4509 10.2805,70.4509 C12.4915,70.4509 14.5715,69.5899 16.1355,68.0259"/>
        <polygon fill="#D37979" points="49.732 34.309 41.753 21.204 38.506 23.176 46.485 36.28"/>
        <polygon fill="#72767D" points="52.011 35.265 46.285 38.742 47.129 40.13 52.855 36.653"/>
        <polygon fill="#DCDDDE" points="41.953 18.743 40.923 17.045 35.198 20.521 36.228 22.219"/>
        <path fill="#FFFFFF" d="M59.4812,54.0181 C58.9782,54.3231 58.4132,54.4801 57.8382,54.4801 C57.5852,54.4801 57.3322,54.4501 57.0802,54.3891 C56.2562,54.1871 55.5602,53.6771 55.1202,52.9531 C54.6792,52.2271 54.5482,51.3751 54.7502,50.5511 C54.9512,49.7271 55.4602,49.0311 56.1852,48.5911 C56.9102,48.1511 57.7622,48.0201 58.5862,48.2211 C59.4102,48.4221 60.1062,48.9331 60.5462,49.6571 C61.4552,51.1541 60.9772,53.1101 59.4812,54.0181 L59.4812,54.0181 Z M65.7082,39.6671 L49.6842,49.3981 L54.6842,57.6321 L61.2982,57.6321 C61.3032,57.5901 61.3022,57.5491 61.3072,57.5071 C61.9712,52.1871 64.7602,47.6461 68.7132,44.6171 L65.7082,39.6671 Z"/>
        <polygon fill="#FFFFFF" points="43.876 52.925 46.734 57.632 52.344 57.632 47.975 50.436"/>
        <polygon fill="#DCDDDE" points="38.255 47.859 40.98 52.344 66.528 36.83 63.805 32.344"/>
        <path fill="#FBB848" d="M58.8366,50.6953 C58.6746,50.4273 58.4166,50.2383 58.1116,50.1643 C57.8066,50.0883 57.4906,50.1383 57.2236,50.3003 C56.9556,50.4643 56.7666,50.7213 56.6916,51.0263 C56.6176,51.3303 56.6666,51.6463 56.8286,51.9143 C56.9916,52.1823 57.2496,52.3713 57.5546,52.4453 C57.8596,52.5193 58.1736,52.4713 58.4426,52.3083 C58.9956,51.9723 59.1736,51.2483 58.8366,50.6953"/>
        <path fill="#F75959" d="M63.3132,57.6318 L77.2972,57.6318 L78.4272,51.9088 C78.6132,50.9688 79.4942,50.3328 80.4452,50.4508 L86.5842,51.2168 C87.4282,51.3228 88.0872,51.9978 88.1732,52.8438 L88.4252,55.3158 L89.2762,52.9818 C89.5672,52.1818 90.3732,51.6898 91.2162,51.7958 L97.1932,52.5408 C98.1442,52.6598 98.8402,53.4928 98.7902,54.4498 L98.6212,57.6318 L111.6542,57.6318 C111.0822,55.2968 110.0312,53.0798 108.5042,51.1168 C106.5242,48.5718 103.9352,46.6908 101.0102,45.5818 C100.0962,46.4608 98.9572,47.1728 97.6322,47.6188 C96.6452,47.9508 95.6482,48.1128 94.6822,48.1128 C92.5512,48.1128 90.5822,47.3178 89.2062,45.8478 C88.0672,46.5758 86.7492,46.9558 85.3752,46.9558 C83.7802,46.9558 82.1212,46.4678 80.6152,45.4948 C79.4932,44.7698 78.5862,43.8548 77.9232,42.8338 C70.4762,43.9238 64.3442,49.8288 63.3132,57.6318"/>
        <path fill="#69C49A" d="M89.7233,41.7554 C90.6373,40.2134 92.1483,38.9674 94.0353,38.2394 C94.0563,37.4934 93.8413,36.7504 93.4113,36.1254 C92.8373,35.2924 91.9333,34.7434 90.9303,34.6174 C89.9173,34.4924 88.9063,34.8024 88.1463,35.4674 C87.4863,36.0464 87.0853,36.8514 86.9813,37.7154 C88.3283,38.8294 89.2763,40.2404 89.7233,41.7554"/>
        <path fill="#B4E1CD" d="M81.7009 43.8154C83.7819 45.1594 86.2049 45.3224 87.9919 44.2694 88.2169 42.2064 87.0719 40.0654 84.9899 38.7214 82.9089 37.3764 80.4859 37.2134 78.6989 38.2674 78.4739 40.3304 79.6189 42.4714 81.7009 43.8154M95.0564 39.9771C92.7074 40.7691 91.0724 42.5631 90.7834 44.6181 92.2574 46.0781 94.6454 46.5161 96.9934 45.7241 99.3414 44.9321 100.9774 43.1381 101.2664 41.0831 99.7914 39.6231 97.4044 39.1851 95.0564 39.9771"/>
        <path fill="#FFFFFF" d="M98.7897,54.4497 C98.8407,53.4927 98.1437,52.6597 97.1927,52.5407 L91.2167,51.7957 C90.3727,51.6897 89.5667,52.1817 89.2757,52.9817 L88.4257,55.3157 L88.1737,52.8447 C88.0877,51.9977 87.4287,51.3227 86.5837,51.2177 L80.4447,50.4507 C79.4937,50.3327 78.6127,50.9697 78.4277,51.9087 L77.2977,57.6317 L79.1577,57.6317 L79.9997,53.3687 C80.1227,52.7457 80.7077,52.3237 81.3377,52.4027 L85.4007,52.9087 C85.9607,52.9787 86.3977,53.4267 86.4557,53.9887 L86.8257,57.6317 L89.5227,57.6317 L90.6607,54.5127 C90.8537,53.9827 91.3887,53.6567 91.9477,53.7257 L95.8477,54.2127 C96.4777,54.2917 96.9407,54.8447 96.9067,55.4787 L96.7927,57.6317 L98.6207,57.6317 L98.7897,54.4497 Z"/>
        <path fill="#C7D0F0" d="M38.0485,89 L38.0485,77.823 C38.0485,77.271 38.4955,76.823 39.0485,76.823 C39.1535,76.823 39.2495,76.853 39.3455,76.883 L39.3455,72.294 C39.2495,72.325 39.1535,72.354 39.0485,72.354 C38.4955,72.354 38.0485,71.907 38.0485,71.354 L38.0485,69.335 C38.0485,68.783 38.4955,68.335 39.0485,68.335 C39.1535,68.335 39.2495,68.365 39.3455,68.395 L39.3455,65.726 C39.2495,65.756 39.1535,65.786 39.0485,65.786 C38.4955,65.786 38.0485,65.338 38.0485,64.786 L38.0485,59.632 L27.8615,59.632 L27.8615,89 L38.0485,89 Z"/>
        <path fill="#E3E7F8" d="M40.0485,69.335 L40.0485,71.355 C40.0485,71.801 39.7495,72.167 39.3455,72.294 L39.3455,76.883 C39.7495,77.011 40.0485,77.376 40.0485,77.823 L40.0485,89 L51.2695,89 L51.2695,72.148 C51.2695,69.939 53.0605,68.148 55.2695,68.148 L105.9375,68.148 C108.1465,68.148 109.9375,69.939 109.9375,72.148 L109.9375,89 L116.1585,89 L116.1585,59.632 L40.0485,59.632 L40.0485,64.786 C40.0485,65.233 39.7495,65.598 39.3455,65.726 L39.3455,68.395 C39.7495,68.523 40.0485,68.888 40.0485,69.335"/>
        <path fill="#8EA1E1" d="M107.9372 70.1475L86.6142 70.1475C86.6312 70.2205 86.6592 70.2885 86.6592 70.3665L86.6592 88.7815C86.6592 88.8585 86.6312 88.9275 86.6142 89.0005L107.9372 89.0005 107.9372 70.1475zM80.4147 88.7813L80.4147 70.3663C80.4147 70.2883 80.4427 70.2203 80.4607 70.1473L53.2687 70.1473 53.2687 89.0003 80.4607 89.0003C80.4427 88.9273 80.4147 88.8593 80.4147 88.7813"/>
        <path fill="#E3E7F8" d="M84.6589,88.7813 L84.6589,70.3663 C84.6589,70.2883 84.6859,70.2203 84.7029,70.1473 L81.5039,70.1473 C81.5209,70.2203 81.5489,70.2883 81.5489,70.3663 L81.5489,88.7813 C81.5489,88.8593 81.5209,88.9273 81.5039,89.0003 L84.7029,89.0003 C84.6859,88.9273 84.6589,88.8593 84.6589,88.7813"/>
        <path fill="#FFFFFF" d="M120.1296 40.8569C121.1976 40.8569 122.0666 41.7259 122.0666 42.7939 122.0666 43.8619 121.1976 44.7319 120.1296 44.7319 119.0626 44.7319 118.1926 43.8619 118.1926 42.7939 118.1926 41.7259 119.0626 40.8569 120.1296 40.8569M120.1296 45.7319C121.7496 45.7319 123.0676 44.4139 123.0676 42.7939 123.0676 41.1739 121.7496 39.8569 120.1296 39.8569 118.5106 39.8569 117.1926 41.1739 117.1926 42.7939 117.1926 44.4139 118.5106 45.7319 120.1296 45.7319M111.2995 34.1714L111.2995 34.1714C112.3695 34.1714 113.2365 35.0384 113.2365 36.1084 113.2365 36.3844 113.4605 36.6084 113.7375 36.6084 114.0135 36.6084 114.2375 36.3844 114.2375 36.1084 114.2375 35.0384 115.1045 34.1714 116.1735 34.1714 116.4495 34.1714 116.6735 33.9474 116.6735 33.6714 116.6735 33.3954 116.4495 33.1714 116.1735 33.1714 115.1045 33.1714 114.2375 32.3044 114.2375 31.2344L114.2375 31.2334C114.2375 30.9574 114.0135 30.7334 113.7375 30.7334 113.4605 30.7334 113.2365 30.9574 113.2365 31.2334L113.2365 31.2344C113.2365 32.3044 112.3695 33.1714 111.2995 33.1714 111.0235 33.1714 110.7995 33.3954 110.7995 33.6714 110.7995 33.9474 111.0235 34.1714 111.2995 34.1714"/>
        <path fill="#040405" d="M58.4431 52.3086C58.1731 52.4716 57.8601 52.5186 57.5541 52.4456 57.2501 52.3706 56.9921 52.1826 56.8291 51.9146 56.6671 51.6456 56.6181 51.3306 56.6921 51.0256 56.7661 50.7216 56.9561 50.4636 57.2231 50.3006 57.4911 50.1386 57.8061 50.0886 58.1121 50.1636 58.4171 50.2386 58.6741 50.4276 58.8371 50.6956 59.1731 51.2486 58.9961 51.9726 58.4431 52.3086M58.5871 48.2216C57.7621 48.0196 56.9101 48.1516 56.1851 48.5916 55.4611 49.0316 54.9511 49.7276 54.7501 50.5516 54.5481 51.3746 54.6791 52.2276 55.1201 52.9526 55.5601 53.6776 56.2561 54.1876 57.0801 54.3886 57.3321 54.4506 57.5861 54.4806 57.8391 54.4806 58.4131 54.4806 58.9781 54.3236 59.4811 54.0176 60.9771 53.1096 61.4551 51.1536 60.5471 49.6576 60.1061 48.9326 59.4101 48.4226 58.5871 48.2216M39.3454 68.395C39.2494 68.365 39.1544 68.335 39.0484 68.335 38.4954 68.335 38.0484 68.783 38.0484 69.335L38.0484 71.354C38.0484 71.907 38.4954 72.354 39.0484 72.354 39.1544 72.354 39.2494 72.325 39.3454 72.294 39.7494 72.166 40.0484 71.801 40.0484 71.354L40.0484 69.335C40.0484 68.888 39.7494 68.523 39.3454 68.395"/>
        <path fill="#040405" d="M112.1589,89 L111.9369,89 C110.8329,89 109.9369,88.104 109.9369,87 L109.9369,71.147 C109.9369,69.491 108.5949,68.147 106.9369,68.147 L54.2689,68.147 C52.6129,68.147 51.2689,69.491 51.2689,71.147 L51.2689,87 C51.2689,88.104 50.3739,89 49.2689,89 L42.0489,89 C40.9439,89 40.0489,88.104 40.0489,87 L40.0489,77.823 C40.0489,77.376 39.7499,77.011 39.3459,76.883 C39.2499,76.853 39.1539,76.823 39.0489,76.823 C38.4959,76.823 38.0489,77.271 38.0489,77.823 L38.0489,87 C38.0489,88.104 37.1529,89 36.0489,89 L31.8619,89 C29.6529,89 27.8619,87.209 27.8619,85 L27.8619,63.632 C27.8619,61.423 29.6529,59.632 31.8619,59.632 L36.0489,59.632 C37.1529,59.632 38.0489,60.527 38.0489,61.632 L38.0489,64.786 C38.0489,65.338 38.4959,65.786 39.0489,65.786 C39.1539,65.786 39.2499,65.756 39.3459,65.726 C39.7499,65.598 40.0489,65.233 40.0489,64.786 L40.0489,61.632 C40.0489,60.527 40.9439,59.632 42.0489,59.632 L112.1589,59.632 C114.3679,59.632 116.1589,61.423 116.1589,63.632 L116.1589,85 C116.1589,87.209 114.3679,89 112.1589,89 L112.1589,89 Z M105.9369,89 L86.6139,89 C86.6319,88.927 86.6319,71.221 86.6139,71.148 L105.9369,71.148 C107.0419,71.148 107.9369,72.043 107.9369,73.148 L107.9369,87 C107.9369,88.104 107.0419,89 105.9369,89 L105.9369,89 Z M83.1029,89 L83.1029,89 C82.2229,89 81.5099,88.29 81.5119,87.41 C81.5179,84.021 81.5179,76.127 81.5119,72.739 C81.5099,71.858 82.2229,71.148 83.1029,71.148 C83.9839,71.148 84.6969,71.858 84.6949,72.739 C84.6879,76.127 84.6879,84.021 84.6949,87.41 C84.6969,88.29 83.9839,89 83.1029,89 L83.1029,89 Z M79.5979,89 L55.2689,89 C54.1649,89 53.2689,88.104 53.2689,87 L53.2689,73.148 C53.2689,72.043 54.1649,71.148 55.2689,71.148 L79.5979,71.148 C79.5819,71.221 79.5819,88.927 79.5979,89 L79.5979,89 Z M24.8619,70.304 L19.0239,70.304 C18.1299,70.304 17.6799,69.223 18.3189,68.595 C19.9999,66.943 22.5069,64.458 24.1629,62.815 C24.7939,62.189 25.8619,62.641 25.8619,63.53 L25.8619,69.304 C25.8619,69.856 25.4149,70.304 24.8619,70.304 L24.8619,70.304 Z M10.8119,70.435 C8.4029,70.584 6.1139,69.714 4.4259,68.026 L4.4249,68.026 C2.7359,66.337 1.8669,64.048 2.0159,61.64 C2.1459,59.543 3.1459,57.595 4.6309,56.11 L10.6859,50.055 C12.2479,48.492 14.7809,48.492 16.3439,50.055 L22.3959,56.108 C23.9589,57.67 23.9589,60.203 22.3959,61.765 L16.3419,67.82 C14.8559,69.305 12.9079,70.305 10.8119,70.435 L10.8119,70.435 Z M34.1799,46.812 C34.9639,46.812 35.6329,47.29 35.9949,47.985 C36.0049,48.004 36.0149,48.023 36.0259,48.042 L39.7879,54.237 C39.9259,54.464 40.1479,54.626 40.4059,54.689 C40.4839,54.709 40.5629,54.718 40.6429,54.718 C40.8249,54.718 41.0049,54.669 41.1619,54.573 L42.1659,53.963 L43.4709,56.113 C43.8759,56.779 43.3959,57.632 42.6169,57.632 L39.0489,57.632 L27.5769,57.632 C27.0469,57.632 26.5379,57.421 26.1629,57.046 L19.3429,50.226 C18.0829,48.966 18.9749,46.812 20.7579,46.812 L34.1799,46.812 Z M40.4979,46.497 L61.5609,33.706 C62.7999,32.954 64.4139,33.348 65.1659,34.587 C65.9179,35.826 65.5239,37.439 64.2849,38.191 L43.2209,50.982 C41.9829,51.734 40.3689,51.34 39.6169,50.102 C38.8649,48.863 39.2599,47.249 40.4979,46.497 L40.4979,46.497 Z M39.4959,24.8 C38.9499,23.903 39.2349,22.734 40.1319,22.189 C41.0279,21.645 42.1949,21.929 42.7399,22.825 L49.7319,34.309 L46.4849,36.28 L39.4959,24.8 Z M35.7129,21.37 C35.4289,20.901 35.5779,20.291 36.0469,20.006 L40.0729,17.561 C40.5419,17.276 41.1529,17.425 41.4379,17.894 L41.4379,17.895 C41.7219,18.363 41.5729,18.974 41.1039,19.258 L37.0779,21.704 C36.6079,21.988 35.9979,21.839 35.7129,21.37 L35.7129,21.37 Z M52.4319,35.959 L52.4319,35.959 C52.6649,36.342 52.5429,36.842 52.1599,37.075 L47.8229,39.708 C47.4389,39.941 46.9399,39.819 46.7079,39.436 C46.4739,39.052 46.5959,38.553 46.9799,38.32 L51.3169,35.687 C51.6999,35.454 52.1989,35.576 52.4319,35.959 L52.4319,35.959 Z M48.7889,57.632 L46.7339,57.632 L45.1909,55.091 C44.5409,54.019 44.7189,52.574 45.7209,51.82 C46.8719,50.952 48.4889,51.284 49.2189,52.486 L50.4989,54.594 C51.3079,55.927 50.3479,57.632 48.7889,57.632 L48.7889,57.632 Z M66.7459,41.377 L68.7139,44.617 C64.7609,47.646 61.9709,52.187 61.3069,57.507 C61.3029,57.549 61.3039,57.59 61.2989,57.632 L55.8089,57.632 C55.1099,57.632 54.4629,57.267 54.0989,56.67 L50.7219,51.107 C50.1489,50.164 50.4489,48.934 51.3929,48.36 L63.9979,40.706 C64.9419,40.132 66.1729,40.433 66.7459,41.377 L66.7459,41.377 Z M76.5969,43.082 C77.3379,42.913 78.1049,43.16 78.5979,43.737 C79.1609,44.396 79.8359,44.992 80.6149,45.495 C82.1209,46.468 83.7799,46.956 85.3749,46.956 C86.7489,46.956 88.0669,46.576 89.2059,45.848 C90.5819,47.317 92.5519,48.113 94.6819,48.113 C95.6479,48.113 96.6449,47.951 97.6329,47.619 C98.5619,47.305 99.4009,46.861 100.1349,46.32 C100.7449,45.87 101.5419,45.775 102.2289,46.098 C104.6549,47.235 106.8039,48.932 108.5049,51.117 C109.4159,52.288 110.1569,53.55 110.7279,54.873 C111.2919,56.178 110.2949,57.632 108.8729,57.632 L98.6209,57.632 L96.7929,57.632 L96.9069,55.479 C96.9409,54.844 96.4779,54.292 95.8469,54.213 L91.9479,53.726 C91.3879,53.656 90.8539,53.983 90.6609,54.513 L89.5229,57.632 L86.8259,57.632 L86.4559,53.988 C86.3979,53.427 85.9609,52.979 85.4009,52.909 L81.3379,52.402 C80.7079,52.323 80.1229,52.746 79.9999,53.369 L79.1579,57.632 L77.2979,57.632 L65.7759,57.632 C64.4529,57.632 63.4759,56.364 63.8449,55.093 C65.6019,49.011 70.5709,44.455 76.5969,43.082 L76.5969,43.082 Z M80.4669,37.645 C81.9199,37.42 83.5379,37.783 84.9899,38.721 C87.0719,40.065 88.2169,42.207 87.9919,44.269 C86.2049,45.322 83.7819,45.16 81.7009,43.815 C80.2479,42.877 79.2519,41.551 78.8579,40.134 C78.5439,39 79.3029,37.824 80.4669,37.645 L80.4669,37.645 Z M88.1459,35.467 C88.9059,34.802 89.9179,34.492 90.9299,34.618 C91.9329,34.743 92.8379,35.292 93.4109,36.125 C93.8419,36.75 94.0559,37.493 94.0349,38.24 C92.1479,38.968 90.6379,40.213 89.7229,41.755 C89.2759,40.24 88.3289,38.83 86.9809,37.715 C87.0859,36.852 87.4859,36.046 88.1459,35.467 L88.1459,35.467 Z M95.0559,39.977 C96.6949,39.425 98.3519,39.471 99.7059,40.045 C100.7899,40.506 101.2369,41.832 100.6519,42.854 C99.9239,44.13 98.6319,45.171 96.9939,45.724 C94.6449,46.516 92.2579,46.078 90.7829,44.618 C91.0719,42.563 92.7079,40.769 95.0559,39.977 L95.0559,39.977 Z M125.1589,89 L124.1589,89 C120.8459,89 118.1589,86.313 118.1589,83 L118.1589,58.632 C118.1589,58.08 117.7109,57.632 117.1589,57.632 L115.9099,57.632 C114.6339,57.632 113.5419,56.788 113.1359,55.579 C112.4559,53.553 111.4379,51.631 110.0829,49.889 C108.3979,47.724 106.3189,45.987 103.9789,44.735 C103.1279,44.279 102.7409,43.3 103.0209,42.376 C103.1759,41.869 103.2699,41.345 103.3019,40.808 C103.3159,40.547 103.2299,40.28 103.0609,40.081 C102.7069,39.665 102.2949,39.316 101.8579,39.001 C101.2529,38.564 100.5809,38.226 99.8569,37.992 C99.1429,37.762 98.3859,37.632 97.6049,37.61 C96.7579,37.585 96.0029,37.092 95.7209,36.292 C95.5589,35.835 95.3379,35.397 95.0579,34.991 C94.1619,33.688 92.7469,32.829 91.1689,32.632 C89.5969,32.432 88.0179,32.921 86.8289,33.963 C86.4329,34.309 86.0949,34.707 85.8179,35.142 C85.3629,35.855 84.4579,36.174 83.6459,35.935 C81.3759,35.265 79.0239,35.562 77.2059,36.854 C76.9959,37.003 76.8459,37.236 76.7959,37.489 C76.6799,38.083 76.6469,38.682 76.6919,39.276 C76.7639,40.226 76.1699,41.084 75.2529,41.342 C74.3769,41.589 73.5229,41.897 72.6979,42.263 C71.3139,42.875 69.6959,42.381 68.9109,41.088 C68.1669,39.864 67.4179,38.629 67.4179,38.629 L68.4209,38.02 C68.6469,37.882 68.8099,37.66 68.8729,37.402 C68.9359,37.145 68.8939,36.873 68.7569,36.646 L67.4119,34.433 L64.9949,30.451 C64.8569,30.224 64.6349,30.061 64.3769,29.999 C64.1209,29.934 63.8469,29.977 63.6209,30.115 L55.4179,35.096 C54.9459,35.383 54.3309,35.232 54.0449,34.76 L53.2019,33.373 C52.9149,32.9 52.2999,32.75 51.8279,33.037 L51.4409,33.271 L43.4629,20.166 L43.8459,19.933 C44.0729,19.796 44.2359,19.574 44.2989,19.316 C44.3609,19.058 44.3189,18.786 44.1809,18.56 L42.1119,15.152 C41.8259,14.681 41.2109,14.532 40.7389,14.816 L33.3049,19.331 C33.0779,19.468 32.9149,19.69 32.8519,19.948 C32.7899,20.206 32.8319,20.478 32.9689,20.705 L35.0379,24.112 C35.1759,24.339 35.3979,24.502 35.6559,24.564 C35.7339,24.584 35.8129,24.593 35.8929,24.593 C36.0749,24.593 36.2549,24.544 36.4119,24.448 L36.7979,24.214 L44.7759,37.318 L44.3929,37.551 C44.1669,37.688 44.0039,37.911 43.9409,38.168 C43.8779,38.426 43.9199,38.698 44.0569,38.925 L44.8999,40.313 C45.1869,40.785 45.0369,41.4 44.5639,41.687 L42.2289,43.105 C40.3909,44.222 38.2809,44.812 36.1299,44.812 L13.5139,44.812 C13.3849,44.812 13.2549,44.838 13.1329,44.889 C13.0109,44.94 12.8989,45.013 12.8069,45.105 L3.2489,54.663 C1.4779,56.434 0.2619,58.736 0.0419,61.23 C-0.2601,64.647 1.0909,67.897 3.7269,70.094 C5.6379,71.686 8.1029,72.451 10.5909,72.451 L23.8669,72.451 C24.9709,72.451 25.8619,73.347 25.8619,74.451 L25.8619,83 C25.8619,86.313 23.1759,89 19.8619,89 L19.1599,89 C18.6069,89 18.1599,89.448 18.1599,90 C18.1599,90.552 18.6069,91 19.1599,91 L125.1589,91 C125.7109,91 126.1589,90.552 126.1589,90 C126.1589,89.448 125.7109,89 125.1589,89 L125.1589,89 Z"/>
        <path fill="#FFFFFF" d="M25.8239 32.6646C25.7139 32.6646 25.6029 32.6286 25.5119 32.5546 25.2959 32.3816 25.2619 32.0666 25.4339 31.8516L26.3659 30.6926C26.5389 30.4776 26.8539 30.4436 27.0679 30.6166 27.2839 30.7896 27.3179 31.1036 27.1449 31.3186L26.2139 32.4776C26.1149 32.6006 25.9699 32.6646 25.8239 32.6646M21.1374 37.5059C21.0284 37.5059 20.9174 37.4699 20.8254 37.3959 20.6104 37.2229 20.5754 36.9079 20.7484 36.6929L21.6794 35.5339C21.8534 35.3189 22.1674 35.2849 22.3824 35.4579 22.5974 35.6309 22.6314 35.9449 22.4584 36.1599L21.5284 37.3189C21.4294 37.4419 21.2834 37.5059 21.1374 37.5059M26.947 37.3589C26.81 37.3589 26.675 37.3039 26.576 37.1939L25.571 36.0849C25.385 35.8799 25.401 35.5639 25.606 35.3789 25.811 35.1929 26.127 35.2079 26.312 35.4139L27.317 36.5239C27.503 36.7279 27.487 37.0439 27.282 37.2299 27.186 37.3159 27.066 37.3589 26.947 37.3589M21.9519 32.7627C21.8159 32.7627 21.6809 32.7077 21.5819 32.5977L20.5759 31.4887C20.3899 31.2837 20.4059 30.9677 20.6109 30.7827 20.8159 30.5967 21.1319 30.6127 21.3169 30.8177L22.3229 31.9277C22.5089 32.1317 22.4929 32.4477 22.2879 32.6337 22.1919 32.7197 22.0719 32.7627 21.9519 32.7627"/>
      </g>
    </g>
    <rect width="140" height="96"/>
  </g>
</svg>
