<svg id="Layer_1" xmlns="http://www.w3.org/2000/svg" viewBox="0 0 60 80"><style>.st0{fill:#738BD7;} .st1{fill:none;stroke:#9CB4F7;stroke-width:2;stroke-linecap:round;stroke-linejoin:round;stroke-miterlimit:10;}</style><path class="st0" d="M15.1 68.5h30v6h-30z"/><path class="st1" d="M15.1 68.5h30v6h-30z"/><path class="st0" d="M40.1 68.5h-20v-5c10 0 7-22.3 7-22.3h6s-3 22.3 7 22.3v5z"/><path class="st1" d="M40.1 68.5h-20v-5c10 0 7-22.3 7-22.3h6s-3 22.3 7 22.3v5z"/><path class="st0" d="M30.1 46.5c-8.6 0-15.9-6.3-17.2-14.8L9.5 8.8c-.2-1.2.8-2.3 2-2.3h37.4c1.2 0 2.2 1.1 2 2.3l-3.4 22.9c-1.4 8.5-8.7 14.8-17.4 14.8z"/><path class="st1" d="M30.1 46.5c-8.6 0-15.9-6.3-17.2-14.8L9.5 8.8c-.2-1.2.8-2.3 2-2.3h37.4c1.2 0 2.2 1.1 2 2.3l-3.4 22.9c-1.4 8.5-8.7 14.8-17.4 14.8z"/></svg>