<?xml version="1.0" encoding="UTF-8" standalone="no"?>
<svg width="97px" height="70px" viewBox="0 0 97 70" version="1.1" xmlns="http://www.w3.org/2000/svg" xmlns:xlink="http://www.w3.org/1999/xlink" xmlns:sketch="http://www.bohemiancoding.com/sketch/ns">
    <!-- Generator: Sketch 3.4.4 (17249) - http://www.bohemiancoding.com/sketch -->
    <title>Page 1</title>
    <desc>Created with Sketch.</desc>
    <defs>
        <path id="path-1" d="M0,0.343703704 L97,0.343703704 L97,70 L0,70"></path>
    </defs>
    <g id="General-Playground" stroke="none" stroke-width="1" fill="none" fill-rule="evenodd" sketch:type="MSPage">
        <g id="Page-1" sketch:type="MSLayerGroup">
            <g id="Group-3">
                <mask id="mask-2" sketch:name="Clip 2" fill="white">
                    <use xlink:href="#path-1"></use>
                </mask>
                <g id="Clip-2"></g>
                <path d="M63.7924741,49.8217778 C59.151227,49.8217778 55.3885122,45.7377037 55.3885122,40.7002963 C55.3885122,38.3495556 56.2080331,36.206963 57.5534932,34.5895556 L71.9437935,42.924 C71.0287479,46.8865926 67.7270597,49.8217778 63.7924741,49.8217778 M33.2075996,49.8217778 C29.2730141,49.8217778 25.9713259,46.8865926 25.0562802,42.924 L39.4465806,34.5895556 C40.7920407,36.206963 41.6115616,38.3495556 41.6115616,40.7002963 C41.6115616,45.7377037 37.8488468,49.8217778 33.2075996,49.8217778 M84.8713487,9.18881481 C75.2377365,1.1177037 62.0014779,0.34362963 62.0014779,0.34362963 L60.8994399,1.72585185 C73.2984741,4.6402963 82.3913943,12.2295556 82.3913943,12.2295556 C66.246611,2.98955556 48.5000369,4.21325926 48.5000369,4.21325926 C48.5000369,4.21325926 30.7534627,2.98955556 14.6086795,12.2295556 C14.6086795,12.2295556 23.7012308,4.6402963 36.1006338,1.72585185 L34.9985958,0.34362963 C34.9985958,0.34362963 21.7623373,1.1177037 12.1287251,9.18881481 C12.1287251,9.18881481 -0.283955513,31.0888148 0.00483155894,57.8377037 C0.00483155894,57.8377037 6.99141331,69.6802963 25.3546567,69.9999259 L31.1410939,62.8132593 C31.1410939,62.8132593 26.2549494,62.491037 20.9461357,63.0895556 C20.9461357,63.0895556 29.0067251,59.7725185 48.5000369,59.7725185 C67.9933487,59.7725185 76.053938,63.0895556 76.053938,63.0895556 C70.7451243,62.491037 65.8589798,62.8132593 65.8589798,62.8132593 L71.6454171,69.9999259 C90.0086605,69.6802963 96.9948734,57.8377037 96.9948734,57.8377037 C97.2840293,31.0888148 84.8713487,9.18881481 84.8713487,9.18881481" id="Fill-1" fill="#FFFFFF" sketch:type="MSShapeGroup" mask="url(#mask-2)"></path>
            </g>
            <path d="M60,67 C57.2384906,67 55,64.7387907 55,61.9492543 C55,59.1597179 60,51 60,51 C60,51 65,59.1597179 65,61.9492543 C65,64.7387907 62.7615094,67 60,67 Z" id="Fill-4" fill="#FFFFFF" sketch:type="MSShapeGroup"></path>
            <path d="M65,61.9492543 C65,64.7387907 62.7615094,67 60,67 C57.2384906,67 55,64.7387907 55,61.9492543 C55,59.1597179 60,51 60,51 C60,51 65,59.1597179 65,61.9492543 L65,61.9492543 Z" id="Stroke-6" stroke="#2f3136" stroke-width="3" sketch:type="MSShapeGroup"></path>
        </g>
    </g>
</svg>
