<svg xmlns="http://www.w3.org/2000/svg" width="220" height="167" xmlns:xlink="http://www.w3.org/1999/xlink">
  <defs>
    <path id="a" d="M0 158.956044h219.538846V.09912088H0z"/>
    <path id="c" d="M3.02576554.42398352C1.14484784 2.62437548.00906594 5.48077188.00906594 8.60236264v3.27401096c0 2.0023602.46733405 3.8955523 1.29889656 5.5764561h12.0754716V.42398352H3.02576554z"/>
    <path id="e" d="M3.02576554.42398352C1.14484784 2.62437548.00906594 5.48077188.00906594 8.60236264v.65123626H13.3834341V.42398352H3.02576554z"/>
    <path id="g" d="M3.02576554.42398352C1.14484784 2.62437548.00906594 5.48077188.00906594 8.60236264v3.27401096c0 2.0023602.46733405 3.8955523 1.29889656 5.5764561h12.075532V.42398352H3.02576554z"/>
  </defs>
  <g fill="none" fill-rule="evenodd">
    <path fill="#424549" d="M198.577923 73.8072692l-3.298791-5.7133516 3.298791-5.7133517h6.596978l3.298791 5.7133517-3.298791 5.7133516"/>
    <path stroke="#16191E" stroke-width="3" d="M201.876533 32.2368187v16.4280769" stroke-linecap="round" stroke-linejoin="round"/>
    <g transform="translate(0 4.505)">
      <path stroke="#16191E" stroke-width="3" d="M199.903181 46.7276374s-10.629505 5.6903846-4.051263 14.7714285l4.051263-14.7714285z" stroke-linecap="round" stroke-linejoin="round"/>
      <path fill="#424549" d="M199.999582 46.7276374c0-1.0631319.861869-1.925 1.925-1.925 1.063132 0 1.925.8618681 1.925 1.925 0 1.0631318-.861868 1.925-1.925 1.925-1.063131 0-1.925-.8618682-1.925-1.925"/>
      <path stroke="#16191E" stroke-width="3" d="M199.999582 46.7276374c0-1.0631319.861869-1.925 1.925-1.925 1.063132 0 1.925.8618681 1.925 1.925 0 1.0631318-.861868 1.925-1.925 1.925-1.063131 0-1.925-.8618682-1.925-1.925zm3.850242 0s10.629506 5.6903846 4.051264 14.7714285" stroke-linecap="round" stroke-linejoin="round"/>
      <path fill="#23262B" d="M127.93683 136.08233H20.8868846c-3.3380769 0-6.043956-2.705879-6.043956-6.043956V22.9884286c0-3.338077 2.7058791-6.0439561 6.043956-6.0439561H127.93683c3.338077 0 6.043956 2.7058791 6.043956 6.0439561V130.038374c0 3.338077-2.705879 6.043956-6.043956 6.043956"/>
      <path stroke="#16191E" stroke-width="3" d="M127.93683 136.08233H20.8868846c-3.3380769 0-6.043956-2.705879-6.043956-6.043956V22.9884286c0-3.338077 2.7058791-6.0439561 6.043956-6.0439561H127.93683c3.338077 0 6.043956 2.7058791 6.043956 6.0439561V130.038374c0 3.338077-2.705879 6.043956-6.043956 6.043956z" stroke-linecap="round" stroke-linejoin="round"/>
      <path fill="#2E3135" d="M147.308857 136.08233H40.2589121c-3.3380769 0-6.0439561-2.705879-6.0439561-6.043956V22.9884286c0-3.338077 2.7058792-6.0439561 6.0439561-6.0439561H147.308857c3.338077 0 6.043956 2.7058791 6.043956 6.0439561V130.038374c0 3.338077-2.705879 6.043956-6.043956 6.043956"/>
      <path stroke="#16191E" stroke-width="3" d="M34.2148956 28.8574121v-5.8692857c0-3.3374726 2.7058791-6.0439561 6.043956-6.0439561H147.308797c3.338077 0 6.043956 2.7064835 6.043956 6.0439561v79.0513186M34.2148956 44.8022747v-9.699945M153.352813 113.41006v16.628132c0 3.338077-2.705879 6.043956-6.043956 6.043956H40.2589121c-3.3380769 0-6.0439561-2.705879-6.0439561-6.043956V51.3344011" stroke-linecap="round" stroke-linejoin="round"/>
      <path fill="#23262B" d="M140.781445 128.817797H46.7864451c-2.9313187 0-5.3071978-2.375879-5.3071978-5.306594V29.5155989c0-2.9307143 2.3758791-5.3065934 5.3071978-5.3065934h93.9949999c2.930714 0 5.306593 2.3758791 5.306593 5.3065934v93.9956041c0 2.930715-2.375879 5.306594-5.306593 5.306594"/>
      <path fill="#2A2D32" d="M142.213923 24.2088846H45.3540879c-2.1401648 0-3.8747802 1.7346154-3.8747802 3.8741758v10.6548901h90.0797253v90.0797255h10.65489c2.139561 0 3.874176-1.734616 3.874176-3.874176V28.0830604c0-2.1395604-1.734615-3.8741758-3.874176-3.8741758"/>
      <path stroke="#16191E" stroke-width="3" d="M140.781445 128.817797H46.7864451c-2.9313187 0-5.3071978-2.375879-5.3071978-5.306594V29.5155989c0-2.9307143 2.3758791-5.3065934 5.3071978-5.3065934h93.9949999c2.930714 0 5.306593 2.3758791 5.306593 5.3065934v93.9956041c0 2.930715-2.375879 5.306594-5.306593 5.306594z" stroke-linecap="round" stroke-linejoin="round"/>
      <path stroke="#16191E" stroke-width="3" d="M41.4794286 38.7378901h86.2055494c2.13956 0 3.874176 1.7346154 3.874176 3.8741758v86.2055491m-1.134632-88.9449117l14.109615-14.1096154" stroke-linecap="round" stroke-linejoin="round"/>
      <mask id="b" fill="#fff">
        <use xlink:href="#a"/>
      </mask>
      <path fill="#2E3135" d="M82.6450549 128.823901h48.4302201v-17.435H82.6450549" mask="url(#b)"/>
      <path stroke="#16191E" stroke-width="3" d="M131.074973 111.388841v17.435H82.6447527v-17.435h15.9258242" stroke-linecap="round" stroke-linejoin="round" mask="url(#b)"/>
      <path fill="#36393E" d="M89.9092857 128.823901h48.4302193v-17.435H89.9092857" mask="url(#b)"/>
      <path stroke="#16191E" stroke-width="3" d="M128.274445 111.388841h10.065v17.435H89.9092253v-17.435h31.1124727" stroke-linecap="round" stroke-linejoin="round" mask="url(#b)"/>
      <path stroke="#16191E" stroke-width="3" d="M115.577363 122.527912h16.466153v-4.843022h-16.466153zm-19.6144509 0h4.8430219v-4.843022h-4.8430219zm9.4442859 0h4.843022v-4.843022h-4.843022z" stroke-linecap="round" stroke-linejoin="round" mask="url(#b)"/>
      <path fill="#2E3135" d="M81.1920879 123.496154h4.843022v-6.78011h-4.843022" mask="url(#b)"/>
      <path stroke="#16191E" stroke-width="3" d="M81.1920879 123.496154h4.843022v-6.78011h-4.843022z" stroke-linecap="round" stroke-linejoin="round" mask="url(#b)"/>
      <path fill="#1F2328" d="M133.980786 57.6696758v-5.8995055c0-.8026373-.65033-1.452967-1.452967-1.452967h-.036868c-.658792 0-1.237198-.4436264-1.400989-1.0818681-.521594-2.0319781-1.327253-3.9491209-2.369836-5.7097253-.336648-.5681319-.242362-1.2915934.224231-1.7581868l.029616-.0296154c.567527-.5675275.567527-1.4874176 0-2.0549451l-4.171539-4.1715384c-.567527-.5675275-1.487418-.5675275-2.054341 0l-.029615.0296154c-.467198.4671978-1.190055.5608791-1.758187.2242307-1.760604-1.0425824-3.678351-1.8476373-5.710329-2.3692307-.638242-.1637912-1.081264-.7421978-1.081264-1.4009891v-.0374725c0-.8020329-.650934-1.4523626-1.452967-1.4523626h-5.899506c-.802637 0-1.452967.6503297-1.452967 1.4523626v4.380055c0 1.2021428-1.38467 1.8965934-2.333571 1.1586263-1.479561-1.1495604-2.75-3.2153846-4.8847255-3.1192857l-1.8252747.0815934c-.3626373.0163187-.7053297.168022-.9621978.4242857l-4.8001099 4.8001099c-.5675275.5675275-.5675275 1.4874176 0 2.0549451l.0296154.0296154c.4665934.4665934.5608791 1.1900549.2242308 1.7581868-1.0425824 1.7606044-1.8482418 3.6777472-2.3692308 5.7097253-.1637912.6382417-.7421978 1.0818681-1.4015934 1.0818681h-.0368681c-.802033 0-1.4529671.6503297-1.4529671 1.452967v5.8995055c0 .8026374.6509341 1.4529671 1.4529671 1.4529671h.0368681c.6593956 0 1.2378022.4436263 1.4015934 1.0818681.520989 2.0313736 1.3266484 3.9491209 2.3692308 5.7097253.3366483.5681318.2423626 1.290989-.2242308 1.7581868l-.0296154.0296154c-.5675275.5675274-.5675275 1.4874175 0 2.0543406l4.7922528 4.7928572c.2610989.2610989.6122527.4128022.9815384.4248901l4.7487367.1510989c.294945.0090659.585659-.0713187.833461-.2314835l1.208791-.7802748c.967033-.6237362 2.241099.0707143 2.241099 1.2208792v2.1474175c0 .8026374.65033 1.4529671 1.452967 1.4529671h5.899506c.802033 0 1.452967-.6503297 1.452967-1.4529671v-.0368681c0-.6587912.443022-1.2371978 1.081264-1.400989 2.031978-.5215934 3.949725-1.3266484 5.710329-2.3698352.568132-.3360439 1.290989-.2423626 1.758187.2248352l.029615.0296154c.566923.5669231 1.486814.5669231 2.054341 0l4.171539-4.1721429c.567527-.5669231.567527-1.4868132 0-2.0543406l-.029616-.0296154c-.466593-.4671978-.560879-1.190055-.224231-1.7581868 1.042583-1.7606044 1.848242-3.6783517 2.369836-5.7097253.163791-.6382418.742197-1.0818681 1.400989-1.0818681h.036868c.802637 0 1.452967-.6503297 1.452967-1.4529671" mask="url(#b)"/>
      <path fill="#1B1E23" d="M119.45178 54.7198022c0 4.8146154-3.903187 8.7171978-8.717198 8.7171978-4.814615 0-8.717802-3.9025824-8.717802-8.7171978 0-4.8146154 3.903187-8.7171978 8.717802-8.7171978 4.814011 0 8.717198 3.9025824 8.717198 8.7171978" mask="url(#b)"/>
      <path stroke="#16191E" stroke-width="3" d="M119.45178 54.7198022c0 4.8146154-3.903187 8.7171978-8.717198 8.7171978-4.814615 0-8.717802-3.9025824-8.717802-8.7171978 0-4.8146154 3.903187-8.7171978 8.717802-8.7171978 4.814011 0 8.717198 3.9025824 8.717198 8.7171978z" stroke-linecap="round" stroke-linejoin="round" mask="url(#b)"/>
      <path stroke="#16191E" stroke-width="3" d="M133.980786 57.6696758v-5.8995055c0-.8026373-.65033-1.452967-1.452967-1.452967h-.036868c-.658792 0-1.237198-.4436264-1.400989-1.0818681-.521594-2.0319781-1.327253-3.9491209-2.369836-5.7097253-.336648-.5681319-.242362-1.2915934.224231-1.7581868l.029616-.0296154c.567527-.5675275.567527-1.4874176 0-2.0549451l-4.171539-4.1715384c-.567527-.5675275-1.487418-.5675275-2.054341 0l-.029615.0296154c-.467198.4671978-1.190055.5608791-1.758187.2242307-1.760604-1.0425824-3.678351-1.8476373-5.710329-2.3692307-.638242-.1637912-1.081264-.7421978-1.081264-1.4009891v-.0374725c0-.8020329-.650934-1.4523626-1.452967-1.4523626h-5.899506c-.802637 0-1.452967.6503297-1.452967 1.4523626v2.4804396c0 1.2831319-1.550274 1.9437362-2.464725 1.0431868-.275-.2707692-.522198-.5367033-.715604-.7542857-.29011-.3251649-.710165-.4992308-1.14533-.4798901l-4.7179122.2115384c-.3626373.0163187-.7053297.168022-.9621978.4242857l-4.8001099 4.8001099c-.5675275.5675275-.5675275 1.4874176 0 2.0549451l.0296154.0296154c.4665934.4665934.5608791 1.1900549.2242308 1.7581868-1.0425824 1.7606044-1.8482418 3.6777472-2.3692308 5.7097253-.1637912.6382417-.7421978 1.0818681-1.4015934 1.0818681h-.0368681c-.802033 0-1.4529671.6503297-1.4529671 1.452967v5.8995055c0 .8026374.6509341 1.4529671 1.4529671 1.4529671h.0368681c.6593956 0 1.2378022.4436263 1.4015934 1.0818681.520989 2.0313736 1.3266484 3.9491209 2.3692308 5.7097253.3366483.5681318.2423626 1.290989-.2242308 1.7581868l-.0296154.0296154c-.5675275.5675274-.5675275 1.4874175 0 2.0543406l4.7928572 4.7934616c.2610989.2604945.6110439.4121978.9797252.4242857l4.0887365.1335714c.54456.0181319 1.057088-.2659341 1.315769-.7452198.278626-.514945.727692-1.177967 1.370165-1.6373077.943461-.6745055 2.258626.0501649 2.258626 1.2106044v3.545989c0 .8026374.65033 1.4529671 1.452967 1.4529671h5.899506c.802033 0 1.452967-.6503297 1.452967-1.4529671v-.0368681c0-.6587912.443022-1.2371978 1.081264-1.400989 2.031978-.5215934 3.949725-1.3266484 5.710329-2.3698352.568132-.3360439 1.290989-.2423626 1.758187.2248352l.029615.0296154c.566923.5669231 1.486814.5669231 2.054341 0l4.171539-4.1721429c.567527-.5669231.567527-1.4868132 0-2.0543406l-.029616-.0296154c-.466593-.4671978-.560879-1.190055-.224231-1.7581868 1.042583-1.7606044 1.848242-3.6783517 2.369836-5.7097253.163791-.6382418.742197-1.0818681 1.400989-1.0818681h.036868c.802637 0 1.452967-.6503297 1.452967-1.4529671z" stroke-linecap="round" stroke-linejoin="round" mask="url(#b)"/>
      <path fill="#424549" d="M122.166846 48.4553626c6.853846 9.3161539-3.537527 19.7081319-12.853681 12.8536814-.123297-.090055-.23511-.2018682-.325165-.3251649-6.853846-9.3161538 3.537527-19.7075275 12.853681-12.8536813.122693.0906593.23511.2024725.325165.3251648m17.625385 9.214011v-5.8995055c0-.8020329-.65033-1.452967-1.452967-1.452967h-.036868c-.658792 0-1.237198-.443022-1.400989-1.0818681-.521594-2.0313737-1.326649-3.9491209-2.369836-5.7097253-.336044-.5681319-.242362-1.290989.224836-1.7581868l.029615-.0296154c.566923-.5669231.566923-1.4868132 0-2.0543407l-4.172143-4.1715384c-.566923-.5675275-1.486813-.5675275-2.054341-.0006044l-.029615.0302198c-.467198.4665934-1.190055.5602747-1.758187.2242307-1.760604-1.0425824-3.678351-1.8482417-5.709725-2.3698351-.638242-.1637912-1.081868-.7421978-1.081868-1.400989v-.0368682c0-.8026373-.65033-1.452967-1.452967-1.452967h-5.899506c-.802637 0-1.452967.6503297-1.452967 1.452967v.0368682c0 .6587912-.443626 1.2371978-1.081868 1.400989-2.031373.5215934-3.949121 1.3272527-5.709725 2.3698351-.568132.336044-1.290989.2423627-1.758187-.2242307l-.029615-.0302198c-.567528-.5669231-1.487418-.5669231-2.054945.0006044l-4.1715388 4.1715384c-.5675275.5675275-.5675275 1.4874176 0 2.0543407l.0296154.0296154c.4671978.4671978.5608791 1.1900549.2242307 1.7581868-1.0425824 1.7606044-1.8476373 3.6783516-2.3692307 5.7097253-.1637912.6388461-.7421978 1.0818681-1.4009891 1.0818681h-.0374725c-.8020329 0-1.4523626.6509341-1.4523626 1.452967v5.8995055c0 .8026374.6503297 1.4529671 1.4523626 1.4529671h.0374725c.6587913 0 1.2371979.4436263 1.4009891 1.0818681.5215934 2.031978 1.3266483 3.9491209 2.3692307 5.7097253.3366484.5681318.2429671 1.2915934-.2242307 1.7581868l-.0296154.0296154c-.5675275.5675274-.5675275 1.4874175 0 2.054945l4.1715388 4.1715385c.567527.5675275 1.487417.5675275 2.054945 0l.029615-.0296154c.467198-.4665934 1.190055-.5608791 1.758187-.2242308 1.760604 1.0425824 3.678352 1.8476374 5.709725 2.3692308.638242.1637912 1.081868.7421978 1.081868 1.400989v.0374725c0 .802033.65033 1.4529671 1.452967 1.4529671h5.899506c.802637 0 1.452967-.6509341 1.452967-1.4529671v-.0374725c0-.6587912.443626-1.2371978 1.081868-1.400989 2.031374-.5215934 3.949121-1.3266484 5.709725-2.3692308.568132-.3366483 1.290989-.2423626 1.758187.2242308l.029615.0296154c.567528.5675275 1.487418.5675275 2.054341 0l4.172143-4.1715385c.566923-.5675275.566923-1.4874176 0-2.054945l-.029615-.0296154c-.467198-.4665934-.56088-1.190055-.224836-1.7581868 1.043187-1.7606044 1.848242-3.6777473 2.369836-5.7097253.163791-.6382418.742197-1.0818681 1.400989-1.0818681h.036868c.802637 0 1.452967-.6503297 1.452967-1.4529671" mask="url(#b)"/>
      <path stroke="#16191E" stroke-width="3" d="M139.792412 59.1225824v-8.8054395h-2.642417c-.57055-2.8104396-1.679011-5.4238462-3.209341-7.7344506l1.872417-1.8724176-6.226483-6.2264835-1.871813 1.8724176c-2.310605-1.5303297-4.924616-2.6381868-7.734451-3.2087363v-2.6424176h-8.805439v2.6424176c-2.81044.5705495-5.424451 1.6784066-7.734451 3.2087363l-1.872418-1.8724176-6.226483 6.2264835 1.8724175 1.8724176c-1.5303296 2.3106044-2.6387912 4.924011-3.2087362 7.7344506h-2.643022v8.8054395h2.643022c.569945 2.8104396 1.6784066 5.4238462 3.2087362 7.7344506l-1.8724175 1.8724175 6.226483 6.2264836 1.872418-1.8724176c2.31 1.5297253 4.924011 2.6381868 7.734451 3.2087362v2.6424176h8.805439v-2.6424176c2.809835-.5705494 5.423846-1.6790109 7.734451-3.2087362l1.871813 1.8724176 6.226483-6.2264836-1.872417-1.8724175c1.53033-2.3106044 2.638791-4.924011 3.209341-7.7344506h2.642417z" stroke-linecap="round" stroke-linejoin="round" mask="url(#b)"/>
      <path stroke="#16191E" stroke-width="3" d="M127.454582 47.2207033c1.372583 2.1697802 2.167363 4.7414835 2.167363 7.4993407 0 7.7562087-6.288132 14.0443406-14.044341 14.0443406-7.756813 0-14.044945-6.2881319-14.044945-14.0443406 0-7.7568132 6.288132-14.0449451 14.044945-14.0449451M122.234538 42.35c1.099396.5929121 2.111154 1.3284615 3.009891 2.1812637" stroke-linecap="round" stroke-linejoin="round" mask="url(#b)"/>
      <path stroke="#16191E" stroke-width="3" d="M124.294802 54.7198022c0 4.8146154-3.903187 8.7171978-8.717198 8.7171978-4.814615 0-8.717802-3.9025824-8.717802-8.7171978 0-4.8146154 3.903187-8.7171978 8.717802-8.7171978 4.814011 0 8.717198 3.9025824 8.717198 8.7171978zm-32.9324284-4.4027198H86.943033m8.3985604-9.6066868h-5.2098901m-1.9383571 18.4121868h3.1688461m-.7263022 9.6066264h4.7058242" stroke-linecap="round" stroke-linejoin="round" mask="url(#b)"/>
      <path fill="#1F2328" d="M111.663236 93.7104505v-3.452912c0-.4696154-.380769-.8503847-.850384-.8503847h-.021759c-.385604 0-.724066-.2592857-.820164-.6328022-.30522-1.1894505-.776044-2.3118131-1.386484-3.3423076-.197033-.3324176-.142033-.7554945.131154-1.0286814l.017527-.0175274c.331814-.3318132.331814-.8703297 0-1.2021429l-2.441758-2.4417582c-.331813-.3324176-.87033-.3324176-1.202747 0l-.016923.0175274c-.273187.2731869-.696868.3281869-1.029286.1311539-1.030494-.6104396-2.152253-1.0818681-3.341703-1.3870879-.373517-.0954945-.632802-.4339561-.632802-.8195605v-.0217582c0-.4696154-.3807696-.8503846-.850385-.8503846h-3.4529121c-.4696154 0-.8503846.3807692-.8503846.8503846v2.5632417c0 .7035165-.8104945 1.1096704-1.3659341.6781319-.8660989-.6726923-1.6095055-1.8820879-2.8587912-1.8258791l-1.067967.0483516c-.2121429.009066-.4134066.0979121-.5632967.2478022l-2.8092308 2.8098352c-.3324176.3318132-.3324176.8703297 0 1.2021429l.0169231.0175274c.2731868.2731869.3281868.6962638.1311538 1.0286814-.6098351 1.0304945-1.0812637 2.1528571-1.3864835 3.3423076-.0960989.3735165-.4345604.6328022-.8201648.6328022h-.0217583c-.4696154 0-.8503846.3807693-.8503846.8503847v3.452912c0 .4696154.3807692.8503847.8503846.8503847h.0217583c.3856044 0 .7240659.2592857.8201648.6328022.3052198 1.1894505.7766484 2.3118131 1.3864835 3.3423077.197033.3324175.142033.7554945-.1311538 1.0286813l-.0169231.0175274c-.3324176.3318132-.3324176.8703302 0 1.2021432l2.8043956 2.805c.1529121.152912.3584066.241758.5747802.249011l2.779011.088241c.1728572.00544.3426923-.041703.4877473-.135384l.7077472-.456319c.5657143-.365055 1.3115385.041099 1.3115385.714396v1.256538c0 .469616.3807692.850385.8503846.850385h3.4529121c.4696154 0 .850385-.380769.850385-.850385v-.021758c0-.385604.259285-.724066.632802-.81956 1.18945-.30522 2.311209-.776649 3.341703-1.387088.332418-.197033.756099-.142033 1.029286.131153l.016923.017528c.332417.332418.870934.332418 1.202747 0l2.441758-2.441758c.331814-.331813.331814-.87033 0-1.2021432l-.017527-.0175274c-.273187-.2731868-.328187-.6962638-.131154-1.0286813.61044-1.0304946 1.081264-2.1528572 1.386484-3.3423077.096098-.3735165.43456-.6328022.820164-.6328022h.021759c.469615 0 .850384-.3807693.850384-.8503847" mask="url(#b)"/>
      <path fill="#1B1E23" d="M104.892253 91.9839945c0 3.4915934-2.830385 6.321978-6.3219783 6.321978-3.490989 0-6.3213736-2.8303846-6.3213736-6.321978 0-3.4915934 2.8303846-6.321978 6.3213736-6.321978 3.4915933 0 6.3219783 2.8303846 6.3219783 6.321978" mask="url(#b)"/>
      <path stroke="#16191E" stroke-width="3" d="M104.892253 91.9839945c0 3.4915934-2.830385 6.321978-6.3219783 6.321978-3.490989 0-6.3213736-2.8303846-6.3213736-6.321978 0-3.4915934 2.8303846-6.321978 6.3213736-6.321978 3.4915933 0 6.3219783 2.8303846 6.3219783 6.321978z" stroke-linecap="round" stroke-linejoin="round" mask="url(#b)"/>
      <path stroke="#16191E" stroke-width="3" d="M111.663236 93.7104505v-3.452912c0-.4696154-.380769-.8503847-.850384-.8503847h-.021759c-.385604 0-.724066-.2592857-.820164-.6328022-.30522-1.1894505-.776044-2.3118131-1.386484-3.3423076-.197033-.3324176-.142033-.7554945.131154-1.0286814l.017527-.0175274c.331814-.3318132.331814-.8703297 0-1.2021429l-2.441758-2.4417582c-.331813-.3324176-.87033-.3324176-1.202747 0l-.016923.0175274c-.273187.2731869-.696868.3281869-1.029286.1311539-1.030494-.6104396-2.152253-1.0818681-3.341703-1.3870879-.373517-.0954945-.632802-.4339561-.632802-.8195605v-.0217582c0-.4696154-.3807696-.8503846-.850385-.8503846h-3.4529121c-.4696154 0-.8503846.3807692-.8503846.8503846v1.4511538c0 .7512638-.9071978 1.138077-1.4426923.611044-.1607693-.1589561-.3052198-.3142857-.4188462-.4418132-.1698352-.1903846-.4152198-.2925275-.6702747-.2810439l-2.7608791.1245054c-.2121429.009066-.4134066.0979121-.5632967.2478022l-2.8092308 2.8098352c-.3324176.3318132-.3324176.8703297 0 1.2021429l.0169231.0175274c.2731868.2731869.3281868.6962638.1311538 1.0286814-.6098351 1.0304945-1.0812637 2.1528571-1.3864835 3.3423076-.0960989.3735165-.4345604.6328022-.8201648.6328022h-.0217583c-.4696154 0-.8503846.3807693-.8503846.8503847v3.452912c0 .4696154.3807692.8503847.8503846.8503847h.0217583c.3856044 0 .7240659.2592857.8201648.6328022.3052198 1.1894505.7766484 2.3118131 1.3864835 3.3423077.197033.3324175.142033.7554945-.1311538 1.0286813l-.0169231.0175274c-.3324176.3318132-.3324176.8703302 0 1.2021432l2.805 2.805604c.1529121.152308.3578022.241154.5735714.248407l2.3928022.077967c.3185165.010879.6189011-.15533.77-.43577.1631868-.301593.4260989-.689615.802033-.958571.5518132-.39467 1.3218132.029615 1.3218132.708352v2.075494c0 .469616.3807692.850385.8503846.850385h3.4529121c.4696154 0 .850385-.380769.850385-.850385v-.021758c0-.385604.259285-.724066.632802-.81956 1.18945-.30522 2.311209-.776649 3.341703-1.387088.332418-.197033.756099-.142033 1.029286.131153l.016923.017528c.332417.332418.870934.332418 1.202747 0l2.441758-2.441758c.331814-.331813.331814-.87033 0-1.2021432l-.017527-.0175274c-.273187-.2731868-.328187-.6962638-.131154-1.0286813.61044-1.0304946 1.081264-2.1528572 1.386484-3.3423077.096098-.3735165.43456-.6328022.820164-.6328022h.021759c.469615 0 .850384-.3807693.850384-.8503847z" stroke-linecap="round" stroke-linejoin="round" mask="url(#b)"/>
      <path fill="#2E3135" d="M107.572082 87.0419725c5.406923 7.3494506-2.791098 15.5474725-10.140549 10.1405495-.0967033-.0713187-.1849451-.1595605-.2562638-.2568682-5.406923-7.3494505 2.7904945-15.5468681 10.1405498-10.139945.096703.0713187.184945.1595604.256263.2562637m8.974066 6.6682967v-3.4529121c0-.4696153-.380769-.8503846-.850384-.8503846h-.021759c-.385604 0-.724065-.2592857-.820164-.6328022-.30522-1.1894505-.776649-2.3112088-1.386484-3.3417033-.197033-.3324175-.142033-.7560989.131154-1.0292857l.017527-.0169231c.331814-.3324175.331814-.870934 0-1.2027472l-2.441758-2.4417583c-.332417-.3318131-.870329-.3318131-1.202747 0l-.016923.0175275c-.273791.2731868-.696868.3281868-1.029286.1311539-1.030494-.6104396-2.152857-1.0812638-3.341703-1.3864836-.373517-.0960989-.633407-.4345604-.633407-.8201648v-.0217582c0-.4696154-.380769-.8503846-.850384-.8503846h-3.452912c-.469616 0-.8497806.3807692-.8497806.8503846v.0217582c0 .3856044-.2598901.7240659-.6334066.8201648-1.1888462.3052198-2.3112088.776044-3.3417033 1.3864836-.3324176.1970329-.7560989.1420329-1.0292857-.1311539l-.0169231-.0175275c-.3324176-.3318131-.8709341-.3318131-1.2027473 0l-2.4417582 2.4417583c-.3318132.3318132-.3318132.8703297 0 1.2027472l.0175275.0169231c.2731868.2731868.3281868.6968682.1311538 1.0292857-.6098352 1.0304945-1.0812637 2.1522528-1.3864835 3.3417033-.0960989.3735165-.4345605.6328022-.8201648.6328022h-.0217583c-.4696154 0-.8503846.3807693-.8503846.8503846v3.4529121c0 .4696154.3807692.8503846.8503846.8503846h.0217583c.3856043 0 .7240659.2598902.8201648.6334066.3052198 1.1888462.7766483 2.3112088 1.3864835 3.3417033.197033.3324176.142033.7554945-.1311538 1.0286814l-.0175275.0175274c-.3318132.3318132-.3318132.8703295 0 1.2027475l2.4417582 2.441154c.3318132.332417.8703297.332417 1.2027473 0l.0169231-.016923c.2731868-.273187.6968681-.328187 1.0292857-.131154 1.0304945.609835 2.1528571 1.081263 3.3417033 1.386483.3735165.096099.6334066.434561.6334066.820165v.021758c0 .469616.3801646.850385.8497806.850385h3.452912c.469615 0 .850384-.380769.850384-.850385v-.021758c0-.385604.25989-.724066.633407-.820165 1.188846-.30522 2.311209-.776648 3.341703-1.386483.332418-.197033.755495-.142033 1.029286.131154l.016923.016923c.332418.332417.87033.332417 1.202747 0l2.441758-2.441154c.331814-.332418.331814-.8709343 0-1.2027475l-.017527-.0175274c-.273187-.2731869-.328187-.6962638-.131154-1.0286814.609835-1.0304945 1.081264-2.1528571 1.386484-3.3417033.096099-.3735164.43456-.6334066.820164-.6334066h.021759c.469615 0 .850384-.3807692.850384-.8503846" mask="url(#b)"/>
      <path stroke="#16191E" stroke-width="3" d="M116.545967 94.5608352v-5.1536814h-1.546648c-.333627-1.6445604-.982748-3.1742857-1.877857-4.526923l1.095769-1.0957693-3.644506-3.6439011-1.095769 1.0957693c-1.352033-.8957143-2.881758-1.5442308-4.526319-1.8778572v-1.5466483h-5.153681v1.5466483c-1.6451648.3336264-3.1748901.9821429-4.526923 1.8778572l-1.0957693-1.0957693-3.6439011 3.6439011 1.0957693 1.0957693c-.8957143 1.3526373-1.5442308 2.8823626-1.8784616 4.526923H88.201022v5.1536814h1.5466483c.3342308 1.6445604.9827473 3.1742857 1.8784616 4.526923l-1.0957693 1.0957688 3.6439011 3.643902 1.0957693-1.09577c1.3520329.895715 2.8817582 1.544231 4.526923 1.877857v1.546649h5.153681v-1.546649c1.644561-.333626 3.174286-.982142 4.526319-1.877857l1.095769 1.09577 3.644506-3.643902-1.095769-1.0957688c.895109-1.3526373 1.54423-2.8823626 1.877857-4.526923h1.546648z" stroke-linecap="round" stroke-linejoin="round" mask="url(#b)"/>
      <path stroke="#16191E" stroke-width="3" d="M109.489527 91.9839945c0 3.9297802-3.185769 7.1161539-7.116153 7.1161539-3.9297806 0-7.1155498-3.1863737-7.1155498-7.1161539 0-3.9297802 3.1857692-7.1161538 7.1155498-7.1161538 3.930384 0 7.116153 3.1863736 7.116153 7.1161538zm-20.8039611-2.5767802h-4.0391758m5.3900604-5.622511h-3.0491758m-2.5969066 10.7761319h3.7919781m-1.3748187 5.6224508H90.53" stroke-linecap="round" stroke-linejoin="round" mask="url(#b)"/>
      <path fill="#2E3135" d="M41.4796703 83.7776923H79.255V31.4732967H41.4796703" mask="url(#b)"/>
      <path stroke="#16191E" stroke-width="3" d="M47.6883846 83.7778736h-6.208956V31.473478H78.045967c.6678572 0 1.2087912.5409341 1.2087912 1.2087912v49.8868132c0 .6678572-.540934 1.2087912-1.2087912 1.2087912H51.5293187" stroke-linecap="round" stroke-linejoin="round" mask="url(#b)"/>
      <path fill="#1B1E23" d="M46.3226923 78.9346703H74.411978V36.3163187H46.3226923" mask="url(#b)"/>
      <path stroke="#16191E" stroke-width="3" d="M69.0844121 36.3163791h5.3271428v42.6183517H46.3222692V36.3163791h17.1811539M46.5645714 104.118445v5.727857m0-19.288258v-5.6897803m27.3629835-1.0835604v40.9151647s.1776924 4.123791 3.8741759 4.123791c4.8430219 0 4.4761538 4.476154 4.4761538 4.476154" stroke-linecap="round" stroke-linejoin="round" mask="url(#b)"/>
      <path fill="#1B1E23" d="M75.7446703 107.998725h-6.0554395c-.3342308 0-.6043956-.270769-.6043956-.604395V95.0429011c0-.3342308.2701648-.6043956.6043956-.6043956h6.0554395c.3336264 0 .6043956.2701648.6043956.6043956V107.39433c0 .333626-.2707692.604395-.6043956.604395" mask="url(#b)"/>
      <path stroke="#16191E" stroke-width="3" d="M75.7446703 107.998725h-6.0554395c-.3342308 0-.6043956-.270769-.6043956-.604395V95.0429011c0-.3342308.2701648-.6043956.6043956-.6043956h6.0554395c.3336264 0 .6043956.2701648.6043956.6043956V107.39433c0 .333626-.2707692.604395-.6043956.604395z" stroke-linecap="round" stroke-linejoin="round" mask="url(#b)"/>
      <path fill="#2E3135" d="M41.4796703 104.118626H79.255V90.5584066H41.4796703" mask="url(#b)"/>
      <path stroke="#16191E" stroke-width="3" d="M78.0460275 104.118445H41.479489V90.5582253h36.5665385c.6678571 0 1.2087912.540934 1.2087912 1.2087912v11.1426375c0 .667857-.5409341 1.208791-1.2087912 1.208791z" stroke-linecap="round" stroke-linejoin="round" mask="url(#b)"/>
      <path stroke="#16191E" stroke-width="3" d="M62.7886044 95.5254505V108.64567c0 2.407308-1.9515934 4.358901-4.3589011 4.358901-2.4073077 0-4.3582967-1.951593-4.3582967-4.358901V84.1954505m8.7171978-.4175769v6.4754945m11.1389505 18.3497529v7.256978c0 3.759341 3.7218682 6.386648 7.2642308 5.127088" stroke-linecap="round" stroke-linejoin="round" mask="url(#b)"/>
      <path stroke="#16191E" stroke-width="3" d="M71.0217418 108.483027c0 4.28577 2.7427472 8.091044 6.8085164 9.446099l3.3616484 1.12055" stroke-linecap="round" stroke-linejoin="round" mask="url(#b)"/>
      <path fill="#2E3135" d="M148.452132 157.920473l-6.908846-2.244726.898132-2.763901 6.908846 2.24533c.759725.246593 1.17978 1.070384.932582 1.830714-.246593.759725-1.070989 1.17978-1.830714.932583" mask="url(#b)"/>
      <path stroke="#16191E" stroke-width="3" d="M148.452132 157.920473l-6.908846-2.244726.898132-2.763901 6.908846 2.24533c.759725.246593 1.17978 1.070384.932582 1.830714-.246593.759725-1.070989 1.17978-1.830714.932583z" stroke-linecap="round" stroke-linejoin="round" mask="url(#b)"/>
      <path fill="#2E3135" d="M139.862038 156.147841l1.496484-4.606099c.247198-.759726 1.070989-1.17978 1.830714-.932583.76033.246594 1.17978 1.070385.933187 1.830715l-1.497088 4.606099c-.246593.759725-1.070384 1.17978-1.830714.932582-.759725-.246593-1.17978-1.070989-.932583-1.830714" mask="url(#b)"/>
      <path stroke="#16191E" stroke-width="3" d="M139.862038 156.147841l1.496484-4.606099c.247198-.759726 1.070989-1.17978 1.830714-.932583.76033.246594 1.17978 1.070385.933187 1.830715l-1.497088 4.606099c-.246593.759725-1.070384 1.17978-1.830714.932582-.759725-.246593-1.17978-1.070989-.932583-1.830714z" stroke-linecap="round" stroke-linejoin="round" mask="url(#b)"/>
      <path fill="#2E3135" d="M171.710846 149.208593l6.472473-3.298186 1.319395 2.58923-6.472472 3.298187c-.711978.362638-1.591374.076758-1.954616-.63522-.362637-.711978-.076758-1.591373.63522-1.954011" mask="url(#b)"/>
      <path stroke="#16191E" stroke-width="3" d="M171.710846 149.208593l6.472473-3.298186 1.319395 2.58923-6.472472 3.298187c-.711978.362638-1.591374.076758-1.954616-.63522-.362637-.711978-.076758-1.591373.63522-1.954011z" stroke-linecap="round" stroke-linejoin="round" mask="url(#b)"/>
      <path fill="#2E3135" d="M179.038357 144.387934l2.198791 4.315385c.362638.711978.076759 1.591373-.635219 1.954011-.711978.362637-1.591374.076758-1.954011-.63522l-2.198792-4.31478c-.362637-.711978-.076758-1.591374.63522-1.954616.711978-.362637 1.591374-.076758 1.954011.63522" mask="url(#b)"/>
      <path stroke="#16191E" stroke-width="3" d="M179.038357 144.387934l2.198791 4.315385c.362638.711978.076759 1.591373-.635219 1.954011-.711978.362637-1.591374.076758-1.954011-.63522l-2.198792-4.31478c-.362637-.711978-.076758-1.591374.63522-1.954616.711978-.362637 1.591374-.076758 1.954011.63522zM78.5283956 100.72839H66.3667473m-.0001209 2.662423V91.0152088" stroke-linecap="round" stroke-linejoin="round" mask="url(#b)"/>
      <path fill="#2E3135" d="M64.1214176 43.1013846H50.317022c-.3342308 0-.6043956-.2707692-.6043956-.6043956v-2.1812637c0-.3336264.2701648-.6043956.6043956-.6043956h13.8043956c.3336264 0 .6043956.2707692.6043956.6043956v2.1812637c0 .3336264-.2707692.6043956-.6043956.6043956m-5.3272638 5.8115659h-8.4772527c-.3336264 0-.6043956-.2707692-.6043956-.6043956v-2.1812637c0-.3336264.2707692-.6043956.6043956-.6043956h8.4772527c.3336264 0 .6043957.2707692.6043957.6043956v2.1812637c0 .3336264-.2707693.6043956-.6043957.6043956m8.233077 0H61.940033c-.3336264 0-.6043956-.2707692-.6043956-.6043956v-2.1812637c0-.3336264.2707692-.6043956.6043956-.6043956h5.0871978c.3336263 0 .6043956.2707692.6043956.6043956v2.1812637c0 .3336264-.2707693.6043956-.6043956.6043956m-13.0760989 5.8116264h-3.6342308c-.3336264 0-.6043956-.2707692-.6043956-.6043956v-2.1812637c0-.3336264.2707692-.6043956.6043956-.6043956h3.6342308c.3336263 0 .6043956.2707692.6043956.6043956v2.1812637c0 .3336264-.2707693.6043956-.6043956.6043956m6.2958681 0h-3.1501099c-.3336264 0-.6043956-.2707692-.6043956-.6043956v-2.1812637c0-.3336264.2707692-.6043956.6043956-.6043956H60.247c.3336264 0 .6043956.2707692.6043956.6043956v2.1812637c0 .3336264-.2707692.6043956-.6043956.6043956m10.6546484 0h-7.5084066c-.3342308 0-.6043956-.2707692-.6043956-.6043956v-2.1812637c0-.3336264.2701648-.6043956.6043956-.6043956h7.5084066c.3336263 0 .6043956.2707692.6043956.6043956v2.1812637c0 .3336264-.2707693.6043956-.6043956.6043956m-13.5604011 5.8116264h-7.0242858c-.3336263 0-.6043956-.2707692-.6043956-.6043956V57.750544c0-.3336264.2707693-.6043956.6043956-.6043956h7.0242858c.3336263 0 .6043956.2707692.6043956.6043956v2.1812637c0 .3336264-.2707693.6043956-.6043956.6043956m7.2644725 0h-4.1183517c-.3342307 0-.6043956-.2707692-.6043956-.6043956V57.750544c0-.3336264.2701649-.6043956.6043956-.6043956h4.1183517c.3336264 0 .6043956.2707692.6043956.6043956v2.1812637c0 .3336264-.2707692.6043956-.6043956.6043956" mask="url(#b)"/>
      <path fill="#424549" d="M51.1186923 132.330604h-8.2040659c-.8697253 0-1.5744506-.704725-1.5744506-1.57445v-15.772308c0-.869725.7047253-1.57445 1.5744506-1.57445h8.2040659c.8691209 0 1.5744506.704725 1.5744506 1.57445v15.772308c0 .869725-.7053297 1.57445-1.5744506 1.57445" mask="url(#b)"/>
      <path stroke="#16191E" stroke-width="3" d="M51.1186923 132.330604h-8.2040659c-.8697253 0-1.5744506-.704725-1.5744506-1.57445v-15.772308c0-.869725.7047253-1.57445 1.5744506-1.57445h8.2040659c.8691209 0 1.5744506.704725 1.5744506 1.57445v15.772308c0 .869725-.7053297 1.57445-1.5744506 1.57445z" stroke-linecap="round" stroke-linejoin="round" mask="url(#b)"/>
      <path fill="#424549" d="M49.6859725 125.256516v8.991594c0 .869121.7047253 1.573846 1.5744506 1.573846H62.466522c3.0431318 0 5.5096703-2.466538 5.5096703-5.50967v-.333022c0-3.043132-2.4665385-5.509671-5.5096703-5.509671H50.4728956c-.4345604 0-.7869231.352363-.7869231.786923m-4.561434.787105v8.204066c0 .869725-.7047253 1.57445-1.5744506 1.57445H31.713c-3.0425275 0-5.5096703-2.467142-5.5096703-5.50967v-.333626c0-3.042528 2.4671428-5.509671 5.5096703-5.509671h11.8370879c.8697253 0 1.5744506.70533 1.5744506 1.574451" mask="url(#b)"/>
      <path stroke="#16191E" stroke-width="3" d="M50.6545769 125.256516v8.991594c0 .869121.7047253 1.573846 1.5744506 1.573846h11.2060989c3.0431318 0 5.5096703-2.466538 5.5096703-5.50967v-.333022c0-3.043132-2.4665385-5.509671-5.5096703-5.509671H51.4415c-.4345604 0-.7869231.352363-.7869231.786923zm-6.4986428.787105v8.204066c0 .869725-.7047253 1.57445-1.5744506 1.57445H30.7443956c-3.0425275 0-5.5096703-2.467142-5.5096703-5.50967v-.333626c0-3.042528 2.4671428-5.509671 5.5096703-5.509671h11.8370879c.8697253 0 1.5744506.70533 1.5744506 1.574451z" stroke-linecap="round" stroke-linejoin="round" mask="url(#b)"/>
      <path fill="#2E3135" d="M52.7133297 146.543874H41.3198681c-6.9553846 0-12.5937912-5.638407-12.5937912-12.593792v-5.085989c0-6.955384 5.6384066-12.593791 12.5937912-12.593791h11.3934616c6.9553846 0 12.5937912 5.638407 12.5937912 12.593791v5.085989c0 6.955385-5.6384066 12.593792-12.5937912 12.593792" mask="url(#b)"/>
      <path fill="#424549" d="M52.7133297 143.390379H41.3198681c-6.9553846 0-12.5937912-5.638406-12.5937912-12.593791v-1.932857c0-6.955385 5.6384066-12.593187 12.5937912-12.593187h11.3934616c6.9553846 0 12.5937912 5.637802 12.5937912 12.593187v1.932857c0 6.955385-5.6384066 12.593791-12.5937912 12.593791" mask="url(#b)"/>
      <path fill="#1B1E23" d="M53.0210275 137.714077H41.0122912c-4.3468132 0-7.8710439-3.524231-7.8710439-7.871044v-1.286758c0-4.347418 3.5242307-7.871044 7.8710439-7.871044h12.0087363c4.3468132 0 7.8710439 3.523626 7.8710439 7.871044v1.286758c0 4.346813-3.5242307 7.871044-7.8710439 7.871044" mask="url(#b)"/>
      <path fill="#1B1E23" d="M54.585022 120.685231H39.4479341c-3.4831319 0-6.3068682 2.823736-6.3068682 6.306868v2.522747c0-3.483132 2.8237363-6.306868 6.3068682-6.306868H54.585022c3.4831318 0 6.3068681 2.823736 6.3068681 6.306868v-2.522747c0-3.483132-2.8237363-6.306868-6.3068681-6.306868" mask="url(#b)"/>
      <path fill="#2E3135" d="M52.6929011 146.543874H41.3405385v-4.91555c0-.43456.3523626-.786923.786923-.786923h9.7785165c.4345605 0 .7869231.352363.7869231.786923v4.91555z" mask="url(#b)"/>
      <path fill="#1F2328" d="M41.3406593 146.544176H52.693022v-3.153736H41.3406593" mask="url(#b)"/>
      <path stroke="#16191E" stroke-width="3" d="M52.7133297 146.543874H41.3198681c-6.9553846 0-12.5937912-5.638407-12.5937912-12.593792v-5.085989c0-6.955384 5.6384066-12.593791 12.5937912-12.593791h11.3934616c6.9553846 0 12.5937912 5.638407 12.5937912 12.593791v5.085989c0 6.955385-5.6384066 12.593792-12.5937912 12.593792z" stroke-linecap="round" stroke-linejoin="round" mask="url(#b)"/>
      <path stroke="#16191E" stroke-width="3" d="M41.3402967 146.543874v-4.91555c0-.43456.3523626-.786923.7869231-.786923h9.7785165c.4345604 0 .786923.352363.786923.786923v4.91555" stroke-linecap="round" stroke-linejoin="round" mask="url(#b)"/>
      <path fill="#424549" d="M205.655093 19.9265h-8.204066c-.869725 0-1.57445-.7047253-1.57445-1.5744505V2.57974176c0-.86972528.704725-1.57445055 1.57445-1.57445055h8.204066c.869121 0 1.574451.7047253 1.574451 1.5744506v15.7723077c0 .8697252-.70533 1.5744505-1.574451 1.5744505" mask="url(#b)"/>
      <path stroke="#16191E" stroke-width="3" d="M205.655093 19.9265h-8.204066c-.869725 0-1.57445-.7047253-1.57445-1.5744505V2.57974176c0-.86972528.704725-1.57445055 1.57445-1.57445055h8.204066c.869121 0 1.574451.7047253 1.574451 1.5744506v15.7723077c0 .8697252-.70533 1.5744505-1.574451 1.5744505z" stroke-linecap="round" stroke-linejoin="round" mask="url(#b)"/>
      <path fill="#424549" d="M206.038945 32.6868626h-10.909341c-6.95478 0-12.593186-5.6384066-12.593186-12.5937912v-3.6330219c0-6.95538466 5.638406-12.59379126 12.593186-12.59379126h10.909341c6.955385 0 12.593791 5.6384066 12.593791 12.59379126v3.6330219c0 6.9553846-5.638406 12.5937912-12.593791 12.5937912" mask="url(#b)"/>
    </g>
    <g transform="translate(182.527 12.362)">
      <mask id="d" fill="#fff">
        <use xlink:href="#c"/>
      </mask>
      <path fill="#1F2328" d="M7.07656593.42398352H-3.5740934V17.4528297H7.07656592c3.48313187 0 6.30686817-2.8237363 6.30686817-6.3068682V6.73085165c0-3.48313187-2.8237363-6.30686813-6.3068682-6.30686813" mask="url(#d)"/>
    </g>
    <g transform="translate(182.527 12.362)">
      <mask id="f" fill="#fff">
        <use xlink:href="#e"/>
      </mask>
      <path fill="#1B1E23" d="M7.07656593.42398352H-3.5740934v2.52274725H7.07656592c3.48313187 0 6.30686817 2.82373626 6.30686817 6.30686813V6.73085165c0-3.48313187-2.8237363-6.30686813-6.3068682-6.30686813" mask="url(#f)"/>
    </g>
    <path fill="#424549" d="M192.5473352 21.59365934c0 1.04499996-.84736267 1.89236266-1.89236267 1.89236266s-1.89175824-.8473627-1.89175824-1.89236266c0-1.045.8467582-1.89236264 1.8917582-1.89236264s1.89236266.84736264 1.89236266 1.89236264"/>
    <g transform="translate(182.527 12.362)">
      <mask id="h" fill="#fff">
        <use xlink:href="#g"/>
      </mask>
      <path stroke="#16191E" stroke-width="3" d="M7.07662637.42398352H-3.57403297V17.4528297H7.07662637c3.48313183 0 6.30686813-2.8237363 6.30686813-6.3068682V6.73085165c0-3.48313187-2.8237363-6.30686813-6.30686813-6.30686813z" stroke-linecap="round" stroke-linejoin="round" mask="url(#h)"/>
    </g>
    <path fill="#2E3135" d="M205.940248 8.37141174h-.875165c.935 1.53032967 1.483791 3.32296703 1.483791 5.24796703V23.7109722c0 5.5731318-4.517857 10.090989-10.090989 10.090989h-9.545824c.556044.6013736 1.132637 1.1755494 1.863351 1.5587363 1.44511.7573076 3.021374 1.2861538 4.554726 1.8313186h12.61011c7.00978 0 12.692307-5.6825274 12.692307-12.6923077v-3.435989c0-7.0097802-5.682527-12.69230766-12.692307-12.69230766"/>
    <path stroke="#16191E" stroke-width="3" d="M206.038945 8.37147218c6.955385 0 12.593792 5.6384066 12.593792 12.59379122v3.633022c0 6.9553846-5.638407 12.5937912-12.593792 12.5937912h-10.90934c-6.95478 0-12.593187-5.6384066-12.593187-12.5937912v-3.633022c0-6.95538463 5.638407-12.59379122 12.593187-12.59379122h6.196868" stroke-linecap="round" stroke-linejoin="round"/>
    <path fill="#424549" d="M200.20266 21.9089667c0 3.135 2.541483 5.6764835 5.676483 5.6764835h2.094231c3.135 0 5.676484-2.5414835 5.676484-5.6764835s-2.541484-5.67648354-5.676484-5.67648354h-2.094231c-3.135 0-5.676483 2.54148354-5.676483 5.67648354"/>
    <path stroke="#16191E" stroke-width="3" d="M202.750308 17.1719557c-1.535165 1.015989-2.547527 2.7584615-2.547527 4.7372527 0 3.1343956 2.541483 5.6758792 5.675879 5.6758792h2.094835c3.135 0 5.676483-2.5414836 5.676483-5.6758792m-5.676362-5.67654392h-2.094835" stroke-linecap="round" stroke-linejoin="round"/>
    <path fill="#2E3135" d="M203.778325 21.9089667c0 1.3375275 1.084285 2.4218132 2.421813 2.4218132h1.452362c1.337528 0 2.421814-1.0842857 2.421814-2.4218132s-1.084286-2.4212088-2.421814-2.4212088h-1.452362c-1.337528 0-2.421813 1.0836813-2.421813 2.4212088"/>
    <path stroke="#16191E" stroke-width="3" d="M203.778325 21.9089667c0 1.3375275 1.084285 2.4218132 2.421813 2.4218132h1.452362c1.337528 0 2.421814-1.0842857 2.421814-2.4218132s-1.084286-2.4212088-2.421814-2.4212088h-1.452362c-1.337528 0-2.421813 1.0836813-2.421813 2.4212088zm-5.200402 51.8983022l-3.298791-5.7133517 3.298791-5.7133516h6.596978l3.298792 5.7133516-3.298792 5.7133517z" stroke-linecap="round" stroke-linejoin="round"/>
    <path fill="#1F2328" d="M203.997841 68.0939172c0 1.1713187-.949505 2.1214286-2.121429 2.1214286-1.171318 0-2.121428-.9501099-2.121428-2.1214286 0-1.1713187.95011-2.1214285 2.121428-2.1214285 1.171924 0 2.121429.9501098 2.121429 2.1214285"/>
    <path stroke="#16191E" stroke-width="3" d="M203.997841 68.0939172c0 1.1713187-.949505 2.1214286-2.121429 2.1214286-1.171318 0-2.121428-.9501099-2.121428-2.1214286 0-1.1713187.95011-2.1214285 2.121428-2.1214285 1.171924 0 2.121429.9501098 2.121429 2.1214285z" stroke-linecap="round" stroke-linejoin="round"/>
    <path fill="#1F2328" d="M23.3556597 57.2438678h-2.4212088c-1.3375274 0-2.4218131-1.0842857-2.4218131-2.4212088v-.0006044c0-1.3369231 1.0842857-2.4212088 2.4218131-2.4212088h2.4212088v4.843022z"/>
    <path stroke="#16191E" stroke-width="3" d="M23.8399619 57.2438678h-2.905934c-1.3375275 0-2.4212088-1.0842857-2.4212088-2.4212088v-.0006044c0-1.3369231 1.0836813-2.4212088 2.4212088-2.4212088h2.905934v4.843022z" stroke-linecap="round" stroke-linejoin="round"/>
    <path fill="#424549" d="M26.7457751 57.2438678h-2.4212088c-1.3375274 0-2.4218132-1.0842857-2.4218132-2.4212088v-.0006044c0-1.3369231 1.0842858-2.4212088 2.4218132-2.4212088h2.4212088v4.843022z"/>
    <path stroke="#16191E" stroke-width="3" d="M26.7457751 57.2438678h-2.4212088c-1.3375274 0-2.4218132-1.0842857-2.4218132-2.4212088v-.0006044c0-1.3369231 1.0842858-2.4212088 2.4218132-2.4212088h2.4212088v4.843022z" stroke-linecap="round" stroke-linejoin="round"/>
    <path stroke="#16191E" stroke-width="3" d="M25.234907 134.459456h-3.274011V54.8224777" stroke-linecap="round" stroke-linejoin="round"/>
    <path fill="#2A2D32" d="M44.6684015 138.107164c-.0368681 0-.0737363-.002417-.11-.006648-.3064286-.037472-.572967-.228461-.7071429-.507088L41.9824674 133.712l-1.7618132 3.864505c-.1347802.29555-.4170329.496209-.7403846.526429-.3215384.03445-.6382417-.113627-.8256044-.380165l-1.1821978-1.675989h-3.2576923c-.5010439 0-.9065934-.406154-.9065934-.906594 0-.500439.4055495-.906593.9065934-.906593h3.7279121c.2949451 0 .5711539.143242.740989.384396l.5427473.768791 1.9086813-4.187857c.1462637-.319726.4635714-.527033.8153297-.53066.3565934.018132.6739011.197033.8268131.513737l2.0954396 4.352252 1.9757692-2.381923c.1674176-.201868.4146154-.321538.6775275-.327582.2598901 0 .5149451.102747.6914286.297363l2.4133516 2.657527 2.7161539-3.605824c.1613736-.213956.4085714-.346319.6763187-.36022.2653296-.009066.5276373.090055.7101648.286484l2.1528571 2.300934h3.4015385c.5004396 0 .9065934.406153.9065934.906593s-.4061538.906593-.9065934.906593h-3.795c-.2508242 0-.4907692-.103956-.6624176-.287087l-1.6838461-1.801099-2.7264286 3.619725c-.1625824.216374-.4128022.348132-.6823626.36022-.2701649.012088-.5318682-.096099-.7131869-.296154l-2.4478022-2.695605-2.2108791 2.665385c-.1728571.209121-.4297253.327582-.6974725.327582"/>
    <path stroke="#16191E" stroke-width="3" d="M44.1556323 125.190505h2.8612088m6.0041868 0c4.3468132 0 7.8710439 3.524231 7.8710439 7.871044v1.286758c0 4.347418-3.5242307 7.871044-7.8710439 7.871044H41.0122916c-4.3468132 0-7.871044-3.523626-7.871044-7.871044v-1.286758c0-4.346813 3.5242308-7.871044 7.871044-7.871044m-14.8087802 15.397099H6.83746743m-4.8354066 0H.906896m161.864396 0h-23.169506" stroke-linecap="round" stroke-linejoin="round"/>
    <path d="M0 0h220v167H0z"/>
  </g>
</svg>