<svg width="1130" height="200" xmlns="http://www.w3.org/2000/svg">
  <g transform="translate(-40 -167)" fill="#FFF" fill-rule="evenodd">
    <circle fill-opacity=".1" cx="350" cy="182" r="4"/>
    <circle fill-opacity=".1" cx="326" cy="182" r="4"/>
    <circle fill-opacity=".1" cx="302" cy="182" r="4"/>
    <circle fill-opacity=".1" cx="278" cy="182" r="4"/>
    <circle fill-opacity=".1" cx="374" cy="182" r="4"/>
    <circle fill-opacity=".1" cx="398" cy="182" r="4"/>
    <circle fill-opacity=".1" cx="422" cy="182" r="4"/>
    <circle fill-opacity=".1" cx="350" cy="206" r="4"/>
    <circle fill-opacity=".1" cx="326" cy="206" r="4"/>
    <circle fill-opacity=".1" cx="302" cy="206" r="4"/>
    <circle fill-opacity=".1" cx="278" cy="206" r="4"/>
    <circle fill-opacity=".1" cx="374" cy="206" r="4"/>
    <circle fill-opacity=".1" cx="398" cy="206" r="4"/>
    <circle fill-opacity=".1" cx="422" cy="206" r="4"/>
    <circle fill-opacity=".1" cx="351" cy="230" r="4"/>
    <circle fill-opacity=".1" cx="327" cy="230" r="4"/>
    <circle fill-opacity=".1" cx="303" cy="230" r="4"/>
    <circle fill-opacity=".1" cx="279" cy="230" r="4"/>
    <circle fill-opacity=".1" cx="375" cy="230" r="4"/>
    <circle fill-opacity=".1" cx="399" cy="230" r="4"/>
    <circle fill-opacity=".1" cx="423" cy="230" r="4"/>
    <circle fill-opacity=".1" cx="351" cy="254" r="4"/>
    <circle fill-opacity=".1" cx="327" cy="254" r="4"/>
    <circle fill-opacity=".1" cx="303" cy="254" r="4"/>
    <circle fill-opacity=".1" cx="279" cy="254" r="4"/>
    <circle fill-opacity=".1" cx="375" cy="254" r="4"/>
    <circle fill-opacity=".1" cx="399" cy="254" r="4"/>
    <circle fill-opacity=".1" cx="423" cy="254" r="4"/>
    <circle fill-opacity=".1" cx="794" cy="328" r="4"/>
    <circle fill-opacity=".1" cx="770" cy="328" r="4"/>
    <circle fill-opacity=".1" cx="746" cy="328" r="4"/>
    <circle fill-opacity=".1" cx="722" cy="328" r="4"/>
    <circle fill-opacity=".1" cx="818" cy="328" r="4"/>
    <circle fill-opacity=".1" cx="842" cy="328" r="4"/>
    <circle fill-opacity=".1" cx="866" cy="328" r="4"/>
    <circle fill-opacity=".1" cx="794" cy="352" r="4"/>
    <circle fill-opacity=".1" cx="770" cy="352" r="4"/>
    <circle fill-opacity=".1" cx="746" cy="352" r="4"/>
    <circle fill-opacity=".1" cx="722" cy="352" r="4"/>
    <circle fill-opacity=".1" cx="818" cy="352" r="4"/>
    <circle fill-opacity=".1" cx="842" cy="352" r="4"/>
    <circle fill-opacity=".1" cx="866" cy="352" r="4"/>
    <path d="M28.1352383 49.2512919C53.6035593 33.7380641 154.201809.79404907 193.638461.79404907c39.436652 0 162.336082 0 203.688614 29.29036043 18.571869 123.8291595-.287278 191.3151685-56.541239 202.6686685-81.151324 16.378428-81.151324-49.332042-134.744194-57.569491-55.729082-8.565795-90.276642 51.771601-154.2827058 36.275604C9.88755435 201.322046-6.57933583 165.837932 2.35826566 105.00685c.30865163-2.100715.30865163-40.2423302 25.77697264-55.7555581z" opacity=".10016741"/>
    <circle fill-rule="nonzero" opacity=".09798" cx="480.5" cy="277.5" r="21.5"/>
    <circle fill-rule="nonzero" opacity=".09798" cx="984.5" cy="160.5" r="21.5"/>
    <path fill-rule="nonzero" opacity=".09798" d="M682 226h166v41H682zM889.941125 322l33.941126 33.941125-33.941126 33.941126L856 355.941125zM47.9411255 267l33.9411255 33.941125-33.9411255 33.941126L14 300.941125z"/>
    <path d="M1096.41699 78.6767286L1162.27499 56l129.82797 377.047819-65.858 22.676729c-10.05251 3.461356-21.00766-1.881829-24.46902-11.934339-1.96064-5.69412-1.1436-11.977665 2.20802-16.981042 13.34383-19.919982 8.0128-46.88563-11.90718-60.229459-3.28569-2.200992-6.85672-3.9427-10.614-5.176795l-2.24535-.737494c-20.52667-6.742075-31.70129-28.847759-24.95921-49.374428 1.35403-4.122434 3.38447-7.990879 6.00815-11.446906 13.06403-17.208455 9.70431-41.74915-7.50415-54.813176-3.45603-2.623688-7.32447-4.654126-11.4469-6.008157l-4.4907-1.474988c-20.52667-6.742075-31.70129-28.84776-24.95921-49.374428 1.35403-4.122434 3.38447-7.990879 6.00816-11.446906 13.06402-17.208455 9.7043-41.74915-7.50416-54.813176-3.45602-2.623688-7.32447-4.654126-11.4469-6.008157l-2.24535-.737494c-10.10084-3.317667-15.59969-14.195518-12.28203-24.2963617 1.87925-5.7214982 6.32774-10.2338698 12.02186-12.1945127z" opacity=".09798"/>
  </g>
</svg>
