<svg xmlns="http://www.w3.org/2000/svg" width="18" height="18">
  <g fill="none" fill-rule="evenodd">
    <path d="M7.970563-6.99999975L24.94112575 9.970563 7.970563 26.94112575-8.99999975 9.970563"/>
    <path fill="#99AAB5" d="M7.970563 12.79899012l6.36396103-6.36396103-2.82842712-2.82842716L5.1421359 9.970563l-.3599137-.3599137c-.18605725-.18605725-.5054843-.18890185-.70074648.0063603-.18955157.18955158-.19810974.50899704-.0063603.7007465l3.5482545 3.5482545c.18605727.18605725.50548433.18890186.7007465-.0063603.18955156-.18955157.19810974-.50899704.0063603-.7007465l-.3599137-.35991368zm7.7781746-4.94974746l.70710677.70710678 1.41421357-1.41421356L10.79899012.07106806 9.38477656 1.48528163l.70710678.70710678L4.4350291 7.8492427H1.60660196L.1923884 9.26345622l3.67695527 3.67695526-2.82842713 2.82842713 1.13137086 1.1313709 2.8284271-2.82842713 3.67695526 3.67695526 1.41421356-1.41421356V13.5060969l5.65685425-5.65685424z"/>
  </g>
</svg>