<svg id="sparkles" xmlns="http://www.w3.org/2000/svg" viewBox="0 0 200 190"><style>.st0{fill:#738BD7;} .st1{fill:none;stroke:#7C93E4;stroke-width:2;stroke-linecap:round;stroke-linejoin:round;stroke-miterlimit:10;}</style><path class="st0" d="M135.4 19.5h6.8v6.8h-6.8z"/><path class="st1" d="M135.4 19.5h6.8v6.8h-6.8z"/><path class="st0" d="M136.4 42.3h11.7V54h-11.7z"/><path class="st1" d="M136.4 42.3h11.7V54h-11.7z"/><path class="st0" d="M85.5 32.8h11.7v11.7H85.5z"/><path class="st1" d="M85.5 32.8h11.7v11.7H85.5z"/><path class="st0" d="M60.4 38.7h11.7v11.7H60.4z"/><path class="st1" d="M60.4 38.7h11.7v11.7H60.4z"/><path class="st0" d="M32.6 171h11.7v11.7H32.6z"/><path class="st1" d="M32.6 171h11.7v11.7H32.6z"/><path class="st0" d="M46.2 37.2H53V44h-6.8z"/><path class="st1" d="M46.2 37.2H53V44h-6.8z"/><path class="st0" d="M54.9 157.4h6.8v6.8h-6.8z"/><path class="st1" d="M54.9 157.4h6.8v6.8h-6.8z"/><g><path class="st0" d="M145.3 150.1h6.8v6.8h-6.8z"/><path class="st1" d="M145.3 150.1h6.8v6.8h-6.8z"/></g><g><path class="st0" d="M6.6 62.2h3.9v3.9H6.6z"/><path class="st1" d="M6.6 62.2h3.9v3.9H6.6z"/></g><g><path class="st0" d="M121.9 172.4h3.9v3.9h-3.9z"/><path class="st1" d="M121.9 172.4h3.9v3.9h-3.9z"/></g><g><path class="st0" d="M31 114.3h3.9v3.9H31z"/><path class="st1" d="M31 114.3h3.9v3.9H31z"/></g><g><path class="st0" d="M157.8 74.3h3.9v3.9h-3.9z"/><path class="st1" d="M157.8 74.3h3.9v3.9h-3.9z"/></g><g><path class="st0" d="M43.4 68.9h3.9v3.9h-3.9z"/><path class="st1" d="M43.4 68.9h3.9v3.9h-3.9z"/></g></svg>