<svg xmlns="http://www.w3.org/2000/svg" width="660" height="90" xmlns:xlink="http://www.w3.org/1999/xlink">
  <defs>
    <path id="a" d="M0 0h660v90H0z"/>
    <mask id="c" width="662" height="92" x="-1" y="-1">
      <path fill="#fff" d="M-1-1h662v92H-1z"/>
      <use xlink:href="#a"/>
    </mask>
    <path id="e" d="M0 151.754h907.913953V0H0z"/>
    <linearGradient id="g" x1="0%" y1="49.7500002%" y2="49.7500002%">
      <stop stop-color="#F39C12" stop-opacity=".7" offset="0%"/>
      <stop stop-color="#F39C12" stop-opacity=".7" offset="68.3753551%"/>
      <stop stop-color="#F39C12" stop-opacity=".6" offset="100%"/>
    </linearGradient>
    <rect id="b" width="660" height="90" rx="5"/>
    <mask id="h" width="662" height="92" x="-1" y="-1">
      <path fill="#fff" d="M-1-1h662v92H-1z"/>
      <use xlink:href="#b"/>
    </mask>
  </defs>
  <g fill="none" fill-rule="evenodd">
    <g>
      <g>
        <g>
          <mask id="d" fill="#fff">
            <use xlink:href="#a"/>
          </mask>
          <g>
            <use fill="#F39C12" xlink:href="#a"/>
            <use stroke="#F39C12" stroke-width="2" mask="url(#c)" xlink:href="#a"/>
          </g>
          <g mask="url(#d)">
            <g transform="translate(-63 -55)">
              <path fill="#F29C12" d="M436.141466 151.254l10.250645-86.739c3.39687-28.745 27.776295-50.403 56.737243-50.403 28.960947 0 53.340872 21.658 56.737743 50.403l10.250644 86.739H436.141466z"/>
              <path stroke="#F2F3F4" d="M562.270871 86.76535l-15.027776-13.303c-7.753269-6.8635-19.763383-5.4195-25.666633 3.086-8.929417 12.8655-27.964399 12.8655-36.893816 0-5.903251-8.5055-17.913364-9.9495-25.666634-3.086l-15.027775 13.303" stroke-linecap="round" stroke-linejoin="round"/>
              <path stroke="#F2F3F4" d="M436.141466 151.254l10.250645-86.739c3.39687-28.745 27.776295-50.403 56.737243-50.403 28.960947 0 53.340872 21.658 56.737743 50.403l10.250644 86.739" stroke-linecap="round" stroke-linejoin="round"/>
              <g>
                <path fill="#F29C12" d="M665.3940062 151.254l21.6459196-61.296c8.2330336-23.3145 30.2816749-38.9055 55.0192969-38.9055h.003502c24.7376223 0 46.7862633 15.591 55.0192973 38.9055l21.645919 61.296"/>
                <path stroke="#F2F3F4" d="M665.3940062 151.254l21.6459196-61.296c8.2330336-23.3145 30.2816749-38.9055 55.0192969-38.9055h.003502c24.7376223 0 46.7862633 15.591 55.0192973 38.9055l21.645919 61.296" stroke-linecap="round" stroke-linejoin="round"/>
              </g>
              <path stroke="#F2F3F4" d="M801.843944 102.72575l-15.190865-13.6155c-7.837316-7.024-19.978001-5.546-25.944787 3.159-9.02647 13.1675-28.268066 13.1675-37.294536 0-5.966786-8.705-18.107471-10.183-25.944787-3.159l-15.190865 13.6155" stroke-linecap="round" stroke-linejoin="round"/>
              <path fill="#F29C12" d="M61.1030471 151.254l8.0614391-68.2165C71.8359572 60.431 91.0095154 43.398 113.786058 43.398c22.776542 0 41.9501 17.033 44.622071 39.6395l8.061439 68.2165"/>
              <path stroke="#F2F3F4" d="M160.29827 100.5365L148.479762 90.074c-6.097858-5.3975-15.543059-4.262-20.185615 2.4275-7.022868 10.118-21.993111 10.118-29.0154781 0-4.6425565-6.6895-14.0882579-7.825-20.1856155-2.4275l-11.8190082 10.4625" stroke-linecap="round" stroke-linejoin="round"/>
              <path stroke="#F2F3F4" d="M61.1030471 151.254l8.0614391-68.2165C71.8359572 60.431 91.0095154 43.398 113.786058 43.398c22.776542 0 41.9501 17.033 44.622071 39.6395l8.061439 68.2165" stroke-linecap="round" stroke-linejoin="round"/>
              <path fill="#F29C12" d="M135.361388 151.254l7.109415-104.453c1.110612-16.3135 14.674581-28.979 31.034089-28.979h.001501c16.360009 0 29.923978 12.6655 31.034089 28.979l7.109916 104.453"/>
              <path stroke="#F2F3F4" d="M205.525875 57.53165l-12.054638-9.057c-2.133175-1.6025-5.182354-1.03-6.588128 1.237l-4.88569 7.879c-3.906651 6.3-13.076701 6.3-16.983352 0l-4.885691-7.879c-1.405774-2.267-4.454953-2.8395-6.588127-1.237l-12.054638 9.057" stroke-linecap="round" stroke-linejoin="round"/>
              <path stroke="#F2F3F4" d="M135.361388 151.254l7.109415-104.453c1.110612-16.3135 14.674581-28.979 31.034089-28.979h.001501c16.360009 0 29.923978 12.6655 31.034089 28.979l7.109916 104.453" stroke-linecap="round" stroke-linejoin="round"/>
              <g>
                <path fill="#FFF" d="M276.59085763 151.254l5.2498909-103.3695C283.18949123 21.335 305.1205678.5 331.7192147.5c26.5981465 0 48.5297233 20.835 49.8779653 47.3845l5.250392 103.3695"/>
                <path stroke="#F2F3F4" d="M276.59085763 151.254l5.2498909-103.3695C283.18949123 21.335 305.1205678.5 331.7192147.5c26.5981465 0 48.5297233 20.835 49.8779653 47.3845l5.250392 103.3695" stroke-linecap="round" stroke-linejoin="round"/>
              </g>
              <path stroke="#F2F3F4" d="M382.520539 68.1754l-16.763231-12.2425c-4.876685-3.5615-11.679931-2.7395-15.566572 1.881l-9.680831 11.507c-4.589527 5.4555-12.992154 5.4555-17.581181 0l-9.680831-11.507c-3.88714-4.6205-10.690386-5.4425-15.567072-1.881L280.91759 68.1754" stroke-linecap="round" stroke-linejoin="round"/>
              <g>
                <path fill="#F29C12" d="M276.59085763 151.254l5.2498909-103.3695C283.18949123 21.335 305.1205678.5 331.7192147.5c26.5981465 0 48.5297233 20.835 49.8779653 47.3845l5.250392 103.3695"/>
                <path stroke="#F2F3F4" d="M276.59085763 151.254l5.2498909-103.3695C283.18949123 21.335 305.1205678.5 331.7192147.5c26.5981465 0 48.5297233 20.835 49.8779653 47.3845l5.250392 103.3695" stroke-linecap="round" stroke-linejoin="round"/>
              </g>
              <path stroke="#F2F3F4" d="M382.520539 68.1754l-16.763231-12.2425c-4.876685-3.5615-11.679931-2.7395-15.566572 1.881l-9.680831 11.507c-4.589527 5.4555-12.992154 5.4555-17.581181 0l-9.680831-11.507c-3.88714-4.6205-10.690386-5.4425-15.567072-1.881L280.91759 68.1754" stroke-linecap="round" stroke-linejoin="round"/>
              <path fill="#F29C12" d="M224.266995 151.254l7.418085-62.7735c2.458854-20.803 20.10257-36.477 41.061611-36.477s38.602757 15.674 41.061611 36.477l7.418085 62.7735"/>
              <path stroke="#F2F3F4" d="M315.54766 104.58315l-10.875989-9.6275c-5.61059-4.967-14.302876-3.922-18.574729 2.2335-6.462558 9.311-20.238144 9.311-26.700202 0h-.000501c-4.271852-6.1555-12.963638-7.2005-18.574728-2.2335l-10.875989 9.6275" stroke-linecap="round" stroke-linejoin="round"/>
              <path stroke="#F2F3F4" d="M224.266995 151.254l7.418085-62.7735c2.458854-20.803 20.10257-36.477 41.061611-36.477s38.602757 15.674 41.061611 36.477l7.418085 62.7735" stroke-linecap="round" stroke-linejoin="round"/>
              <g>
                <path fill="#F29C12" d="M330.7412766 151.16975l3.68152726-18.8c7.17094874-36.6235 39.28363194-63.046 76.62269314-63.046h.0015008c37.3450642 0 69.4607492 26.4305 76.6261952 63.061l3.691032 18.8695"/>
                <path stroke="#F2F3F4" d="M330.7412766 151.16975l3.68152726-18.8c7.17094874-36.6235 39.28363194-63.046 76.62269314-63.046h.0015008c37.3450642 0 69.4607492 26.4305 76.6261952 63.061l3.691032 18.8695" stroke-linecap="round" stroke-linejoin="round"/>
              </g>
              <path stroke="#F2F3F4" d="M478.631964 107.7267l-23.055196-9.7205c-6.709194-2.829-14.398428-2.0485-20.401734 2.071l-.0005.0005c-14.533003 9.9735-33.710564 9.9735-48.243566 0l-.000501-.0005c-6.003305-4.1195-13.69254-4.9-20.401734-2.071l-23.055196 9.7205" stroke-linecap="round" stroke-linejoin="round"/>
              <mask id="f" fill="#fff">
                <use xlink:href="#e"/>
              </mask>
              <path fill="#F29C11" d="M707.183418 79.5445c-4.781133-19.984-18.498686-30.072-20.431251-31.4085v-2.711l16.354506-5.6385c.201611-.069.337186-.259.337186-.4725 0-.2135-.135575-.4035-.337186-.4725l-16.691691-5.7545c-.153084-.0535-.321677-.0285-.45375.0655-.131572.0935-.209615.2455-.209615.407V48.046c-1.198661.8075-13.879643 9.7085-19.522251 27.728-3.41538-11.2515-11.110118-17.09-12.526898-18.086V55.81l10.374213-3.5765c.202111-.0695.337186-.2595.337186-.4725 0-.2135-.135075-.4035-.337186-.473l-10.711398-3.692c-.153085-.054-.321677-.0285-.45375.065-.131573.094-.209616.246-.209616.4075v9.5585c-.631347.428-3.256793 2.3175-6.119369 5.8575l-17.856333-11.461c-.080544-.0515-.174596-.079-.270149-.079h-4.313875v-15.001c0-.2765-.224124-.5-.500276-.5h-3.19676v-2.884h1.301216c.276152 0 .500276-.2235.500276-.5 0-.276-.224124-.5-.500276-.5h-7.617194v-11.616c0-.2765-.223623-.5-.500276-.5-.276152 0-.500275.2235-.500275.5v11.616H571.73133v-11.616c0-.2765-.224123-.5-.500275-.5-.276153 0-.500276.2235-.500276.5v11.616h-7.617194c-.276152 0-.500276.224-.500276.5 0 .2765.224124.5.500276.5h1.301216v2.884h-3.19676c-.276152 0-.500276.2235-.500276.5v15.001h-4.726602c-.096053 0-.189605.0275-.27065.079l-17.875343 11.473c-2.752515-3.406-5.286911-5.2865-6.045329-5.811V55.81l10.374213-3.5765c.202111-.0695.337186-.2595.337186-.4725 0-.2135-.135075-.4035-.337186-.473l-10.711398-3.692c-.152584-.054-.321677-.0285-.45375.065-.131573.094-.209616.246-.209616.4075v9.56c-1.14463.7905-8.805348 6.4195-12.395325 17.455-5.57457-17.0275-17.380571-25.7145-19.163553-26.9475v-2.711l16.354506-5.6385c.201611-.069.337186-.259.337186-.4725 0-.2135-.135575-.4035-.337186-.4725l-16.691191-5.7545c-.153585-.0535-.322178-.0285-.45375.0655-.131573.0935-.210116.2455-.210116.407V48.046c-1.279204.862-15.645615 10.945-20.563824 31.4985-.035519.149-.0005.3055.094052.426.095053.12.239632.19.392717.19h3.032669v70.5935c0 .2765.224124.5.500276.5.276152 0 .500275-.2235.500275-.5h220.467903c0 .2765.224124.5.500276.5.276152 0 .500275-.2235.500275-.5V80.1605h3.03267c.153085 0 .297664-.07.392717-.19.094552-.1205.129571-.277.093551-.426z" mask="url(#f)"/>
              <path stroke="#F2F3F4" d="M498.740387 79.66085h20.445258c-5.135328-21.462-20.445258-31.26-20.445258-31.26h-.132073s-15.310431 9.798-20.445258 31.26h20.445258m-16.912513.1161v70.977m33.956999-70.977v70.977m-11.475469-48.477H493.17127v-8c0-3.0375 2.463857-5.5 5.50303-5.5 3.039174 0 5.503031 2.4625 5.503031 5.5v8zm-13.007163 0h15.008265m-7.504133-13.5v13.5m-5.329534-6.16665h10.658869m.173696 32.16665H493.17127v-8c0-3.0375 2.463857-5.5 5.50303-5.5 3.039174 0 5.503031 2.4625 5.503031 5.5v8zm-13.007163 0h15.008265m-7.504133-13.5v13.5m-5.329534-6.16665h10.658869m182.248207-42.44945H706.6971c-5.134827-21.462-20.445258-31.26-20.445258-31.26h-.132073s-15.310431 9.798-20.445258 31.26h20.445258m-16.912513.1161v70.977m33.956999-70.977v70.977m-11.475469-48.477h-11.006061v-8c0-3.0375 2.463857-5.5 5.503031-5.5 3.039173 0 5.50303 2.4625 5.50303 5.5v8zm-13.007163 0h15.008265m-7.504132-13.5v13.5m-5.329535-6.16665h10.658869m.173696 32.16665h-11.006061v-8c0-3.0375 2.463857-5.5 5.503031-5.5 3.039173 0 5.50303 2.4625 5.50303 5.5v8zm-13.007163 0h15.008265m-7.504132-13.5v13.5m-5.329535-6.16665h10.658869m-140.705381-19.83335h-11.00606v-8c0-3.0375 2.463856-5.5 5.50303-5.5s5.50303 2.4625 5.50303 5.5v8zm-13.007162 0h15.008264m-7.504132-13.5v13.5m-5.329485-6.16665h10.65887m.173645 32.16665h-11.00606v-8c0-3.0375 2.463856-5.5 5.50303-5.5s5.50303 2.4625 5.50303 5.5v8zm-13.007162 0h15.008264m-7.504132-13.5v13.5m-5.329485-6.16665h10.65887m35.126743-69.66605h-29.771895l-37.131446 23.8325" stroke-linecap="round" stroke-linejoin="round" mask="url(#f)"/>
              <path stroke="#F2F3F4" d="M537.568618 63.948c-3.25129-4.066-6.268952-5.9975-6.268952-5.9975h-.085047s-9.82491 6.288-13.120225 20.0605m13.205172-22.55735v-7.3855l10.711398 3.693zm0 0v2.497m137.494413 28.8263h-13.641012l-26.697201-17.5h-17.822314s-4.076745-14-18.189016-20.679h-.442244c-14.112271 6.679-18.189016 20.679-18.189016 20.679h-17.822314l-26.697201 17.5H515.65265m117.984369 15.5h11.006061v-8c0-3.0375-2.463857-5.5-5.503031-5.5-3.039173 0-5.50303 2.4625-5.50303 5.5v8zm13.007163 0h-15.008265m7.504132-13.5v13.5m5.329435-6.16665h-10.658869m-.173596 32.16665h11.006061v-8c0-3.0375-2.463857-5.5-5.503031-5.5-3.039173 0-5.50303 2.4625-5.50303 5.5v8zm13.007163 0h-15.008265m7.504132-13.5v13.5m5.329435-6.16665h-10.658869" stroke-linecap="round" stroke-linejoin="round" mask="url(#f)"/>
              <path stroke="#F2F3F4" d="M598.683922 52.44425h29.771894l37.131447 23.8325" stroke-linecap="round" stroke-linejoin="round" mask="url(#f)"/>
              <path stroke="#F2F3F4" d="M666.322668 78.01125c-3.295315-13.773-13.120225-20.0605-13.120225-20.0605h-.085047s-3.220773 2.061-6.59263 6.4085m6.677477-8.9055v-7.3855l10.711398 3.693zm0 0v2.497M621.246646 150.754h-8.004408v-31.177c0-11.4695-9.336141-20.8-20.81146-20.8-11.47732 0-20.81296 9.3305-20.81296 20.8v31.177h-8.004408v-31.177c0-15.8805 12.926618-28.8 28.815868-28.8 15.89075 0 28.817368 12.9195 28.817368 28.8v31.177zm-53.024748-65.785h48.41616v-6.0005h-48.41616zm5.15914-9.8843v3.384m4.233131-3.384v3.384m4.233081-3.384v3.384m4.233131-3.384v3.384m4.233081-3.384v3.384m4.233131-3.384v3.384m4.233081-3.384v3.384m4.233132-3.384v3.384m4.233081-3.384v3.384m4.23308-3.384v3.384m-41.361376-3.384h44.625074" stroke-linecap="round" stroke-linejoin="round" mask="url(#f)"/>
              <path stroke="#F2F3F4" d="M584.125305 78.9686v-9.084c0-4.584 3.718047-8.3 8.304573-8.3h.0005c4.586026 0 8.304573 3.716 8.304573 8.3v9.084" stroke-linecap="round" stroke-linejoin="round" mask="url(#f)"/>
            </g>
          </g>
          <g>
            <use fill="url(#g)" xlink:href="#b"/>
            <use stroke="#F39C12" stroke-width="2" mask="url(#h)" xlink:href="#b"/>
          </g>
        </g>
      </g>
    </g>
  </g>
</svg>