<svg width="120" height="58" viewBox="0 0 120 58" fill="none" xmlns="http://www.w3.org/2000/svg">
<g clip-path="url(#clip0)">
<path d="M90.8448 0.699585H85.2126V14.6915H90.8448V0.699585Z" fill="#AEC7FF"/>
<path d="M82.2308 29.2166H90.8448C100.718 29.2166 108.736 37.2786 108.736 47.2062C108.736 48.3722 109.663 49.305 110.823 49.305H111.386C116.157 49.305 120 53.1694 120 57.9667H82.2308V29.2166Z" fill="#83DDC5"/>
<path d="M108.404 0.699585H106.416V14.6915H108.404V0.699585Z" fill="#AEC7FF"/>
<path d="M108.394 2.67947V0.680618L85.2021 0.680618V2.67947L108.394 2.67947Z" fill="#AEC7FF"/>
<path d="M46.6151 9.56116H50.2264C51.4191 9.56116 52.3799 8.59505 52.3799 7.39574C52.3799 6.19643 51.4191 5.23032 50.2264 5.23032H43.2689C42.3744 5.23032 41.6455 4.49741 41.6455 3.59793C41.6455 2.69844 40.9166 1.96553 40.0221 1.96553H33.3628C32.0044 1.96553 30.9111 3.0649 30.9111 4.43078C30.9111 5.79666 32.0044 6.89603 33.3628 6.89603H37.6035C37.8354 6.89603 38.0011 7.0626 38.0011 7.2958C38.0011 7.529 37.8354 7.69557 37.6035 7.69557H29.1552C28.36 7.69557 27.7305 8.32854 27.7305 9.12808C27.7305 9.92762 28.36 10.5606 29.1552 10.5606H42.3412C42.7057 10.5606 43.0039 10.8604 43.0039 11.2269C43.0039 11.5933 42.7057 11.8932 42.3412 11.8932H36.5765V13.2257H49.4644C49.4644 12.193 48.6361 11.3268 47.5759 11.3268H46.6483C46.1182 11.3268 45.7206 10.8937 45.7206 10.394C45.6875 9.99425 46.085 9.56116 46.6151 9.56116Z" fill="#3E70DD"/>
<path d="M48.0233 2.87074L46.537 2.13533L40.1742 15.1373L41.6604 15.8727L48.0233 2.87074Z" fill="#FF9A15"/>
<path d="M49.0173 6.53508L47.5311 5.79967L41.1682 18.8016L42.6545 19.537L49.0173 6.53508Z" fill="#FF9A15"/>
<path d="M34.7543 22.7869C38.5419 22.7869 41.6124 19.6994 41.6124 15.8909C41.6124 12.0823 38.5419 8.99483 34.7543 8.99483C30.9667 8.99483 27.8962 12.0823 27.8962 15.8909C27.8962 19.6994 30.9667 22.7869 34.7543 22.7869Z" fill="#FFD836"/>
<path d="M34.7543 21.2544C37.7002 21.2544 40.0884 18.8531 40.0884 15.8909C40.0884 12.9286 37.7002 10.5273 34.7543 10.5273C31.8084 10.5273 29.4202 12.9286 29.4202 15.8909C29.4202 18.8531 31.8084 21.2544 34.7543 21.2544Z" fill="#202225"/>
<path d="M34.7543 19.722C36.8585 19.722 38.5643 18.0067 38.5643 15.8909C38.5643 13.775 36.8585 12.0597 34.7543 12.0597C32.65 12.0597 30.9442 13.775 30.9442 15.8909C30.9442 18.0067 32.65 19.722 34.7543 19.722Z" fill="#FFD836"/>
<path d="M19.7791 2.16541L19.1496 3.49798C19.0171 3.79781 19.3153 4.13095 19.6466 3.99769L20.9718 3.36472C21.0712 3.33141 21.1706 3.33141 21.27 3.36472L22.5953 3.99769C22.8934 4.13095 23.2247 3.83112 23.0922 3.49798L22.4627 2.16541C22.4296 2.06547 22.4296 1.96553 22.4627 1.86558L23.0922 0.533017C23.1916 0.199875 22.8603 -0.0999524 22.5621 0.0333043L21.2369 0.666274C21.1375 0.699588 21.0381 0.699588 20.9387 0.666274L19.6135 0.0333043C19.3153 -0.0999524 18.984 0.199875 19.1165 0.533017L19.746 1.86558C19.8123 1.93221 19.8123 2.06547 19.7791 2.16541Z" fill="#D4E4FF"/>
<path d="M115.196 30.1493L114.567 31.4819C114.434 31.7817 114.732 32.1149 115.064 31.9816L116.389 31.3486C116.488 31.3153 116.588 31.3153 116.687 31.3486L118.012 31.9816C118.31 32.1149 118.642 31.815 118.509 31.4819L117.88 30.1493C117.846 30.0494 117.846 29.9494 117.88 29.8495L118.509 28.5169C118.642 28.2171 118.343 27.884 118.012 28.0172L116.687 28.6502C116.588 28.6835 116.488 28.6835 116.389 28.6502L115.064 28.0172C114.765 27.884 114.434 28.1838 114.567 28.5169L115.196 29.8495C115.229 29.9161 115.229 30.0494 115.196 30.1493Z" fill="#7196FF"/>
<path d="M85.221 57.9705H103.774V13.3295H85.221V57.9705Z" fill="#3E70DD"/>
<path d="M85.2126 13.359H26.2396V26.6847H75.9359V58H85.2126V13.359Z" fill="#AEC7FF"/>
<path d="M70.8338 50.7375C70.9332 49.4716 70.9663 48.1723 70.9663 46.8064C70.9663 33.6473 66.1292 22.9868 60.1988 22.9868C54.2684 22.9868 49.4312 33.6473 49.4312 46.8064C49.4312 48.139 49.4975 49.4383 49.5638 50.7375H70.8338Z" fill="#FF9A15"/>
<path d="M57.714 33.6806C59.7267 33.6806 61.3583 32.04 61.3583 30.0161C61.3583 27.9922 59.7267 26.3515 57.714 26.3515C55.7012 26.3515 54.0696 27.9922 54.0696 30.0161C54.0696 32.04 55.7012 33.6806 57.714 33.6806Z" fill="#FCFCFC"/>
<path d="M57.714 32.0149C58.8118 32.0149 59.7018 31.12 59.7018 30.0161C59.7018 28.9121 58.8118 28.0172 57.714 28.0172C56.6161 28.0172 55.7261 28.9121 55.7261 30.0161C55.7261 31.12 56.6161 32.0149 57.714 32.0149Z" fill="#202225"/>
<path d="M75.9359 43.3418H22.9265V58H75.9359V43.3418Z" fill="#7196FF"/>
<path d="M75.9359 40.6766H21.6013V43.3418H75.9359V40.6766Z" fill="#D4E4FF"/>
<path d="M79.249 16.6904H22.9265V29.0166H79.249V16.6904Z" fill="white"/>
<path d="M74.2794 18.3561H24.5831V27.3509H74.2794V18.3561Z" fill="#D4E4FF"/>
<path d="M79.249 16.6904H75.9359V29.0166H79.249V16.6904Z" fill="#D4E4FF"/>
<path d="M24.2518 47.6726H22.2639V58H24.2518V47.6726Z" fill="white"/>
<path d="M25.2457 47.0063H21.27V51.004H25.2457V47.0063Z" fill="#202225"/>
<path d="M26.5709 50.0046H19.9448C19.2159 50.0046 18.6195 49.4049 18.6195 48.672V46.0069H27.8962V48.672C27.8962 49.4049 27.2998 50.0046 26.5709 50.0046Z" fill="#F47FFF"/>
<path d="M20.6074 58L23.2579 55.3349L25.9083 58H20.6074Z" fill="white"/>
<path d="M37.5041 47.6726H35.5163V58H37.5041V47.6726Z" fill="white"/>
<path d="M38.4981 47.0063H34.5224V51.004H38.4981V47.0063Z" fill="#202225"/>
<path d="M39.8233 50.0046H33.1971C32.4682 50.0046 31.8719 49.4049 31.8719 48.672V46.0069H41.1485V48.672C41.1485 49.4049 40.5522 50.0046 39.8233 50.0046Z" fill="#F47FFF"/>
<path d="M33.8597 58L36.5102 55.3349L39.1607 58H33.8597Z" fill="white"/>
<path d="M50.7565 47.6726H48.7686V58H50.7565V47.6726Z" fill="white"/>
<path d="M51.7504 47.0063H47.7747V51.004H51.7504V47.0063Z" fill="#202225"/>
<path d="M53.0756 50.0046H46.4495C45.7206 50.0046 45.1242 49.4049 45.1242 48.672V46.0069H54.4009V48.672C54.4009 49.4049 53.8045 50.0046 53.0756 50.0046Z" fill="#F47FFF"/>
<path d="M47.1121 58L49.7626 55.3349L52.413 58H47.1121Z" fill="white"/>
<path d="M64.0088 47.6726H62.021V58H64.0088V47.6726Z" fill="white"/>
<path d="M65.0028 47.0063H61.0271V51.004H65.0028V47.0063Z" fill="#202225"/>
<path d="M66.328 50.0046H59.7018C58.9729 50.0046 58.3766 49.4049 58.3766 48.672V46.0069H67.6532V48.672C67.6532 49.4049 67.0569 50.0046 66.328 50.0046Z" fill="#F47FFF"/>
<path d="M60.3644 58L63.0149 55.3349L65.6654 58H60.3644Z" fill="white"/>
<path d="M97.471 16.6904H90.8448V22.0207H97.471V16.6904Z" fill="#AEC7FF"/>
<path d="M97.471 24.0195H90.8448V29.3498H97.471V24.0195Z" fill="#AEC7FF"/>
<path d="M89.8509 58H81.8995L85.2126 38.0115H89.8509V58Z" fill="#202225"/>
<path d="M101.115 58H88.5257L85.2126 38.0115H97.8023L101.115 58Z" fill="white"/>
<path d="M88.6582 46.6732H97.2391L97.0072 45.3406H88.4594L88.6582 46.6732Z" fill="#7196FF"/>
<path d="M89.122 49.3383H97.6698L97.4379 48.0057H88.8901L89.122 49.3383Z" fill="#7196FF"/>
<path d="M89.5527 52.0034H98.1005L97.9017 50.6709H89.3208L89.5527 52.0034Z" fill="#7196FF"/>
<path d="M89.9834 54.6686H98.5643L98.3324 53.336H89.7846L89.9834 54.6686Z" fill="#7196FF"/>
<path d="M96.6758 43.3418L96.2451 40.6766H87.6643L88.1281 43.3418H96.6758Z" fill="#7196FF"/>
<path d="M41.4467 24.8524H34.2573C29.8509 24.8524 26.2728 21.2544 26.2728 16.8237V13.359H49.4644V16.8237C49.4313 21.2544 45.8531 24.8524 41.4467 24.8524Z" fill="white"/>
<path d="M61.027 37.6783H54.4009C53.4732 37.6783 52.7443 36.9454 52.7443 36.0126C52.7443 35.0798 53.4732 34.3469 54.4009 34.3469H61.027C61.9547 34.3469 62.6836 35.0798 62.6836 36.0126C62.6836 36.9121 61.9547 37.6783 61.027 37.6783Z" fill="#FFD836"/>
<path d="M60.6957 36.3458H54.7322C54.5334 36.3458 54.4009 36.1792 54.4009 36.0126C54.4009 35.8127 54.5334 35.6795 54.7322 35.6795H60.6957C60.8945 35.6795 61.027 35.8127 61.027 36.0126C61.027 36.1792 60.8945 36.3458 60.6957 36.3458Z" fill="#202225"/>
<path d="M59.3705 19.3555H57.0514V21.6875H59.3705V19.3555Z" fill="#202225"/>
<path d="M59.3705 21.6875H57.0514V24.0195H59.3705V21.6875Z" fill="#202225"/>
<path d="M57.0514 21.6875H54.7322V24.0195H57.0514V21.6875Z" fill="#202225"/>
<path d="M54.7322 21.6875H52.413V24.0195H54.7322V21.6875Z" fill="#202225"/>
<path d="M54.7322 24.0195H52.413V26.3515H54.7322V24.0195Z" fill="#202225"/>
<path d="M57.0514 24.0195H54.7322V26.3515H57.0514V24.0195Z" fill="#202225"/>
<path d="M61.6897 24.0195H59.3705V26.3515H61.6897V24.0195Z" fill="#202225"/>
<path d="M61.6897 19.3555H59.3705V21.6875H61.6897V19.3555Z" fill="#202225"/>
<path d="M68.6471 24.0195H66.328V26.3515H68.6471V24.0195Z" fill="#202225"/>
<path d="M68.6471 19.3555H66.328V21.6875H68.6471V19.3555Z" fill="#202225"/>
<path d="M70.9663 19.3555H68.6472V21.6875H70.9663V19.3555Z" fill="#202225"/>
<path d="M70.9663 21.6875H68.6472V24.0195H70.9663V21.6875Z" fill="#202225"/>
<path d="M70.9663 24.0195H68.6472V26.3515H70.9663V24.0195Z" fill="#202225"/>
<path d="M66.328 24.0195H64.0088V26.3515H66.328V24.0195Z" fill="#202225"/>
<path d="M66.328 19.3555H64.0088V21.6875H66.328V19.3555Z" fill="#202225"/>
<path d="M13.9149 16.4905H13.8487C13.6499 16.4905 13.5174 16.3239 13.5174 16.1574V15.3245C13.5174 15.1246 13.683 14.9914 13.8487 14.9914H13.9149C14.1137 14.9914 14.2462 15.1579 14.2462 15.3245V16.1574C14.2462 16.3239 14.0806 16.4905 13.9149 16.4905Z" fill="#7196FF"/>
<path d="M13.9149 20.2883H13.8487C13.6499 20.2883 13.5174 20.1218 13.5174 19.9552V19.1223C13.5174 18.9224 13.683 18.7892 13.8487 18.7892H13.9149C14.1137 18.7892 14.2462 18.9558 14.2462 19.1223V19.9552C14.2462 20.1551 14.0806 20.2883 13.9149 20.2883Z" fill="#7196FF"/>
<path d="M15.0083 17.6565V17.5899C15.0083 17.39 15.1739 17.2567 15.3396 17.2567H16.1678C16.3666 17.2567 16.4991 17.4233 16.4991 17.5899V17.6565C16.4991 17.8564 16.3335 17.9897 16.1678 17.9897H15.3396C15.1408 18.023 15.0083 17.8564 15.0083 17.6565Z" fill="#7196FF"/>
<path d="M11.2314 17.6565V17.5899C11.2314 17.39 11.397 17.2567 11.5627 17.2567H12.3909C12.5897 17.2567 12.7222 17.4233 12.7222 17.5899V17.6565C12.7222 17.8564 12.5566 17.9897 12.3909 17.9897H11.5627C11.3639 18.023 11.2314 17.8564 11.2314 17.6565Z" fill="#7196FF"/>
<path d="M110.326 34.4802H110.26C110.061 34.4802 109.928 34.3136 109.928 34.147V33.3142C109.928 33.1143 110.094 32.981 110.26 32.981H110.326C110.525 32.981 110.657 33.1476 110.657 33.3142V34.147C110.657 34.3136 110.491 34.4802 110.326 34.4802Z" fill="#D4E4FF"/>
<path d="M110.326 38.278H110.26C110.061 38.278 109.928 38.1114 109.928 37.9448V37.112C109.928 36.9121 110.094 36.7789 110.26 36.7789H110.326C110.525 36.7789 110.657 36.9454 110.657 37.112V37.9448C110.657 38.1447 110.491 38.278 110.326 38.278Z" fill="#D4E4FF"/>
<path d="M111.419 35.6462V35.5796C111.419 35.3797 111.585 35.2464 111.75 35.2464H112.579C112.777 35.2464 112.91 35.413 112.91 35.5796V35.6462C112.91 35.8461 112.744 35.9793 112.579 35.9793H111.75C111.552 36.0126 111.419 35.8461 111.419 35.6462Z" fill="#D4E4FF"/>
<path d="M107.642 35.6462V35.5796C107.642 35.3797 107.808 35.2464 107.973 35.2464H108.802C109.001 35.2464 109.133 35.413 109.133 35.5796V35.6462C109.133 35.8461 108.967 35.9793 108.802 35.9793H107.973C107.775 36.0126 107.642 35.8461 107.642 35.6462Z" fill="#D4E4FF"/>
<path d="M5.33407 1.33226C5.33407 0.89918 5.3672 0.49941 5.43346 0.0996399C2.35229 0.665981 0 3.39774 0 6.69585C0 10.3937 2.98178 13.4253 6.69244 13.4253C9.97239 13.4253 12.6891 11.06 13.2523 7.92847C12.8548 7.9951 12.4572 8.02842 12.0265 8.02842C8.34898 8.02842 5.33407 5.03014 5.33407 1.33226Z" fill="#FFD836"/>
<path d="M111.055 6.69614H103.766V8.69499H111.055V6.69614Z" fill="#7196FF"/>
<path d="M111.055 24.6858H103.766V26.6846H111.055V24.6858Z" fill="#7196FF"/>
<path d="M114.036 8.69499H100.784V10.0276H114.036V8.69499Z" fill="white"/>
<path d="M114.036 10.0276H100.784V11.3601H114.036V10.0276Z" fill="#F47FFF"/>
<path d="M114.036 11.3601H100.784V12.6927H114.036V11.3601Z" fill="white"/>
<path d="M114.036 12.6927H100.784V14.0253H114.036V12.6927Z" fill="#F47FFF"/>
<path d="M114.036 14.0253H100.784V15.3578H114.036V14.0253Z" fill="white"/>
<path d="M114.036 15.3578H100.784V16.6904H114.036V15.3578Z" fill="#F47FFF"/>
<path d="M114.036 16.6904H100.784V18.023H114.036V16.6904Z" fill="white"/>
<path d="M114.036 18.023H100.784V19.3555H114.036V18.023Z" fill="#F47FFF"/>
<path d="M114.036 19.3555H100.784V20.6881H114.036V19.3555Z" fill="white"/>
<path d="M114.036 20.6881H100.784V22.0207H114.036V20.6881Z" fill="#F47FFF"/>
<path d="M114.036 22.0207H100.784V23.3532H114.036V22.0207Z" fill="white"/>
<path d="M114.036 23.3532H100.784V24.6858H114.036V23.3532Z" fill="#F47FFF"/>
</g>
<defs>
<clipPath id="clip0">
<rect width="120" height="58" fill="white"/>
</clipPath>
</defs>
</svg>
