<svg xmlns="http://www.w3.org/2000/svg" width="18" height="18" viewBox="0 0 18 18">
  <g fill="none" fill-rule="evenodd">
    <path fill="#fff" fill-rule="nonzero" d="M15.75,2.25 L2.25,2.25 C1.4175,2.25 0.75,2.9175 0.75,3.75 L0.75,12.75 C0.75,13.575 1.4175,14.25 2.25,14.25 L6,14.25 L6,15.75 L12,15.75 L12,14.25 L15.75,14.25 C16.575,14.25 17.2425,13.575 17.2425,12.75 L17.25,3.75 C17.25,2.9175 16.575,2.25 15.75,2.25 Z M15.75,12.75 L2.25,12.75 L2.25,3.75 L15.75,3.75 L15.75,12.75 Z"/>
    <polygon points="0 0 18 0 18 18 0 18"/>
  </g>
</svg>
