<svg id="Layer_1" data-name="Layer 1" xmlns="http://www.w3.org/2000/svg" viewBox="0 0 32 32" width="32" height="32"><defs><style>.cls-1{fill:#45ddc0;}.cls-2{fill:#fbb848;}</style></defs><title>King of the Hat Tournament Winners: House of Balance</title><path class="cls-1" d="M29.28,18.26l-9.4-9.41a4.47,4.47,0,0,1-.45.42,14.22,14.22,0,0,1-2.25,1.47,12,12,0,0,1-5.58,1.35c-.31,0-.63,0-.95,0A5.29,5.29,0,0,1,10,12h0a4.23,4.23,0,0,1-.72-.19l-6.5,6.51a.31.31,0,0,0,0,.46L15.77,31.77a.31.31,0,0,0,.46,0l13.05-13a.31.31,0,0,0,0-.46Zm-5.66-2.92-2.5,4.92a.17.17,0,0,0,.16.25h1.5a.18.18,0,0,1,.1.32L16.1,25.69a.18.18,0,0,1-.2,0L9.12,20.83a.18.18,0,0,1,.1-.32h1.5a.17.17,0,0,0,.16-.25l-2.5-4.92a.18.18,0,0,1,.25-.23l6,4a.78.78,0,0,1,.24.27l.92,1.85a.18.18,0,0,0,.32,0l.92-1.85a.78.78,0,0,1,.24-.27l6.05-4A.18.18,0,0,1,23.62,15.34Z"/><path class="cls-2" d="M18.18,7.71a1.63,1.63,0,0,0,.52-2.08,1.27,1.27,0,0,1-.07-.21c0-.07,0-.15-.05-.23L17.28.67A.24.24,0,0,0,17,.52s-.05,0-.06,0l-.67.71A3.44,3.44,0,0,1,15.3,2,3.4,3.4,0,0,1,14,2.35a2.17,2.17,0,0,1-2-1.13l-.74-1A.24.24,0,0,0,11,.16a.25.25,0,0,0-.12.16l-.24,1.22c-.2,1.06-.55,1.71-1.06,2a2.05,2.05,0,0,1-1.21.15l-.84-.1a.19.19,0,0,0-.13,0,.24.24,0,0,0-.12.28l.25.81.36,1.15c.31,1,.6,1.91.88,2.86A1.77,1.77,0,0,0,10.24,10l.15,0a2,2,0,0,0,.41.07A10.12,10.12,0,0,0,16.26,9,11.88,11.88,0,0,0,18.18,7.71Z"/></svg>