<svg xmlns="http://www.w3.org/2000/svg" width="660" height="90" xmlns:xlink="http://www.w3.org/1999/xlink">
  <defs>
    <path id="a" d="M0 0h660v90H0z"/>
    <mask id="b" width="662" height="92" x="-1" y="-1">
      <path fill="#fff" d="M-1-1h662v92H-1z"/>
      <use xlink:href="#a"/>
    </mask>
    <path id="d" d="M0 130.5h951V.3245H0z"/>
    <path id="f" d="M.32440265 31.3285H36.8244855V.32022696H.32440265z"/>
    <path id="h" d="M.0630654 88.8285h95.3261374V.06854148H.0630654V88.8285z"/>
    <path id="j" d="M.47265 44.8285h26.8555V.48455H.47265z"/>
    <path id="l" d="M.2795 8.3285h12.36V.34875H.2795V8.3285z"/>
    <path id="n" d="M.4726 37.3285h5.8335V.06805H.4726z"/>
    <path id="p" d="M.11565 17.8285h22.6905V.48475H.11565z"/>
    <path id="r" d="M.0059 15.8285h3.6185V.08835H.0059V15.8285z"/>
    <path id="t" d="M.30615 6.8285h3.6665V.31825H.30615V6.8285z"/>
    <path id="v" d="M.3628 46.3285h34.7765V.31805H.3628V46.3285z"/>
    <path id="x" d="M.06595 84.8285h32.74V.1515h-32.74v84.677z"/>
    <path id="z" d="M.1994 31.3285h25.25V.1573H.1994v31.1712z"/>
    <path id="B" d="M.1994 13.8285h21.75V.0588H.1994v13.7697z"/>
    <path id="D" d="M.4494 31.3285h8.25V.1573h-8.25v31.1712z"/>
    <path id="F" d="M.4704 13.8285h25.479V.0588H.4704v13.7697z"/>
    <path id="H" d="M.1994 9.8285h4.25V.0742h-4.25v9.7543z"/>
    <path id="J" d="M0 130.5h951V.3245H0z"/>
    <linearGradient id="L" x1=".25781251%" x2="99.0315295%" y1="49.7500002%" y2="49.7500002%">
      <stop stop-color="#7289DA" stop-opacity=".28507133" offset="0%"/>
      <stop stop-color="#7289DA" stop-opacity=".7" offset="16.5617028%"/>
      <stop stop-color="#7289DA" stop-opacity=".6" offset="100%"/>
    </linearGradient>
    <rect id="M" width="660" height="90" rx="5"/>
  </defs>
  <g fill="none" fill-rule="evenodd">
    <mask id="c" fill="#fff">
      <use xlink:href="#a"/>
    </mask>
    <use fill="#7289DA" xlink:href="#a"/>
    <use stroke="#7289DA" stroke-width="2" mask="url(#b)" xlink:href="#a"/>
    <g mask="url(#c)">
      <g transform="translate(-81 -33.825)">
        <path fill="#738BD7" d="M666.61745 66.5244c0 13.4945-10.9395 24.434-24.434 24.434s-24.434-10.9395-24.434-24.434 10.9395-24.434 24.434-24.434 24.434 10.9395 24.434 24.434z"/>
        <path stroke="#7C93E4" d="M666.61745 66.5244c0 13.4945-10.9395 24.434-24.434 24.434s-24.434-10.9395-24.434-24.434 10.9395-24.434 24.434-24.434 24.434 10.9395 24.434 24.434z" stroke-linecap="round" stroke-linejoin="round"/>
        <path fill="#738BD7" d="M660.9162 66.5244c0 10.346-8.387 18.7325-18.7325 18.7325-10.346 0-18.733-8.3865-18.733-18.7325 0-10.346 8.387-18.7325 18.733-18.7325 10.3455 0 18.7325 8.3865 18.7325 18.7325"/>
        <path stroke="#7C93E4" d="M660.9162 66.5244c0 10.346-8.387 18.7325-18.7325 18.7325-10.346 0-18.733-8.3865-18.733-18.7325 0-10.346 8.387-18.7325 18.733-18.7325 10.3455 0 18.7325 8.3865 18.7325 18.7325zM642.18355 37.507V21.2175m-.0561 81.5421V81.5001" stroke-linecap="round" stroke-linejoin="round"/>
        <mask id="e" fill="#fff">
          <use xlink:href="#d"/>
        </mask>
        <path fill="#738BD7" d="M661.6975 40.439h5.864v-5.864h-5.864" mask="url(#e)"/>
        <path stroke="#7C93E4" d="M661.6975 40.439h5.864v-5.864h-5.864z" stroke-linecap="round" stroke-linejoin="round" mask="url(#e)"/>
        <path fill="#738BD7" d="M636.2635 35.715h5.864v-5.864h-5.864" mask="url(#e)"/>
        <path stroke="#7C93E4" d="M636.2635 35.715h5.864v-5.864h-5.864z" stroke-linecap="round" stroke-linejoin="round" mask="url(#e)"/>
        <path fill="#738BD7" d="M623.7165 38.6475h5.864v-5.864h-5.864" mask="url(#e)"/>
        <path stroke="#7C93E4" d="M623.7165 38.6475h5.864v-5.864h-5.864z" stroke-linecap="round" stroke-linejoin="round" mask="url(#e)"/>
        <path fill="#738BD7" d="M609.789 104.79h5.864v-5.864h-5.864" mask="url(#e)"/>
        <path stroke="#7C93E4" d="M609.789 104.79h5.864v-5.864h-5.864z" stroke-linecap="round" stroke-linejoin="round" mask="url(#e)"/>
        <path fill="#738BD7" d="M616.6035 35.471h3.421v-3.4205h-3.421" mask="url(#e)"/>
        <path stroke="#7C93E4" d="M616.6035 35.471h3.421v-3.4205h-3.421z" stroke-linecap="round" stroke-linejoin="round" mask="url(#e)"/>
        <path fill="#738BD7" d="M620.9415 95.5505h3.4205v-3.421h-3.4205" mask="url(#e)"/>
        <path stroke="#7C93E4" d="M620.9415 95.5505h3.4205v-3.421h-3.4205z" stroke-linecap="round" stroke-linejoin="round" mask="url(#e)"/>
        <path fill="#738BD7" d="M666.1625 91.8815h3.4205v-3.421h-3.4205" mask="url(#e)"/>
        <path stroke="#7C93E4" d="M666.1625 91.8815h3.4205v-3.421h-3.4205z" stroke-linecap="round" stroke-linejoin="round" mask="url(#e)"/>
        <path fill="#738BD7" d="M596.7965 46.496h1.9545v-1.9545h-1.9545" mask="url(#e)"/>
        <path stroke="#7C93E4" d="M596.7965 46.496h1.9545v-1.9545h-1.9545z" stroke-linecap="round" stroke-linejoin="round" mask="url(#e)"/>
        <path fill="#738BD7" d="M654.4605 101.5885h1.9545V99.634h-1.9545" mask="url(#e)"/>
        <path stroke="#7C93E4" d="M654.4605 101.5885h1.9545V99.634h-1.9545z" stroke-linecap="round" stroke-linejoin="round" mask="url(#e)"/>
        <path fill="#738BD7" d="M609.0205 72.528h1.9545v-1.9545h-1.9545" mask="url(#e)"/>
        <path stroke="#7C93E4" d="M609.0205 72.528h1.9545v-1.9545h-1.9545z" stroke-linecap="round" stroke-linejoin="round" mask="url(#e)"/>
        <path fill="#738BD7" d="M672.4 52.547h1.9545v-1.9545H672.4" mask="url(#e)"/>
        <path stroke="#7C93E4" d="M672.4 52.547h1.9545v-1.9545H672.4z" stroke-linecap="round" stroke-linejoin="round" mask="url(#e)"/>
        <path fill="#738BD7" d="M615.193 49.8085h1.9545V47.854h-1.9545" mask="url(#e)"/>
        <path stroke="#7C93E4" d="M615.193 49.8085h1.9545V47.854h-1.9545z" stroke-linecap="round" stroke-linejoin="round" mask="url(#e)"/>
        <g mask="url(#e)">
          <path fill="#738BD7" d="M657.39235 63.5541c1.243.016 32.9995 1.824 31.9445 1.9785l-31.9445 3.2675"/>
          <path stroke="#7C93E4" d="M657.39235 63.5541c1.243.016 32.9995 1.824 31.9445 1.9785l-31.9445 3.2675" stroke-linecap="round" stroke-linejoin="round"/>
        </g>
        <g mask="url(#e)">
          <path fill="#738BD7" d="M629.74365 63.5541c-1.243.016-32.9995 1.824-31.9445 1.9785l31.9445 3.2675"/>
          <path stroke="#7C93E4" d="M629.74365 63.5541c-1.243.016-32.9995 1.824-31.9445 1.9785l31.9445 3.2675" stroke-linecap="round" stroke-linejoin="round"/>
        </g>
        <path fill="#738BD7" d="M371.8368 3.11665s-11.4875 27.8265-10.9205 28.984l.0355.1555c.3635 2.6425-2.752 33.093-2.752 33.093l3.132 27.5065 20.1715 32.473 17.89-29.7985 3.504-32.855-3.504-41.6415-4.3125-4.1005-1.2955-3.075 1.2955 2.367-4.4085-14.2935" mask="url(#e)"/>
        <path stroke="#7C93E4" d="M371.83675 3.11665s-11.4875 27.8265-10.9205 28.984c.567 1.158-2.7165 33.2485-2.7165 33.2485l3.132 27.5065 20.172 32.473 17.8895-29.7985 3.504-32.855-3.504-41.6415-21.253-20.209m16.45575 46.1054l4.797-25.8965zm-3.42985 4.40005l-11.791 21.4705" stroke-linecap="round" stroke-linejoin="round" mask="url(#e)"/>
        <path stroke="#7C93E4" d="M378.1403.82445l-.839 25.9395.764 24.068 1.206 20.222 1.277 21.42.955 32.8545" stroke-linecap="round" stroke-linejoin="round" mask="url(#e)"/>
        <path stroke="#7C93E4" d="M379.0203 71.84395l-14.8935-25.787-3.2105-13.956 17.224-31.2765m24.7571 61.8507l-8.596 16.6185" stroke-linecap="round" stroke-linejoin="round" mask="url(#e)"/>
        <path fill="#738BD7" d="M350.848 91.614h59.401V75.5595h-59.401" mask="url(#e)"/>
        <path stroke="#7C93E4" d="M350.848 91.614h59.401V75.5595h-59.401z" stroke-linecap="round" stroke-linejoin="round" mask="url(#e)"/>
        <path stroke="#7C93E4" d="M410.24895 84.6566h-8.9635v5.62m1.02535-14.7169v4.014h-5.903v6.154h-32.8675v-5.084h-5.9275v-5.084m-6.7648 9.0969h9.055v7.3965" stroke-linecap="round" stroke-linejoin="round" mask="url(#e)"/>
        <path fill="#738BD7" d="M380.54845 117.3014c-17.736-17.736-17.736-46.491 0-64.227 17.736 17.736 17.736 46.491 0 64.227z" mask="url(#e)"/>
        <path stroke="#7C93E4" d="M380.54845 117.3014c-17.736-17.736-17.736-46.491 0-64.227 17.736 17.736 17.736 46.491 0 64.227z" stroke-linecap="round" stroke-linejoin="round" mask="url(#e)"/>
        <path stroke="#7C93E4" d="M380.54845 84.79335c-5.504-5.504-5.504-14.4285 0-19.9325 5.504 5.504 5.504 14.4285 0 19.9325zM367.3832 81.8286s7.0495 3.059 9.496 12.5385c2.446 9.4795-1.196 17.192-1.196 17.192m18.0305-29.7305s-7.0495 3.059-9.496 12.5385c-2.446 9.4795 1.196 17.192 1.196 17.192" stroke-linecap="round" stroke-linejoin="round" mask="url(#e)"/>
        <path fill="#738BD7" d="M352.721 33.9818v83.3195s-14.1815-15.2515-14.1815-39.6005c0-24.349 14.1815-43.719 14.1815-43.719" mask="url(#e)"/>
        <path stroke="#7C93E4" d="M352.721 33.9818v83.3195s-14.1815-15.2515-14.1815-39.6005c0-24.349 14.1815-43.719 14.1815-43.719z" stroke-linecap="round" stroke-linejoin="round" mask="url(#e)"/>
        <path stroke="#7C93E4" d="M348.6027 40.71315v51.34s-10.063-6.8605-10.063-14.3525" stroke-linecap="round" stroke-linejoin="round" mask="url(#e)"/>
        <path fill="#738BD7" d="M408.3759 33.9818v83.3195s14.1815-15.2515 14.1815-39.6005c0-24.349-14.1815-43.719-14.1815-43.719" mask="url(#e)"/>
        <path stroke="#7C93E4" d="M408.3759 33.9818v83.3195s14.1815-15.2515 14.1815-39.6005c0-24.349-14.1815-43.719-14.1815-43.719z" stroke-linecap="round" stroke-linejoin="round" mask="url(#e)"/>
        <path stroke="#7C93E4" d="M412.4942 40.71315v51.34s10.063-6.8605 10.063-14.3525" stroke-linecap="round" stroke-linejoin="round" mask="url(#e)"/>
        <path fill="#738BD7" d="M536.58155 3.11665s-11.4875 27.8265-10.9205 28.984l.0355.1555c.3635 2.6425-2.7525 33.093-2.7525 33.093l3.1325 27.5065 20.1715 32.473 17.8895-29.7985 3.5045-32.855-3.5045-41.6415-4.312-4.1005-1.2955-3.075 1.2955 2.367-4.4085-14.2935" mask="url(#e)"/>
        <path stroke="#7C93E4" d="M536.5815 3.11665s-11.4875 27.8265-10.9205 28.984c.567 1.158-2.7165 33.2485-2.7165 33.2485l3.132 27.5065 20.172 32.473 17.8895-29.7985 3.504-32.855-3.504-41.6415-21.253-20.209m16.4557 46.1054l4.797-25.8965zm-3.4298 4.40005l-11.791 21.4705" stroke-linecap="round" stroke-linejoin="round" mask="url(#e)"/>
        <path stroke="#7C93E4" d="M542.885.82445l-.839 25.9395.764 24.068 1.206 20.222 1.277 21.42.9555 32.8545" stroke-linecap="round" stroke-linejoin="round" mask="url(#e)"/>
        <path stroke="#7C93E4" d="M543.7651 71.84395l-14.8935-25.787-3.2105-13.956 17.224-31.2765m24.757 61.8507l-8.5955 16.6185" stroke-linecap="round" stroke-linejoin="round" mask="url(#e)"/>
        <path fill="#738BD7" d="M515.5925 91.614h59.401V75.5595h-59.401" mask="url(#e)"/>
        <path stroke="#7C93E4" d="M515.5925 91.614h59.401V75.5595h-59.401z" stroke-linecap="round" stroke-linejoin="round" mask="url(#e)"/>
        <path stroke="#7C93E4" d="M574.99365 84.6566h-8.9635v5.62m1.0254-14.7169v4.014h-5.903v6.154h-32.8675v-5.084h-5.9275v-5.084m-6.76485 9.0969h9.055v7.3965" stroke-linecap="round" stroke-linejoin="round" mask="url(#e)"/>
        <path fill="#738BD7" d="M545.2932 117.3014c-17.736-17.736-17.736-46.491 0-64.227 17.736 17.736 17.736 46.491 0 64.227z" mask="url(#e)"/>
        <path stroke="#7C93E4" d="M545.2932 117.3014c-17.736-17.736-17.736-46.491 0-64.227 17.736 17.736 17.736 46.491 0 64.227z" stroke-linecap="round" stroke-linejoin="round" mask="url(#e)"/>
        <path stroke="#7C93E4" d="M545.2932 84.79335c-5.504-5.504-5.504-14.4285 0-19.9325 5.504 5.504 5.504 14.4285 0 19.9325zm-13.16525-2.96475s7.0495 3.059 9.496 12.5385c2.446 9.4795-1.1965 17.192-1.1965 17.192m18.031-29.7305s-7.0495 3.059-9.496 12.5385c-2.446 9.4795 1.1965 17.192 1.1965 17.192" stroke-linecap="round" stroke-linejoin="round" mask="url(#e)"/>
        <path fill="#738BD7" d="M517.4657 33.9818v83.3195s-14.1815-15.2515-14.1815-39.6005c0-24.349 14.1815-43.719 14.1815-43.719" mask="url(#e)"/>
        <path stroke="#7C93E4" d="M517.4657 33.9818v83.3195s-14.1815-15.2515-14.1815-39.6005c0-24.349 14.1815-43.719 14.1815-43.719z" stroke-linecap="round" stroke-linejoin="round" mask="url(#e)"/>
        <path stroke="#7C93E4" d="M513.34745 40.71315v51.34s-10.063-6.8605-10.063-14.3525" stroke-linecap="round" stroke-linejoin="round" mask="url(#e)"/>
        <path fill="#738BD7" d="M573.12065 33.9818v83.3195s14.1815-15.2515 14.1815-39.6005c0-24.349-14.1815-43.719-14.1815-43.719" mask="url(#e)"/>
        <path stroke="#7C93E4" d="M573.12065 33.9818v83.3195s14.1815-15.2515 14.1815-39.6005c0-24.349-14.1815-43.719-14.1815-43.719z" stroke-linecap="round" stroke-linejoin="round" mask="url(#e)"/>
        <path stroke="#7C93E4" d="M577.23895 40.71315v51.34s10.063-6.8605 10.063-14.3525" stroke-linecap="round" stroke-linejoin="round" mask="url(#e)"/>
        <path fill="#738BD7" d="M108.0928 3.11665s-11.4875 27.8265-10.9205 28.984l.0355.1555c.3635 2.6425-2.7525 33.093-2.7525 33.093l3.1325 27.5065 20.172 32.473 17.8895-29.7985 3.504-32.855-3.504-41.6415-4.3125-4.1005-1.2955-3.075 1.2955 2.367-4.4085-14.2935" mask="url(#e)"/>
        <path stroke="#7C93E4" d="M108.09275 3.11665s-11.4875 27.8265-10.9205 28.984c.567 1.158-2.7165 33.2485-2.7165 33.2485l3.132 27.5065 20.172 32.473 17.8895-29.7985 3.504-32.855-3.504-41.6415-21.253-20.209m16.4557 46.1054l4.797-25.8965zm-3.4298 4.40005l-11.791 21.4705" stroke-linecap="round" stroke-linejoin="round" mask="url(#e)"/>
        <path stroke="#7C93E4" d="M114.3963.82445l-.839 25.9395.764 24.068 1.206 20.222 1.277 21.42.955 32.8545" stroke-linecap="round" stroke-linejoin="round" mask="url(#e)"/>
        <path stroke="#7C93E4" d="M115.27635 71.84395l-14.8935-25.787-3.2105-13.956 17.224-31.2765m24.75705 61.8507l-8.5955 16.6185" stroke-linecap="round" stroke-linejoin="round" mask="url(#e)"/>
        <path fill="#738BD7" d="M87.104 91.614h59.401V75.5595H87.104" mask="url(#e)"/>
        <path stroke="#7C93E4" d="M87.104 91.614h59.401V75.5595H87.104z" stroke-linecap="round" stroke-linejoin="round" mask="url(#e)"/>
        <path stroke="#7C93E4" d="M146.5049 84.6566h-8.9635v5.62m1.0254-14.7169v4.014h-5.903v6.154H99.7963v-5.084h-5.9275v-5.084m-6.7648 9.0969h9.055v7.3965" stroke-linecap="round" stroke-linejoin="round" mask="url(#e)"/>
        <path fill="#738BD7" d="M116.80445 117.3014c-17.736-17.736-17.736-46.491 0-64.227 17.736 17.736 17.736 46.491 0 64.227z" mask="url(#e)"/>
        <path stroke="#7C93E4" d="M116.80445 117.3014c-17.736-17.736-17.736-46.491 0-64.227 17.736 17.736 17.736 46.491 0 64.227z" stroke-linecap="round" stroke-linejoin="round" mask="url(#e)"/>
        <path stroke="#7C93E4" d="M116.80445 84.79335c-5.504-5.504-5.504-14.4285 0-19.9325 5.504 5.504 5.504 14.4285 0 19.9325zM103.6392 81.8286s7.0495 3.059 9.496 12.5385c2.446 9.4795-1.196 17.192-1.196 17.192m18.0305-29.7305s-7.0495 3.059-9.496 12.5385c-2.446 9.4795 1.196 17.192 1.196 17.192" stroke-linecap="round" stroke-linejoin="round" mask="url(#e)"/>
        <path fill="#738BD7" d="M88.977 33.9818v83.3195s-14.1815-15.2515-14.1815-39.6005c0-24.349 14.1815-43.719 14.1815-43.719" mask="url(#e)"/>
        <path stroke="#7C93E4" d="M88.977 33.9818v83.3195s-14.1815-15.2515-14.1815-39.6005c0-24.349 14.1815-43.719 14.1815-43.719z" stroke-linecap="round" stroke-linejoin="round" mask="url(#e)"/>
        <path stroke="#7C93E4" d="M84.8587 40.71315v51.34s-10.063-6.8605-10.063-14.3525" stroke-linecap="round" stroke-linejoin="round" mask="url(#e)"/>
        <path fill="#738BD7" d="M144.6319 33.9818v83.3195s14.1815-15.2515 14.1815-39.6005c0-24.349-14.1815-43.719-14.1815-43.719" mask="url(#e)"/>
        <path stroke="#7C93E4" d="M144.6319 33.9818v83.3195s14.1815-15.2515 14.1815-39.6005c0-24.349-14.1815-43.719-14.1815-43.719z" stroke-linecap="round" stroke-linejoin="round" mask="url(#e)"/>
        <path stroke="#7C93E4" d="M148.7502 40.71315v51.34s10.063-6.8605 10.063-14.3525" stroke-linecap="round" stroke-linejoin="round" mask="url(#e)"/>
        <path fill="#738BD7" d="M276.7582 3.11665s-11.4875 27.8265-10.9205 28.984l.0355.1555c.3635 2.6425-2.752 33.093-2.752 33.093l3.132 27.5065 20.1715 32.473 17.89-29.7985 3.504-32.855-3.504-41.6415-4.3125-4.1005-1.2955-3.075 1.2955 2.367-4.4085-14.2935" mask="url(#e)"/>
        <path stroke="#7C93E4" d="M276.7582 3.11665s-11.4875 27.8265-10.9205 28.984c.567 1.158-2.7165 33.2485-2.7165 33.2485l3.132 27.5065 20.172 32.473 17.8895-29.7985 3.504-32.855-3.504-41.6415-21.253-20.209m16.4557 46.1054l4.797-25.8965zm-3.42985 4.40005l-11.791 21.4705" stroke-linecap="round" stroke-linejoin="round" mask="url(#e)"/>
        <path stroke="#7C93E4" d="M283.06175.82445l-.839 25.9395.764 24.068 1.206 20.222 1.277 21.42.955 32.8545" stroke-linecap="round" stroke-linejoin="round" mask="url(#e)"/>
        <path stroke="#7C93E4" d="M283.94175 71.84395l-14.8935-25.787-3.2105-13.956 17.224-31.2765m24.75705 61.8507l-8.596 16.6185" stroke-linecap="round" stroke-linejoin="round" mask="url(#e)"/>
        <path fill="#738BD7" d="M255.7695 91.614h59.401V75.5595h-59.401" mask="url(#e)"/>
        <path stroke="#7C93E4" d="M255.7695 91.614h59.401V75.5595h-59.401z" stroke-linecap="round" stroke-linejoin="round" mask="url(#e)"/>
        <path stroke="#7C93E4" d="M315.17035 84.6566h-8.9635v5.62m1.02535-14.7169v4.014h-5.903v6.154h-32.8675v-5.084h-5.9275v-5.084m-6.7648 9.0969h9.055v7.3965" stroke-linecap="round" stroke-linejoin="round" mask="url(#e)"/>
        <path fill="#738BD7" d="M285.4699 117.3014c-17.736-17.736-17.736-46.491 0-64.227 17.736 17.736 17.736 46.491 0 64.227z" mask="url(#e)"/>
        <path stroke="#7C93E4" d="M285.4699 117.3014c-17.736-17.736-17.736-46.491 0-64.227 17.736 17.736 17.736 46.491 0 64.227z" stroke-linecap="round" stroke-linejoin="round" mask="url(#e)"/>
        <path stroke="#7C93E4" d="M285.4699 84.79335c-5.504-5.504-5.504-14.4285 0-19.9325 5.504 5.504 5.504 14.4285 0 19.9325zm-13.16525-2.96475s7.0495 3.059 9.496 12.5385c2.446 9.4795-1.196 17.192-1.196 17.192m18.0305-29.7305s-7.0495 3.059-9.496 12.5385c-2.446 9.4795 1.196 17.192 1.196 17.192" stroke-linecap="round" stroke-linejoin="round" mask="url(#e)"/>
        <path fill="#738BD7" d="M257.64245 33.9818v83.3195s-14.1815-15.2515-14.1815-39.6005c0-24.349 14.1815-43.719 14.1815-43.719" mask="url(#e)"/>
        <path stroke="#7C93E4" d="M257.64245 33.9818v83.3195s-14.1815-15.2515-14.1815-39.6005c0-24.349 14.1815-43.719 14.1815-43.719z" stroke-linecap="round" stroke-linejoin="round" mask="url(#e)"/>
        <path stroke="#7C93E4" d="M253.52415 40.71315v51.34s-10.063-6.8605-10.063-14.3525" stroke-linecap="round" stroke-linejoin="round" mask="url(#e)"/>
        <path fill="#738BD7" d="M313.29735 33.9818v83.3195s14.1815-15.2515 14.1815-39.6005c0-24.349-14.1815-43.719-14.1815-43.719" mask="url(#e)"/>
        <path stroke="#7C93E4" d="M313.29735 33.9818v83.3195s14.1815-15.2515 14.1815-39.6005c0-24.349-14.1815-43.719-14.1815-43.719z" stroke-linecap="round" stroke-linejoin="round" mask="url(#e)"/>
        <path stroke="#7C93E4" d="M317.4156 40.71315v51.34s10.063-6.8605 10.063-14.3525" stroke-linecap="round" stroke-linejoin="round" mask="url(#e)"/>
        <path fill="#738BD7" d="M82.104 125.3285h10v-46.5h-10" mask="url(#e)"/>
        <path stroke="#9CB4F8" d="M82.104 125.3285h10v-46.5h-10z" stroke-linecap="round" stroke-linejoin="round" mask="url(#e)"/>
        <path fill="#738BD7" d="M109.89735 107.10745l-42.7645 4.4945-2.822-26.852 42.764-4.4945" mask="url(#e)"/>
        <path stroke="#9CB4F8" d="M109.89735 107.10745l-42.7645 4.4945-2.822-26.852 42.764-4.4945z" stroke-linecap="round" stroke-linejoin="round" mask="url(#e)"/>
        <path stroke="#9CB4F8" d="M87.56355 104.5146l8.1885-7.8645c.4095-.3935.4095-1.049 0-1.4425l-8.1885-7.8645c-.6355-.6105-1.6925-.16-1.6925.721v2.383c0 .552-.448 1-1 1h-5.7225c-.552 0-1 .4475-1 1v6.9635c0 .552.448 1 1 1h5.7225c.552 0 1-.0525 1 .5v2.883c0 .881 1.057 1.3315 1.6925.721z" stroke-linecap="round" stroke-linejoin="round" mask="url(#e)"/>
      </g>
      <g transform="translate(524 60.175)">
        <mask id="g" fill="#fff">
          <use xlink:href="#f"/>
        </mask>
        <path fill="#738BD7" d="M36.812 33.6518l-5.8015-25.139c-.002-.0105-.0095-.0185-.0125-.0285-.0025-.009-.0005-.0185-.004-.0275-.0065-.0185-.0205-.0315-.0295-.0485-.0155-.031-.0315-.0605-.053-.0875-.0185-.0225-.039-.0405-.0605-.0595-.0155-.013-.5265-1.031-.5435-1.0425L19.6885.3203c-.011-.007-.0235.4915-.0345.4855-.0235-.0135-.048-.0225-.0735-.0315-.034-.012-.0675-.021-.1025-.025-.013-.0015-.024-.009-.0375-.0095-.0175-.002-.0325.006-.0495.006-.021.001-.0415.003-.0625.007-.107.0165-.1985.0675-.267.1485-.002.002-.0045.003-.007.0055l-7.493 8.6615c-.0125.0145-.015.0335-.0255.049-.0185.027-.0415.0495-.055.0805-.005.0125-.0035.0255-.0075.038-.0085.0255-.0115.051-.0155.0775-.0065.044-.0085.086-.0035.1285.0015.0135-.0035.027-.001.0405l2.133 10.375-2.9585 1.011-3.671-3.638c-.011-.0125-.025.48-.037.469-.0085-.008-.5165-.5145-.5255-.5215-.0385-.0315.42.444.375.426-.0105-.004-.02-.009-.0305-.0125-.103-.033-.215-.035-.32.0055L.6345 20.0143c-.0085.0035-.015.01-.023.0135-.0175.0075-.032.0185-.048.028-.0365.022-.069.0465-.098.0765-.0075.0075-.0175.011-.0245.019-.006.0065-.007.015-.0125.022-.0275.036-.0485.075-.0655.117-.005.013-.013.025-.017.0385-.0155.0525-.024.1075-.021.165l.7255 12.5695c.0155.2665.2495.4745.5105.4545.2665-.015.47-.2435.455-.5105l9.2395 1.458c.086.1665.255.262.4305.262.074 0 .15-.017.221-.054.237-.122.3305-.4135.208-.651 0 0 6.822-1.4025 6.822-.7455 0 .265.2135.4765.4785.4795h.005c.2625 0 .4775-.2145.4835-.4775.011-.5145 6.549.8695 6.549.8695.0655.206.2555.337.4605.337.0485 0 .098-.007.147-.0225.2545-.081.395-.353.314-.607l5.1985-1.01c.0955.1245.239.1895.384.1895.1025 0 .206-.0325.294-.0995.212-.1625.252-.466.0895-.678l2.529 1.611c.052.224.251.375.471.375.036 0 .0725-.0035.109-.012.2605-.06.4225-.32.3625-.58" mask="url(#g)"/>
      </g>
      <g transform="translate(563.5 2.675)">
        <mask id="i" fill="#fff">
          <use xlink:href="#h"/>
        </mask>
        <path fill="#738BD7" d="M9.2541 88.71585c.3535.1085.7425.2025 1.2215.2955l.1935.0375.0205.4495h2.767l.09-.1745.157.0045c.835.023 1.6845.016 2.5055.01.4915-.004.978-.0075 1.4595-.005l.302.0015-.0325.1635h.513l.0315-.1595.2085.0035c3.0265.05 6.104.0675 9.08.0845l.378.002c.9655.0055 1.9305.007 2.8965.009l1.81.0045-.006.056h.5015l.0055-.0545 2.516.0075.0155.047 2.758-.0055.0585-.0345 17.9035.014-.025.026h.6815l.132-.025 11.673.0145-.007.0105.716-.004.2485.004h15.6105c.22-.5955.436-1.1195.6585-1.596.047-.1365.098-.281.153-.429l.048-.2725 7.893-23.71.998-10.3065c.007-.0765-.0195-.1505-.0745-.204-.053-.052-.1295-.075-.2035-.069l-8.219 1.007c-.03.0105-.055.0225-.0725.0365l-5.296 4.1115 3.0255-19.039-.001-.007.008-.0415-.002-.0655-5.6665-34.8025c-.005-.024-.015-.049-.03-.077-.0255-.0365-.0385-.0515-.0525-.0645-.029-.023-.049-.037-.0655-.046l-.075-.018c-.0095-.001-.021-.001-.034 0-.0455.0065-.063.0115-.0835.0195-.0525.0245-.0735.039-.0885.055l-24.4975 25.997-.0225.0375c-.012.0165-.0215.035-.028.053l-.024.0755-2.4975 16.792-2.914-2.635c-.045-.041-.104-.063-.167-.0635-.015.005-.0295.0085-.044.0105-.024.0045-.052.0095-.0605.0135l-.0845.06-2.9925 3.038-1.4905-19.571c-.0165-.0505-.0235-.076-.0285-.085l-.0515-.071-18.0715-17.3225-10.373-10.169c-.0145-.0145-.033-.0275-.0545-.0395-.0345-.016-.061-.024-.087-.028-.0225-.003-.0385-.0045-.052-.0035l-.068.017c-.0095.0055-.022.0135-.0315.0195l-.066.0375c.002.002-.0205.0305-.038.0645l-.022.04-8.612 18.2975-6.013 20.3405c.009-.0235.008 0 .0035.0235-.0065.035-.008.0555-.0065.072l.003.0305-.002.0155 7.9945 49.4975c.02.122.1235.2105.247.2105.111-.0145.1605-.059.1895-.094l.1085-.132.162.0525c.0855.0285.1595.043.2305.0465l.0135.0005h.0015v.011c.024.005.051.012.0775.0215l.1155.0475-.094.2325.1435-.205z" mask="url(#i)"/>
      </g>
      <path stroke="#9CB4F8" d="M611.80615 47.16025l.8335 14.1665-11.5-3.333m11.4998 3.33315l3.6665 22.197-15.7755-7.3615" stroke-linecap="round" stroke-linejoin="round"/>
      <g transform="translate(599.5 46.675)">
        <mask id="k" fill="#fff">
          <use xlink:href="#j"/>
        </mask>
        <path stroke="#9CB4F8" d="M19.30615 6.81805l-2.5 30.0305-16.3335 9.636c0-.5 1.167-35.1665 1.167-35.1665L12.30615.48455l7 6.3335 4.5 16.6665 3.522 15.946" stroke-linecap="round" stroke-linejoin="round" mask="url(#k)"/>
      </g>
      <path stroke="#9CB4F8" d="M616.30615 83.5241l7.5565 4.968" stroke-linecap="round" stroke-linejoin="round"/>
      <g transform="translate(620.5 83.175)">
        <mask id="m" fill="#fff">
          <use xlink:href="#l"/>
        </mask>
        <path stroke="#9CB4F8" d="M.2795 9.98475c.3335-.5 4.86-6.568 4.86-6.568l7.5-3.068v8.136l-.1935 1.5" stroke-linecap="round" stroke-linejoin="round" mask="url(#m)"/>
      </g>
      <path stroke="#9CB4F8" d="M600.2029 86.00815l-13.23-38.848-9.8335-3.1665-3.6665 4.6665 5.8335 28.5 12.5-3-8.3335-18.8165" stroke-linecap="round" stroke-linejoin="round"/>
      <g transform="translate(573 54.175)">
        <mask id="o" fill="#fff">
          <use xlink:href="#n"/>
        </mask>
        <path stroke="#9CB4F8" d="M1.6156.06805l-1.143 15.9165 1.143 26.0155 4.6905-19.0155" stroke-linecap="round" stroke-linejoin="round" mask="url(#o)"/>
      </g>
      <g transform="translate(574.5 73.675)">
        <mask id="q" fill="#fff">
          <use xlink:href="#p"/>
        </mask>
        <path stroke="#9CB4F8" d="M17.30615.48475l5.5 10.8335-12.182-9.23-10.5085 20.412" stroke-linecap="round" stroke-linejoin="round" mask="url(#q)"/>
      </g>
      <g transform="translate(581.5 75.675)">
        <mask id="s" fill="#fff">
          <use xlink:href="#r"/>
        </mask>
        <path stroke="#9CB4F8" d="M3.6244.08835C3.0999.91485.0059 17.48485.0059 17.48485" stroke-linecap="round" stroke-linejoin="round" mask="url(#s)"/>
      </g>
      <g transform="translate(596 84.675)">
        <mask id="u" fill="#fff">
          <use xlink:href="#t"/>
        </mask>
        <path stroke="#9CB4F8" d="M.30615 7.98475l1-7.6665 2.6665 8.1665" stroke-linecap="round" stroke-linejoin="round" mask="url(#u)"/>
      </g>
      <path stroke="#9CB4F8" d="M608.41825 50.60105l-1.529-20.1075-18.083-17.3335-10.371-10.1665-8.629 18.3335-6 20.3045 8 49.5285" stroke-linecap="round" stroke-linejoin="round"/>
      <path stroke="#9CB4F8" d="M569.80615 21.3269l-2 29.1665-4-8.862m14.2582-37.84965l-3.4485 16.212-6.8095 30.5 6.7305 4.8495" stroke-linecap="round" stroke-linejoin="round"/>
      <path stroke="#9CB4F8" d="M574.6156 19.99355l22.1905 16.4165 10.0835-5.9165M595.13945 56.3269l1.6665-19.9165-11.845 9.924m-2.6548-30.42225l-3.871-12.9185m3.871 12.9185l14.5 20.498m10.0833 15.74355l-3.9165-6.66-11.1755 15.833m25.842-28.4998l10.8335 8.8045-1.2015 24.527" stroke-linecap="round" stroke-linejoin="round"/>
      <g transform="translate(623.5 45.175)">
        <mask id="w" fill="#fff">
          <use xlink:href="#v"/>
        </mask>
        <path stroke="#9CB4F8" d="M.3628 26.31805l17.11-26 3.704 15.8335 5.796-4.5 8.1665-.992-1 10.3235-9 27.0015" stroke-linecap="round" stroke-linejoin="round" mask="url(#w)"/>
      </g>
      <path stroke="#9CB4F8" d="M640.97285 45.49355l-3.8335 20.665-11.9075 12.7215m25.241-22.05315l1.6665 5.5 5.5 3.8315" stroke-linecap="round" stroke-linejoin="round"/>
      <path stroke="#9CB4F8" d="M658.13945 56.83515l-6.5 6.4915-9.6385 15m5.8052-36.6951l-14 3.862-5.3335-3.862" stroke-linecap="round" stroke-linejoin="round"/>
      <path stroke="#9CB4F8" d="M633.80615 45.49355l8.3335-38.6665-13.667 34.8045-4.61-15.409" stroke-linecap="round" stroke-linejoin="round"/>
      <g transform="translate(615 6.675)">
        <mask id="y" fill="#fff">
          <use xlink:href="#x"/>
        </mask>
        <path stroke="#9CB4F8" d="M22.13945 59.483l2 30.017 8.6665-54.544L27.13945.1515l-24.5 26L.06595 43.434" stroke-linecap="round" stroke-linejoin="round" mask="url(#y)"/>
      </g>
      <path stroke="#9CB4F8" d="M573.47285 48.66025l10 6.683 3.5-8.183" stroke-linecap="round" stroke-linejoin="round"/>
      <g transform="translate(535.5 60.175)">
        <mask id="A" fill="#fff">
          <use xlink:href="#z"/>
        </mask>
        <path stroke="#9CB4F8" d="M25.4494 33.8093l-6-26-11.5-7.652-7.75 8.9585 2.25 10.9435" stroke-linecap="round" stroke-linejoin="round" mask="url(#A)"/>
      </g>
      <g transform="translate(524 77.675)">
        <mask id="C" fill="#fff">
          <use xlink:href="#B"/>
        </mask>
        <path stroke="#9CB4F8" d="M19.4494 15.8093c0-.75 2.5-15.7505 2.5-15.7505l-11.75 4.0155-3.5-4.0155-6.5 2.5005.75 13" stroke-linecap="round" stroke-linejoin="round" mask="url(#C)"/>
      </g>
      <path stroke="#9CB4F8" d="M535.6994 69.2912l7.25 3.0415 12-4.348" stroke-linecap="round" stroke-linejoin="round"/>
      <g transform="translate(542.5 60.175)">
        <mask id="E" fill="#fff">
          <use xlink:href="#D"/>
        </mask>
        <path stroke="#9CB4F8" d="M8.6994 34.0593l-5.25-16.5005-3-5.4015.5-12" stroke-linecap="round" stroke-linejoin="round" mask="url(#E)"/>
      </g>
      <g transform="translate(531.5 77.675)">
        <mask id="G" fill="#fff">
          <use xlink:href="#F"/>
        </mask>
        <path stroke="#9CB4F8" d="M25.9494 15.0593L14.4494.0588.4704 7.4063" stroke-linecap="round" stroke-linejoin="round" mask="url(#G)"/>
      </g>
      <path stroke="#9CB4F8" d="M530.6994 77.7344l.5 8.5005-7-6" stroke-linecap="round" stroke-linejoin="round"/>
      <g transform="translate(531 81.675)">
        <mask id="I" fill="#fff">
          <use xlink:href="#H"/>
        </mask>
        <path stroke="#9CB4F8" d="M3.1994.0742l-3 4.485 4.25 8.25" stroke-linecap="round" stroke-linejoin="round" mask="url(#I)"/>
      </g>
      <g transform="translate(-81 -33.825)">
        <path fill="#738BD7" d="M501.4105 59.0712c0 12.328-9.994 22.322-22.322 22.322s-22.322-9.994-22.322-22.322 9.994-22.322 22.322-22.322 22.322 9.994 22.322 22.322z"/>
        <path stroke="#7C93E4" d="M501.4105 59.0712c0 12.328-9.994 22.322-22.322 22.322s-22.322-9.994-22.322-22.322 9.994-22.322 22.322-22.322 22.322 9.994 22.322 22.322z" stroke-linecap="round" stroke-linejoin="round"/>
        <path fill="#738BD7" d="M496.2021 59.0712c0 9.4515-7.662 17.1135-17.1135 17.1135s-17.1135-7.662-17.1135-17.1135 7.662-17.1135 17.1135-17.1135 17.1135 7.662 17.1135 17.1135"/>
        <path stroke="#7C93E4" d="M496.2021 59.0712c0 9.4515-7.662 17.1135-17.1135 17.1135s-17.1135-7.662-17.1135-17.1135 7.662-17.1135 17.1135-17.1135 17.1135 7.662 17.1135 17.1135zm-17.1647 33.10305v-19.422" stroke-linecap="round" stroke-linejoin="round"/>
        <mask id="K" fill="#fff">
          <use xlink:href="#J"/>
        </mask>
        <path fill="#738BD7" d="M496.916 35.2405h5.357V29.883h-5.357" mask="url(#K)"/>
        <path stroke="#7C93E4" d="M496.916 35.2405h5.357V29.883h-5.357z" stroke-linecap="round" stroke-linejoin="round" mask="url(#K)"/>
        <path fill="#738BD7" d="M449.494 94.029h5.3575v-5.3575h-5.3575" mask="url(#K)"/>
        <path stroke="#7C93E4" d="M449.494 94.029h5.3575v-5.3575h-5.3575z" stroke-linecap="round" stroke-linejoin="round" mask="url(#K)"/>
        <path fill="#738BD7" d="M459.6825 85.5885h3.125v-3.125h-3.125" mask="url(#K)"/>
        <path stroke="#7C93E4" d="M459.6825 85.5885h3.125v-3.125h-3.125z" stroke-linecap="round" stroke-linejoin="round" mask="url(#K)"/>
        <path fill="#738BD7" d="M500.9945 82.2365h3.125v-3.125h-3.125" mask="url(#K)"/>
        <path stroke="#7C93E4" d="M500.9945 82.2365h3.125v-3.125h-3.125z" stroke-linecap="round" stroke-linejoin="round" mask="url(#K)"/>
        <path fill="#738BD7" d="M437.624 40.774h1.786v-1.786h-1.786" mask="url(#K)"/>
        <path stroke="#7C93E4" d="M437.624 40.774h1.786v-1.786h-1.786z" stroke-linecap="round" stroke-linejoin="round" mask="url(#K)"/>
        <path fill="#738BD7" d="M490.304 91.1045h1.786v-1.786h-1.786" mask="url(#K)"/>
        <path stroke="#7C93E4" d="M490.304 91.1045h1.786v-1.786h-1.786z" stroke-linecap="round" stroke-linejoin="round" mask="url(#K)"/>
        <path fill="#738BD7" d="M448.792 64.556h1.7855V62.77h-1.7855" mask="url(#K)"/>
        <path stroke="#7C93E4" d="M448.792 64.556h1.7855V62.77h-1.7855z" stroke-linecap="round" stroke-linejoin="round" mask="url(#K)"/>
        <path fill="#738BD7" d="M506.693 46.302h1.786v-1.786h-1.786" mask="url(#K)"/>
        <path stroke="#7C93E4" d="M506.693 46.302h1.786v-1.786h-1.786z" stroke-linecap="round" stroke-linejoin="round" mask="url(#K)"/>
        <path fill="#738BD7" d="M454.4305 43.8005h1.786v-1.786h-1.786" mask="url(#K)"/>
        <path stroke="#7C93E4" d="M454.4305 43.8005h1.786v-1.786h-1.786z" stroke-linecap="round" stroke-linejoin="round" mask="url(#K)"/>
        <g mask="url(#K)">
          <path fill="#738BD7" d="M492.9828 56.3576c1.1355.0145 30.147 1.6665 29.183 1.8075l-29.183 2.985"/>
          <path stroke="#7C93E4" d="M492.9828 56.3576c1.1355.0145 30.147 1.6665 29.183 1.8075l-29.183 2.985" stroke-linecap="round" stroke-linejoin="round"/>
        </g>
        <g mask="url(#K)">
          <path fill="#738BD7" d="M467.724 56.3576c-1.1355.0145-30.147 1.6665-29.183 1.8075l29.183 2.985"/>
          <path stroke="#7C93E4" d="M467.724 56.3576c-1.1355.0145-30.147 1.6665-29.183 1.8075l29.183 2.985" stroke-linecap="round" stroke-linejoin="round"/>
        </g>
        <path fill="#738BD7" d="M277.60505 125.03295l-10.4765-34.525v-2.5445c0-.057-.01-.1135-.029-.1675l-3.772-10.6125c-.002-.0055-.006-.01-.008-.015-.0055-.015-.0145-.027-.0215-.041-.02-.0385-.043-.074-.072-.1065-.013-.0145-.0255-.027-.04-.04-.0115-.0105-.02-.0235-.0325-.0325l-2.4985-1.844-1.946-4.9655c-.0335-.086-.0905-.1605-.164-.2165l-4.9275-3.7215c-.0865-.0655-.1925-.101-.301-.101h-5.0085l-3.1645-2.901c-.0625-.057-.138-.097-.2205-.117-.5405-.131-1.042-.1965-1.5165-.223-.477-1.0065-2.251-4.4-4.901-5.4095-2.968-1.131-5.4855-1.5505-7.4835-1.2465-1.248.19-2.31 1.0205-2.841 2.2205-.809 1.829-1.5815 4.599-.6665 7.409l.3245 1.0045c1.092 3.401 1.5005 4.6735 4.0105 4.6735.685 0 1.4545.064 2.221.1835l2.946 11.2505 3.6755 14.1495c.0105.041.0265.0805.047.117.0595.108 1.4915 2.6485 3.7465 3.5315.0675.0265.1435.0575.22.0885l3.5565 11.6675c.7895 2.589 2.534 4.7285 4.9125 6.0225l1.203.654 1.9425 6.1535c.0655.208.2585.3495.4765.3495h20.33c.1585 0 .3075-.075.4015-.202.0945-.127.123-.2915.077-.443" mask="url(#K)"/>
        <path stroke="#9CB4F8" d="M277.1266 125.17775l-10.498-34.5955v-2.6185l-3.772-10.613-2.614-1.9295-1.999-5.1-4.927-3.7215h-9.476l5.9955 4.4105 2.55 6.8915 2.2055 1.792 3.17 9.3725v2.481l4.2725 14.8855" stroke-linecap="round" stroke-linejoin="round" mask="url(#K)"/>
        <path stroke="#9CB4F8" d="M246.9791 66.5999l4.9275 3.7215 1.9985 5.0995 2.614 1.93 3.772 10.6125v2.619l10.498 34.5955m-4.7956-5.2377l1.517 5.2375" stroke-linecap="round" stroke-linejoin="round" mask="url(#K)"/>
        <path stroke="#9CB4F8" d="M248.11335 66.5999l-3.308-3.0325c-4.5485-1.1025-6.478 2.11-6.478 2.11l4.7485 6.4355-1.854 3.7215 15.575 49.3435" stroke-linecap="round" stroke-linejoin="round" mask="url(#K)"/>
        <path stroke="#9CB4F8" d="M243.07585 63.3372s-1.854-4.318-4.7485-5.4205c-2.274-.8665-4.974-1.5625-7.23-1.2195-1.095.1665-2.0105.9155-2.459 1.9285-.703 1.589-1.539 4.318-.648 7.0515 1.378 4.2305 1.516 5.3335 3.859 5.3335s7.0295.827 7.167 2.894c0 0 .873 3.584.23 4.227 0 0-2.2055 2.2055-1.746 4.686l3.6755 14.151s1.3785 2.481 3.4915 3.3075c2.1135.827 5.054 2.486 5.8395 4.975" stroke-linecap="round" stroke-linejoin="round" mask="url(#K)"/>
        <path stroke="#9CB4F8" d="M245.11525 100.4597l3.6255 11.8925c.746 2.4485 2.4245 4.506 4.673 5.729l1.38.7505m-9.1785-41.52695l7.6385 25.5445h4.043l-7.9025-25.5445zM239.209 75.6253s-.3465-.351-1.1655-.2925l-.819.0585.2925 1.053s1.5815-.351 1.9605.5845m24.5149 32.5545l-2.561 1.8075m3.23885.41225l-2.561 1.8075m3.2389.41225l-2.561 1.8075m3.23885.18625l-2.561 1.8075m-6.9458-40.4734h6.3375m-8.95165-1.9296h6.3375m.04875 12.54255h6.3375m-6.3375 2.61875h6.3375M233.56265 56.6803s-3.689 3.5335-2.77 8.311c.5855 3.045 1.534 5.956 2.5485 6.079m9.7347 10.63805s-2.543 1.1095-1.992 2.488c.5515 1.378 3.2045 1.353 3.2045 1.353m1.429 4.52765s-2.0605.3675-1.8765 2.0215c.1835 1.654 3.138 1.976 3.138 1.976m-9.47845-11.25655l-3.0275-11.561" stroke-linecap="round" stroke-linejoin="round" mask="url(#K)"/>
        <path fill="#738BD7" d="M239.03015 116.15225l-.0005-.0865c-.0295-1.763-1.3165-3.2385-3.0015-3.596.018-.045.029-.0935.025-.1455-.2495-3.2645-1.211-5.827-2.514-7.838-.002-.0055-.001-.011-.0035-.016-5.3045-11.497-19.412-11.6305-19.554-11.6305-13.1175 0-19.881 5.286-23.245 9.7205-3.179 4.191-3.9895 8.3275-4.1595 9.4585h-.785c-.0675 0-1.665.033-2.4675 2.8865-.7105 2.5265-1.5415 8.582-.8105 10.227.053.1195.1715.196.302.196h56.2495c.091 0 .1785-.0375.241-.104.0625-.066.0945-.155.089-.2465-.0035-.061-.3655-6.1385-.3655-8.8255" mask="url(#K)"/>
        <path stroke="#9CB4F8" d="M235.22735 119.29375s.3305-19.427-14.0535-19.427-21.659 6.944-24.8005 13.8885" stroke-linecap="round" stroke-linejoin="round" mask="url(#K)"/>
        <path stroke="#9CB4F8" d="M194.47225 112.3497s4.0395-13.615 22.8645-14.942c3.387-.2385 6.8005.3795 9.833 1.9075 3.846 1.9385 7.994 5.715 8.5535 13.0345" stroke-linecap="round" stroke-linejoin="round" mask="url(#K)"/>
        <path stroke="#9CB4F8" d="M186.86685 112.3497s1.984-19.179 27.115-19.179c0 0 13.9765 0 19.2535 11.438m-34.2164 14.68505l-2.174-4.806c-.589-1.3015-1.9685-1.6585-3.314-2.138-.464-.1655-2.8615 0-2.8615 0m9.50685 9.58935h.5785m-15.2933-5.12535h5.5615c.642 0 1.2255.3715 1.4975.953l1.506 3.2195c.272.5815.856.953 1.4975.953h3.0815" stroke-linecap="round" stroke-linejoin="round" mask="url(#K)"/>
        <path stroke="#9CB4F8" d="M182.8161 124.9978c-.6615-1.488.0825-7.3575.8265-10.003.744-2.645 2.1495-2.645 2.1495-2.645h5.672c1.429 0 2.725.8365 3.314 2.138l1.6465 3.6395c.3215.71 1.0285 1.1665 1.8075 1.1665h16.8655l1.199-1.6535h11.5735l1.405 1.6535h7.523m-2.31615-6.5771h.7595c1.87 0 3.4265 1.4845 3.4575 3.3545 0 .027.0005.054.0005.081 0 2.728.3665 8.8455.3665 8.8455" stroke-linecap="round" stroke-linejoin="round" mask="url(#K)"/>
        <path stroke="#9CB4F8" d="M201.5231 106.5699s1.2985.985 2.456 2.3905 4.3815 3.316 4.3815 3.316 2.149-3.316 3.885-2.696c1.736.62 3.224 2.696 3.224 2.696v2.9665l1.9845 2.3975m8.92785 0l2.3145-2.3145v-3.221s.331-2.8965 1.1575-3.2275c.8265-.3305 1.488 1.323 1.488 1.323l1.665-2.1085m-20.86705-7.15605l5.314 4.5525-1.653 3.1415-9.5125-5.4435m20.71215-1.98945c-.302-.152-2.625 3.657-2.625 3.657l2.0065 2.3705 3.643-3.555m-12.5712 13.971v7.3575m11.07745-3.62945c-.2065.2065 0 3.6295 0 3.6295m-8.10145-4.62155h5.452m-5.452 2.3067h5.452m-5.452-14.62815l.8225-.5v4.7945h-1.8225zm2.97605-.5v4.55l1.4055.761v-3.9055z" stroke-linecap="round" stroke-linejoin="round" mask="url(#K)"/>
      </g>
    </g>
    <use fill="url(#L)" xlink:href="#M"/>
  </g>
</svg>