<svg height="201" viewBox="0 0 402 201" width="402" xmlns="http://www.w3.org/2000/svg"><g fill="none" fill-rule="evenodd"><path d="m202.5842 171.3401c0 4.007-3.249 7.256-7.255 7.256h-41.789c-6.075 0-11 4.924-11 10.999 0 6.074 4.925 10.999 11 10.999h210.343c14.912 0 27-12.088 27-27v-.01c0-14.912-12.088-27-27-27h-24.569c-13.255 0-24-10.745-24-24s10.745-24 24-24h9.033c25.37 0 45.936-20.566 45.936-45.935 0-25.37-20.566-45.936-45.936-45.936h-181.476c-18.236 0-33.018 14.783-33.018 33.019s14.782 33.019 33.018 33.019h16.499c5.7 0 10.32 4.62 10.32 10.319v.006c0 5.7-4.62 10.321-10.32 10.321h-147.017c-19.518 0-35.34 15.821-35.34 35.339v.008c0 19.518 15.822 35.34 35.34 35.34h158.976c4.006 0 7.255 3.248 7.255 7.256" fill="#f6f6f7" fill-opacity=".9"/><path d="m80.9388 152.0842h-5.763v3c0 .553-.448 1-1 1h-3v4h6c.552 0 1 .447 1 1v6 5h2.763z" fill="#fff"/><path d="m256.93 155.0842v-8.633h-.632c-.068 0-.127-.025-.19-.038-.066.005-.13.017-.197.02-2.569 2.015-4.229 5.139-4.229 8.651v4.8c0 1.875-1.525 3.4-3.4 3.4h-10.8c-2.427 0-4.4 1.974-4.4 4.4s1.973 4.4 4.4 4.4h30.014c-6.251-3.114-10.566-9.555-10.566-17" fill="#dcddde"/><path d="m290.9368 161.2844h15c.772 0 1.4-.628 1.4-1.4v-4.8c0-7.168 5.831-13 13-13h2.293c.606 0 1.1-.493 1.1-1.1 0-.606-.494-1.1-1.1-1.1h-19.213v1.569c0 2.756-2.239 4.998-4.992 4.998h-3.979c-.068 0-.128-.025-.192-.039-.129.01-.252.039-.383.039-2.746 0-4.98-2.233-4.98-4.979 0-1.882-1.525-3.408-3.4-3.408h-11.604v20.122c0 4.706-1.114 9.154-3.084 13.104 1.619.514 3.341.794 5.127.794h5.308 5.063c-1.09-1.149-1.764-2.696-1.764-4.4 0-3.529 2.871-6.4 6.4-6.4m17.5845-34.2002c.771 0 1.399-.634 1.4-1.413.004-4.351 2.267-8.177 5.671-10.387h-17.705c3.304 1.962 5.53 5.556 5.53 9.67v2.13z" fill="#f6f6f7"/><path d="m265.2688 141.4641c0 2.75-2.236 4.987-4.985 4.987h-1.354v8.633c0 6.877 4.113 12.801 10.002 15.475 1.885-3.721 2.955-7.923 2.955-12.372v-20.122h-3.218c-1.875 0-3.4 1.525-3.4 3.399" fill="#f6f6f7"/><path d="m325.6673 113.2844h4.062.092c7.886 0 14.516-5.405 16.428-12.7h-2.411c-.208 0-.411-.021-.617-.031-.206.01-.409.031-.617.031h-5.327c-1.471 5.931-5.892 10.719-11.61 12.7m-50.2183-4.8047c-.861 0-1.562.701-1.562 1.562v3.243h3.124v-3.243c0-.861-.701-1.562-1.562-1.562" fill="#dcddde"/><path d="m257.6057 111.5061c.478-.512 1.107-.863 1.804-.988.848-.152 1.717-.229 2.582-.229h2.202c1.71 0 3.103 1.321 3.249 2.995h4.444v-3.242c0-1.965 1.598-3.562 3.562-3.562 1.965 0 3.563 1.597 3.563 3.562v3.242h3.356c.146-1.674 1.538-2.995 3.249-2.995h2.202c.865 0 1.734.077 2.582.229.91.163 1.712.709 2.2 1.499.241.39.393.823.456 1.267h29.264 3.347c5.717-1.981 10.138-6.768 11.609-12.7h-1.439c-6.616 0-12-5.383-12-12v-14c0-5.062 3.156-9.392 7.599-11.152-1.498-8.481-8.904-14.947-17.807-14.947h-40.272-7-1.228c-9.374 0-17 7.625-17 17v.599h16.952c.552 0 1 .447 1 1h9.554c0-.553.448-1 1-1h10.8c4.522 0 8.2 3.679 8.2 8.2v7.8c0 10.477-8.523 19-19 19h-19.2c-3.297 0-6.4-.848-9.106-2.331.821 5.606 4.378 10.321 9.276 12.753" fill="#f6f6f7"/><path d="m286.2361 74.2844v7.8c0 7.853-5.104 14.556-12.153 17h2.553c9.374 0 17-7.626 17-17v-7.8c0-3.419-2.781-6.2-6.2-6.2h-4.766c2.127 1.255 3.566 3.564 3.566 6.2" fill="#f6f6f7"/><path d="m273.1433 88.8977c0 1.616-1.322 2.938-2.939 2.938h-5.877c-1.617 0-2.939-1.322-2.939-2.938s1.322-2.938 2.939-2.938h5.877c1.617 0 2.939 1.322 2.939 2.938m-25.828 0c0-1.616 1.323-2.938 2.939-2.938h3.526c1.616 0 2.939 1.322 2.939 2.938s-1.323 2.938-2.939 2.938h-3.526c-1.616 0-2.939-1.322-2.939-2.938m17.766-20.813h-18.445c-3.419 0-6.201 2.781-6.201 6.2v7.8c0 9.374 7.626 17 17 17h16.647c7.049-2.444 12.154-9.147 12.154-17v-7.8c0-2.636-1.439-4.946-3.566-6.2h-6.034c-.553 0-1-.448-1-1h-9.555c0 .552-.447 1-1 1" fill="#fff"/><path d="m264.3269 85.9592c-1.616 0-2.938 1.322-2.938 2.938 0 1.617 1.322 2.939 2.938 2.939h5.877c1.617 0 2.939-1.322 2.939-2.939 0-1.616-1.322-2.938-2.939-2.938zm-14.0727 5.877h3.526c1.617 0 2.939-1.322 2.939-2.938 0-1.617-1.322-2.939-2.939-2.939h-3.526c-1.616 0-2.939 1.322-2.939 2.939 0 1.616 1.323 2.938 2.939 2.938m96.2031-34.7197c.533-.15 1.083.162 1.232.694.112.402.213.808.302 1.219.116.54-.227 1.072-.766 1.189-.017.003-.033.002-.049.004.127.774.208 1.561.243 2.362h2.184c.622 0 1.228.062 1.824.153-.322-8.226-5.879-15.127-13.44-17.429 3.397 1.966 6.241 4.877 8.129 8.515.254.49.063 1.094-.428 1.349-.013.007-.029.006-.043.012.291.634.55 1.284.774 1.952.014-.005.024-.016.038-.02" fill="#dcddde"/><path d="m267.5291 46.4846h7 39.101c9.802 0 17.967 7.062 19.728 16.36.801-.169 1.63-.26 2.48-.26h6.766c.196 0 .388.023.583.033.217-.012.431-.033.651-.033h3.582c-.036-.801-.117-1.588-.244-2.362-.054.01-.109.018-.163.018-.461 0-.876-.32-.977-.789-.08-.372-.171-.739-.273-1.104-.144-.516.151-1.047.656-1.212-.223-.668-.483-1.317-.773-1.951-.483.223-1.057.036-1.305-.439-3.285-6.329-9.751-10.261-16.876-10.261h-50.107-7c-1.304 0-2.416.836-2.829 2" fill="#fff"/><path d="m349.6038 64.5842h-.373c1.067.709 2.033 1.588 2.847 2.634.339.435.261 1.064-.175 1.403-.015.012-.033.014-.049.025 1.103 1.713 1.75 3.749 1.75 5.938v13c.553 0 1 .447 1 1 0 4.172-2.142 7.849-5.381 10h.381c5.514 0 10-4.486 10-10v-14c0-5.514-4.486-10-10-10" fill="#dcddde"/><path d="m344.7215 86.971c0 2.761-2.239 5-5 5h-3c-2.762 0-5-2.239-5-5v-10.772c0-2.762 2.238-5 5-5h3c2.761 0 5 2.238 5 5zm7.132-18.325c-.433.3-1.027.221-1.354-.199-1.911-2.455-4.789-3.863-7.896-3.863h-6.765c-5.514 0-10 4.487-10 10v14c0 5.514 4.486 10 10 10h6.765c5.514 0 10-4.486 10-10 0-.552.448-1 1-1h.001v-13c0-2.189-.648-4.224-1.751-5.938z" fill="#dcddde"/><path d="m339.7215 71.1985h-3c-2.762 0-5 2.238-5 5v10.772c0 2.761 2.238 5 5 5h3c2.761 0 5-2.239 5-5v-10.772c0-2.762-2.239-5-5-5" fill="#f6f6f7"/><path d="m200.0037 186.6555c0-.704-.573-1.277-1.277-1.277h-4.694v2.554h4.694c.704 0 1.277-.573 1.277-1.277m101.4136-45.2021v-1.569h-2.555v1.569c0 1.129-.39 2.16-1.023 2.998h.586c1.65 0 2.992-1.345 2.992-2.998m0-14.3692v-2.13c0-4.341-3.009-7.982-7.048-8.974 2.722 2.055 4.493 5.307 4.493 8.974v2.13zm-40.7032 14.3799c0 1.125-.388 2.152-1.018 2.987h.587c1.646 0 2.986-1.339 2.986-2.985 0-1.288.455-2.472 1.21-3.401h-.365c-1.875 0-3.4 1.525-3.4 3.399m26.8995-27.7588c1.181 0 2.319.186 3.39.524.011-.038.025-.079.036-.117.104-.351.053-.732-.141-1.045-.192-.31-.493-.517-.85-.581-.732-.131-1.482-.197-2.229-.197h-2.203c-.704 0-1.277.573-1.277 1.277v.139zm-25.6221 0h3.479v-.139c0-.704-.573-1.277-1.277-1.277h-2.202c-.747 0-1.498.066-2.23.197-.355.064-.658.271-.85.581-.193.313-.244.694-.141 1.045.007.021.014.042.02.064 1.016-.303 2.089-.471 3.201-.471" fill="#dcddde"/><path d="m255.7283 144.4514c1.646 0 2.986-1.339 2.986-2.985 0-2.979 2.422-5.402 5.4-5.402h4.555 3.218v-5.555h-.501c-1.807 0-3.278-1.47-3.278-3.278 0-1.807 1.471-3.277 3.278-3.277.187 0 .351.064.501.153v-8.402h-5.341-4.555c-5.099 0-9.248 4.149-9.248 9.249v2.433c2.628.428 4.774 2.46 5.181 5.068.277 1.778-.233 3.579-1.398 4.94-.978 1.142-2.325 1.869-3.783 2.079v1.992c0 1.646 1.339 2.985 2.985 2.985m35.1626-2.9873c0 1.65 1.336 2.987 2.979 2.987 1.65 0 2.992-1.344 2.992-2.998v-1.569h-4.541c-.602 0-1.191-.094-1.759-.257.209.574.329 1.191.329 1.837m-5.3999-5.3994c.354 0 .699.036 1.034.102-.528-1.139-.723-2.418-.526-3.691.48-3.073 3.268-5.391 6.486-5.391h4.377v-2.13c0-5.1-4.149-9.249-9.248-9.249h-13.727v9.249h1.857c0-.553.448-1 1-1h1.475c1.807 0 3.277 1.469 3.277 3.277s-1.47 3.277-3.277 3.277h-4.332v5.556z" fill="#f6f6f7"/><path d="m273.887 128.509h4.332c.704 0 1.277-.573 1.277-1.277s-.573-1.278-1.277-1.278h-1.475c-.552 0-1-.447-1-1h-1.857zm-2-2.708c-.149.089-.314.153-.5.153-.705 0-1.278.574-1.278 1.278s.573 1.277 1.278 1.277h.5zm-20.0122 11.7442c1.201 0 2.343-.528 3.132-1.45.797-.931 1.131-2.113.941-3.331-.308-1.977-2.126-3.468-4.229-3.468h-1.881c-.704 0-1.277.573-1.277 1.277v5.695c0 .704.573 1.277 1.277 1.277z" fill="#dcddde"/><path d="m363.0115 140.3948-3.693 12.663c-.12.41.101.689.202.789.1.102.38.322.79.203l12.663-3.693c3.194-.932 5.509-3.786 5.761-7.104.178-2.338-.671-4.631-2.33-6.29-1.514-1.513-3.555-2.353-5.678-2.353-.203 0-.407.008-.612.023-3.317.253-6.171 2.569-7.103 5.762" fill="#f6f6f7"/><g fill="#dcddde"><path d="m338.2268 171.6213c.055-.026.113-.047.172-.062 7.55-1.925 12.822-8.701 12.822-16.475v-22.8c0-9.374-7.626-17-17-17h-4.4-.091-7.409c-5.728 0-10.394 4.66-10.4 10.389-.002 1.881-1.527 3.411-3.4 3.411h-16.036c-2.242 0-4.18 1.591-4.509 3.7-.203 1.299.154 2.561 1.003 3.553.842.983 2.06 1.547 3.342 1.547h30.309c1.709 0 3.1 1.39 3.1 3.1 0 1.709-1.391 3.1-3.1 3.1h-2.293c-6.066 0-11 4.934-11 11v4.8c0 1.875-1.526 3.4-3.4 3.4h-15c-2.426 0-4.4 1.974-4.4 4.399 0 2.427 1.973 4.401 4.399 4.401h38.794 6.407c.721 0 1.425-.156 2.09-.463"/><path d="m169.939 158.084h6v-6h-6z"/><path d="m82.939 172.084h6v-20h-6z"/><path d="m150.595 95.2542-13.674 13.675c-.391.39-1.024.39-1.414 0l-9.998-9.997-12.959 12.96c-.188.187-.442.293-.707.293-.266 0-.52-.106-.707-.293l-13.143-13.143-7.554 7.555v7.771l6.847-6.847c.375-.375 1.039-.375 1.414 0l13.143 13.142 12.959-12.96c.375-.375 1.039-.375 1.414 0l9.998 9.998 13.674-13.675c.375-.375 1.039-.375 1.414 0l5.137 5.137v-7.855c-.088-.046-.177-.093-.25-.166z"/><path d="m122.257 144.584h6.505l-3.253-3.253z"/><path d="m90.439 92.875 2.291-2.291h-2.291z"/></g><path d="m149.888 135.5335c.375-.375 1.039-.375 1.414 0l5.137 5.137v-7.856c-.088-.046-.176-.092-.25-.166l-5.594-5.594-13.674 13.674c-.391.391-1.024.391-1.414 0l-9.998-9.997-12.959 12.96c-.188.188-.442.293-.707.293-.266 0-.52-.105-.707-.293l-13.143-13.142-7.554 7.554v6.481h1.291l5.556-5.557c.375-.375 1.039-.375 1.414 0l5.557 5.557h15.172l5.373-5.374c.375-.375 1.039-.375 1.414 0l5.374 5.374h9.248z" fill="#fff"/><path d="m120.428 90.584h-17.171l8.586 8.586z" fill="#dcddde"/><path d="m136.214 96.208 5.624-5.624h-11.248z" fill="#dcddde"/><path d="m98.7 117.8284 13.143 13.142 12.959-12.959c.391-.391 1.023-.391 1.414 0l9.998 9.997 13.674-13.675c.375-.375 1.039-.375 1.414 0l5.137 5.137v-7.856c-.088-.046-.177-.093-.25-.166l-5.594-5.594-13.674 13.675c-.188.188-.442.293-.707.293s-.52-.105-.707-.293l-9.998-9.998-12.959 12.96c-.188.188-.442.293-.707.293-.266 0-.52-.105-.707-.293l-13.143-13.142-7.554 7.554v7.772l6.847-6.847c.391-.391 1.023-.391 1.414 0" fill="#fff"/><path d="m98.7 128.428 13.143 13.143 12.959-12.96c.391-.391 1.023-.391 1.414 0l9.998 9.997 13.674-13.674c.391-.391 1.023-.391 1.414 0l5.137 5.137v-7.857c-.088-.046-.177-.093-.25-.166l-5.594-5.594-13.674 13.675c-.391.391-1.024.391-1.414 0l-9.998-9.997-12.959 12.959c-.196.195-.452.293-.707.293-.256 0-.512-.098-.707-.293l-13.143-13.142-7.554 7.554v7.773l6.847-6.848c.375-.375 1.039-.375 1.414 0" fill="#dcddde"/><path d="m94.558 144.584h6.871l-3.436-3.436z" fill="#dcddde"/><path d="m144.6658 90.5842-7.745 7.745c-.188.188-.442.293-.707.293s-.52-.105-.707-.293l-7.745-7.745h-4.506l-10.706 10.707c-.188.188-.442.293-.707.293s-.52-.105-.707-.293l-10.707-10.707h-4.871l-5.119 5.119v7.773l6.847-6.848c.375-.375 1.039-.375 1.414 0l13.143 13.143 12.959-12.96c.391-.391 1.024-.391 1.414 0l9.998 9.997 13.674-13.675c.375-.375 1.039-.375 1.414 0l5.137 5.138v-7.687z" fill="#fff"/><path d="m156.4387 144.5842v-1.17c-.088-.046-.176-.092-.25-.166l-5.594-5.594-6.929 6.93zm6.9038-46c0 2.206 1.794 4 4 4s4-1.794 4-4-1.794-4-4-4-4 1.794-4 4" fill="#dcddde"/><path d="m98.64 172.084h7v-12h-7z" fill="#dcddde"/><path d="m161.052 169.1096h-9c-.552 0-1-.447-1-1v-2c0-.552.448-1 1-1h9c.552 0 1 .448 1 1v2c0 .553-.448 1-1 1zm-13-1c0 .553-.448 1-1 1h-9c-.552 0-1-.447-1-1v-2c0-.552.448-1 1-1h9c.552 0 1 .448 1 1zm-16.412 3.975h33v-9h-33z" fill="#f6f6f7"/><path d="m169.939 172.084h6 5.702 3v-12h-18v12z" fill="#f6f6f7"/><path d="m123.64 172.084h6v-12h-9-13v12h13z" fill="#f6f6f7"/><path d="m30.176 172.084h4v-4h-4z" fill="#dcddde"/><path d="m53.939 172.084h6 10.237 6v-4h-5-1-34v4z" fill="#dcddde"/><path d="m30.176 166.084h4v-4h-4z" fill="#dcddde"/><path d="m70.176 162.084h-6-28v4h34 1 5v-4z" fill="#f6f6f7"/><path d="m26.176 156.084h-3v4h4v-4z" fill="#dcddde"/><path d="m63.176 160.084h6v-4h-1-5-31-3v4h6z" fill="#dcddde"/><path d="m31.176 154.084v-4h-4v4h1z" fill="#dcddde"/><path d="m33.176 150.084v4h31 3 3 3v-4h-6-6.237-7-1z" fill="#f6f6f7"/><path d="m194.3059 16.5862c7.271-11.509 24.213-6.179 24.213 6.202-1.261 12.089-13.455 10.59-17.389 9.782-.711-.146-1.216-.771-1.216-1.498v-2.849c0-1.024.983-1.741 1.97-1.462 3.841 1.083 6.772.154 6.772-3.357 0-3.603-5.586-4.793-8.417-1.973-.585.582-1.495.669-2.123.134l-3.506-2.992c-.579-.493-.71-1.343-.304-1.987m11.361 30.095c-2.924 0-5.263-2.34-5.263-5.265 0-2.976 2.339-5.369 5.263-5.369 2.978 0 5.369 2.393 5.369 5.369 0 2.925-2.391 5.265-5.369 5.265m-2.609 10.389c7.4.599 14.265-1.63 19.642-5.713.452-.344 1.02-.493 1.578-.39l10.777 1.979c1.594.293 2.856-1.333 2.176-2.805l-4.818-10.44c-.221-.479-.235-1.024-.058-1.521 1.284-3.596 1.875-7.52 1.59-11.618-.978-14.043-12.339-25.465-26.378-26.485-17.557-1.274-32.056 13.32-30.621 30.905 1.126 13.811 12.301 24.973 26.112 26.088" fill="#b9bbbe"/><path d="m329.7298 172.0842h-38.793c-2.427 0-4.4-1.974-4.4-4.4s1.974-4.4 4.4-4.4h15c1.875 0 3.4-1.525 3.4-3.4v-4.8c0-6.065 4.935-11 11-11h2.293c1.709 0 3.1-1.391 3.1-3.1 0-1.71-1.391-3.1-3.1-3.1h-30.309c-1.281 0-2.5-.564-3.341-1.547-.85-.992-1.207-2.254-1.004-3.553.329-2.109 2.267-3.7 4.509-3.7h16.037c1.872 0 3.397-1.53 3.399-3.411.006-5.729 4.672-10.389 10.4-10.389h7.409.091 4.4c9.374 0 17 7.626 17 17v22.8c0 7.774-5.272 14.55-12.822 16.476-.059.014-.117.035-.172.061-.665.307-1.369.463-2.09.463zm-31.891-27.633c.634-.838 1.023-1.869 1.023-2.998v-1.569h2.556v1.569c0 1.653-1.343 2.998-2.993 2.998zm-7.166-4.487c-.044-.15.081-.283.233-.247.461.107.934.167 1.415.167h3.092c.8 0 1.449.649 1.449 1.45v.004c0 1.314-.782 2.57-2.035 2.964-2.047.642-3.936-.876-3.936-2.838 0-.522-.078-1.024-.218-1.5zm-4.372 32.12h-5.063-5.308c-1.786 0-3.508-.28-5.127-.794 1.97-3.95 3.084-8.397 3.084-13.103v-20.123h11.604c1.875 0 3.4 1.526 3.4 3.408 0 2.746 2.234 4.979 4.98 4.979.131 0 .254-.029.383-.039.064.014.124.039.192.039h3.979c2.753 0 4.993-2.242 4.993-4.998v-1.569h19.212c.606 0 1.1.494 1.1 1.1 0 .607-.494 1.1-1.1 1.1h-2.293c-7.169 0-13 5.832-13 13v4.8c0 .772-.628 1.4-1.4 1.4h-15c-3.529 0-6.4 2.871-6.4 6.401 0 1.704.674 3.251 1.764 4.399zm-17.369-1.525c-5.889-2.674-10.002-8.598-10.002-15.475v-7.293c0-.74.6-1.34 1.341-1.34 2.709 0 5.098-2.156 5.001-4.863-.07-1.931 1.481-3.524 3.397-3.524h3.218v20.123c0 4.449-1.07 8.651-2.955 12.372zm-31.45 1.525c-2.571 0-4.633-2.216-4.378-4.839.222-2.286 2.276-3.961 4.573-3.961h10.605c1.878 0 3.4-1.522 3.4-3.4v-4.8c0-3.512 1.66-6.636 4.23-8.651.066-.003.13-.015.196-.02.063.013.122.038.19.038h.632v8.633c0 5.311 2.196 10.11 5.723 13.556 1.291 1.261.43 3.444-1.376 3.444zm26.759-33.704c-.623.892-.985 1.979-.971 3.15.019 1.633-1.405 2.921-3.038 2.921h-.536c.616-.815 1-1.814 1.018-2.908.031-1.903 1.465-3.479 3.368-3.479h.002c.164 0 .251.182.157.316zm7.646-12.579v2.708h-.5c-.705 0-1.278-.573-1.278-1.278 0-.704.573-1.277 1.278-1.277.186 0 .351-.064.5-.153zm-19.144 15.507c0-.985.593-1.868 1.501-2.248.868-.365 1.652-.928 2.282-1.664 1.166-1.362 1.675-3.163 1.398-4.941-.323-2.076-1.749-3.786-3.642-4.614-.917-.401-1.539-1.269-1.539-2.269v-.618c0-5.108 4.141-9.249 9.249-9.249h4.555c2.95 0 5.34 2.391 5.34 5.34v3.062c-.149-.088-.314-.153-.5-.153-2.032 0-3.638 1.858-3.208 3.965.313 1.532 1.736 2.59 3.301 2.59h.407v5.555h-3.218-4.555c-2.94 0-5.507 2.354-5.402 5.292.064 1.783-1.442 3.237-3.242 3.084-1.573-.133-2.727-1.555-2.727-3.132zm-.868-3.763h-2.037c-.704 0-1.277-.573-1.277-1.277v-5.695c0-.704.573-1.277 1.277-1.277h1.881c2.103 0 3.921 1.491 4.229 3.468.19 1.217-.144 2.4-.941 3.331-.789.922-1.931 1.45-3.132 1.45zm13.596-23.979v.139h-3.479c-1.113 0-2.185.168-3.201.471-.006-.022-.014-.043-.02-.064-.104-.351-.052-.732.141-1.045.192-.31.494-.517.85-.581.732-.131 1.483-.197 2.23-.197h2.202c.704 0 1.277.573 1.277 1.277zm18.868.139v-.139c0-.704.574-1.277 1.278-1.277h2.202c.747 0 1.498.066 2.23.197.356.064.658.271.85.581.193.313.245.694.141 1.045-.011.038-.025.079-.036.118-1.071-.339-2.209-.525-3.39-.525zm-10.452-3.541v-.034c0-.778.53-1.502 1.299-1.629.977-.161 1.826.593 1.826 1.541v3.242h-.005c-1.723 0-3.12-1.396-3.12-3.12zm12.638 26.002c-.335-.065-.68-.102-1.034-.102h-11.604v-5.555h4.239c1.565 0 2.988-1.058 3.301-2.59.43-2.107-1.176-3.965-3.208-3.965h-1.474c-.553 0-1 .447-1 1s.447 1 1 1h1.474c.704 0 1.278.573 1.278 1.277 0 .705-.574 1.278-1.278 1.278h-4.332v-3.555-3.909c0-2.949 2.391-5.34 5.341-5.34h8.386c5.108 0 9.248 4.141 9.248 9.248v.681c0 .801-.649 1.45-1.449 1.45h-2.928c-3.218 0-6.006 2.318-6.485 5.392-.198 1.272-.003 2.551.525 3.69zm7.844-20.186c4.039.992 7.049 4.633 7.049 8.974v2.13h-2.556v-2.13c0-3.667-1.77-6.919-4.493-8.974zm6.421-.696h12.008c.879 0 1.341 1.063.722 1.687-2.219 2.236-3.595 5.309-3.598 8.7-.001.776-.624 1.413-1.4 1.413h-5.104v-2.13c0-3.116-1.277-5.933-3.333-7.97-.631-.626-.185-1.7.705-1.7zm-51.252-12.278c-.687-1.589.779-3.223 2.437-2.724 1.73.522 3.564.802 5.461.802h19.2c10.494 0 19-8.507 19-19v-7.8c0-4.529-3.671-8.2-8.2-8.2h-10.8c-.552 0-1 .447-1 1 .001.553.448 1 1 1h6.034 4.766c3.424 0 6.2 2.776 6.2 6.2v7.8c0 9.389-7.611 17-17 17h-2.553-16.647c-9.389 0-17-7.611-17-17v-7.8c0-3.424 2.776-6.2 6.2-6.2h18.446c.552 0 1-.447 1-1s-.448-1-1-1h-16.353c-.331 0-.599-.269-.599-.6 0-9.388 7.611-17 17-17h1.228 7 40.272c8.903 0 16.308 6.467 17.807 14.948-4.443 1.759-7.599 6.089-7.599 11.152v14c0 6.627 5.373 12 12 12h1.439.007c4.697 0 6.877 5.922 3.237 8.89-2.92 2.381-6.644 3.81-10.7 3.81h-.091-4.062-3.347-29.264c-.063-.444-.215-.877-.456-1.267-.488-.79-1.29-1.336-2.2-1.499-.848-.152-1.717-.229-2.582-.229h-2.202c-1.711 0-3.103 1.321-3.249 2.995h-3.356v-3.139c0-1.701-1.149-3.248-2.814-3.588-2.289-.47-4.311 1.275-4.311 3.485v.122c0 1.724-1.396 3.12-3.119 3.12h-1.325c-.146-1.674-1.539-2.995-3.249-2.995h-2.202c-.865 0-1.734.077-2.582.229-.697.125-1.326.476-1.804.988-3.597-1.786-6.47-4.803-8.068-8.5zm20.82-58.522h7 50.107c7.125 0 13.592 3.932 16.876 10.261.248.476.823.662 1.305.44.014-.007.029-.006.043-.013.49-.255.682-.859.427-1.349-.283-.546-.588-1.076-.913-1.589-.669-1.054.792-2.12 1.609-1.175 2.319 2.68 3.901 6.015 4.433 9.688.141.973-.64 1.838-1.622 1.837h-.019-2.184-3.582c-.219 0-.434.021-.651.033-.195-.01-.387-.033-.583-.033h-6.766c-.368 0-.733.018-1.092.051-.772.071-1.497-.397-1.694-1.147-2.262-8.62-10.102-15.004-19.422-15.004h-39.101-4.146c-1.291 0-1.355-1.983-.064-2zm89.246 30.1v14c0 5.514-4.486 10-10 10h-.381c3.239-2.151 5.381-5.828 5.381-10 0-.553-.447-1-.999-1h-.001c-.552 0-1 .447-1 1 0 5.514-4.486 10-10 10h-6.766c-5.514 0-10-4.486-10-10v-14c0-5.514 4.486-10 10-10h6.766c3.106 0 5.984 1.408 7.896 3.862.327.42.921.499 1.354.2.016-.011.034-.013.049-.025.436-.339.514-.968.175-1.403-.814-1.046-1.78-1.925-2.847-2.634h.373c5.514 0 10 4.486 10 10zm-160.877 113.349h-3.417c-.705 0-1.277-.573-1.277-1.278s.572-1.277 1.277-1.277h3.417c.704 0 1.277.573 1.277 1.277s-.573 1.278-1.277 1.278zm-14.086-17.849c0 1.104-.895 2-2 2h-1-5.702-6-1.298c-1.105 0-2-.896-2-2v-8c0-1.104.895-2 2-2h14c1.105 0 2 .896 2 2zm-20-11c0 1.104-.895 2-2 2h-29c-1.105 0-2-.896-2-2 0-.553-.448-1-1-1h-9-15-9c-.553 0-1 .447-1 1v13h-5.702v-14.998c0-1.657 1.343-3 3-3h56 15c1.657 0 3 1.343 3 3v.998h-2.298c-.553 0-1 .447-1 1zm-2 13h-29c-1.105 0-2-.896-2-2v-5c0-1.104.895-2 2-2h29c1.105 0 2 .896 2 2v5c0 1.104-.895 2-2 2zm-33-2c0 1.104-.895 2-2 2h-4-3-11c-1.105 0-2-.896-2-2v-8c0-1.104.895-2 2-2h11 7c1.105 0 2 .896 2 2zm-26 2h-3c-1.105 0-2-.896-2-2v-8c0-1.104.895-2 2-2h3c1.105 0 2 .896 2 2v8c0 1.104-.895 2-2 2zm72.298-17v3h-6v-3c0-1.657 1.343-3 3-3s3 1.343 3 3zm-93-9v-58c0-2.209 1.791-4 4-4h62 23c2.209 0 4 1.791 4 4v58c0 2.209-1.791 4-4 4h-3-20-59-3c-2.209 0-4-1.791-4-4zm6 26h-6v-17c0-1.657 1.343-3 3-3s3 1.343 3 3zm-12-22h-1.763v-1c0-.553-.447-1-1-1h-6-10.237c-2.209 0-4-1.791-4-4v-56c0-2.209 1.791-4 4-4h19c2.209 0 4 1.791 4 4v58c0 2.209-1.791 4-4 4zm2.62 22h-.003c-.762 0-1.38-.618-1.38-1.38v-3.62-6c0-.553-.447-1-1-1h-4.62c-.762 0-1.38-.618-1.38-1.38v-1.24c0-.762.618-1.38 1.38-1.38h1.62c.553 0 1-.447 1-1v-3h2.763c1.657 0 3 1.343 3 3v15.62c0 .762-.618 1.38-1.38 1.38zm-3.383-7.001h-5-1-34v-.999c0-1.104.895-2 2-2h26 6 4c1.105 0 2 .896 2 2zm0 7.001h-6-10.237-6-17.763v-4h34 1 5zm-47-12v-4h3 31 5 1v4h-6-28zm5 4.999h-4v-.999c0-1.104.895-2 2-2s2 .896 2 2zm-4 7.001h4v-4h-4zm-2-18h-1v-4h4v2c0 1.104-.895 2-2 2zm-1 6h-4v-4h3 1zm6-10h19.763 1 7 6.237 6v2c0 1.104-.895 2-2 2h-1-3-3-29c-1.105 0-2-.896-2-2zm367.824 22h-52.114c-1.802 0-2.669-2.18-1.38-3.439 3.562-3.481 5.715-8.314 5.715-13.561v-22.8c0-7.805-4.735-14.515-11.482-17.431-1.413-.611-1.709-2.496-.482-3.425 3.175-2.403 5.571-5.778 6.745-9.681.21-.699.873-1.163 1.602-1.163 6.627 0 12-5.373 12-12v-14c0-5.27-3.419-9.747-8.151-11.355-.14-11.461-9.494-20.745-20.988-20.745h-5-50.107-7c-2.414 0-4.434 1.721-4.899 4h-.329c-10.493 0-19 8.507-19 19v.625c-4.285.264-7.694 3.825-7.694 8.175v7.8c0 6.264 3.06 11.812 7.749 15.274.394 7.007 4.589 12.997 10.564 15.952-.061.454-.028.92.104 1.369.024.08.052.163.076.243-3.663 1.857-6.186 5.651-6.186 10.032v2.342h-.905c-1.81 0-3.277 1.468-3.277 3.277v5.695c0 1.809 1.467 3.277 3.277 3.277h.905v1.921c0 1.941 1.127 3.608 2.75 4.431-2.353 2.354-3.811 5.604-3.811 9.187v4.8c0 .773-.627 1.4-1.4 1.4h-10.524c-3.607 0-6.714 2.863-6.675 6.469.011 1.047.276 2.033.736 2.902.344.65-.168 1.429-.902 1.429h-40.276c-2.209 0-4-1.791-4-4v-9c0-.553-.448-1-1-1h-5.702c-1.105 0-2-.896-2-2v-5-66c0-1.657-1.343-3-3-3h-25-6.93c-.891 0-1.337-1.077-.707-1.707l17.248-17.248c.39-.391.39-1.024 0-1.414-.391-.391-1.024-.391-1.414 0l-11.704 11.704c-5.549 5.548-13.074 8.665-20.92 8.665-7.847 0-15.372-3.117-20.92-8.665l-11.705-11.704c-.39-.391-1.023-.391-1.414 0-.39.39-.39 1.023 0 1.414l17.249 17.248c.63.63.184 1.707-.707 1.707h-26.076-27c-1.657 0-3 1.343-3 3v57c0 3.313-2.686 6-6 6h-13.763-6c-.552 0-1 .447-1 1v3.62c0 .762-.618 1.38-1.38 1.38h-1.62c-.552 0-1 .447-1 1v6c0 .553.448 1 1 1h1c2.762 0 5 2.238 5 5s-2.238 5-5 5h-22.176c-.552 0-1 .447-1 1s.448 1 1 1h28.176 6 17.763 8 10.237 6 4.763 8 7.702 9 15 1 8 35 3.298 8 5.702 3 51.841 29.316c-4.984 6.996-13.154 11.571-22.38 11.571h-41.374c-.645 0-1.26-.303-1.621-.838-.587-.867-1.572-1.439-2.696-1.439h-5.694-2.847c-.553 0-1 .447-1 1s.447 1 1 1h.569c.706 0 1.278.572 1.278 1.277s-.572 1.278-1.278 1.278h-.569c-.553 0-1 .447-1 1 0 .552.447 1 1 1h2.847 5.694c1.124 0 2.109-.573 2.696-1.44.361-.534.976-.838 1.621-.838h41.374c10.397 0 19.547-5.417 24.794-13.571h6.718 5.308 9.699 38.793 6.407 64.863c.552 0 1-.447 1-1s-.448-1-1-1z" fill="#b9bbbe"/><path d="m346.0364 59.4514c.101.469.516.789.977.789.054 0 .108-.008.163-.018.016-.001.032 0 .048-.004.54-.117.883-.649.767-1.189-.089-.411-.19-.817-.302-1.219-.149-.532-.699-.844-1.232-.694-.014.004-.024.015-.038.02-.506.165-.8.695-.656 1.211.102.365.193.732.273 1.104m24.0781 75.1817c.205-.016.409-.023.612-.023 2.123 0 4.164.839 5.678 2.353 1.659 1.658 2.508 3.951 2.33 6.29-.252 3.318-2.567 6.172-5.761 7.104l-12.663 3.693c-.41.119-.69-.102-.79-.203-.101-.101-.322-.379-.202-.789l3.693-12.663c.932-3.194 3.786-5.509 7.103-5.762zm-12.716 17.864c-.291.997-.026 2.031.707 2.764.533.533 1.248.821 1.981.821.261 0 .525-.037.783-.112l12.664-3.693c3.989-1.165 6.88-4.729 7.195-8.872.222-2.921-.838-5.785-2.91-7.856s-4.936-3.135-7.856-2.91c-4.142.316-7.708 3.208-8.871 7.195zm-203.2596-56.5271-2.591-2.591c-.524-.524-1.382-.524-1.906 0l-12.475 12.476c-.527.526-1.38.526-1.906 0l-8.799-8.798c-.526-.526-1.379-.526-1.906 0l-11.76 11.761c-.527.526-1.38.526-1.906 0l-11.944-11.944c-.524-.524-1.382-.524-1.906 0l-4.301 4.301c-.849.85-2.3.248-2.3-.952v-3.962c0-.356.142-.699.395-.952l4.329-4.33c.253-.253.596-.395.953-.395h3.754c.358 0 .701.142.954.395l10.312 10.312c.187.188.441.293.707.293.265 0 .519-.105.707-.293l10.312-10.312c.253-.253.595-.395.952-.395h3.39c.357 0 .7.142.953.395l7.35 7.35c.187.188.442.293.707.293s.519-.105.707-.293l7.35-7.35c.253-.253.596-.395.953-.395h9.868c.744 0 1.347.604 1.347 1.348v3.085c0 1.201-1.451 1.802-2.3.953zm0 10.601-2.591-2.591c-.524-.525-1.382-.525-1.906 0l-12.475 12.475c-.527.527-1.38.527-1.906 0l-8.799-8.798c-.524-.525-1.382-.525-1.906 0l-11.76 11.76c-.527.527-1.38.527-1.906 0l-11.944-11.943c-.524-.525-1.382-.525-1.906 0l-4.301 4.301c-.849.849-2.3.248-2.3-.952v-3.961c0-.357.142-.7.395-.953l6.206-6.207c.527-.526 1.38-.526 1.906 0l12.19 12.19c.187.187.441.293.707.293.265 0 .519-.106.707-.293l12.006-12.007c.527-.526 1.38-.526 1.906 0l8.799 8.798c.526.526 1.379.526 1.906 0l12.475-12.476c.527-.526 1.38-.526 1.906 0l4.641 4.642c.074.073.162.12.25.166v4.602c0 1.201-1.451 1.802-2.3.954zm0 10.599-2.591-2.591c-.524-.524-1.382-.524-1.906 0l-12.475 12.476c-.527.526-1.38.526-1.906 0l-8.799-8.798c-.526-.526-1.379-.526-1.906 0l-11.76 11.76c-.527.526-1.38.526-1.906 0l-11.944-11.943c-.526-.526-1.379-.526-1.906 0l-4.301 4.301c-.849.849-2.3.247-2.3-.953v-3.961c0-.356.142-.699.395-.952l6.206-6.207c.527-.526 1.38-.526 1.906 0l12.19 12.189c.187.188.441.293.707.293.265 0 .519-.105.707-.293l12.006-12.006c.527-.527 1.38-.527 1.906 0l9.045 9.045c.187.187.442.293.707.293s.519-.106.707-.293l12.721-12.722c.527-.526 1.38-.526 1.906 0l4.641 4.641c.074.073.162.12.25.166v4.602c0 1.2-1.451 1.802-2.3.953zm0 10.601-2.591-2.591c-.526-.526-1.379-.526-1.906 0l-12.475 12.475c-.527.526-1.38.526-1.906 0l-8.799-8.798c-.526-.527-1.379-.527-1.906 0l-11.76 11.76c-.527.527-1.38.527-1.906 0l-11.944-11.943c-.524-.524-1.382-.524-1.906 0l-4.301 4.301c-.849.849-2.3.248-2.3-.952v-3.961c0-.358.142-.7.395-.953l6.206-6.206c.527-.527 1.38-.527 1.906 0l12.19 12.188c.195.195.451.293.707.293.255 0 .511-.098.707-.293l12.006-12.006c.527-.526 1.38-.526 1.906 0l8.799 8.798c.526.526 1.379.526 1.906 0l12.475-12.476c.527-.526 1.38-.526 1.906 0l4.641 4.641c.074.073.162.12.25.166v4.604c0 1.2-1.451 1.801-2.3.953zm0 10.599-2.591-2.59c-.524-.525-1.382-.525-1.906 0l-8.41 8.41c-.252.253-.595.394-.952.394h-8.132c-.357 0-.7-.141-.952-.394l-4.734-4.734c-.524-.524-1.382-.524-1.906 0l-4.733 4.734c-.252.253-.595.394-.953.394h-14.055c-.357 0-.7-.141-.953-.394l-4.916-4.916c-.524-.525-1.382-.525-1.906 0l-4.916 4.916c-.252.253-.595.394-.952.394h-.733v-5.923c0-.356.142-.699.395-.952l6.206-6.207c.527-.526 1.38-.526 1.906 0l12.19 12.19c.187.187.441.293.707.293.265 0 .519-.106.707-.293l12.006-12.007c.527-.527 1.38-.527 1.906 0l8.799 8.798c.526.526 1.379.526 1.906 0l12.475-12.475c.527-.526 1.38-.526 1.906 0l4.641 4.641c.074.074.162.12.25.166v4.602c0 1.2-1.451 1.802-2.3.953zm2.3 6.214h-9.52c-1.201 0-1.802-1.451-.953-2.3l3.676-3.676c.527-.527 1.38-.527 1.906 0l4.641 4.64c.074.075.162.12.25.166zm-31.883-2.3c.527-.526 1.38-.526 1.906 0 .849.849.248 2.3-.953 2.3-1.2 0-1.801-1.451-.953-2.3zm-27.698 0 .182-.182c.527-.527 1.38-.527 1.906 0l.183.182c.848.849.247 2.3-.953 2.3h-.365c-1.201 0-1.802-1.451-.953-2.3zm-6.419-50.352c0-.744.603-1.348 1.347-1.348h.944l-2.291 2.291zm27.689.952-5.332 5.333c-.527.526-1.38.526-1.906 0l-5.333-5.333c-.849-.849-.248-2.3.953-2.3h10.666c1.2 0 1.801 1.451.952 2.3zm21.41 0-2.371 2.371c-.527.527-1.38.527-1.906 0l-2.371-2.371c-.849-.849-.248-2.3.953-2.3h4.742c1.2 0 1.802 1.451.953 2.3zm18.901 52.353v-55.305c0-.744-.603-1.348-1.347-1.348h-67.306c-.744 0-1.347.604-1.347 1.348v55.305c0 .744.603 1.347 1.347 1.347h67.306c.744 0 1.347-.603 1.347-1.347zm8.9036-50.6528c2.206 0 4 1.794 4 4s-1.794 4-4 4-4-1.794-4-4 1.794-4 4-4m0 10c3.309 0 6-2.691 6-6s-2.691-6-6-6-6 2.691-6 6 2.691 6 6 6m0 5c2.206 0 4 1.794 4 4s-1.794 4-4 4-4-1.794-4-4 1.794-4 4-4m0 10c3.309 0 6-2.691 6-6s-2.691-6-6-6-6 2.691-6 6 2.691 6 6 6m-29.2905 49.5254h9c.552 0 1-.447 1-1v-2c0-.552-.448-1-1-1h-9c-.552 0-1 .448-1 1v2c0 .553.448 1 1 1m14 0h9c.552 0 1-.447 1-1v-2c0-.552-.448-1-1-1h-9c-.552 0-1 .448-1 1v2c0 .553.448 1 1 1m101.4551-149.998h.51c.553 0 1 .447 1 1v.51c0 .553.448 1 1 1 .553 0 1-.447 1-1v-.51c0-.553.448-1 1-1h.51c.552 0 1-.447 1-1s-.448-1-1-1h-.51c-.552 0-1-.447-1-1v-.51c0-.552-.447-1-1-1-.552 0-1 .448-1 1v.51c0 .553-.447 1-1 1h-.51c-.552 0-1 .447-1 1s.448 1 1 1m-134.3765-7.8887h.51c.552 0 1 .447 1 1v.51c0 .553.448 1 1 1s1-.447 1-1v-.51c0-.553.448-1 1-1h.51c.552 0 1-.447 1-1s-.448-1-1-1h-.51c-.552 0-1-.447-1-1v-.51c0-.552-.448-1-1-1s-1 .448-1 1v.51c0 .553-.448 1-1 1h-.51c-.552 0-1 .447-1 1s.448 1 1 1m38.8765 9.0723c.256 0 .512-.098.707-.293l1.183-1.184c.391-.39.391-1.023 0-1.414-.39-.39-1.024-.39-1.414 0l-1.183 1.184c-.391.391-.391 1.023 0 1.414.195.195.451.293.707.293m-5.916 5.916c.256 0 .512-.098.707-.293l1.183-1.184c.391-.39.391-1.023 0-1.414-.39-.39-1.024-.39-1.414 0l-1.183 1.184c-.391.391-.391 1.023 0 1.414.195.195.451.293.707.293m6.3921-.293c.195.195.451.293.707.293s.512-.098.707-.293c.391-.391.391-1.023 0-1.414l-1.183-1.184c-.391-.39-1.023-.39-1.414 0-.391.391-.391 1.024 0 1.414zm-5.916-5.916c.195.195.451.293.707.293s.512-.098.707-.293c.391-.391.391-1.023 0-1.414l-1.183-1.184c-.391-.39-1.023-.39-1.414 0-.391.391-.391 1.024 0 1.414zm-4.5152 19.8516c.833 0 1.51.678 1.51 1.51 0 .833-.677 1.511-1.51 1.511s-1.51-.678-1.51-1.511c0-.832.677-1.51 1.51-1.51m0 5.021c1.935 0 3.51-1.576 3.51-3.511 0-1.936-1.575-3.51-3.51-3.51-1.936 0-3.51 1.574-3.51 3.51 0 1.935 1.574 3.511 3.51 3.511m160.3848 36.8764c2.475 0 4.5-2.025 4.5-4.5 0-2.476-2.025-4.5-4.5-4.5s-4.5 2.024-4.5 4.5c0 2.475 2.025 4.5 4.5 4.5" fill="#b9bbbe"/><path d="m108.5594 200.594h17.913c6.049 0 10.999-4.949 10.999-10.999s-4.95-10.999-10.999-10.999h-17.913c-6.049 0-10.999 4.949-10.999 10.999s4.95 10.999 10.999 10.999" fill="#f6f6f7"/></g></svg>