<svg xmlns="http://www.w3.org/2000/svg" xmlns:xlink="http://www.w3.org/1999/xlink" width="210" height="92" viewBox="0 0 210 92">
  <defs>
    <polygon id="a" points="0 0 208.376 0 208.376 92 0 92"/>
  </defs>
  <g fill="none" fill-rule="evenodd" transform="translate(1)">
    <path fill="#FFFFFF" d="M193.4797 57.7935C196.8027 54.9435 198.9167 50.7215 198.9167 45.9995 198.9167 38.3895 193.4427 32.0675 186.2187 30.7315 188.6547 35.2855 190.0407 40.4835 190.0407 46.0005 190.0407 54.8925 186.4477 62.9575 180.6417 68.8315 181.5397 68.9395 182.4507 69.0005 183.3757 69.0005 189.3157 69.0005 194.7367 66.7365 198.8217 63.0275 197.4147 60.9325 195.5857 59.1605 193.4797 57.7935M177.1984 69.2935C175.5214 66.7065 173.3534 64.4825 170.8364 62.7345 167.1804 65.6455 162.5644 67.3975 157.5404 67.3975 156.7244 67.3975 155.9234 67.3415 155.1324 67.2525 154.1594 70.5275 152.1884 73.3695 149.5724 75.4375 152.1134 76.1265 154.7834 76.5005 157.5404 76.5005 165.0244 76.5005 171.8854 73.7845 177.1984 69.2935"/>
    <path fill="#FFFFFF" d="M157.5402 65.397C168.2352 65.397 176.9372 56.696 176.9372 46.001 176.9372 35.303 168.2352 26.602 157.5402 26.602 156.4252 26.602 155.3392 26.717 154.2742 26.899 155.2512 28.994 155.8122 31.319 155.8122 33.778L155.8122 36.731C159.4802 37.028 162.3762 40.101 162.3762 43.843L162.3762 50.497C162.3762 55.864 159.7672 60.62 155.7622 63.604 155.7282 64.177 155.6642 64.742 155.5722 65.297 156.2192 65.364 156.8762 65.397 157.5402 65.397M18.3356 46.0005C18.3356 40.4835 19.7216 35.2855 22.1566 30.7305 14.9336 32.0675 9.4596 38.3895 9.4596 45.9995 9.4596 50.7215 11.5726 54.9435 14.8966 57.7935 12.7856 59.1625 10.9546 60.9385 9.5466 63.0375 12.2516 65.4935 15.5596 67.3325 19.2856 68.2845 19.8126 68.4195 20.1286 68.9495 20.0076 69.4765 21.6186 69.8165 23.2876 69.9995 25.0006 69.9995 26.2426 69.9995 27.4636 69.9045 28.6556 69.7235 22.3116 63.7885 18.3356 55.3525 18.3356 46.0005M50.8361 76.5005C55.7561 76.5005 60.4031 75.3215 64.5231 73.2435 62.7171 70.7955 61.1521 68.1605 59.8541 65.3775 57.1081 66.6595 54.0611 67.3965 50.8361 67.3965 45.8121 67.3965 41.1951 65.6455 37.5401 62.7345 35.0221 64.4825 32.8541 66.7075 31.1781 69.2935 36.4911 73.7845 43.3511 76.5005 50.8361 76.5005"/>
    <path fill="#FFFFFF" d="M50.8361,26.6021 C40.1411,26.6021 31.4381,35.3031 31.4381,46.0001 C31.4381,56.6961 40.1411,65.3971 50.8361,65.3971 C53.7731,65.3971 56.5481,64.7221 59.0451,63.5491 C56.8031,58.1381 55.5591,52.2121 55.5591,46.0001 C55.5591,39.7881 56.8031,33.8621 59.0451,28.4511 C56.5481,27.2771 53.7731,26.6021 50.8361,26.6021"/>
    <path fill="#F6F6F7" d="M98.676,46.1909 C98.676,44.1799 100.322,42.5359 102.332,42.5359 L102.697,42.5359 C104.708,42.5359 106.354,44.1799 106.354,46.1909 L106.354,46.5569 C106.354,48.5679 104.708,50.2119 102.697,50.2119 L102.332,50.2119 C100.322,50.2119 98.676,48.5679 98.676,46.5569 L98.676,46.1909 Z M102.777,78.9649 C102.224,78.9649 101.777,78.5179 101.777,77.9649 C101.777,77.4129 102.224,76.9649 102.777,76.9649 L139.458,76.9649 C146.566,76.9649 152.467,71.7669 153.601,64.9759 C151.332,66.1689 148.756,66.8519 146.021,66.8519 L129.643,66.8519 C120.624,66.8519 113.287,59.5149 113.287,50.4969 L113.287,43.8429 C113.287,39.9049 116.491,36.7019 120.43,36.7019 L129.643,36.7019 C130.196,36.7019 130.643,37.1489 130.643,37.7019 L138.499,37.7019 C138.499,37.1489 138.947,36.7019 139.499,36.7019 L153.813,36.7019 L153.813,33.7779 C153.813,26.0999 147.749,19.8299 140.162,19.4589 C140.062,20.8599 139.661,22.1889 138.954,23.4069 C138.676,23.8849 138.066,24.0449 137.588,23.7689 C137.569,23.7579 137.558,23.7389 137.54,23.7269 C137.209,24.1729 136.839,24.5959 136.429,24.9899 C136.439,25.0019 136.454,25.0059 136.464,25.0189 C136.811,25.4489 136.743,26.0789 136.314,26.4239 C134.659,27.7579 132.522,28.8069 130.131,29.4589 C128.349,29.9439 126.497,30.1939 124.703,30.1939 C124.224,30.1939 123.749,30.1749 123.28,30.1389 C114.931,29.5009 107.364,26.4869 101.398,21.4239 C101.075,21.1509 100.533,20.6919 100.276,20.0119 C100.2,19.8159 100.163,19.6189 100.143,19.4219 L87.417,19.4219 C82.152,21.4149 78.244,26.2149 77.564,31.9809 L81.414,31.9809 C81.967,31.9809 82.414,32.4279 82.414,32.9809 C82.414,33.5339 81.967,33.9809 81.414,33.9809 L68.96,33.9809 C65.279,33.9809 62.282,36.9769 62.282,40.6589 L62.282,52.9419 C62.282,56.6249 65.279,59.6199 68.96,59.6199 L81.414,59.6199 C81.967,59.6199 82.414,60.0679 82.414,60.6199 C82.414,61.1719 81.967,61.6199 81.414,61.6199 L77.448,61.6199 L77.448,62.6109 C77.448,69.1599 81.612,74.7699 87.416,76.9649 L94.246,76.9649 C94.799,76.9649 95.246,77.4129 95.246,77.9649 C95.246,78.5179 94.799,78.9649 94.246,78.9649 L86.863,78.9649 L84.273,78.9649 L72.462,78.9649 C80.224,85.8249 90.41,90.0009 101.559,90.0009 C112.707,90.0009 122.894,85.8249 130.655,78.9649 L102.777,78.9649 Z"/>
    <path fill="#DCDDDE" d="M77.4484 62.6108L77.4484 61.6198 69.9184 61.6198 69.9184 62.6098C69.9184 70.5258 76.3574 76.9648 84.2724 76.9648L86.8624 76.9648 87.4164 76.9648C81.6114 74.7698 77.4484 69.1598 77.4484 62.6108M87.4172 19.4224L84.2722 19.4224C76.9672 19.4224 70.9312 24.9114 70.0432 31.9814L77.5632 31.9814C78.2442 26.2154 82.1512 21.4144 87.4172 19.4224"/>
    <path fill="#FFFFFF" d="M142.6496,56.3091 C142.6496,57.6881 141.5216,58.8161 140.1426,58.8161 L135.1286,58.8161 C133.7506,58.8161 132.6216,57.6881 132.6216,56.3091 C132.6216,54.9301 133.7506,53.8021 135.1286,53.8021 L140.1426,53.8021 C141.5216,53.8021 142.6496,54.9301 142.6496,56.3091 Z M152.1476,53.8021 C153.5266,53.8021 154.6546,54.9301 154.6546,56.3091 C154.6546,57.6881 153.5266,58.8161 152.1476,58.8161 L149.1386,58.8161 C147.7596,58.8161 146.6316,57.6881 146.6316,56.3091 C146.6316,54.9301 147.7596,53.8021 149.1386,53.8021 L152.1476,53.8021 Z M130.6426,37.7021 C130.6426,38.2541 130.1956,38.7021 129.6426,38.7021 L120.4296,38.7021 C117.5936,38.7021 115.2876,41.0081 115.2876,43.8431 L115.2876,50.4971 C115.2876,58.4131 121.7266,64.8521 129.6426,64.8521 L146.0206,64.8521 C153.9366,64.8521 160.3766,58.4131 160.3766,50.4971 L160.3766,43.8431 C160.3766,41.0081 158.0696,38.7021 155.2336,38.7021 L139.4996,38.7021 C138.9466,38.7021 138.4996,38.2541 138.4996,37.7021 L130.6426,37.7021 Z"/>
    <path fill="#DCDDDE" d="M135.1291 53.8022C133.7501 53.8022 132.6211 54.9302 132.6211 56.3092 132.6211 57.6882 133.7501 58.8162 135.1291 58.8162L140.1431 58.8162C141.5221 58.8162 142.6501 57.6882 142.6501 56.3092 142.6501 54.9302 141.5221 53.8022 140.1431 53.8022L135.1291 53.8022zM146.632 56.3091C146.632 57.6881 147.76 58.8161 149.139 58.8161L152.148 58.8161C153.527 58.8161 154.654 57.6881 154.654 56.3091 154.654 54.9301 153.527 53.8021 152.148 53.8021L149.139 53.8021C147.76 53.8021 146.632 54.9301 146.632 56.3091M137.2258 22.4019C138.3898 20.3959 138.5118 18.0709 137.5858 15.4919 137.5618 15.4239 137.5288 15.3619 137.5028 15.2959 133.6488 17.8059 129.1848 19.5179 124.3758 20.2639 124.3248 20.2719 124.2728 20.2759 124.2218 20.2759 123.7368 20.2759 123.3118 19.9229 123.2348 19.4279 123.1498 18.8829 123.5238 18.3719 124.0698 18.2879 128.6588 17.5759 132.9108 15.9329 136.5648 13.5219 135.5768 12.0809 134.1578 10.9109 132.4068 10.1449 129.5108 8.8779 126.1038 8.8359 123.2898 10.0299 121.7708 10.6759 120.3698 11.5339 118.8868 12.4439 118.0978 12.9269 117.3088 13.4109 116.5018 13.8599 113.7968 15.3699 110.8928 16.5039 107.8718 17.2309 106.8308 17.4819 105.7728 17.6839 104.7268 17.8349L104.5528 17.8589C103.8408 17.9599 103.1678 18.0529 102.6728 18.3589 102.2968 18.5899 102.0448 19.0399 102.1448 19.3009 102.2138 19.4839 102.4538 19.6959 102.6918 19.8989 108.3348 24.6859 115.5068 27.5379 123.4328 28.1449 125.4248 28.2979 127.5628 28.0849 129.6058 27.5289 131.7318 26.9499 133.6178 26.0299 135.0578 24.8679 135.4778 24.5299 136.0778 24.5929 136.4288 24.9899 136.8388 24.5959 137.2088 24.1729 137.5398 23.7269 137.1058 23.4349 136.9578 22.8609 137.2258 22.4019"/>
    <path fill="#F6F6F7" d="M196.2346,26.9272 C192.4316,24.3582 187.9856,23.0002 183.3766,23.0002 C182.4506,23.0002 181.5396,23.0612 180.6416,23.1682 C182.8456,25.3982 184.7286,27.9442 186.2186,30.7312 C193.4426,32.0682 198.9166,38.3892 198.9166,45.9992 C198.9166,50.7212 196.8026,54.9442 193.4796,57.7932 C195.5866,59.1602 197.4146,60.9322 198.8216,63.0282 C203.4596,58.8172 206.3766,52.7422 206.3766,46.0002 C206.3766,41.5042 205.0796,37.1502 202.6266,33.4062 C202.3286,32.9532 202.4516,32.3512 202.8936,32.0422 C201.4216,29.9882 199.6376,28.1742 197.6056,26.6752 C197.2936,27.1142 196.6836,27.2322 196.2346,26.9272"/>
    <path fill="#F6F6F7" d="M157.5402 15.5005C152.9762 15.5005 148.6452 16.5155 144.7542 18.3195 148.2922 19.5355 151.2802 21.9285 153.2552 25.0335 154.6402 24.7515 156.0722 24.6025 157.5402 24.6025 169.3392 24.6025 178.9372 34.2015 178.9372 46.0005 178.9372 52.0315 176.4192 57.4795 172.3902 61.3715 174.8592 63.1585 177.0052 65.3795 178.7042 67.9305 184.4532 62.3805 188.0402 54.6035 188.0402 46.0005 188.0402 29.1825 174.3572 15.5005 157.5402 15.5005M24.9997 23.0005C12.3177 23.0005 1.9997 33.3175 1.9997 46.0005 1.9997 52.6685 4.8627 58.7845 9.5467 63.0375 10.9547 60.9385 12.7857 59.1625 14.8957 57.7935 11.5727 54.9435 9.4587 50.7215 9.4587 45.9995 9.4587 38.3895 14.9337 32.0675 22.1567 30.7305 23.6467 27.9435 25.5297 25.3975 27.7337 23.1685 26.8367 23.0615 25.9257 23.0005 24.9997 23.0005"/>
    <path fill="#F6F6F7" d="M35.9855,61.3716 C31.9565,57.4776 29.4385,52.0316 29.4385,46.0006 C29.4385,34.2016 39.0375,24.6016 50.8365,24.6016 C54.0605,24.6016 57.1085,25.3396 59.8535,26.6226 C61.1525,23.8386 62.7165,21.2046 64.5225,18.7566 C60.4035,16.6786 55.7565,15.5006 50.8365,15.5006 C34.0185,15.5006 20.3355,29.1826 20.3355,46.0006 C20.3355,54.6026 23.9225,62.3796 29.6715,67.9306 C31.3705,65.3796 33.5155,63.1586 35.9855,61.3716"/>
    <path fill="#FFFFFF" d="M117.802,5.0942 C112.635,3.0412 107.17,2.0002 101.559,2.0002 C77.297,2.0002 57.559,21.7392 57.559,46.0002 C57.559,58.0652 62.443,69.0082 70.334,76.9652 L76.446,76.9652 C71.369,74.1862 67.918,68.7942 67.918,62.6102 L67.918,61.5512 C63.623,61.0342 60.282,57.3742 60.282,52.9422 L60.282,40.6582 C60.282,36.1942 63.672,32.5082 68.014,32.0342 C68.887,23.8332 75.844,17.4222 84.273,17.4222 L100.782,17.4222 C101.026,17.1152 101.313,16.8472 101.625,16.6552 C102.476,16.1312 103.432,15.9962 104.275,15.8782 L104.444,15.8542 C105.428,15.7132 106.424,15.5232 107.403,15.2872 C110.247,14.6022 112.982,13.5332 115.528,12.1142 C116.311,11.6772 117.076,11.2072 117.841,10.7392 C119.322,9.8302 120.852,8.8932 122.509,8.1892 C123.249,7.8742 124.028,7.6442 124.823,7.4742 C122.994,6.3672 121.081,5.3862 119.094,4.5442 C118.886,5.0502 118.311,5.2972 117.802,5.0942"/>
    <mask id="b" fill="white">
      <use xlink:href="#a"/>
    </mask>
    <path fill="#B9BBBE" d="M175.5402,64.063 L175.4762,63.999 C173.9312,62.459 173.8172,60.021 175.0712,58.235 C178.0542,53.984 179.5332,48.609 178.7132,42.874 C177.3892,33.609 169.9632,26.18 160.7012,24.833 C159.0212,24.587 157.3722,24.542 155.7732,24.674 C154.2882,24.797 152.8292,24.268 151.8532,23.143 C151.8242,23.11 151.7952,23.077 151.7662,23.042 C149.3522,20.26 151.1342,15.953 154.8032,15.623 C156.9312,15.431 159.1222,15.46 161.3542,15.735 C175.4002,17.461 186.5482,28.927 187.8962,43.015 C188.6282,50.657 186.5162,57.793 182.4992,63.5 C180.8582,65.831 177.5522,66.084 175.5402,64.063 M157.5402,76.501 C157.0302,76.501 156.5242,76.487 156.0212,76.462 C153.4162,76.332 151.9912,73.406 153.3652,71.188 C153.7292,70.6 154.0582,69.988 154.3462,69.354 C154.9052,68.125 156.1652,67.396 157.5162,67.397 L157.5402,67.397 C161.7272,67.397 165.6312,66.18 168.9312,64.09 C170.2212,63.274 171.9122,63.465 173.0552,64.478 C173.6972,65.048 174.3092,65.653 174.8862,66.29 C176.2982,67.846 176.0442,70.313 174.2902,71.471 C169.4792,74.647 163.7232,76.501 157.5402,76.501 M155.8122,36.731 L155.8122,33.778 C155.8122,31.319 155.2512,28.994 154.2742,26.899 C155.3392,26.717 156.4252,26.602 157.5402,26.602 C168.2352,26.602 176.9372,35.303 176.9372,46.001 C176.9372,56.696 168.2352,65.397 157.5402,65.397 C156.8762,65.397 156.2192,65.364 155.5722,65.297 C155.6642,64.742 155.7282,64.177 155.7622,63.604 C159.7672,60.62 162.3762,55.864 162.3762,50.497 L162.3762,43.843 C162.3762,40.101 159.4802,37.028 155.8122,36.731 M139.4582,76.965 L102.7762,76.965 C102.2242,76.965 101.7762,77.413 101.7762,77.965 C101.7762,78.518 102.2242,78.965 102.7762,78.965 L127.0752,78.965 C128.3082,78.965 128.8102,80.531 127.8222,81.268 C120.4872,86.748 111.3972,90 101.5592,90 C91.7192,90 82.6292,86.748 75.2942,81.268 C74.3072,80.531 74.8092,78.965 76.0412,78.965 L84.2722,78.965 L86.8622,78.965 L94.2462,78.965 C94.7992,78.965 95.2462,78.518 95.2462,77.965 C95.2462,77.413 94.7992,76.965 94.2462,76.965 L87.4162,76.965 L86.8622,76.965 L84.2722,76.965 C79.9142,76.965 76.0102,75.023 73.3772,71.957 C70.1282,68.173 72.5042,62.271 77.4482,61.621 L77.4482,61.62 L81.4142,61.62 C81.9672,61.62 82.4142,61.172 82.4142,60.62 C82.4142,60.068 81.9672,59.62 81.4142,59.62 L68.9602,59.62 C65.2712,59.62 62.2822,56.63 62.2822,52.942 L62.2822,40.659 C62.2822,36.97 65.2712,33.981 68.9602,33.981 L81.4142,33.981 C81.9672,33.981 82.4142,33.534 82.4142,32.981 C82.4142,32.428 81.9672,31.981 81.4142,31.981 L77.5632,31.981 L72.5272,31.981 C71.1972,31.981 70.2002,30.697 70.6032,29.43 C72.4482,23.634 77.8732,19.422 84.2722,19.422 L87.4172,19.422 L100.1432,19.422 C100.1632,19.619 100.2002,19.816 100.2752,20.012 C100.5332,20.692 101.0752,21.151 101.3972,21.424 C107.3642,26.487 114.9312,29.5 123.2802,30.139 C123.7492,30.175 124.2242,30.194 124.7032,30.194 C126.4972,30.194 128.3492,29.944 130.1312,29.459 C132.5212,28.807 134.6592,27.758 136.3132,26.424 C136.7432,26.079 136.8112,25.449 136.4642,25.019 C136.4542,25.006 136.4382,25.001 136.4292,24.99 C136.0772,24.593 135.4772,24.53 135.0582,24.868 C133.6172,26.03 131.7312,26.95 129.6052,27.529 C127.5622,28.084 125.4252,28.297 123.4332,28.145 C115.5072,27.538 108.3352,24.686 102.6912,19.899 C102.4532,19.696 102.2142,19.484 102.1442,19.301 C102.0452,19.04 102.2972,18.59 102.6732,18.359 C103.1682,18.053 103.8412,17.959 104.5532,17.859 L104.7272,17.834 C105.7722,17.684 106.8312,17.482 107.8712,17.231 C110.8932,16.503 113.7972,15.37 116.5022,13.86 C117.3092,13.411 118.0982,12.927 118.8872,12.444 C120.3692,11.534 121.7702,10.676 123.2902,10.03 C126.1032,8.835 129.5112,8.877 132.4062,10.145 L132.4582,10.167 C134.8972,11.243 134.8932,14.681 132.4682,15.788 C129.8552,16.98 127.0322,17.828 124.0692,18.288 C123.5232,18.372 123.1492,18.883 123.2342,19.428 C123.3112,19.922 123.7362,20.276 124.2222,20.276 C124.2722,20.276 124.3242,20.272 124.3762,20.264 C129.1872,19.517 133.6542,17.803 137.5122,15.291 C138.5182,17.951 138.4202,20.344 137.2262,22.402 C136.9582,22.861 137.1052,23.435 137.5402,23.727 C137.5582,23.739 137.5682,23.758 137.5882,23.769 C138.0652,24.045 138.6762,23.885 138.9542,23.407 C139.0962,23.164 139.2252,22.916 139.3422,22.663 C140.2602,20.684 142.4492,19.585 144.4912,20.351 C149.9312,22.391 153.8122,27.634 153.8122,33.778 C153.8122,35.392 152.5032,36.702 150.8882,36.702 L139.4992,36.702 C138.9462,36.702 138.4992,37.149 138.4992,37.702 C138.4992,38.254 138.9462,38.702 139.4992,38.702 L155.2332,38.702 C158.0732,38.702 160.3762,41.004 160.3762,43.844 L160.3762,50.497 C160.3762,58.425 153.9482,64.852 146.0202,64.852 L129.6422,64.852 C121.7142,64.852 115.2872,58.425 115.2872,50.497 L115.2872,43.843 C115.2872,41.003 117.5892,38.702 120.4292,38.702 L129.6432,38.702 C130.1952,38.702 130.6432,38.254 130.6432,37.702 C130.6432,37.149 130.1952,36.702 129.6432,36.702 L120.4302,36.702 C116.4842,36.702 113.2872,39.9 113.2872,43.844 L113.2872,50.497 C113.2872,59.53 120.6092,66.852 129.6422,66.852 L146.0202,66.852 C147.5442,66.852 149.0182,66.64 150.4162,66.247 C151.8432,65.845 153.0922,67.292 152.4692,68.637 C150.1892,73.549 145.2202,76.965 139.4582,76.965 M50.8362,76.501 C44.2382,76.501 38.1272,74.391 33.1312,70.815 C31.9632,69.979 31.7942,68.314 32.7042,67.203 C33.6932,65.993 34.8002,64.885 36.0052,63.895 C36.8512,63.201 38.0552,63.167 38.9632,63.777 C42.3622,66.058 46.4432,67.397 50.8362,67.397 C53.2682,67.397 55.6002,66.978 57.7772,66.221 C58.9542,65.812 60.2632,66.269 60.8432,67.372 C61.4642,68.552 62.1352,69.702 62.8522,70.819 C63.7172,72.165 63.1282,73.95 61.6332,74.519 C58.2742,75.796 54.6372,76.501 50.8362,76.501 M20.4802,42.999 C21.8692,28.571 32.9742,17.296 47.3792,15.693 C51.4232,15.243 55.3292,15.595 58.9652,16.605 C61.7872,17.389 63.0572,20.687 61.6082,23.233 L61.5282,23.373 C60.5242,25.137 58.4462,25.92 56.4912,25.376 C53.5122,24.546 50.2762,24.344 46.9152,24.963 C37.9322,26.621 30.8672,33.983 29.6402,43.035 C28.8712,48.708 30.3492,54.02 33.3022,58.231 C34.5552,60.019 34.4452,62.457 32.8992,63.999 C32.8782,64.02 32.8562,64.042 32.8342,64.063 C30.8232,66.083 27.5172,65.831 25.8762,63.499 C21.8572,57.789 19.7452,50.646 20.4802,42.999 M55.5592,46.001 C55.5592,49.721 56.0052,53.339 56.8452,56.805 C57.9332,61.293 54.3032,65.637 49.6932,65.364 C49.6172,65.359 49.5412,65.354 49.4652,65.348 C39.2902,64.624 31.2582,55.845 31.4412,45.647 C31.6302,35.113 40.2592,26.602 50.8362,26.602 C53.7722,26.602 56.5482,27.277 59.0452,28.451 C56.8032,33.862 55.5592,39.788 55.5592,46.001 M204.2982,32.311 C203.9962,31.848 203.3752,31.719 202.9142,32.022 C202.9052,32.028 202.9012,32.037 202.8942,32.042 C202.4512,32.351 202.3282,32.954 202.6262,33.407 C205.0792,37.15 206.3762,41.504 206.3762,46.001 C206.3762,52.743 203.4592,58.817 198.8212,63.028 C194.7362,66.737 189.3152,69 183.3762,69 L183.3482,69 C182.2862,69 181.6832,67.754 182.3682,66.944 C187.1512,61.284 190.0402,53.973 190.0402,46.001 C190.0402,40.484 188.6542,35.286 186.2192,30.731 C185.0522,28.548 183.6442,26.514 182.0302,24.664 C181.4742,24.025 181.9082,23.034 182.7552,23.009 C182.9612,23.003 183.1682,23 183.3762,23 C187.9852,23 192.4322,24.358 196.2342,26.927 C196.6842,27.232 197.2932,27.115 197.6052,26.675 C197.6092,26.668 197.6172,26.666 197.6222,26.659 C197.9322,26.201 197.8112,25.579 197.3532,25.27 C193.2202,22.477 188.3862,21 183.3762,21 C181.8052,21 180.2692,21.153 178.7782,21.431 C173.0772,16.496 165.6542,13.5 157.5402,13.5 C151.8142,13.5 146.4342,14.994 141.7572,17.603 C141.2122,17.526 140.6602,17.477 140.0992,17.455 C139.9912,16.591 139.7902,15.711 139.4692,14.817 C139.3852,14.582 139.2802,14.358 139.1812,14.131 C141.1402,12.664 142.9132,10.975 144.4562,9.084 C144.8062,8.657 144.7422,8.026 144.3132,7.677 C143.8852,7.327 143.2562,7.393 142.9072,7.82 C141.5242,9.514 139.9402,11.035 138.1952,12.368 C136.9992,10.631 135.2982,9.227 133.2082,8.312 C130.5762,7.161 127.5812,6.887 124.8232,7.474 C124.0272,7.644 123.2492,7.875 122.5092,8.189 C120.8522,8.893 119.3212,9.831 117.8412,10.739 C117.0762,11.208 116.3112,11.677 115.5272,12.114 C112.9812,13.534 110.2472,14.602 107.4022,15.288 C106.4242,15.523 105.4282,15.713 104.4432,15.854 L104.2742,15.878 C103.4322,15.997 102.4762,16.131 101.6252,16.655 C101.3122,16.847 101.0252,17.115 100.7822,17.422 L84.2722,17.422 C75.8442,17.422 68.8872,23.834 68.0142,32.035 C63.6722,32.508 60.2822,36.194 60.2822,40.659 L60.2822,52.942 C60.2822,57.375 63.6232,61.035 67.9182,61.551 L67.9182,62.61 C67.9182,66.983 69.6442,70.959 72.4482,73.896 C73.5522,75.051 72.7112,76.965 71.1142,76.965 C70.6152,76.965 70.1342,76.766 69.7892,76.406 C61.1612,67.396 56.3142,54.739 57.8362,41.007 C60.3142,18.629 79.0452,2 101.5602,2 C107.1702,2 112.6352,3.042 117.8022,5.094 C118.3112,5.297 118.8862,5.05 119.0942,4.544 C119.0962,4.541 119.0992,4.539 119.1012,4.535 C119.3042,4.022 119.0542,3.44 118.5402,3.237 C113.1382,1.088 107.4252,0 101.5592,0 C87.1122,0 74.2082,6.7 65.7682,17.148 C61.2932,14.823 56.2182,13.5 50.8362,13.5 C42.7222,13.5 35.2982,16.496 29.5972,21.431 C26.2662,20.809 22.7152,20.816 19.0362,21.746 C8.8232,24.329 1.1072,33.099 0.1142,43.587 C-1.0618,56.009 6.9552,67.197 18.7902,70.222 C18.8732,70.244 18.9572,70.253 19.0382,70.253 C19.4842,70.253 19.8912,69.954 20.0062,69.5 C20.0092,69.493 20.0062,69.485 20.0082,69.476 C20.1282,68.95 19.8122,68.419 19.2852,68.285 C15.5602,67.333 12.2512,65.494 9.5462,63.038 C4.8622,58.785 1.9992,52.668 1.9992,46.001 C1.9992,33.318 12.3172,23 24.9992,23 C25.2072,23 25.4152,23.003 25.6212,23.009 C26.4682,23.034 26.9022,24.025 26.3452,24.664 C24.7312,26.514 23.3232,28.548 22.1572,30.731 C19.7212,35.286 18.3352,40.484 18.3352,46.001 C18.3352,55.352 22.3112,63.789 28.6552,69.723 C34.4672,75.161 42.2672,78.501 50.8362,78.501 C54.5312,78.501 58.0822,77.876 61.3932,76.733 C64.0212,75.825 66.9332,76.402 68.9022,78.365 L69.1282,78.588 C69.1772,78.648 69.2302,78.698 69.2912,78.745 C77.6012,86.934 88.9972,92 101.5592,92 C113.0472,92 123.5602,87.759 131.6292,80.769 C132.9652,79.612 134.6662,78.965 136.4342,78.965 L139.4582,78.965 C142.3512,78.965 145.0642,78.204 147.4252,76.88 C150.6102,77.926 154.0092,78.501 157.5402,78.501 C165.1472,78.501 172.1462,75.867 177.6892,71.471 C178.3972,70.91 179.3122,70.679 180.2092,70.795 C183.0562,71.163 186.0492,71.057 189.1332,70.305 C199.3572,67.812 207.1492,59.116 208.2382,48.648 C208.8422,42.837 207.4452,37.112 204.2982,32.311" mask="url(#b)"/>
    <path fill="#B9BBBE" d="M102.6975,42.5356 L102.3325,42.5356 C100.3215,42.5356 98.6765,44.1806 98.6765,46.1906 L98.6765,46.5566 C98.6765,48.5676 100.3215,50.2126 102.3325,50.2126 L102.6975,50.2126 C104.7085,50.2126 106.3535,48.5676 106.3535,46.5566 L106.3535,46.1906 C106.3535,44.1806 104.7085,42.5356 102.6975,42.5356"/>
    <path fill="#DCDDDE" d="M78.7082,37.2466 L72.3722,37.2466 C70.0162,37.2466 68.1062,39.1556 68.1062,41.5116 L68.1062,52.0896 C68.1062,54.4446 70.0162,56.3546 72.3722,56.3546 L78.7082,56.3546 C79.2602,56.3546 79.7082,55.9066 79.7082,55.3546 L79.7082,38.2466 C79.7082,37.6936 79.2602,37.2466 78.7082,37.2466"/>
  </g>
</svg>
