<?xml version="1.0" encoding="UTF-8"?>
<svg width="16px" height="16px" viewBox="0 0 16 16" version="1.1" xmlns="http://www.w3.org/2000/svg" xmlns:xlink="http://www.w3.org/1999/xlink">
    <!-- Generator: Sketch 44.1 (41455) - http://www.bohemiancoding.com/sketch -->
    <title>svg/ic_mic_white_16px</title>
    <desc>Created with Sketch.</desc>
    <defs></defs>
    <g id="Page-1" stroke="none" stroke-width="1" fill="none" fill-rule="evenodd">
        <g id="ic_mic_white_16px">
            <g id="ic_mic_white_24px">
                <rect id="Rectangle-38" x="0" y="0" width="16" height="16"></rect>
                <g id="microphone" transform="translate(3.333333, 2.000000)" fill="#FFFFFF">
                    <path d="M4.66666667,2.96059473e-16 C5.77123617,0 6.66666667,0.8954305 6.66666667,2 L6.66666667,6 C6.66666667,7.1045695 5.77123617,8 4.66666667,8 C3.56209717,8 2.66666667,7.1045695 2.66666667,6 L2.66666667,2 C2.66666667,0.8954305 3.56209717,2.96059473e-16 4.66666667,0 L4.66666667,2.96059473e-16 Z M9.33333333,6 C9.33333333,8.35333333 7.59333333,10.2933333 5.33333333,10.62 L5.33333333,12.6666667 L4,12.6666667 L4,10.62 C1.74,10.2933333 0,8.35333333 0,6 L1.33333333,6 C1.33333333,7.84094917 2.8257175,9.33333333 4.66666667,9.33333333 C6.50761583,9.33333333 8,7.84094917 8,6 L9.33333333,6 L9.33333333,6 Z" id="Shape"></path>
                </g>
            </g>
        </g>
    </g>
</svg>