<svg xmlns="http://www.w3.org/2000/svg" xmlns:xlink="http://www.w3.org/1999/xlink" width="140" height="96" viewBox="0 0 140 96">
  <defs>
    <polygon id="a" points="6.455 .704 6.455 6.579 .58 6.579 .58 .704 6.455 .704"/>
    <polygon id="c" points=".878 .657 2.809 .657 2.809 2.815 .878 2.815 .878 .657"/>
    <polygon id="e" points="0 2.913 0 .803 2.006 .803 2.006 2.913"/>
  </defs>
  <g fill="none" fill-rule="evenodd">
    <g transform="translate(17 1)">
      <path fill="#B9BBBE" d="M11.9849 65.6544L12.3509 47.2344C11.7019 46.1044 11.3249 44.7984 11.3249 43.4044 11.3249 41.9014 11.7629 40.5024 12.5079 39.3144L12.7049 29.4204C12.7499 27.1564 13.0239 24.9454 13.5039 22.8084 9.0649 29.2424 6.4579 37.0314 6.4579 45.4214 6.4579 52.8024 8.4789 59.7174 11.9849 65.6544M78.9341 22.3576C79.4791 24.6336 79.7971 26.9956 79.8451 29.4196L80.0411 39.3146C80.7881 40.5016 81.2261 41.9006 81.2261 43.4036 81.2261 44.7986 80.8481 46.1046 80.1991 47.2356L80.3401 54.3436 85.2841 54.3436C85.9421 51.4726 86.3011 48.4886 86.3011 45.4216 86.3011 36.8336 83.5661 28.8766 78.9341 22.3576"/>
      <path fill="#4F545C" d="M38.2955 84.5197L38.2955 76.4027C27.2265 73.0907 19.0205 63.0807 18.4175 51.0957 16.8745 50.9697 15.4615 50.3897 14.3075 49.4877L13.9265 68.6287C19.6745 76.6437 28.3045 82.4567 38.2955 84.5197M74.1333 51.0954C74.0773 52.1974 73.9513 53.2794 73.7713 54.3434L78.3393 54.3434 78.2423 49.4884C77.0893 50.3894 75.6753 50.9704 74.1333 51.0954M14.5523 37.1364C15.6503 36.3464 16.9593 35.8364 18.3813 35.7144L18.3813 31.1884C18.3813 30.9384 18.4103 30.6954 18.4193 30.4464L17.8503 30.4464C17.2973 30.4464 16.8503 29.9984 16.8503 29.4464 16.8503 28.8944 17.2973 28.4464 17.8503 28.4464L55.9233 28.4464 60.6663 22.1224C61.0433 21.6194 61.8893 21.6194 62.2663 22.1224L67.0083 28.4464 75.5313 28.4464C76.0823 28.4464 76.5313 28.8944 76.5313 29.4464 76.5313 29.9984 76.0823 30.4464 75.5313 30.4464L74.1313 30.4464C74.1403 30.6954 74.1693 30.9384 74.1693 31.1884L74.1693 35.7144C75.5903 35.8364 76.9003 36.3464 77.9973 37.1364L77.8453 29.4604C77.7663 25.4514 76.9153 21.6234 75.4523 18.1054 68.1653 10.3544 57.8313 5.4994 46.3793 5.4994 34.7353 5.4994 24.2403 10.5124 16.9373 18.4924 15.5723 21.9034 14.7813 25.5984 14.7043 29.4604L14.5523 37.1364z"/>
      <path fill="#DCDDDE" d="M40.2955 76.9191L40.2955 84.8801C42.2795 85.1851 44.3115 85.3431 46.3795 85.3431 47.3445 85.3431 48.2975 85.2971 49.2455 85.2291L49.2455 77.4121C48.2695 77.5151 47.2785 77.5711 46.2755 77.5711 44.2225 77.5711 42.2235 77.3421 40.2955 76.9191M74.1695 37.7223L74.1695 49.0853C77.0115 48.7533 79.2265 46.3343 79.2265 43.4043 79.2265 40.4733 77.0115 38.0543 74.1695 37.7223M13.3248 43.4039C13.3248 46.3339 15.5388 48.7539 18.3818 49.0859L18.3818 37.7219C15.5388 38.0539 13.3248 40.4739 13.3248 43.4039M52.4556 59.1027C51.2666 60.3497 49.1106 61.0937 46.6896 61.0937 44.2696 61.0937 42.1146 60.3497 40.9246 59.1027 40.5436 58.7037 40.5586 58.0707 40.9576 57.6887 41.3546 57.3077 41.9886 57.3207 42.3706 57.7217 43.1666 58.5547 44.8616 59.0937 46.6896 59.0937 48.5176 59.0937 50.2136 58.5547 51.0096 57.7217 51.3906 57.3207 52.0236 57.3077 52.4236 57.6887 52.8226 58.0707 52.8376 58.7037 52.4556 59.1027L52.4556 59.1027zM23.2826 36.2637C25.3936 33.5367 29.1516 32.9477 31.7276 33.2727 32.1356 33.3357 32.5156 33.7487 32.4576 34.2117 32.3976 34.6717 31.9776 34.9987 31.5176 34.9397 29.3806 34.6707 26.2906 35.1247 24.6136 37.2937 24.4086 37.5547 24.0836 37.6647 23.7796 37.6027 23.6576 37.5767 23.5386 37.5237 23.4336 37.4427 23.0656 37.1597 22.9996 36.6317 23.2826 36.2637L23.2826 36.2637zM34.5096 41.7237C34.5096 43.5797 33.0046 45.0847 31.1476 45.0847 29.2906 45.0847 27.7856 43.5797 27.7856 41.7237 27.7856 39.8667 29.2906 38.3617 31.1476 38.3617 33.0046 38.3617 34.5096 39.8667 34.5096 41.7237L34.5096 41.7237zM42.5646 43.6407C42.5646 43.0877 43.0126 42.6407 43.5646 42.6407 44.1166 42.6407 44.5646 43.0877 44.5646 43.6407L44.5646 49.8917C44.5646 51.0627 45.5186 52.0167 46.6896 52.0167 47.8616 52.0167 48.8156 51.0627 48.8156 49.8917L48.8156 43.6407C48.8156 43.0877 49.2636 42.6407 49.8156 42.6407 50.3676 42.6407 50.8156 43.0877 50.8156 43.6407L50.8156 49.8917C50.8156 52.1657 48.9656 54.0167 46.6896 54.0167 44.4156 54.0167 42.5646 52.1657 42.5646 49.8917L42.5646 43.6407zM60.8216 33.2727C63.3976 32.9477 67.1556 33.5367 69.2676 36.2637 69.5506 36.6317 69.4836 37.1597 69.1166 37.4427 69.0116 37.5237 68.8926 37.5767 68.7706 37.6027 68.4666 37.6647 68.1416 37.5547 67.9366 37.2937 66.2596 35.1247 63.1696 34.6707 61.0326 34.9397 60.5716 34.9987 60.1516 34.6717 60.0936 34.2117 60.0346 33.7487 60.4146 33.3357 60.8216 33.2727L60.8216 33.2727zM58.0416 41.7237C58.0416 39.8667 59.5466 38.3617 61.4026 38.3617 63.2596 38.3617 64.7656 39.8667 64.7656 41.7237 64.7656 43.5797 63.2596 45.0847 61.4026 45.0847 59.5466 45.0847 58.0416 43.5797 58.0416 41.7237L58.0416 41.7237zM72.1696 49.6777L72.1696 31.1887C72.1696 30.9377 72.1416 30.6947 72.1316 30.4467L66.5086 30.4467C66.1936 30.4467 65.8966 30.2977 65.7086 30.0467L61.4666 24.3897 57.2236 30.0467C57.0346 30.2977 56.7386 30.4467 56.4236 30.4467L20.4196 30.4467C20.4096 30.6947 20.3816 30.9377 20.3816 31.1887L20.3816 49.6777C20.3816 63.9557 31.9976 75.5717 46.2746 75.5717 47.2796 75.5717 48.2696 75.5077 49.2456 75.3957L49.2456 68.8437C49.2456 66.1237 51.2316 63.8647 53.8286 63.4267 54.2166 61.1287 56.0306 59.3147 58.3286 58.9267 58.7676 56.3297 61.0256 54.3437 63.7456 54.3437L71.7396 54.3437C72.0176 52.8287 72.1696 51.2707 72.1696 49.6777L72.1696 49.6777z"/>
      <path fill="#202225" d="M64.7652 41.7233C64.7652 39.8663 63.2592 38.3613 61.4032 38.3613 59.5462 38.3613 58.0412 39.8663 58.0412 41.7233 58.0412 43.5793 59.5462 45.0843 61.4032 45.0843 63.2592 45.0843 64.7652 43.5793 64.7652 41.7233M27.7857 41.7233C27.7857 43.5793 29.2907 45.0843 31.1477 45.0843 33.0047 45.0843 34.5097 43.5793 34.5097 41.7233 34.5097 39.8663 33.0047 38.3613 31.1477 38.3613 29.2907 38.3613 27.7857 39.8663 27.7857 41.7233M46.69 54.0167C48.965 54.0167 50.816 52.1657 50.816 49.8917L50.816 43.6407C50.816 43.0877 50.368 42.6407 49.816 42.6407 49.263 42.6407 48.816 43.0877 48.816 43.6407L48.816 49.8917C48.816 51.0627 47.862 52.0167 46.69 52.0167 45.518 52.0167 44.565 51.0627 44.565 49.8917L44.565 43.6407C44.565 43.0877 44.117 42.6407 43.565 42.6407 43.012 42.6407 42.565 43.0877 42.565 43.6407L42.565 49.8917C42.565 52.1657 44.416 54.0167 46.69 54.0167M51.0093 57.7218C50.2133 58.5548 48.5183 59.0938 46.6903 59.0938 44.8623 59.0938 43.1663 58.5548 42.3703 57.7218 41.9883 57.3208 41.3553 57.3068 40.9573 57.6888 40.5583 58.0708 40.5433 58.7028 40.9243 59.1028 42.1143 60.3488 44.2703 61.0938 46.6903 61.0938 49.1113 61.0938 51.2663 60.3488 52.4553 59.1028 52.8373 58.7028 52.8223 58.0708 52.4233 57.6888 52.0243 57.3068 51.3903 57.3208 51.0093 57.7218M61.0328 34.9401C63.1698 34.6711 66.2598 35.1251 67.9368 37.2941 68.1408 37.5551 68.4668 37.6641 68.7708 37.6021 68.8928 37.5771 69.0118 37.5241 69.1168 37.4431 69.4838 37.1591 69.5508 36.6311 69.2668 36.2641 67.1558 33.5371 63.3978 32.9481 60.8218 33.2731 60.4148 33.3361 60.0348 33.7491 60.0938 34.2111 60.1518 34.6721 60.5718 34.9981 61.0328 34.9401M23.4332 37.443C23.5382 37.524 23.6582 37.577 23.7802 37.602 24.0832 37.664 24.4092 37.555 24.6142 37.294 26.2902 35.125 29.3802 34.671 31.5172 34.94 31.9782 34.998 32.3982 34.672 32.4572 34.212 32.5152 33.749 32.1352 33.336 31.7282 33.273 29.1522 32.948 25.3942 33.537 23.2832 36.264 22.9992 36.631 23.0662 37.159 23.4332 37.443"/>
      <path fill="#202225" d="M16.9361,50.8278 L17.0381,50.8558 C17.8401,51.0748 18.4461,51.7558 18.5321,52.5828 C19.7091,63.9038 27.6871,73.2288 38.2951,76.4028 L38.2951,77.7898 C38.2951,81.3578 34.6721,83.7588 31.3691,82.4118 C26.3841,80.3798 21.9001,77.3668 18.1561,73.6158 C15.3841,70.8398 13.9591,66.9928 14.0381,63.0708 L14.2411,52.8438 C14.2681,51.4538 15.5951,50.4608 16.9361,50.8278 L16.9361,50.8278 Z M12.7051,29.4198 L12.5081,39.3148 C11.7631,40.5018 11.3251,41.9018 11.3251,43.4038 C11.3251,44.7988 11.7021,46.1038 12.3511,47.2348 L12.0621,61.7618 C12.0411,62.8188 10.5981,63.1298 10.1531,62.1718 C7.7851,57.0758 6.4571,51.4018 6.4571,45.4218 C6.4571,38.8248 8.0701,32.5988 10.9161,27.1128 C11.4141,26.1538 12.8641,26.5938 12.7861,27.6708 C12.7441,28.2498 12.7161,28.8328 12.7051,29.4198 L12.7051,29.4198 Z M13.3251,43.4038 C13.3251,41.8488 13.9481,40.4388 14.9571,39.4078 C16.2061,38.1318 18.3811,39.0368 18.3811,40.8218 L18.3811,45.9858 C18.3811,47.7708 16.2061,48.6768 14.9571,47.4008 C13.9481,46.3698 13.3251,44.9588 13.3251,43.4038 L13.3251,43.4038 Z M74.1691,45.9858 L74.1691,40.8218 C74.1691,39.0368 76.3441,38.1318 77.5931,39.4078 C78.6031,40.4388 79.2261,41.8488 79.2261,43.4038 C79.2261,44.9588 78.6031,46.3698 77.5931,47.4008 C76.3441,48.6768 74.1691,47.7708 74.1691,45.9858 L74.1691,45.9858 Z M46.3791,5.4998 C54.4761,5.4998 62.0141,7.9268 68.3111,12.0878 C74.0591,15.8858 77.6421,22.3028 77.8381,29.1878 C77.8411,29.2788 77.8431,29.3698 77.8451,29.4598 L77.9411,34.2618 C77.9651,35.4818 76.7921,36.3178 75.6201,35.9818 C75.5961,35.9748 75.5731,35.9678 75.5491,35.9618 C74.7511,35.7418 74.1691,35.0598 74.1691,34.2318 L74.1691,31.1888 C74.1691,30.9378 74.1401,30.6948 74.1311,30.4468 L75.5311,30.4468 C76.0821,30.4468 76.5311,29.9988 76.5311,29.4468 C76.5311,28.8938 76.0821,28.4468 75.5311,28.4468 L67.0081,28.4468 L62.2661,22.1228 C61.8661,21.5898 61.0661,21.5898 60.6661,22.1228 L55.9231,28.4468 L17.8501,28.4468 C17.2971,28.4468 16.8501,28.8938 16.8501,29.4468 C16.8501,29.9988 17.2971,30.4468 17.8501,30.4468 L18.4191,30.4468 C18.4111,30.6948 18.3811,30.9378 18.3811,31.1888 L18.3811,34.1398 C18.3811,34.9878 17.8171,35.7318 17.0001,35.9618 L16.9311,35.9818 C15.7511,36.3128 14.5861,35.4118 14.6111,34.1868 L14.7051,29.4598 L14.7071,29.3448 C14.8481,22.8208 17.9681,16.6628 23.2841,12.8788 C29.8071,8.2338 37.7801,5.4998 46.3791,5.4998 L46.3791,5.4998 Z M49.2461,85.2288 C48.2971,85.2968 47.3441,85.3438 46.3791,85.3438 C44.3111,85.3438 42.2801,85.1848 40.2951,84.8808 L40.2951,76.9188 C42.2231,77.3418 44.2221,77.5718 46.2761,77.5718 C47.2791,77.5718 48.2691,77.5148 49.2461,77.4118 L49.2461,75.3958 C48.2701,75.5078 47.2801,75.5718 46.2751,75.5718 C31.9981,75.5718 20.3811,63.9558 20.3811,49.6778 L20.3811,31.1888 C20.6701,30.8998 20.8351,30.7348 21.1231,30.4468 L56.4231,30.4468 C56.7381,30.4468 57.0351,30.2988 57.2231,30.0468 L59.8661,26.5228 C60.6651,25.4558 62.2661,25.4558 63.0661,26.5228 L65.7081,30.0468 C65.8971,30.2988 66.1941,30.4468 66.5081,30.4468 L71.4271,30.4468 C71.7161,30.7368 71.8791,30.8988 72.1691,31.1888 L72.1691,49.6778 C72.1691,51.2708 72.0171,52.8288 71.7401,54.3438 L73.7711,54.3438 C73.8651,53.7878 73.9451,53.2278 74.0061,52.6628 C74.1001,51.8128 74.6841,51.0788 75.5101,50.8558 C75.5251,50.8518 75.5401,50.8488 75.5531,50.8448 C76.9191,50.4668 78.2821,51.4288 78.3101,52.8458 L78.3391,54.3438 L80.3401,54.3438 L80.1991,47.2358 C80.8481,46.1048 81.2261,44.7988 81.2261,43.4038 C81.2261,41.9008 80.7881,40.5018 80.0411,39.3138 L79.8451,29.4198 C79.8311,28.6818 79.7901,27.9508 79.7281,27.2248 C79.6321,26.1398 81.0911,25.7088 81.6051,26.6698 C84.5981,32.2638 86.3011,38.6458 86.3011,45.4218 C86.3011,48.4888 85.9421,51.4728 85.2841,54.3438 L87.3351,54.3438 C88.3471,49.6988 88.6091,44.7778 87.9051,39.6948 C85.1511,19.8008 68.3331,4.4278 48.2701,3.5418 C24.2971,2.4828 4.4571,21.6788 4.4571,45.4218 C4.4571,68.5368 23.2641,87.3438 46.3791,87.3438 C47.3501,87.3438 48.3111,87.2988 49.2651,87.2328 C49.2561,87.1038 49.2461,86.9748 49.2461,86.8438 L49.2461,85.2288 Z"/>
      <g transform="translate(99 33.343)">
        <mask id="b" fill="white">
          <use xlink:href="#a"/>
        </mask>
        <path fill="#FFFFFF" d="M3.5181,1.7036 C4.5861,1.7036 5.4551,2.5726 5.4551,3.6406 C5.4551,4.7086 4.5861,5.5786 3.5181,5.5786 C2.4501,5.5786 1.5811,4.7086 1.5811,3.6406 C1.5811,2.5726 2.4501,1.7036 3.5181,1.7036 M0.5801,3.6406 C0.5801,5.2606 1.8981,6.5786 3.5181,6.5786 C5.1371,6.5786 6.4561,5.2606 6.4561,3.6406 C6.4561,2.0216 5.1371,0.7036 3.5181,0.7036 C1.8981,0.7036 0.5801,2.0216 0.5801,3.6406" mask="url(#b)"/>
      </g>
      <path fill="#FFFFFF" d="M95.4117,26.6417 L95.4127,26.6417 C96.4817,26.6417 97.3487,27.5087 97.3487,28.5787 C97.3487,28.8547 97.5727,29.0787 97.8497,29.0787 C98.1257,29.0787 98.3497,28.8547 98.3497,28.5787 C98.3497,27.5087 99.2167,26.6417 100.2867,26.6417 C100.5627,26.6417 100.7867,26.4177 100.7867,26.1417 C100.7867,25.8657 100.5627,25.6417 100.2867,25.6417 C99.2167,25.6417 98.3497,24.7747 98.3497,23.7047 L98.3497,23.7037 C98.3497,23.4277 98.1257,23.2037 97.8497,23.2037 C97.5727,23.2037 97.3487,23.4277 97.3487,23.7037 L97.3487,23.7047 C97.3487,24.7747 96.4817,25.6417 95.4127,25.6417 L95.4117,25.6417 C95.1357,25.6417 94.9117,25.8657 94.9117,26.1417 C94.9117,26.4177 95.1357,26.6417 95.4117,26.6417"/>
      <g transform="translate(4 .343)">
        <mask id="d" fill="white">
          <use xlink:href="#c"/>
        </mask>
        <path fill="#FFFFFF" d="M1.3775,2.8149 C1.5235,2.8149 1.6685,2.7509 1.7675,2.6279 L2.6985,1.4689 C2.8715,1.2539 2.8375,0.9399 2.6215,0.7669 C2.4065,0.5939 2.0925,0.6279 1.9195,0.8429 L0.9875,2.0019 C0.8155,2.2169 0.8495,2.5319 1.0655,2.7049 C1.1565,2.7789 1.2675,2.8149 1.3775,2.8149" mask="url(#d)"/>
      </g>
      <path fill="#FFFFFF" d="M1.233 6.028L.302 7.187C.129 7.402.164 7.716.379 7.889.471 7.964.582 8 .691 8 .837 8 .983 7.936 1.082 7.813L2.012 6.654C2.185 6.439 2.151 6.124 1.936 5.951 1.721 5.779 1.406 5.813 1.233 6.028M5.1597 5.8722C4.9547 6.0582 4.9387 6.3732 5.1247 6.5782L6.1297 7.6882C6.2277 7.7972 6.3637 7.8522 6.5007 7.8522 6.6197 7.8522 6.7397 7.8092 6.8357 7.7232 7.0407 7.5382 7.0557 7.2222 6.8707 7.0172L5.8657 5.9072C5.6807 5.7022 5.3637 5.6872 5.1597 5.8722"/>
      <g transform="translate(0 .343)">
        <mask id="f" fill="white">
          <use xlink:href="#e"/>
        </mask>
        <path fill="#FFFFFF" d="M1.5054,2.9131 C1.6254,2.9131 1.7454,2.8701 1.8414,2.7841 C2.0464,2.5981 2.0624,2.2821 1.8764,2.0781 L0.8704,0.9681 C0.6854,0.7621 0.3694,0.7481 0.1644,0.9331 C-0.0406,1.1181 -0.0566,1.4341 0.1294,1.6391 L1.1354,2.7481 C1.2344,2.8581 1.3694,2.9131 1.5054,2.9131" mask="url(#f)"/>
      </g>
      <path fill="#E3E7F8" d="M59.2457,87.8434 C56.2137,87.8434 53.7457,85.3764 53.7457,82.3434 L53.7457,65.5064 C52.3057,65.9404 51.2457,67.2634 51.2457,68.8434 L51.2457,86.8434 C51.2457,88.7734 52.8157,90.3434 54.7457,90.3434 L90.7457,90.3434 C92.3257,90.3434 93.6487,89.2834 94.0827,87.8434 L59.2457,87.8434 Z"/>
      <path fill="#C7D0F0" d="M63.7457,83.3434 C60.7137,83.3434 58.2457,80.8764 58.2457,77.8434 L58.2457,61.0064 C56.8057,61.4404 55.7457,62.7634 55.7457,64.3434 L55.7457,82.3434 C55.7457,84.2734 57.3157,85.8434 59.2457,85.8434 L95.2457,85.8434 C96.8257,85.8434 98.1487,84.7834 98.5827,83.3434 L63.7457,83.3434 Z"/>
      <path fill="#8EA1E1" d="M99.7457,56.3434 L63.7457,56.3434 C61.8157,56.3434 60.2457,57.9134 60.2457,59.8434 L60.2457,77.8434 C60.2457,79.7734 61.8157,81.3434 63.7457,81.3434 L99.7457,81.3434 C101.6757,81.3434 103.2457,79.7734 103.2457,77.8434 L103.2457,59.8434 C103.2457,57.9134 101.6757,56.3434 99.7457,56.3434"/>
      <path fill="#040405" d="M77.8052 71.13L77.8052 69.168C77.8052 68.491 77.2562 67.942 76.5792 67.942L73.5382 67.942C72.8622 67.942 72.3132 68.491 72.3132 69.168L72.3132 69.292C72.3132 69.969 72.8622 70.518 73.5382 70.518L75.2122 70.518 75.2122 71.13C75.2122 72.264 74.0062 72.822 72.8182 72.822 71.6282 72.822 70.4582 72.264 70.4582 71.13L70.4582 66.484C70.4582 65.35 71.5752 64.719 72.7272 64.719 73.4532 64.719 74.1882 64.951 74.6932 65.457 75.0542 65.819 75.6262 65.867 76.0782 65.628 76.7722 65.26 76.9742 64.318 76.4362 63.746 75.4412 62.689 74.1052 62.288 72.8002 62.288 70.3152 62.288 67.8292 63.693 67.8292 66.484L67.8292 71.13C67.8292 73.993 70.3322 75.416 72.8362 75.398 75.3202 75.38 77.8052 73.957 77.8052 71.13M82.229 62.4684L82.034 62.4684C81.357 62.4684 80.808 63.0174 80.808 63.6944L80.808 73.9924C80.808 74.6694 81.357 75.2174 82.034 75.2174L82.229 75.2174C82.906 75.2174 83.455 74.6694 83.455 73.9924L83.455 63.6944C83.455 63.0174 82.906 62.4684 82.229 62.4684M89.7007 66.6271L89.7007 66.2691C89.7007 65.5921 90.2487 65.0441 90.9257 65.0441L94.4357 65.0441C95.1127 65.0441 95.6617 64.4951 95.6617 63.8181L95.6617 63.6941C95.6617 63.0171 95.1127 62.4681 94.4357 62.4681L88.2607 62.4681C87.5837 62.4681 87.0347 63.0171 87.0347 63.6941L87.0347 73.9921C87.0347 74.6691 87.5837 75.2171 88.2607 75.2171L88.4747 75.2171C89.1517 75.2171 89.7007 74.6691 89.7007 73.9921L89.7007 71.6891C89.7007 71.0121 90.2487 70.4641 90.9257 70.4641L93.6977 70.4641C94.3747 70.4641 94.9237 69.9151 94.9237 69.2381L94.9237 69.0781C94.9237 68.4011 94.3747 67.8521 93.6977 67.8521L90.9257 67.8521C90.2487 67.8521 89.7007 67.3041 89.7007 66.6271"/>
      <path fill="#040405" d="M95.2457,85.8434 L59.2457,85.8434 C57.3127,85.8434 55.7457,84.2764 55.7457,82.3434 L55.7457,64.3434 L55.7457,64.2964 C55.7677,62.6844 58.2457,62.7684 58.2457,64.3804 L58.2457,77.8434 C58.2457,80.8814 60.7087,83.3434 63.7457,83.3434 L95.2087,83.3434 C96.8207,83.3434 96.9047,85.8214 95.2937,85.8434 C95.2767,85.8434 95.2617,85.8434 95.2457,85.8434 L95.2457,85.8434 Z M90.7457,90.3434 L54.7457,90.3434 C52.8127,90.3434 51.2457,88.7764 51.2457,86.8434 L51.2457,68.8434 L51.2457,68.7964 C51.2677,67.1844 53.7457,67.2684 53.7457,68.8804 L53.7457,82.3434 C53.7457,85.3814 56.2087,87.8434 59.2457,87.8434 L90.7087,87.8434 C92.3207,87.8434 92.4047,90.3214 90.7937,90.3434 C90.7767,90.3434 90.7617,90.3434 90.7457,90.3434 L90.7457,90.3434 Z M103.2457,77.8434 C103.2457,79.7734 101.6757,81.3434 99.7457,81.3434 L63.7457,81.3434 C61.8157,81.3434 60.2457,79.7734 60.2457,77.8434 L60.2457,59.8434 C60.2457,57.9134 61.8157,56.3434 63.7457,56.3434 L99.7457,56.3434 C101.6757,56.3434 103.2457,57.9134 103.2457,59.8434 L103.2457,77.8434 Z M99.7457,54.3434 L87.3357,54.3434 L85.2837,54.3434 L80.3407,54.3434 L78.3397,54.3434 L73.7707,54.3434 L71.7397,54.3434 L63.7457,54.3434 C61.3867,54.3434 59.3747,55.8384 58.5967,57.9284 C58.3767,58.5174 57.9267,58.9724 57.3387,59.1914 C55.8407,59.7474 54.6497,60.9374 54.0937,62.4354 C53.8747,63.0244 53.4197,63.4744 52.8317,63.6934 C50.7397,64.4714 49.2457,66.4844 49.2457,68.8434 L49.2457,75.3954 L49.2457,77.4114 L49.2457,85.2294 L49.2457,86.8434 C49.2457,86.9744 49.2567,87.1034 49.2657,87.2334 C49.4667,90.0834 51.8447,92.3434 54.7457,92.3434 L90.7457,92.3434 C93.1047,92.3434 95.1167,90.8484 95.8957,88.7584 C96.1147,88.1694 96.5647,87.7144 97.1537,87.4954 C98.6517,86.9394 99.8427,85.7494 100.3977,84.2514 C100.6167,83.6624 101.0717,83.2124 101.6597,82.9934 C103.7517,82.2154 105.2457,80.2024 105.2457,77.8434 L105.2457,59.8434 C105.2457,56.8054 102.7837,54.3434 99.7457,54.3434 L99.7457,54.3434 Z"/>
    </g>
    <rect width="140" height="96"/>
  </g>
</svg>
