<svg width="164" height="80" viewBox="0 0 164 80" fill="none" xmlns="http://www.w3.org/2000/svg">
<path d="M150.506 80C157.958 80 164 73.9634 164 66.5168C164 59.0703 157.958 53.0337 150.506 53.0337C143.053 53.0337 137.011 59.0703 137.011 66.5168C137.011 73.9634 143.053 80 150.506 80Z" fill="#7196FF"/>
<path d="M137.011 66.5168C137.011 73.9775 143.039 80 150.506 80C157.973 80 164 73.9775 164 66.5168H137.011Z" fill="#3E70DD"/>
<path d="M36.7044 8.08987H14.214V80H36.7044V8.08987Z" fill="#7196FF"/>
<path d="M63.6928 26.0674H36.7043V80H63.6928V26.0674Z" fill="#3E70DD"/>
<path d="M36.7043 8.08987V26.0674H54.6967L36.7043 8.08987Z" fill="#3E70DD"/>
<path d="M126.666 26.0674H63.6929V80H126.666V26.0674Z" fill="white"/>
<path d="M36.6601 80H63.6486V59.7753H36.6601V80Z" fill="#FF9A15"/>
<path d="M119.019 32.809H71.3396V59.7753H119.019V32.809Z" fill="#83DDC5"/>
<path d="M126.622 80H141.915V26.0674H126.622V80Z" fill="#7196FF"/>
<path d="M141.959 26.0674H126.666V30.5618H141.959V26.0674Z" fill="#AEC7FF"/>
<path d="M141.959 35.0562H126.666V39.5506H141.959V35.0562Z" fill="#AEC7FF"/>
<path d="M141.959 44.045H126.666V48.5393H141.959V44.045Z" fill="#AEC7FF"/>
<path d="M141.959 53.0337H126.666V57.5281H141.959V53.0337Z" fill="#AEC7FF"/>
<path d="M141.959 62.0225H126.666V66.5168H141.959V62.0225Z" fill="#AEC7FF"/>
<path d="M141.959 71.0112H126.666V75.5056H141.959V71.0112Z" fill="#AEC7FF"/>
<path d="M78.5365 63.8202H74.0385V73.7079H78.5365V63.8202Z" fill="#202225"/>
<path d="M81.2133 71.0333V66.539H71.3175V71.0333H81.2133Z" fill="#202225"/>
<path d="M116.32 69.2135C117.811 69.2135 119.019 68.0062 119.019 66.5169C119.019 65.0275 117.811 63.8202 116.32 63.8202C114.83 63.8202 113.621 65.0275 113.621 66.5169C113.621 68.0062 114.83 69.2135 116.32 69.2135Z" fill="#F47FFF"/>
<path d="M110.923 73.7079C112.413 73.7079 113.622 72.5005 113.622 71.0112C113.622 69.5219 112.413 68.3146 110.923 68.3146C109.432 68.3146 108.224 69.5219 108.224 71.0112C108.224 72.5005 109.432 73.7079 110.923 73.7079Z" fill="#F47FFF"/>
<path d="M54.6967 26.0674V32.809H50.1986V39.5506H45.7005V46.2921H41.2024V53.0337H36.7043V59.7753H63.6928V53.0337V46.2921V39.5506V32.809V26.0674H54.6967Z" fill="#7196FF"/>
<path d="M44.351 75.5056C46.5868 75.5056 48.3993 73.6946 48.3993 71.4607C48.3993 69.2267 46.5868 67.4157 44.351 67.4157C42.1152 67.4157 40.3027 69.2267 40.3027 71.4607C40.3027 73.6946 42.1152 75.5056 44.351 75.5056Z" fill="#FCFCFC"/>
<path d="M54.2469 75.5056C56.4827 75.5056 58.2951 73.6946 58.2951 71.4607C58.2951 69.2267 56.4827 67.4157 54.2469 67.4157C52.0111 67.4157 50.1986 69.2267 50.1986 71.4607C50.1986 73.6946 52.0111 75.5056 54.2469 75.5056Z" fill="#FCFCFC"/>
<path d="M48.3993 71.4607H40.3027C40.3027 69.2135 42.102 67.4157 44.351 67.4157C46.5551 67.4157 48.3993 69.2135 48.3993 71.4607Z" fill="#202225"/>
<path d="M58.2951 71.4607H50.1986C50.1986 69.2135 51.9978 67.4157 54.2469 67.4157C56.4509 67.4157 58.2951 69.2135 58.2951 71.4607Z" fill="#202225"/>
<path d="M51.0981 59.7753C51.0981 53.7978 55.9111 48.9888 61.8935 48.9888H82.1349C82.1349 54.9663 77.322 59.7753 71.3395 59.7753H51.0981Z" fill="#FFD836"/>
<path d="M36.7043 73.2584H5.21777V80H36.7043V73.2584Z" fill="#D4E4FF"/>
<path d="M36.7044 66.5168H14.214V73.2584H36.7044V66.5168Z" fill="#D4E4FF"/>
<path d="M36.7043 59.7753H23.2101V66.5168H36.7043V59.7753Z" fill="#D4E4FF"/>
<path d="M36.7044 53.0337H32.2063V59.7753H36.7044V53.0337Z" fill="#D4E4FF"/>
<path d="M150.506 72.3596C153.735 72.3596 156.353 69.7437 156.353 66.5169C156.353 63.29 153.735 60.6742 150.506 60.6742C147.276 60.6742 144.658 63.29 144.658 66.5169C144.658 69.7437 147.276 72.3596 150.506 72.3596Z" fill="white"/>
<path d="M150.506 69.6629C152.245 69.6629 153.655 68.2544 153.655 66.5169C153.655 64.7793 152.245 63.3708 150.506 63.3708C148.767 63.3708 147.357 64.7793 147.357 66.5169C147.357 68.2544 148.767 69.6629 150.506 69.6629Z" fill="#AEC7FF"/>
<path d="M14.214 44.9438L11.0653 48.0899V54.382L14.214 57.5281L17.3626 54.382V48.0899L14.214 44.9438Z" fill="#D4E4FF"/>
<path d="M14.214 44.9438V57.5281L17.3626 54.382V48.0899L14.214 44.9438Z" fill="#AEC7FF"/>
<path d="M36.7043 31.4607L33.5557 34.6067V40.8989L36.7043 44.0449L39.853 40.8989V34.6067L36.7043 31.4607Z" fill="#D4E4FF"/>
<path d="M36.7043 31.4607V44.0449L39.853 40.8989V34.6067L36.7043 31.4607Z" fill="#AEC7FF"/>
<path d="M59.1947 8.98877L56.046 12.1348V18.427L59.1947 21.573L62.3433 18.427V12.1348L59.1947 8.98877Z" fill="#D4E4FF"/>
<path d="M59.1947 8.98877V21.573L62.3434 18.427V12.1348L59.1947 8.98877Z" fill="#AEC7FF"/>
<path d="M81.6852 8.98877L78.5365 12.1348V18.427L81.6852 21.573L84.8338 18.427V12.1348L81.6852 8.98877Z" fill="#D4E4FF"/>
<path d="M81.6852 8.98877V21.573L84.8338 18.427V12.1348L81.6852 8.98877Z" fill="#AEC7FF"/>
<path d="M104.176 8.98877L101.027 12.1348V18.427L104.176 21.573L107.324 18.427V12.1348L104.176 8.98877Z" fill="#D4E4FF"/>
<path d="M104.176 8.98877V21.573L107.324 18.427V12.1348L104.176 8.98877Z" fill="#AEC7FF"/>
<path d="M126.666 8.98877L123.517 12.1348V18.427L126.666 21.573L129.815 18.427V12.1348L126.666 8.98877Z" fill="#D4E4FF"/>
<path d="M126.666 8.98877V21.573L129.815 18.427V12.1348L126.666 8.98877Z" fill="#AEC7FF"/>
<path d="M32.2063 0V3.59551H27.7082V0H23.2101V3.59551H18.7121V0H14.214V8.08989H36.7044V0H32.2063Z" fill="#AEC7FF"/>
<path d="M29.9572 29.6629H20.9611V17.0786C20.9611 14.6067 22.9852 12.5843 25.4591 12.5843C27.9331 12.5843 29.9572 14.6067 29.9572 17.0786V29.6629Z" fill="#202225"/>
<path d="M32.2063 25.1685H18.712V30.5618H32.2063V25.1685Z" fill="#AEC7FF"/>
<path d="M0.899587 59.9551L0.044952 61.7528C-0.134971 62.1573 0.269856 62.6068 0.719664 62.427L2.5189 61.5731C2.65384 61.5281 2.78878 61.5281 2.92372 61.5731L4.72296 62.427C5.12778 62.6068 5.57759 62.2023 5.39767 61.7528L4.54303 59.9551C4.49805 59.8202 4.49805 59.6854 4.54303 59.5506L5.39767 57.7528C5.57759 57.3483 5.17276 56.8989 4.72296 57.0787L2.92372 57.9326C2.78878 57.9775 2.65384 57.9775 2.5189 57.9326L0.719664 57.0787C0.314837 56.8989 -0.134971 57.3034 0.044952 57.7528L0.899587 59.5506C0.989549 59.6854 0.989549 59.8202 0.899587 59.9551Z" fill="white"/>
<path d="M153.519 35.6854H153.429C153.159 35.6854 152.98 35.4607 152.98 35.2359V34.1123C152.98 33.8427 153.204 33.6629 153.429 33.6629H153.519C153.789 33.6629 153.968 33.8876 153.968 34.1123V35.2359C153.968 35.5056 153.789 35.6854 153.519 35.6854Z" fill="white"/>
<path d="M153.519 40.8539H153.429C153.159 40.8539 152.98 40.6292 152.98 40.4045V39.2809C152.98 39.0112 153.204 38.8315 153.429 38.8315H153.519C153.789 38.8315 153.968 39.0562 153.968 39.2809V40.4045C153.968 40.6292 153.789 40.8539 153.519 40.8539Z" fill="white"/>
<path d="M155.004 37.3034V37.2135C155.004 36.9438 155.229 36.764 155.454 36.764H156.578C156.848 36.764 157.028 36.9888 157.028 37.2135V37.3034C157.028 37.573 156.803 37.7528 156.578 37.7528H155.454C155.229 37.7528 155.004 37.5281 155.004 37.3034Z" fill="white"/>
<path d="M149.876 37.3034V37.2135C149.876 36.9438 150.101 36.764 150.326 36.764H151.45C151.72 36.764 151.9 36.9888 151.9 37.2135V37.3034C151.9 37.573 151.675 37.7528 151.45 37.7528H150.326C150.101 37.7528 149.876 37.5281 149.876 37.3034Z" fill="white"/>
<path d="M81.2353 40.8989H77.6368V44.4944H81.2353V40.8989Z" fill="#202225"/>
<path d="M88.4322 45.3932H84.8337V48.9888H88.4322V45.3932Z" fill="#202225"/>
<path d="M95.6292 48.9888H92.0307H88.4323V52.5843H92.0307H95.6292H99.2276H102.826V48.9888H99.2276H95.6292Z" fill="#202225"/>
<path d="M106.425 45.3932H102.826V48.9888H106.425V45.3932Z" fill="#202225"/>
<path d="M113.622 40.8989H110.023V44.4944H113.622V40.8989Z" fill="#202225"/>
</svg>
