<svg id="balloon1" xmlns="http://www.w3.org/2000/svg" viewBox="0 0 70 192"><style>.st0{fill:none;stroke:#7C93E4;stroke-width:2;stroke-linecap:round;stroke-linejoin:round;stroke-miterlimit:10;} .st1{fill:#738BD7;}</style><path class="st0" d="M31.1 75.4l-11.7 112"/><path class="st1" d="M35.3 82.9l-9.8-1 3.6-6.6 4 .4z"/><path class="st1" d="M35.3 82.9l-9.8-1 3.6-6.6 4 .4z"/><path class="st0" d="M35.3 82.9l-9.8-1 3.6-6.6 4 .4z"/><path class="st0" d="M35.3 82.9l-9.8-1 3.6-6.6 4 .4z"/><path class="st1" d="M63.9 37.6C62 57.1 41.2 76.4 31.1 75.4 20 74.3 4.3 51.5 6.1 32 7.7 16.1 21.9 4.4 37.8 5.9s27.6 15.7 26.1 31.7z"/><path class="st0" d="M63.9 37.6C62 57.1 41.2 76.4 31.1 75.4 20 74.3 4.3 51.5 6.1 32 7.7 16.1 21.9 4.4 37.8 5.9s27.6 15.7 26.1 31.7z"/></svg>