<svg xmlns="http://www.w3.org/2000/svg" width="398" height="225" xmlns:xlink="http://www.w3.org/1999/xlink">
  <defs>
    <path id="a" d="M138.656 123.6699V7.14c0-3.421-2.773-6.195-6.194-6.195H.1466v122.7249H138.656z"/>
    <path id="c" d="M.5722 16.877h1V.1741h-1z"/>
    <path id="e" d="M.3019 148.877h1V.1565h-1V148.877z"/>
    <path id="g" d="M5.3118.945H.3848v36.5249h4.927V.945z"/>
    <path id="i" d="M236.2375.945H.2905v87.7133h235.947V.945z"/>
    <path id="k" d="M0 1.54v222.932h397.656V7.735c0-3.421-2.773-6.195-6.194-6.195H0z"/>
  </defs>
  <g fill="none" fill-rule="evenodd">
    <g transform="translate(259 .595)">
      <mask id="b" fill="#fff">
        <use xlink:href="#a"/>
      </mask>
      <path stroke="#F2F3F4" stroke-width="2" d="M.1466 70.7779c11.613 14.869 29.709 24.428 50.037 24.428 18.938 0 35.928-8.306 47.554-21.463.14.011.28.022.42.032 16.229 29.728 47.773 49.895 84.028 49.895 52.839 0 95.673-42.834 95.673-95.673 0-12.962-2.583-25.319-7.253-36.592" stroke-linecap="round" stroke-linejoin="round" mask="url(#b)"/>
    </g>
    <g transform="translate(202 207.595)">
      <mask id="d" fill="#fff">
        <use xlink:href="#c"/>
      </mask>
      <path stroke="#F2F3F4" stroke-width="2" d="M.5722.1741v35.826" stroke-linecap="round" stroke-linejoin="round" mask="url(#d)"/>
    </g>
    <path stroke="#F2F3F4" stroke-width="2" d="M202.5722 178.7097v4.433m0-94.5855v82.126" stroke-linecap="round" stroke-linejoin="round"/>
    <g transform="translate(356 75.595)">
      <mask id="f" fill="#fff">
        <use xlink:href="#e"/>
      </mask>
      <path stroke="#F2F3F4" stroke-width="2" d="M.3019.1565v167.844" stroke-linecap="round" stroke-linejoin="round" mask="url(#f)"/>
    </g>
    <g transform="translate(315 .595)">
      <mask id="h" fill="#fff">
        <use xlink:href="#g"/>
      </mask>
      <path stroke="#F2F3F4" stroke-width="2" d="M.7278 37.4699c2.949-6.795 4.584-14.293 4.584-22.173 0-8.168-1.771-15.917-4.927-22.907" stroke-linecap="round" stroke-linejoin="round" mask="url(#h)"/>
    </g>
    <g transform="translate(75 .595)">
      <mask id="j" fill="#fff">
        <use xlink:href="#i"/>
      </mask>
      <path stroke="#F2F3F4" stroke-width="2" d="M3.2845-7.6097C1.3605-2.7517.2905 2.5383.2905 8.0813c0 23.549 19.091 42.639 42.64 42.639 5.866 0 11.455-1.186 16.542-3.329 6.377 23.765 28.058 41.267 53.837 41.267 19.793 0 37.164-10.325 47.056-25.873 8.493 5.233 18.491 8.258 29.199 8.258 19.532 0 36.718-10.044 46.673-25.25" stroke-linecap="round" stroke-linejoin="round" mask="url(#j)"/>
    </g>
    <path stroke="#F2F3F4" stroke-width="2" d="M202.5722 122.338l-16.908-16.908m170.6377 6.112l-7.57-7.57" stroke-linecap="round" stroke-linejoin="round"/>
    <path fill="#FFF" d="M289.3287 125.6934c0 6.092-2.469 11.031-5.516 11.031-3.046 0-5.515-4.939-5.515-11.031 0-6.092 2.469-11.031 5.515-11.031 3.047 0 5.516 4.939 5.516 11.031"/>
    <path fill="#FFF" d="M283.8131 114.6622l44.814-3.677v29.416l-44.814-3.677"/>
    <mask id="l" fill="#fff">
      <use xlink:href="#k"/>
    </mask>
    <path fill="#FFF" d="M298.866 232.559h114.947V21.128H298.866" mask="url(#l)"/>
    <path stroke="#E1E9F4" stroke-width="2" d="M289.3287 125.6934c0 6.092-2.469 11.031-5.516 11.031-3.046 0-5.515-4.939-5.515-11.031 0-6.092 2.469-11.031 5.515-11.031 3.047 0 5.516 4.939 5.516 11.031zm43.293 10.1428c-1.005 2.813-2.423 4.565-3.994 4.565m5.4909-16.1004c.016.458.024.923.024 1.393m-5.5152-14.7087c2.26 0 4.202 3.623 5.054 8.81m-49.8683 16.9295l44.814 3.677m-44.814-25.7394l44.814-3.677m-29.761 1.8385v-60.747m0 86.4864v90.199m19.7235-133.8629c-4.991 0-9.074-4.083-9.074-9.074v-13.107c0-4.991 4.083-9.074 9.074-9.074s9.074 4.083 9.074 9.074v13.107c0 4.991-4.083 9.074-9.074 9.074z" stroke-linecap="round" stroke-linejoin="round" mask="url(#l)"/>
    <path stroke="#E1E9F4" stroke-width="2" d="M320.404 94.1832c-3.254-1.382-5.551-4.615-5.551-8.358v-13.107c0-4.063 2.706-7.524 6.404-8.671m29.3586 30.852c-4.991 0-9.074-4.083-9.074-9.074v-13.107c0-4.991 4.083-9.074 9.074-9.074s9.074 4.083 9.074 9.074v13.107c0 4.991-4.083 9.074-9.074 9.074z" stroke-linecap="round" stroke-linejoin="round" mask="url(#l)"/>
    <path stroke="#E1E9F4" stroke-width="2" d="M352.43 94.1832c-3.254-1.382-5.551-4.615-5.551-8.358v-13.107c0-4.063 2.706-7.524 6.404-8.671m-22.6585 124.6714c-4.991 0-9.074-4.083-9.074-9.074v-15.865c0-4.991 4.083-9.074 9.074-9.074s9.074 4.083 9.074 9.074v15.865c0 4.991-4.083 9.074-9.074 9.074z" stroke-linecap="round" stroke-linejoin="round" mask="url(#l)"/>
    <path stroke="#E1E9F4" stroke-width="2" d="M332.4389 188.0026c-3.254-1.382-5.551-4.615-5.551-8.358v-15.865c0-4.062 2.706-7.524 6.404-8.671" stroke-linecap="round" stroke-linejoin="round" mask="url(#l)"/>
    <g mask="url(#l)">
      <path fill="#FFF" d="M154.787-3.3857c-.162 1.39-.254 2.801-.254 4.234 0 19.247 15.006 34.981 33.955 36.161 2.779 22.703 22.113 40.291 45.567 40.291 18.589 0 34.586-11.052 41.812-26.937 4.167 1.671 8.711 2.599 13.475 2.599 13.175 0 24.705-7.031 31.049-17.545 3.165 1.078 6.554 1.671 10.083 1.671 9.05 0 17.199-3.849 22.91-9.993 7.187 11.78 20.158 19.646 34.967 19.646 8.254 0 15.931-2.451 22.36-6.653 6.788 13.214 20.544 22.261 36.422 22.261 15.362 0 28.739-8.467 35.741-20.984 1.895.268 3.829.416 5.798.416 22.607 0 40.933-18.326 40.933-40.933 0-1.43-.074-2.842-.217-4.234"/>
      <path stroke="#E1E9F4" stroke-width="2" d="M154.787-3.3857c-.162 1.39-.254 2.801-.254 4.234 0 19.247 15.006 34.981 33.955 36.161 2.779 22.703 22.113 40.291 45.567 40.291 18.589 0 34.586-11.052 41.812-26.937 4.167 1.671 8.711 2.599 13.475 2.599 13.175 0 24.705-7.031 31.049-17.545 3.165 1.078 6.554 1.671 10.083 1.671 9.05 0 17.199-3.849 22.91-9.993 7.187 11.78 20.158 19.646 34.967 19.646 8.254 0 15.931-2.451 22.36-6.653 6.788 13.214 20.544 22.261 36.422 22.261 15.362 0 28.739-8.467 35.741-20.984 1.895.268 3.829.416 5.798.416 22.607 0 40.933-18.326 40.933-40.933 0-1.43-.074-2.842-.217-4.234" stroke-linecap="round" stroke-linejoin="round"/>
    </g>
    <path fill="#FFF" d="M170.7804 45.6653c-5.853-5.328-1.529-16.82 6.385-16.968 5.852 5.328 1.528 16.82-6.385 16.968z" mask="url(#l)"/>
    <path stroke="#E1E9F4" stroke-width="2" d="M170.7804 45.6653c-5.853-5.328-1.529-16.82 6.385-16.968 5.852 5.328 1.528 16.82-6.385 16.968z" stroke-linecap="round" stroke-linejoin="round" mask="url(#l)"/>
    <path fill="#FFF" d="M268.9293 22.4632c-7.083 3.533-16.236-4.651-13.515-12.083 7.082-3.533 16.236 4.651 13.515 12.083z" mask="url(#l)"/>
    <path stroke="#E1E9F4" stroke-width="2" d="M268.9293 22.4632c-7.083 3.533-16.236-4.651-13.515-12.083 7.082-3.533 16.236 4.651 13.515 12.083z" stroke-linecap="round" stroke-linejoin="round" mask="url(#l)"/>
    <path fill="#FFF" d="M250.2315 27.3674c-6.06-5.091-2.195-16.746 5.706-17.208 6.06 5.092 2.195 16.746-5.706 17.208z" mask="url(#l)"/>
    <path stroke="#E1E9F4" stroke-width="2" d="M250.2315 27.3674c-6.06-5.091-2.195-16.746 5.706-17.208 6.06 5.092 2.195 16.746-5.706 17.208z" stroke-linecap="round" stroke-linejoin="round" mask="url(#l)"/>
    <g mask="url(#l)">
      <path fill="#FFF" d="M376.0741 204.7007v21.061h-4.835v-21.061"/>
      <path stroke="#E1E9F4" stroke-width="2" d="M376.0741 204.7007v21.061h-4.835v-21.061" stroke-linecap="round" stroke-linejoin="round"/>
    </g>
    <g mask="url(#l)">
      <path fill="#FFF" d="M376.0741 204.7007v21.061h-4.835v-21.061"/>
      <path stroke="#E1E9F4" stroke-width="2" d="M376.0741 204.7007v21.061h-4.835v-21.061" stroke-linecap="round" stroke-linejoin="round"/>
    </g>
    <path fill="#FFF" d="M381.6271 218.4987h-15.941l2.916-13.396c.517-2.377 2.621-4.072 5.054-4.072h.001c2.433 0 4.537 1.695 5.054 4.072l2.916 13.396z" mask="url(#l)"/>
    <path stroke="#E1E9F4" stroke-width="2" d="M381.6271 218.4987h-15.941l2.916-13.396c.517-2.377 2.621-4.072 5.054-4.072h.001c2.433 0 4.537 1.695 5.054 4.072l2.916 13.396z" stroke-linecap="round" stroke-linejoin="round" mask="url(#l)"/>
    <path fill="#FFF" d="M381.6271 218.4987h-15.941l2.916-13.396c.517-2.377 2.621-4.072 5.054-4.072h.001c2.433 0 4.537 1.695 5.054 4.072l2.916 13.396z" mask="url(#l)"/>
    <path stroke="#E1E9F4" stroke-width="2" d="M381.6271 218.4987h-15.941l2.916-13.396c.517-2.377 2.621-4.072 5.054-4.072h.001c2.433 0 4.537 1.695 5.054 4.072l2.916 13.396z" stroke-linecap="round" stroke-linejoin="round" mask="url(#l)"/>
    <path fill="#FFF" d="M156.8305 106.4058c-7.378 2.866-15.739-6.125-12.346-13.275 7.377-2.866 15.739 6.125 12.346 13.275z" mask="url(#l)"/>
    <path stroke="#E1E9F4" stroke-width="2" d="M156.8305 106.4058c-7.378 2.866-15.739-6.125-12.346-13.275 7.377-2.866 15.739 6.125 12.346 13.275z" stroke-linecap="round" stroke-linejoin="round" mask="url(#l)"/>
  </g>
</svg>