
<svg xmlns="http://www.w3.org/2000/svg" width="294" height="90">
  <g fill="none" fill-rule="evenodd">
    <path stroke="#1C1F23" stroke-width="3" d="M290.9312 27.9412l-1.414 1.414m-5.6571 5.657l-1.414 1.414m8.4851.0003l-1.414-1.414m-5.6571-5.6571l-1.414-1.414M10.9853 50.5215l-1.414 1.414m-5.6571 5.6571l-1.414 1.414m8.4851.0002l-1.414-1.414m-5.6571-5.6571l-1.414-1.414m146.1014-34.2644l-1.414 1.414m-5.6571 5.6571l-1.414 1.414m8.4851.0002l-1.414-1.414m-5.6571-5.6571l-1.414-1.414M274.6833 67.1c0 1.657-1.343 3-3 3s-3-1.343-3-3 1.343-3 3-3 3 1.343 3 3zM122.7884 7.4999c0 1.657-1.343 3-3 3s-3-1.343-3-3 1.343-3 3-3 3 1.343 3 3zM33.7596 80.4257v6m3-3h-6m-6.289-44.4552v6m3-3h-6m241.2127-12.7867v6m3-3h-6" stroke-linecap="round" stroke-linejoin="round"/>
    <path d="M0 0h294v90H0z"/>
  </g>
</svg>