<svg xmlns="http://www.w3.org/2000/svg" width="24" height="24" viewBox="0 0 24 24">
  <g fill="none" fill-rule="evenodd" transform="matrix(-1 0 0 1 24 0)">
    <rect width="24" height="24"/>
    <g transform="matrix(-1 0 0 1 21 3)">
      <path fill="#4F545C" d="M17,9 C17,10.19 16.66,11.3 16.1,12.28 L14.87,11.05 C15.14,10.43 15.3,9.74 15.3,9 L17,9 L17,9 Z M13,9.16 L7,3.18 L7,3 C7,1.34314575 8.34314575,4.4408921e-16 10,0 C11.6568542,0 13,1.34314575 13,3 L13,9 L13,9.16 L13,9.16 Z M13.54,14.81 C12.77,15.27 11.91,15.58 11,15.72 L11,19 L9,19 L9,15.72 C5.72,15.23 3,12.41 3,9 L4.7,9 C4.7,12 7.24,14.1 10,14.1 C10.81,14.1 11.6,13.91 12.31,13.58 L10.65,11.92 L10,12 C8.34314575,12 7,10.6568542 7,9 L7,8.28 L13.54,14.81 Z"/>
      <polygon fill="#F04747" points="1.27 1 18 17.73 16.73 19 0 2.27"/>
    </g>
  </g>
</svg>
