<svg width="84" height="41" fill="none" xmlns="http://www.w3.org/2000/svg">
  <rect x="9.64836" width="62.898" height="36.0205" rx="3" fill="#7289da"/>
  <path fill-rule="evenodd" clip-rule="evenodd" d="M50.0157 31.987c0-4.4258 3.2142-8.0131 7.1791-8.0131 3.9655 0 7.179 3.5873 7.179 8.0131 0 4.4251-3.2135 8.013-7.179 8.013-3.9649 0-7.1791-3.5879-7.1791-8.013zM64.7597 31.987c0-4.4258 3.2142-8.0131 7.1791-8.0131 3.9655 0 7.179 3.5873 7.179 8.0131 0 4.4251-3.2135 8.013-7.179 8.013-3.9649 0-7.1791-3.5879-7.1791-8.013z" fill="#fff"/>
  <path clip-rule="evenodd" d="M50.0157 31.987c0-4.4258 3.2142-8.0131 7.1791-8.0131 3.9655 0 7.179 3.5873 7.179 8.0131 0 4.4251-3.2135 8.013-7.179 8.013-3.9649 0-7.1791-3.5879-7.1791-8.013z" stroke="#202225" stroke-width="1.5" stroke-linecap="round" stroke-linejoin="round"/>
  <path fill-rule="evenodd" clip-rule="evenodd" d="M50.0158 31.9869c0-2.7777 2.0167-5.0297 4.5059-5.0297 2.4885 0 4.5065 2.252 4.5065 5.0297 0 2.7776-2.018 5.0296-4.5065 5.0296-2.4892 0-4.5059-2.252-4.5059-5.0296z" fill="#202225"/>
  <path clip-rule="evenodd" d="M64.7597 31.987c0-4.4258 3.2142-8.0131 7.1791-8.0131 3.9655 0 7.179 3.5873 7.179 8.0131 0 4.4251-3.2135 8.013-7.179 8.013-3.9649 0-7.1791-3.5879-7.1791-8.013z" stroke="#202225" stroke-width="1.5" stroke-linecap="round" stroke-linejoin="round"/>
  <path fill-rule="evenodd" clip-rule="evenodd" d="M64.7597 31.9869c0-2.7777 2.0168-5.0297 4.5059-5.0297 2.4886 0 4.5066 2.252 4.5066 5.0297 0 2.7776-2.018 5.0296-4.5066 5.0296-2.4891 0-4.5059-2.252-4.5059-5.0296z" fill="#202225"/>
  <g opacity=".3" fill="#fff">
    <circle opacity=".9" cx="17.2454" cy="7.17948" r="2.05128"/>
    <circle opacity=".9" cx="17.2454" cy="14.359" r="2.05128"/>
    <circle opacity=".9" cx="17.2454" cy="21.5384" r="2.05128"/>
    <circle opacity=".9" cx="17.2454" cy="28.7179" r="2.05128"/>
    <rect opacity=".9" x="21.5384" y="6.15384" width="25.6849" height="2.5641" rx="1"/>
    <rect opacity=".9" x="21.5384" y="13.3333" width="10.8147" height="2.5641" rx="1"/>
    <rect opacity=".9" x="21.5384" y="20.5128" width="16.898" height="2.5641" rx="1"/>
    <rect opacity=".9" x="21.5384" y="27.6923" width="20.5128" height="2.5641" rx="1"/>
  </g>
  <path fill-rule="evenodd" clip-rule="evenodd" d="M3.41278.756743c0-.417705-.33825-.75671248-.75672-.75671248-.41846 0-.75671.33900748-.75671.75671248 0 .631097-.51154 1.142637-1.142637 1.142637C.339007 1.89938 0 2.23839 0 2.65609c0 .41771.339007.75671.756713.75671.631097 0 1.142637.51154 1.142637 1.14264 0 .41771.33825.75671.75671.75671.41847 0 .75672-.339.75672-.75671 0-.6311.51154-1.14264 1.14263-1.14264.41847 0 .75672-.339.75672-.75671 0-.4177-.33825-.75671-.75672-.75671-.63109 0-1.14263-.51154-1.14263-1.142637z" fill="#ACB0FF"/>
  <path fill-rule="evenodd" clip-rule="evenodd" d="M82.6681 13.7587l-.7329.7322c-.2414.2414-.2414.6332 0 .8752.1213.1207.2798.1814.4376.1814.1585 0 .317-.0607.4377-.1814l.7328-.7322c.2421-.242.2421-.6332 0-.8752-.242-.242-.6332-.242-.8752 0zm-4.3948 4.3946c-.2414.2414-.2414.6332 0 .8752.1213.1207.2797.1814.4376.1814.1584 0 .3175-.0607.4376-.1814l.7329-.7328c.242-.242.242-.6332 0-.8752s-.6339-.242-.8753 0l-.7328.7328zm4.5374-.7328c-.242-.242-.6332-.242-.8752 0-.2421.242-.2421.6332 0 .8752l.7328.7328c.1207.1207.2792.1814.4377.1814.1578 0 .3163-.0607.4376-.1814.2414-.242.2414-.6338 0-.8752l-.7329-.7328zm-3.6621-3.662c-.2414-.2414-.6339-.2414-.8753 0-.2414.242-.2414.6338 0 .8752l.7329.7323c.1207.1207.2792.1813.4376.1813.1585 0 .3169-.0606.4376-.1813.2421-.242.2421-.6332 0-.8752l-.7328-.7323z" fill="#7289da"/>
</svg>
