<svg xmlns="http://www.w3.org/2000/svg" width="18" height="18" viewBox="0 0 18 18">
  <g fill="none" fill-rule="evenodd">
    <polygon points="0 0 18 0 18 18 0 18"/>
    <path fill="#99AAB5" d="M15,13.5864868 L15,5.5 L10.5,1 L4.5,1 C3.675,1 3.0075,1.675 3.0075,2.5 L3,14.5 C3,15.325 3.6675,16 4.4925,16 L13.5,16 C13.8375,16 14.1375,15.8875 14.3925,15.7 L11.07,12.3775 C10.47,12.7675 9.765,13 9,13 C6.93,13 4.99908823,11.1342286 4.99908823,9.06422858 C4.99908823,6.99422858 6.93,4.96747767 9,4.96747767 C11.07,4.96747767 12.9777857,6.99422858 12.9777857,9.06422858 C12.9777857,9.82922858 12.6741187,10.4445483 12.2841187,11.0370483 L15,13.5864868 Z M7,9 C7,10.1066667 7.89333333,11 9,11 C10.1066667,11 11,10.1066667 11,9 C11,7.89333333 10.1066667,7 9,7 C7.89333333,7 7,7.89333333 7,9 Z"/>
  </g>
</svg>
