<svg xmlns="http://www.w3.org/2000/svg" width="83" height="75" viewBox="0 0 83 75">
  <g fill="none" fill-rule="evenodd" transform="translate(1 1)">
    <polygon fill="#35383C" points="40.473 51.987 40.473 98.719 80.945 75.353 80.945 28.62"/>
    <polygon fill="#35383C" points="0 75.353 40.471 98.719 40.471 51.987 0 28.619"/>
    <polygon fill="#35383C" points="0 28.619 40.471 51.985 80.942 28.619 40.471 5.251"/>
    <g stroke="#282B32" stroke-linecap="round" stroke-linejoin="round" stroke-width="2" transform="translate(0 9.719)">
      <polygon points="80.945 70.634 40.473 94 40.473 47.268 80.945 23.902"/>
      <polygon points="40.471 94.001 0 70.635 0 23.899 40.471 47.269"/>
      <polygon points="40.471 47.266 0 23.9 40.471 .532 80.942 23.9"/>
    </g>
    <g transform="translate(20 34)">
      <polygon fill="#35383C" points=".924 11.698 20.472 .412 20.472 22.984 .924 34.27"/>
      <polygon fill="#35383C" points="20.473 .412 40.021 11.698 40.021 34.271 20.473 22.984"/>
      <polygon fill="#35383C" points="20.473 22.985 40.021 34.271 20.473 45.558 .925 34.271"/>
      <polygon stroke="#282B32" stroke-linecap="round" stroke-linejoin="round" stroke-width="2" points=".924 11.698 20.472 .412 20.472 22.984 .924 34.27"/>
      <polygon stroke="#282B32" stroke-linecap="round" stroke-linejoin="round" stroke-width="2" points="20.473 .412 40.021 11.698 40.021 34.271 20.473 22.984"/>
      <polygon stroke="#282B32" stroke-linecap="round" stroke-linejoin="round" stroke-width="2" points="20.473 22.985 40.021 34.271 20.473 45.558 .925 34.271"/>
    </g>
    <path fill="#000" d="M34,65 L28,65 L40.5,78 L53,65 L47,65 L47,43 L34,43 L34,65 Z" transform="matrix(1 0 0 -1 0 121)"/>
    <g transform="translate(20)">
      <polygon fill="#E4E9F9" points="40.021 33.86 20.473 45.146 20.473 22.574 40.021 11.288"/>
      <polygon fill="#EDF3FC" points="20.472 45.146 .924 33.86 .924 11.287 20.472 22.574"/>
      <polygon fill="#F5F8FC" points="20.472 22.573 .924 11.287 20.472 0 40.02 11.287"/>
      <polygon stroke="#000" stroke-linecap="round" stroke-linejoin="round" stroke-width="2" points="40.021 33.86 20.473 45.146 20.473 22.574 40.021 11.288"/>
      <path stroke="#000" stroke-linecap="round" stroke-linejoin="round" stroke-width="2" d="M25.2973284,25.3594167 L35.1966716,19.64405 M25.2973284,31.0373917 L35.1966716,25.322025 M32.5,32.5 L25.2973284,36.7153667 L32.5,32.5 Z"/>
      <polygon stroke="#000" stroke-linecap="round" stroke-linejoin="round" stroke-width="2" points="40.021 33.86 20.473 45.146 20.473 22.574 40.021 11.288"/>
      <polygon stroke="#000" stroke-linecap="round" stroke-linejoin="round" stroke-width="2" points="20.472 45.146 .924 33.86 .924 11.287 20.472 22.574"/>
      <polygon stroke="#000" stroke-linecap="round" stroke-linejoin="round" stroke-width="2" points="20.472 22.573 .924 11.287 20.472 0 40.02 11.287"/>
    </g>
  </g>
</svg>
