<svg xmlns="http://www.w3.org/2000/svg" xmlns:xlink="http://www.w3.org/1999/xlink" width="210" height="92" viewBox="0 0 210 92">
  <defs>
    <polygon id="a" points="0 .001 208.376 .001 208.376 92 0 92"/>
  </defs>
  <g fill="none" fill-rule="evenodd" transform="translate(1)">
    <path fill="#36393E" d="M193.4794 57.7935C196.8034 54.9435 198.9164 50.7215 198.9164 45.9995 198.9164 38.3895 193.4424 32.0675 186.2184 30.7305 188.6544 35.2865 190.0404 40.4835 190.0404 46.0005 190.0404 54.8915 186.4484 62.9585 180.6424 68.8325 181.5394 68.9385 182.4504 69.0005 183.3754 69.0005 189.3154 69.0005 194.7364 66.7365 198.8214 63.0275 197.4144 60.9315 195.5864 59.1605 193.4794 57.7935M177.1982 69.294C175.5222 66.707 173.3542 64.483 170.8362 62.735 167.1802 65.645 162.5642 67.398 157.5402 67.398 156.7242 67.398 155.9232 67.342 155.1322 67.252 154.1602 70.527 152.1882 73.37 149.5722 75.437 152.1142 76.126 154.7832 76.5 157.5402 76.5 165.0252 76.5 171.8852 73.785 177.1982 69.294"/>
    <path fill="#36393E" d="M157.54 65.3975C168.235 65.3975 176.937 56.6955 176.937 46.0005 176.937 35.3035 168.235 26.6025 157.54 26.6025 156.425 26.6025 155.339 26.7175 154.275 26.8985 155.251 28.9935 155.812 31.3185 155.812 33.7775L155.812 36.7305C159.48 37.0275 162.376 40.1005 162.376 43.8435L162.376 50.4975C162.376 55.8635 159.767 60.6195 155.763 63.6035 155.728 64.1765 155.665 64.7415 155.572 65.2975 156.22 65.3635 156.876 65.3975 157.54 65.3975M18.3359 46.0001C18.3359 40.4831 19.7219 35.2861 22.1569 30.7301 14.9339 32.0681 9.4589 38.3891 9.4589 46.0001 9.4589 50.7221 11.5729 54.9431 14.8969 57.7931 12.7859 59.1631 10.9549 60.9381 9.5469 63.0381 12.2519 65.4941 15.5599 67.3321 19.2859 68.2851 19.8129 68.4191 20.1289 68.9491 20.0079 69.4761 21.6189 69.8171 23.2879 70.0001 24.9999 70.0001 26.2429 70.0001 27.4639 69.9051 28.6549 69.7231 22.3119 63.7881 18.3359 55.3521 18.3359 46.0001M50.8359 76.5001C55.7559 76.5001 60.4029 75.3221 64.5239 73.2441 62.7169 70.7951 61.1519 68.1611 59.8539 65.3771 57.1079 66.6601 54.0609 67.3971 50.8359 67.3971 45.8119 67.3971 41.1949 65.6451 37.5399 62.7351 35.0229 64.4831 32.8549 66.7081 31.1779 69.2941 36.4909 73.7851 43.3509 76.5001 50.8359 76.5001"/>
    <path fill="#36393E" d="M50.8359,26.6021 C40.1409,26.6021 31.4389,35.3041 31.4389,46.0001 C31.4389,56.6961 40.1409,65.3971 50.8359,65.3971 C53.7729,65.3971 56.5479,64.7221 59.0459,63.5491 C56.8039,58.1381 55.5589,52.2121 55.5589,46.0001 C55.5589,39.7881 56.8039,33.8621 59.0459,28.4501 C56.5479,27.2771 53.7729,26.6021 50.8359,26.6021"/>
    <path fill="#72767D" d="M98.6757,46.191 C98.6757,44.18 100.3217,42.535 102.3317,42.535 L102.6967,42.535 C104.7077,42.535 106.3537,44.18 106.3537,46.191 L106.3537,46.557 C106.3537,48.567 104.7077,50.212 102.6967,50.212 L102.3317,50.212 C100.3217,50.212 98.6757,48.567 98.6757,46.557 L98.6757,46.191 Z M102.7767,78.965 C102.2237,78.965 101.7767,78.518 101.7767,77.965 C101.7767,77.413 102.2237,76.965 102.7767,76.965 L139.4577,76.965 C146.5657,76.965 152.4667,71.768 153.6007,64.976 C151.3317,66.169 148.7557,66.852 146.0207,66.852 L129.6427,66.852 C120.6237,66.852 113.2867,59.515 113.2867,50.497 L113.2867,43.843 C113.2867,39.905 116.4907,36.702 120.4297,36.702 L129.6427,36.702 C130.1957,36.702 130.6427,37.149 130.6427,37.702 L138.4987,37.702 C138.4987,37.149 138.9467,36.702 139.4987,36.702 L153.8127,36.702 L153.8127,33.777 C153.8127,26.1 147.7487,19.829 140.1627,19.458 C140.0617,20.859 139.6617,22.189 138.9537,23.407 C138.6757,23.885 138.0657,24.045 137.5877,23.769 C137.5687,23.758 137.5587,23.739 137.5397,23.727 C137.2087,24.174 136.8387,24.596 136.4287,24.99 C136.4397,25.002 136.4537,25.007 136.4637,25.019 C136.8107,25.449 136.7427,26.078 136.3137,26.425 C134.6587,27.758 132.5217,28.807 130.1307,29.459 C128.3487,29.944 126.4967,30.193 124.7027,30.193 C124.2237,30.193 123.7487,30.175 123.2797,30.14 C114.9307,29.5 107.3637,26.486 101.3977,21.424 C101.0747,21.15 100.5327,20.691 100.2757,20.012 C100.2007,19.816 100.1627,19.619 100.1427,19.422 L87.4167,19.422 C82.1517,21.414 78.2437,26.215 77.5637,31.981 L81.4137,31.981 C81.9667,31.981 82.4137,32.429 82.4137,32.981 C82.4137,33.533 81.9667,33.981 81.4137,33.981 L68.9597,33.981 C65.2787,33.981 62.2817,36.977 62.2817,40.659 L62.2817,52.942 C62.2817,56.625 65.2787,59.62 68.9597,59.62 L81.4137,59.62 C81.9667,59.62 82.4137,60.068 82.4137,60.62 C82.4137,61.172 81.9667,61.62 81.4137,61.62 L77.4477,61.62 L77.4477,62.61 C77.4477,69.16 81.6117,74.77 87.4157,76.965 L94.2457,76.965 C94.7987,76.965 95.2457,77.413 95.2457,77.965 C95.2457,78.518 94.7987,78.965 94.2457,78.965 L86.8627,78.965 L84.2727,78.965 L72.4617,78.965 C80.2237,85.825 90.4097,90 101.5587,90 C112.7067,90 122.8937,85.825 130.6547,78.965 L102.7767,78.965 Z"/>
    <path fill="#4F545C" d="M77.4482 62.6104L77.4482 61.6204 69.9182 61.6204 69.9182 62.6104C69.9182 70.5264 76.3572 76.9654 84.2722 76.9654L86.8622 76.9654 87.4162 76.9654C81.6112 74.7694 77.4482 69.1594 77.4482 62.6104M87.4169 19.4224L84.2719 19.4224C76.9669 19.4224 70.9309 24.9124 70.0429 31.9814L77.5629 31.9814C78.2439 26.2144 82.1509 21.4144 87.4169 19.4224"/>
    <path fill="#B9BBBE" d="M142.6494,56.3091 C142.6494,57.6881 141.5214,58.8161 140.1424,58.8161 L135.1284,58.8161 C133.7504,58.8161 132.6224,57.6881 132.6224,56.3091 C132.6224,54.9301 133.7504,53.8021 135.1284,53.8021 L140.1424,53.8021 C141.5214,53.8021 142.6494,54.9301 142.6494,56.3091 Z M152.1474,53.8021 C153.5264,53.8021 154.6544,54.9301 154.6544,56.3091 C154.6544,57.6881 153.5264,58.8161 152.1474,58.8161 L149.1394,58.8161 C147.7604,58.8161 146.6314,57.6881 146.6314,56.3091 C146.6314,54.9301 147.7604,53.8021 149.1394,53.8021 L152.1474,53.8021 Z M130.6424,37.7021 C130.6424,38.2541 130.1954,38.7021 129.6424,38.7021 L120.4294,38.7021 C117.5934,38.7021 115.2874,41.0081 115.2874,43.8431 L115.2874,50.4971 C115.2874,58.4131 121.7264,64.8521 129.6424,64.8521 L146.0204,64.8521 C153.9364,64.8521 160.3764,58.4131 160.3764,50.4971 L160.3764,43.8431 C160.3764,41.0081 158.0694,38.7021 155.2334,38.7021 L139.4994,38.7021 C138.9464,38.7021 138.4994,38.2541 138.4994,37.7021 L130.6424,37.7021 Z"/>
    <path fill="#4F545C" d="M135.1289 53.8023C133.7499 53.8023 132.6219 54.9303 132.6219 56.3093 132.6219 57.6883 133.7499 58.8163 135.1289 58.8163L140.1429 58.8163C141.5219 58.8163 142.6499 57.6883 142.6499 56.3093 142.6499 54.9303 141.5219 53.8023 140.1429 53.8023L135.1289 53.8023zM146.6318 56.3091C146.6318 57.6881 147.7608 58.8161 149.1398 58.8161L152.1478 58.8161C153.5268 58.8161 154.6538 57.6881 154.6538 56.3091 154.6538 54.9301 153.5268 53.8021 152.1478 53.8021L149.1398 53.8021C147.7608 53.8021 146.6318 54.9301 146.6318 56.3091M137.2255 22.4019C138.3895 20.3959 138.5115 18.0709 137.5855 15.4919 137.5615 15.4249 137.5295 15.3619 137.5025 15.2959 133.6485 17.8059 129.1845 19.5179 124.3755 20.2639 124.3245 20.2719 124.2725 20.2759 124.2215 20.2759 123.7365 20.2759 123.3115 19.9229 123.2345 19.4289 123.1495 18.8829 123.5235 18.3719 124.0695 18.2869 128.6585 17.5749 132.9115 15.9329 136.5645 13.5219 135.5765 12.0809 134.1575 10.9109 132.4065 10.1449 129.5105 8.8769 126.1035 8.8359 123.2895 10.0299 121.7705 10.6759 120.3695 11.5339 118.8865 12.4439 118.0975 12.9269 117.3085 13.4109 116.5015 13.8599 113.7965 15.3689 110.8925 16.5039 107.8715 17.2319 106.8305 17.4819 105.7725 17.6849 104.7265 17.8339L104.5525 17.8589C103.8405 17.9589 103.1675 18.0539 102.6725 18.3589 102.2965 18.5899 102.0445 19.0389 102.1445 19.3009 102.2135 19.4839 102.4535 19.6959 102.6915 19.8989 108.3345 24.6869 115.5065 27.5379 123.4325 28.1459 125.4245 28.2979 127.5625 28.0849 129.6055 27.5289 131.7315 26.9499 133.6175 26.0289 135.0575 24.8679 135.4775 24.5299 136.0775 24.5929 136.4285 24.9899 136.8385 24.5959 137.2085 24.1739 137.5395 23.7269 137.1065 23.4349 136.9575 22.8599 137.2255 22.4019"/>
    <path fill="#202225" d="M196.2343,26.9273 C192.4313,24.3583 187.9853,23.0003 183.3763,23.0003 C182.4503,23.0003 181.5393,23.0613 180.6423,23.1683 C182.8453,25.3973 184.7293,27.9433 186.2183,30.7303 C193.4423,32.0683 198.9173,38.3893 198.9173,45.9993 C198.9173,50.7213 196.8033,54.9433 193.4793,57.7933 C195.5873,59.1603 197.4143,60.9313 198.8213,63.0273 C203.4593,58.8173 206.3763,52.7423 206.3763,46.0003 C206.3763,41.5043 205.0793,37.1503 202.6263,33.4073 C202.3293,32.9533 202.4523,32.3503 202.8933,32.0423 C201.4213,29.9883 199.6373,28.1743 197.6053,26.6753 C197.2933,27.1153 196.6833,27.2323 196.2343,26.9273"/>
    <path fill="#202225" d="M157.54 15.5001C152.976 15.5001 148.645 16.5151 144.754 18.3201 148.292 19.5361 151.28 21.9281 153.256 25.0341 154.641 24.7511 156.073 24.6021 157.54 24.6021 169.339 24.6021 178.937 34.2011 178.937 46.0001 178.937 52.0321 176.419 57.4791 172.39 61.3721 174.86 63.1591 177.005 65.3801 178.705 67.9301 184.454 62.3801 188.04 54.6031 188.04 46.0001 188.04 29.1821 174.357 15.5001 157.54 15.5001M25 23.0001C12.318 23.0001 2 33.3181 2 46.0001 2 52.6681 4.863 58.7851 9.547 63.0381 10.955 60.9381 12.786 59.1631 14.896 57.7931 11.573 54.9431 9.459 50.7221 9.459 46.0001 9.459 38.3891 14.934 32.0681 22.157 30.7301 23.647 27.9431 25.53 25.3971 27.733 23.1681 26.837 23.0611 25.926 23.0001 25 23.0001"/>
    <path fill="#202225" d="M35.9853,61.3712 C31.9573,57.4782 29.4383,52.0322 29.4383,46.0002 C29.4383,34.2012 39.0373,24.6022 50.8363,24.6022 C54.0603,24.6022 57.1093,25.3392 59.8533,26.6222 C61.1523,23.8392 62.7173,21.2042 64.5233,18.7562 C60.4033,16.6782 55.7563,15.5002 50.8363,15.5002 C34.0183,15.5002 20.3363,29.1822 20.3363,46.0002 C20.3363,54.6032 23.9223,62.3802 29.6713,67.9302 C31.3713,65.3792 33.5153,63.1592 35.9853,61.3712"/>
    <path fill="#36393F" d="M117.8017,5.0948 C112.6347,3.0408 107.1697,1.9998 101.5587,1.9998 C77.2967,1.9998 57.5587,21.7388 57.5587,45.9998 C57.5587,58.0648 62.4427,69.0088 70.3337,76.9658 L76.4457,76.9658 C71.3687,74.1858 67.9177,68.7948 67.9177,62.6108 L67.9177,61.5518 C63.6227,61.0338 60.2817,57.3738 60.2817,52.9428 L60.2817,40.6588 C60.2817,36.1938 63.6727,32.5088 68.0137,32.0348 C68.8867,23.8338 75.8437,17.4228 84.2727,17.4228 L100.7827,17.4228 C101.0267,17.1148 101.3127,16.8468 101.6247,16.6558 C102.4757,16.1318 103.4317,15.9968 104.2747,15.8788 L104.4437,15.8548 C105.4277,15.7138 106.4237,15.5228 107.4027,15.2868 C110.2467,14.6018 112.9817,13.5338 115.5277,12.1138 C116.3107,11.6778 117.0757,11.2078 117.8407,10.7388 C119.3217,9.8308 120.8517,8.8928 122.5087,8.1888 C123.2487,7.8748 124.0287,7.6438 124.8227,7.4738 C122.9937,6.3678 121.0807,5.3868 119.0937,4.5448 C118.8857,5.0508 118.3107,5.2978 117.8017,5.0948"/>
    <mask id="b" fill="white">
      <use xlink:href="#a"/>
    </mask>
    <path fill="#000000" d="M175.541,64.0635 C175.52,64.0415 175.498,64.0205 175.477,63.9985 C173.932,62.4585 173.818,60.0215 175.071,58.2355 C178.054,53.9835 179.533,48.6085 178.714,42.8735 C177.39,33.6085 169.963,26.1805 160.701,24.8325 C159.021,24.5875 157.373,24.5425 155.773,24.6745 C154.288,24.7975 152.83,24.2685 151.853,23.1425 C151.824,23.1095 151.795,23.0765 151.767,23.0425 C149.352,20.2605 151.134,15.9525 154.803,15.6225 C156.932,15.4315 159.122,15.4605 161.354,15.7345 C175.401,17.4615 186.549,28.9265 187.896,43.0145 C188.628,50.6565 186.516,57.7935 182.499,63.4995 C180.858,65.8305 177.552,66.0835 175.541,64.0635 M157.54,76.5005 C157.031,76.5005 156.524,76.4875 156.021,76.4615 C153.416,76.3315 151.991,73.4055 153.365,71.1885 C153.729,70.6005 154.058,69.9875 154.346,69.3535 C154.905,68.1245 156.165,67.3955 157.516,67.3975 L157.54,67.3975 C161.728,67.3975 165.631,66.1805 168.932,64.0905 C170.221,63.2735 171.912,63.4655 173.055,64.4785 C173.697,65.0475 174.309,65.6525 174.886,66.2895 C176.298,67.8465 176.045,70.3135 174.29,71.4715 C169.479,74.6465 163.724,76.5005 157.54,76.5005 M155.812,36.7305 L155.812,33.7775 C155.812,31.3185 155.251,28.9935 154.275,26.8985 C155.339,26.7175 156.425,26.6025 157.54,26.6025 C168.235,26.6025 176.937,35.3035 176.937,46.0005 C176.937,56.6955 168.235,65.3975 157.54,65.3975 C156.876,65.3975 156.22,65.3635 155.572,65.2975 C155.665,64.7415 155.728,64.1765 155.763,63.6035 C159.767,60.6195 162.376,55.8635 162.376,50.4975 L162.376,43.8435 C162.376,40.1005 159.48,37.0275 155.812,36.7305 M139.458,76.9655 L102.776,76.9655 C102.224,76.9655 101.776,77.4135 101.776,77.9655 C101.776,78.5175 102.224,78.9655 102.776,78.9655 L127.075,78.9655 C128.308,78.9655 128.811,80.5305 127.823,81.2685 C120.487,86.7475 111.397,90.0005 101.559,90.0005 C91.72,90.0005 82.63,86.7475 75.294,81.2685 C74.307,80.5305 74.81,78.9655 76.042,78.9655 L84.272,78.9655 L86.862,78.9655 L94.246,78.9655 C94.799,78.9655 95.246,78.5175 95.246,77.9655 C95.246,77.4135 94.799,76.9655 94.246,76.9655 L87.416,76.9655 L86.862,76.9655 L84.272,76.9655 C79.914,76.9655 76.01,75.0225 73.377,71.9575 C70.128,68.1725 72.504,62.2705 77.448,61.6205 L81.414,61.6205 C81.967,61.6205 82.414,61.1725 82.414,60.6205 C82.414,60.0675 81.967,59.6205 81.414,59.6205 L68.96,59.6205 C65.271,59.6205 62.282,56.6305 62.282,52.9425 L62.282,40.6585 C62.282,36.9705 65.271,33.9805 68.96,33.9805 L81.414,33.9805 C81.967,33.9805 82.414,33.5335 82.414,32.9805 C82.414,32.4285 81.967,31.9805 81.414,31.9805 L77.563,31.9805 L72.527,31.9805 C71.198,31.9805 70.201,30.6965 70.603,29.4305 C72.448,23.6345 77.873,19.4225 84.272,19.4225 L87.417,19.4225 L100.143,19.4225 C100.163,19.6185 100.201,19.8155 100.275,20.0115 C100.533,20.6915 101.075,21.1505 101.397,21.4245 C107.364,26.4865 114.931,29.5005 123.28,30.1395 C123.749,30.1755 124.224,30.1935 124.703,30.1935 C126.497,30.1935 128.349,29.9445 130.131,29.4585 C132.521,28.8075 134.659,27.7585 136.313,26.4245 C136.743,26.0785 136.811,25.4485 136.464,25.0195 C136.454,25.0065 136.439,25.0015 136.429,24.9895 C136.077,24.5935 135.478,24.5295 135.058,24.8685 C133.617,26.0295 131.731,26.9495 129.605,27.5285 C127.562,28.0845 125.425,28.2975 123.433,28.1455 C115.507,27.5385 108.335,24.6865 102.691,19.8985 C102.453,19.6965 102.214,19.4835 102.145,19.3015 C102.045,19.0395 102.297,18.5905 102.673,18.3585 C103.168,18.0535 103.841,17.9595 104.553,17.8585 L104.727,17.8345 C105.772,17.6845 106.831,17.4815 107.871,17.2315 C110.893,16.5035 113.797,15.3695 116.502,13.8605 C117.309,13.4105 118.098,12.9275 118.887,12.4435 C120.369,11.5345 121.77,10.6755 123.29,10.0295 C126.103,8.8355 129.511,8.8765 132.406,10.1445 L132.459,10.1675 C134.898,11.2425 134.893,14.6805 132.468,15.7875 C129.855,16.9795 127.032,17.8275 124.069,18.2875 C123.523,18.3725 123.149,18.8825 123.234,19.4285 C123.312,19.9225 123.736,20.2755 124.222,20.2755 C124.272,20.2755 124.324,20.2715 124.376,20.2635 C129.187,19.5175 133.655,17.8035 137.512,15.2905 C138.518,17.9505 138.42,20.3435 137.226,22.4015 C136.958,22.8605 137.106,23.4355 137.54,23.7265 C137.559,23.7385 137.568,23.7575 137.588,23.7695 C138.065,24.0455 138.676,23.8845 138.954,23.4065 C139.096,23.1635 139.225,22.9155 139.342,22.6635 C140.26,20.6845 142.449,19.5845 144.492,20.3515 C149.931,22.3915 153.812,27.6335 153.812,33.7775 C153.812,35.3925 152.503,36.7015 150.889,36.7015 L139.499,36.7015 C138.946,36.7015 138.499,37.1495 138.499,37.7015 C138.499,38.2535 138.946,38.7015 139.499,38.7015 L155.233,38.7015 C158.073,38.7015 160.376,41.0035 160.376,43.8445 L160.376,50.4965 C160.376,58.4245 153.949,64.8525 146.02,64.8525 L129.642,64.8525 C121.714,64.8525 115.287,58.4245 115.287,50.4975 L115.287,43.8435 C115.287,41.0035 117.589,38.7015 120.429,38.7015 L129.643,38.7015 C130.195,38.7015 130.643,38.2535 130.643,37.7015 C130.643,37.1495 130.195,36.7015 129.643,36.7015 L120.43,36.7015 C116.485,36.7015 113.287,39.8995 113.287,43.8445 L113.287,50.4975 C113.287,59.5295 120.609,66.8525 129.642,66.8525 L146.02,66.8525 C147.544,66.8525 149.018,66.6405 150.417,66.2465 C151.843,65.8445 153.092,67.2925 152.469,68.6365 C150.189,73.5485 145.221,76.9655 139.458,76.9655 M50.836,76.5005 C44.238,76.5005 38.127,74.3905 33.132,70.8145 C31.964,69.9795 31.795,68.3145 32.704,67.2025 C33.693,65.9925 34.8,64.8845 36.006,63.8955 C36.851,63.2005 38.055,63.1675 38.963,63.7765 C42.362,66.0585 46.443,67.3975 50.836,67.3975 C53.269,67.3975 55.601,66.9775 57.777,66.2215 C58.955,65.8125 60.263,66.2695 60.843,67.3715 C61.464,68.5515 62.135,69.7015 62.853,70.8185 C63.718,72.1655 63.128,73.9495 61.633,74.5195 C58.275,75.7965 54.637,76.5005 50.836,76.5005 M20.48,42.9985 C21.869,28.5705 32.974,17.2965 47.38,15.6925 C51.423,15.2425 55.329,15.5945 58.965,16.6045 C61.787,17.3885 63.057,20.6865 61.608,23.2325 L61.529,23.3725 C60.525,25.1375 58.446,25.9205 56.491,25.3755 C53.512,24.5465 50.277,24.3435 46.915,24.9635 C37.933,26.6205 30.867,33.9835 29.64,43.0345 C28.871,48.7075 30.35,54.0205 33.302,58.2305 C34.556,60.0185 34.445,62.4565 32.899,63.9985 C32.878,64.0195 32.856,64.0415 32.835,64.0635 C30.823,66.0835 27.517,65.8305 25.876,63.4995 C21.857,57.7885 19.745,50.6465 20.48,42.9985 M55.559,46.0005 C55.559,49.7215 56.005,53.3385 56.845,56.8055 C57.933,61.2925 54.303,65.6375 49.694,65.3635 C49.618,65.3585 49.541,65.3545 49.465,65.3485 C39.29,64.6235 31.259,55.8455 31.441,45.6465 C31.631,35.1125 40.259,26.6025 50.836,26.6025 C53.772,26.6025 56.548,27.2775 59.046,28.4505 C56.804,33.8615 55.559,39.7875 55.559,46.0005 M204.298,32.3105 C203.996,31.8485 203.375,31.7195 202.914,32.0225 C202.906,32.0275 202.902,32.0365 202.894,32.0425 C202.452,32.3505 202.329,32.9535 202.626,33.4075 C205.079,37.1495 206.376,41.5045 206.376,46.0005 C206.376,52.7425 203.459,58.8165 198.821,63.0275 C194.736,66.7365 189.315,69.0005 183.376,69.0005 L183.349,69.0005 C182.287,68.9995 181.684,67.7545 182.368,66.9435 C187.151,61.2835 190.04,53.9735 190.04,46.0005 C190.04,40.4835 188.654,35.2865 186.219,30.7305 C185.053,28.5475 183.645,26.5135 182.031,24.6635 C181.474,24.0245 181.908,23.0335 182.755,23.0085 C182.961,23.0025 183.168,23.0005 183.376,23.0005 C187.985,23.0005 192.432,24.3575 196.234,26.9275 C196.684,27.2315 197.293,27.1155 197.605,26.6755 C197.61,26.6685 197.617,26.6655 197.622,26.6585 C197.932,26.2005 197.812,25.5795 197.353,25.2705 C193.22,22.4765 188.386,21.0005 183.376,21.0005 C181.805,21.0005 180.27,21.1525 178.778,21.4315 C173.077,16.4965 165.654,13.5005 157.54,13.5005 C151.814,13.5005 146.435,14.9935 141.757,17.6035 C141.212,17.5255 140.66,17.4765 140.1,17.4545 C139.991,16.5915 139.79,15.7105 139.469,14.8165 C139.385,14.5825 139.28,14.3575 139.181,14.1305 C141.14,12.6635 142.913,10.9755 144.456,9.0845 C144.806,8.6565 144.742,8.0265 144.313,7.6775 C143.885,7.3275 143.256,7.3925 142.907,7.8195 C141.524,9.5145 139.94,11.0345 138.195,12.3675 C136.999,10.6315 135.299,9.2265 133.208,8.3125 C130.577,7.1605 127.581,6.8865 124.823,7.4745 C124.028,7.6435 123.249,7.8745 122.509,8.1885 C120.852,8.8935 119.321,9.8315 117.841,10.7385 C117.076,11.2075 116.311,11.6775 115.527,12.1135 C112.981,13.5335 110.247,14.6015 107.402,15.2875 C106.424,15.5225 105.428,15.7135 104.443,15.8545 L104.274,15.8785 C103.432,15.9975 102.476,16.1315 101.625,16.6555 C101.312,16.8475 101.026,17.1145 100.783,17.4225 L84.272,17.4225 C75.844,17.4225 68.887,23.8335 68.014,32.0355 C63.673,32.5085 60.282,36.1935 60.282,40.6585 L60.282,52.9425 C60.282,57.3745 63.623,61.0345 67.918,61.5515 L67.918,62.6105 C67.918,66.9825 69.644,70.9595 72.449,73.8965 C73.552,75.0505 72.711,76.9655 71.114,76.9655 C70.616,76.9655 70.134,76.7665 69.789,76.4065 C61.161,67.3965 56.314,54.7385 57.836,41.0065 C60.314,18.6295 79.045,1.9995 101.56,2.0005 C107.171,2.0005 112.635,3.0415 117.802,5.0945 C118.311,5.2975 118.886,5.0505 119.094,4.5445 C119.096,4.5405 119.099,4.5385 119.101,4.5345 C119.304,4.0215 119.054,3.4405 118.54,3.2365 C113.138,1.0885 107.425,0.0005 101.559,0.0005 C87.112,0.0005 74.208,6.6995 65.769,17.1475 C61.294,14.8225 56.218,13.5005 50.836,13.5005 C42.722,13.5005 35.299,16.4965 29.598,21.4315 C26.266,20.8085 22.716,20.8155 19.037,21.7465 C8.823,24.3295 1.107,33.0995 0.114,43.5865 C-1.062,56.0085 6.955,67.1965 18.791,70.2225 C18.874,70.2435 18.957,70.2535 19.039,70.2535 C19.485,70.2535 19.892,69.9535 20.007,69.5005 C20.009,69.4925 20.006,69.4845 20.008,69.4765 C20.129,68.9495 19.812,68.4195 19.286,68.2845 C15.56,67.3325 12.251,65.4935 9.547,63.0375 C4.863,58.7855 2,52.6675 2,46.0005 C2,33.3175 12.318,23.0005 25,23.0005 C25.208,23.0005 25.415,23.0025 25.621,23.0085 C26.468,23.0335 26.902,24.0245 26.345,24.6635 C24.731,26.5135 23.324,28.5475 22.157,30.7305 C19.722,35.2865 18.336,40.4835 18.336,46.0005 C18.336,55.3515 22.312,63.7885 28.655,69.7235 C34.468,75.1615 42.267,78.5005 50.836,78.5005 C54.531,78.5005 58.082,77.8765 61.393,76.7325 C64.021,75.8255 66.933,76.4015 68.903,78.3645 L69.128,78.5885 C69.177,78.6485 69.23,78.6975 69.291,78.7445 C77.601,86.9345 88.998,92.0005 101.559,92.0005 C113.048,92.0005 123.56,87.7595 131.629,80.7695 C132.965,79.6115 134.666,78.9655 136.435,78.9655 L139.458,78.9655 C142.351,78.9655 145.065,78.2035 147.425,76.8795 C150.611,77.9265 154.009,78.5005 157.54,78.5005 C165.147,78.5005 172.147,75.8665 177.689,71.4715 C178.397,70.9105 179.312,70.6795 180.209,70.7945 C183.057,71.1625 186.049,71.0575 189.133,70.3055 C199.357,67.8125 207.149,59.1155 208.238,48.6475 C208.843,42.8375 207.445,37.1115 204.298,32.3105" mask="url(#b)"/>
    <path fill="#000000" d="M102.6972,42.5352 L102.3322,42.5352 C100.3212,42.5352 98.6762,44.1802 98.6762,46.1912 L98.6762,46.5562 C98.6762,48.5672 100.3212,50.2122 102.3322,50.2122 L102.6972,50.2122 C104.7082,50.2122 106.3532,48.5672 106.3532,46.5562 L106.3532,46.1912 C106.3532,44.1802 104.7082,42.5352 102.6972,42.5352"/>
    <path fill="#4F545C" d="M78.708,37.2466 L72.372,37.2466 C70.017,37.2466 68.106,39.1556 68.106,41.5116 L68.106,52.0896 C68.106,54.4446 70.017,56.3546 72.372,56.3546 L78.708,56.3546 C79.26,56.3546 79.708,55.9066 79.708,55.3546 L79.708,38.2466 C79.708,37.6936 79.26,37.2466 78.708,37.2466"/>
  </g>
</svg>
