<svg xmlns="http://www.w3.org/2000/svg" width="66" height="64" xmlns:xlink="http://www.w3.org/1999/xlink"><defs><path id="a" d="M0 0h66v64H0z"/><path id="c" d="M0 0h66.232v99H0"/><path id="e" d="M0 0h66.232v99H0V0z"/></defs><g fill="none" fill-rule="evenodd"><mask id="b" fill="#fff"><use xlink:href="#a"/></mask><g mask="url(#b)"><path fill="#DBDDE1" d="M40 30H26c-1.105 0-2-.895-2-2V2c0-1.105.895-2 2-2h14c1.105 0 2 .895 2 2v26c0 1.105-.895 2-2 2"/><mask id="d" fill="#fff"><use xlink:href="#c"/></mask><path fill="#DBDDE1" d="M37.232 18v14c0 1.105-.105 2 1 2h21c3.866 0 7-3.134 7-7v-4c0-3.866-3.134-7-7-7h-21c-1.105 0-1 .895-1 2" mask="url(#d)"/><path fill="#DBDDE1" d="M30 18v14c0 1.105-.895 2-2 2H7c-3.866 0-7-3.134-7-7v-4c0-3.866 3.134-7 7-7h21c1.105 0 2 .895 2 2"/><path fill="#F3F3F3" d="M46 51H20c-8.837 0-16-7.163-16-16V19c0-8.837 7.163-16 16-16h26c8.837 0 16 7.163 16 16v16c0 8.837-7.163 16-16 16"/><path fill="#F9F9F9" d="M46 46H20c-8.837 0-16-7.163-16-16V19c0-8.837 7.163-16 16-16h26c8.837 0 16 7.163 16 16v11c0 8.837-7.163 16-16 16"/><path fill="#F3F3F3" d="M47 99H19c-8.837 0-16-7.163-16-16V72c0-8.837 7.163-16 16-16h28c8.837 0 16 7.163 16 16v11c0 8.837-7.163 16-16 16"/><path fill="#36393E" d="M45 37H21c-5.523 0-10-4.477-10-10v-7c0-5.523 4.477-10 10-10h24c5.523 0 10 4.477 10 10v7c0 5.523-4.477 10-10 10"/><path fill="#282B30" d="M45 10H21c-5.523 0-10 4.477-10 10v4c0-5.523 4.477-10 10-10h24c5.523 0 10 4.477 10 10v-4c0-5.523-4.477-10-10-10"/><path fill="#4CD964" d="M49.667 23.965c0 1.657-1.343 3-3 3s-3-1.343-3-3 1.343-3 3-3 3 1.343 3 3m-27.845 0c0 1.657-1.343 3-3 3s-3-1.343-3-3 1.343-3 3-3 3 1.343 3 3"/><path fill="#E9E7E7" d="M42 51H24v-9c0-.552.448-1 1-1h16c.552 0 1 .448 1 1v9z"/><mask id="f" fill="#fff"><use xlink:href="#e"/></mask><path fill="#DBDDE1" d="M42 51H24v-5h18v5z" mask="url(#f)"/></g></g></svg>
