<svg xmlns="http://www.w3.org/2000/svg" width="190" height="82">
  <g fill="none" fill-rule="evenodd">
    <path stroke="#1C1F23" stroke-width="3" d="M29.7061 18.2193l-1.414 1.414m-5.657 5.657l-1.414 1.414m8.485.0002l-1.414-1.414m-5.657-5.657l-1.414-1.414m120.6422 51.5222l-1.414 1.414m-5.6571 5.6571l-1.414 1.414m8.4851.0002l-1.414-1.414m-5.6571-5.6571l-1.414-1.414M164.5 6.5c0 1.657-1.343 3-3 3s-3-1.343-3-3 1.343-3 3-3 3 1.343 3 3zM8.5 45.1559c0 1.657-1.343 3-3 3s-3-1.343-3-3 1.343-3 3-3 3 1.343 3 3zm175 6.4661v6m3-3h-6m-39.8793-30.9194v6m3-3h-6" stroke-linecap="round" stroke-linejoin="round"/>
    <path d="M0 0h190v82H0z"/>
  </g>
</svg>