<svg xmlns="http://www.w3.org/2000/svg" width="398" height="225" viewBox="0 0 398 225" xmlns:xlink="http://www.w3.org/1999/xlink">
  <defs>
    <polygon id="a" points=".291 .946 256.161 .946 256.161 88.659 .291 88.659 .291 .946"/>
    <polygon id="c" points=".146 .946 138.656 .946 138.656 123.671 .146 123.671 .146 .946"/>
    <polygon id="e" points=".146 .946 138.656 .946 138.656 123.671 .146 123.671 .146 .946"/>
    <polygon id="g" points="1.572 16.876 .572 16.876 .572 .174 1.572 .174"/>
    <polygon id="i" points="1.302 148.876 .302 148.876 .302 .157 1.302 .157"/>
    <polygon id="k" points=".385 .946 5.311 .946 5.311 37.47 .385 37.47"/>
  </defs>
  <g fill="none" fill-rule="evenodd" transform="translate(75 -8)">
    <g transform="translate(0 8.595)">
      <mask id="b" fill="white">
        <use xlink:href="#a"/>
      </mask>
      <path fill="#34373D" d="M3.2841,-7.6101 C1.3601,-2.7521 0.2911,2.5379 0.2911,8.0809 C0.2911,31.6299 19.3811,50.7199 42.9301,50.7199 C48.7971,50.7199 54.3861,49.5349 59.4721,47.3909 C65.8491,71.1569 87.5301,88.6589 113.3091,88.6589 C133.1021,88.6589 150.4731,78.3329 160.3651,62.7859 C168.8581,68.0189 178.8571,71.0439 189.5641,71.0439 C209.0961,71.0439 226.2821,60.9989 236.2381,45.7929 L256.1611,-7.6101" mask="url(#b)"/>
    </g>
    <g transform="translate(184 8.595)">
      <mask id="d" fill="white">
        <use xlink:href="#c"/>
      </mask>
      <path fill="#34373D" d="M270.6054,-8.5945 C275.2764,2.6775 277.8594,15.0355 277.8594,27.9975 C277.8594,80.8365 235.0244,123.6705 182.1854,123.6705 C145.9304,123.6705 114.3864,103.5025 98.1574,73.7745 C98.0174,73.7645 97.8764,73.7545 97.7374,73.7425 C86.1114,86.8995 69.1224,95.2065 50.1834,95.2065 C29.8554,95.2065 11.7594,85.6465 0.1464,70.7775 L0.1464,-7.6105" mask="url(#d)"/>
    </g>
    <g transform="translate(184 8.595)">
      <mask id="f" fill="white">
        <use xlink:href="#e"/>
      </mask>
      <path stroke="#23262D" stroke-width="2" d="M270.6054,-8.5945 C275.2764,2.6775 277.8594,15.0355 277.8594,27.9975 C277.8594,80.8365 235.0244,123.6705 182.1854,123.6705 C145.9304,123.6705 114.3864,103.5025 98.1574,73.7745 C98.0174,73.7645 97.8764,73.7545 97.7374,73.7425 C86.1114,86.8995 69.1224,95.2065 50.1834,95.2065 C29.8554,95.2065 11.7594,85.6465 0.1464,70.7775" stroke-linecap="round" stroke-linejoin="round" mask="url(#f)"/>
    </g>
    <g transform="translate(127 215.595)">
      <mask id="h" fill="white">
        <use xlink:href="#g"/>
      </mask>
      <path stroke="#23262D" stroke-width="2" d="M0.5722,0.1741 L0.5722,36.0001" stroke-linecap="round" stroke-linejoin="round" mask="url(#h)"/>
    </g>
    <path stroke="#23262D" stroke-width="2" d="M127.5722 186.7095L127.5722 191.1435M127.5722 96.5572L127.5722 178.6832" stroke-linecap="round" stroke-linejoin="round"/>
    <g transform="translate(281 83.595)">
      <mask id="j" fill="white">
        <use xlink:href="#i"/>
      </mask>
      <path stroke="#23262D" stroke-width="2" d="M0.3017,0.1565 L0.3017,168.0005" stroke-linecap="round" stroke-linejoin="round" mask="url(#j)"/>
    </g>
    <g transform="translate(240 8.595)">
      <mask id="l" fill="white">
        <use xlink:href="#k"/>
      </mask>
      <path stroke="#23262D" stroke-width="2" d="M0.7275,37.47 C3.6765,30.674 5.3115,23.177 5.3115,15.297 C5.3115,7.129 3.5405,-0.62 0.3845,-7.61" stroke-linecap="round" stroke-linejoin="round" mask="url(#l)"/>
    </g>
    <path stroke="#23262D" stroke-width="2" d="M3.2841,0.3899 C1.3601,5.2479 0.2911,10.5379 0.2911,16.0809 C0.2911,39.6299 19.3811,58.7199 42.9301,58.7199 C48.7971,58.7199 54.3861,57.5349 59.4721,55.3909 C65.8491,79.1569 87.5301,96.6589 113.3091,96.6589 C133.1021,96.6589 150.4731,86.3329 160.3651,70.7859 C168.8581,76.0189 178.8571,79.0439 189.5641,79.0439 C209.0961,79.0439 226.2821,68.9989 236.2381,53.7929" transform="translate(0 .595)" stroke-linecap="round" stroke-linejoin="round"/>
    <path stroke="#23262D" stroke-width="2" d="M127.5722 130.3384L110.6642 113.4294M281.3017 119.5415L273.7327 111.9725" stroke-linecap="round" stroke-linejoin="round"/>
    <polygon fill="#36393F" points="223.866 240.559 338.812 240.559 338.812 29.128 223.866 29.128"/>
    <polyline fill="#36393E" points="208.813 122.663 253.626 118.985 253.626 148.402 208.813 144.725"/>
    <path fill="#33363C" d="M214.329,133.6929 C214.329,139.7859 211.859,144.7239 208.813,144.7239 C205.766,144.7239 203.298,139.7859 203.298,133.6929 C203.298,127.6009 205.766,122.6629 208.813,122.6629 C211.859,122.6629 214.329,127.6009 214.329,133.6929"/>
    <path stroke="#23262D" stroke-width="2" d="M214.329 133.6929C214.329 139.7859 211.859 144.7239 208.813 144.7239 205.766 144.7239 203.298 139.7859 203.298 133.6929 203.298 127.6009 205.766 122.6629 208.813 122.6629 211.859 122.6629 214.329 127.6009 214.329 133.6929zM257.622 143.8365C256.617 146.6495 255.199 148.4015 253.627 148.4015M259.1181 132.3003C259.1351 132.7593 259.1421 133.2243 259.1421 133.6933M253.6269 118.9849C255.8869 118.9849 257.8289 122.6079 258.6819 127.7949M208.8134 144.7242L253.6264 148.4022M208.8134 122.6626L253.6264 118.9846M223.8661 120.8238L223.8661 60.0768M223.8661 146.563L223.8661 236.762" stroke-linecap="round" stroke-linejoin="round"/>
    <path fill="#33363C" d="M243.5898 102.899L243.5898 102.899C238.5988 102.899 234.5158 98.816 234.5158 93.825L234.5158 80.718C234.5158 75.727 238.5988 71.644 243.5898 71.644 248.5798 71.644 252.6638 75.727 252.6638 80.718L252.6638 93.825C252.6638 98.816 248.5798 102.899 243.5898 102.899M275.6152 102.899L275.6152 102.899C270.6252 102.899 266.5422 98.816 266.5422 93.825L266.5422 80.718C266.5422 75.727 270.6252 71.644 275.6152 71.644 280.6062 71.644 284.6892 75.727 284.6892 80.718L284.6892 93.825C284.6892 98.816 280.6062 102.899 275.6152 102.899M255.6249 196.7183L255.6249 196.7183C250.6339 196.7183 246.5509 192.6353 246.5509 187.6453L246.5509 171.7803C246.5509 166.7883 250.6339 162.7053 255.6249 162.7053 260.6149 162.7053 264.6979 166.7883 264.6979 171.7803L264.6979 187.6453C264.6979 192.6353 260.6149 196.7183 255.6249 196.7183"/>
    <path stroke="#23262D" stroke-width="2" d="M243.5898,102.899 L243.5898,102.899 C238.5988,102.899 234.5158,98.816 234.5158,93.825 L234.5158,80.718 C234.5158,75.727 238.5988,71.644 243.5898,71.644 C248.5798,71.644 252.6638,75.727 252.6638,80.718 L252.6638,93.825 C252.6638,98.816 248.5798,102.899 243.5898,102.899 Z" stroke-linecap="round" stroke-linejoin="round"/>
    <path stroke="#23262D" stroke-width="2" d="M245.4042 102.1831C242.1502 100.8011 239.8532 97.5681 239.8532 93.8251L239.8532 80.7181C239.8532 76.6561 242.5582 73.1941 246.2582 72.0471M275.6152 102.899L275.6152 102.899C270.6252 102.899 266.5422 98.816 266.5422 93.825L266.5422 80.718C266.5422 75.727 270.6252 71.644 275.6152 71.644 280.6062 71.644 284.6892 75.727 284.6892 80.718L284.6892 93.825C284.6892 98.816 280.6062 102.899 275.6152 102.899z" stroke-linecap="round" stroke-linejoin="round"/>
    <path stroke="#23262D" stroke-width="2" d="M277.4296 102.1831C274.1756 100.8011 271.8786 97.5681 271.8786 93.8251L271.8786 80.7181C271.8786 76.6561 274.5846 73.1941 278.2836 72.0471M255.6249 196.7183L255.6249 196.7183C250.6339 196.7183 246.5509 192.6353 246.5509 187.6453L246.5509 171.7803C246.5509 166.7883 250.6339 162.7053 255.6249 162.7053 260.6149 162.7053 264.6979 166.7883 264.6979 171.7803L264.6979 187.6453C264.6979 192.6353 260.6149 196.7183 255.6249 196.7183z" stroke-linecap="round" stroke-linejoin="round"/>
    <path stroke="#23262D" stroke-width="2" d="M257.4394,196.0025 C254.1854,194.6205 251.8884,191.3875 251.8884,187.6455 L251.8884,171.7795 C251.8884,167.7175 254.5934,164.2565 258.2924,163.1085" stroke-linecap="round" stroke-linejoin="round"/>
    <g transform="translate(79 4.595)">
      <path fill="#36393F" d="M0.787,0.0198 C0.625,1.4098 0.533,2.8208 0.533,4.2528 C0.533,23.4998 15.539,39.2348 34.488,40.4148 C37.266,63.1178 56.6,80.7058 80.055,80.7058 C98.643,80.7058 114.642,69.6538 121.866,53.7688 C126.033,55.4388 130.578,56.3678 135.343,56.3678 C148.517,56.3678 160.048,49.3358 166.392,38.8228 C169.556,39.8998 172.944,40.4938 176.474,40.4938 C185.524,40.4938 193.673,36.6448 199.384,30.4998 C206.571,42.2808 219.542,50.1458 234.351,50.1458 C242.604,50.1458 250.282,47.6948 256.711,43.4938 C263.499,56.7078 277.255,65.7538 293.133,65.7538 C308.495,65.7538 321.872,57.2878 328.874,44.7698 C330.768,45.0388 332.703,45.1858 334.673,45.1858 C357.279,45.1858 375.605,26.8598 375.605,4.2528 C375.605,2.8238 375.531,1.4118 375.388,0.0198"/>
      <path stroke="#23262D" stroke-width="2" d="M0.787,0.0198 C0.625,1.4098 0.533,2.8208 0.533,4.2528 C0.533,23.4998 15.539,39.2348 34.488,40.4148 C37.266,63.1178 56.6,80.7058 80.055,80.7058 C98.643,80.7058 114.642,69.6538 121.866,53.7688 C126.033,55.4388 130.578,56.3678 135.343,56.3678 C148.517,56.3678 160.048,49.3358 166.392,38.8228 C169.556,39.8998 172.944,40.4938 176.474,40.4938 C185.524,40.4938 193.673,36.6448 199.384,30.4998 C206.571,42.2808 219.542,50.1458 234.351,50.1458 C242.604,50.1458 250.282,47.6948 256.711,43.4938 C263.499,56.7078 277.255,65.7538 293.133,65.7538 C308.495,65.7538 321.872,57.2878 328.874,44.7698 C330.768,45.0388 332.703,45.1858 334.673,45.1858 C357.279,45.1858 375.605,26.8598 375.605,4.2528 C375.605,2.8238 375.531,1.4118 375.388,0.0198" stroke-linecap="round" stroke-linejoin="round"/>
    </g>
    <path fill="#36393E" d="M95.7802,53.6656 L95.7802,53.6656 C89.9272,48.3376 94.2522,36.8456 102.1652,36.6976 C108.0172,42.0256 103.6932,53.5176 95.7802,53.6656"/>
    <path stroke="#23262D" stroke-width="2" d="M95.7802,53.6656 L95.7802,53.6656 C89.9272,48.3376 94.2522,36.8456 102.1652,36.6976 C108.0172,42.0256 103.6932,53.5176 95.7802,53.6656 Z" stroke-linecap="round" stroke-linejoin="round"/>
    <path fill="#34373D" d="M193.9296,30.4634 L193.9296,30.4634 C186.8466,33.9954 177.6936,25.8124 180.4136,18.3804 C187.4966,14.8474 196.6506,23.0304 193.9296,30.4634"/>
    <path stroke="#23262D" stroke-width="2" d="M193.9296,30.4634 L193.9296,30.4634 C186.8466,33.9954 177.6936,25.8124 180.4136,18.3804 C187.4966,14.8474 196.6506,23.0304 193.9296,30.4634 Z" stroke-linecap="round" stroke-linejoin="round"/>
    <path fill="#34373D" d="M175.2314,35.3677 L175.2314,35.3677 C169.1714,30.2757 173.0364,18.6217 180.9374,18.1597 C186.9974,23.2517 183.1324,34.9057 175.2314,35.3677"/>
    <path stroke="#23262D" stroke-width="2" d="M175.2314,35.3677 L175.2314,35.3677 C169.1714,30.2757 173.0364,18.6217 180.9374,18.1597 C186.9974,23.2517 183.1324,34.9057 175.2314,35.3677 Z" stroke-linecap="round" stroke-linejoin="round"/>
    <g transform="translate(296 212.595)">
      <polyline fill="#33363C" points="5.074 .106 5.074 14.827 5.074 15.95 5.074 21.168 .239 21.168 .239 15.95 .239 14.827 .239 .106"/>
      <polyline stroke="#23262D" stroke-width="2" points="5.074 .106 5.074 14.827 5.074 15.95 5.074 21.168 .239 21.168 .239 15.95 .239 14.827 .239 .106" stroke-linecap="round" stroke-linejoin="round"/>
    </g>
    <g transform="translate(296 212.595)">
      <polyline fill="#34373D" points="5.074 .106 5.074 14.827 5.074 15.95 5.074 21.168 .239 21.168 .239 15.95 .239 14.827 .239 .106"/>
      <polyline stroke="#23262D" stroke-width="2" points="5.074 .106 5.074 14.827 5.074 15.95 5.074 21.168 .239 21.168 .239 15.95 .239 14.827 .239 .106" stroke-linecap="round" stroke-linejoin="round"/>
    </g>
    <path fill="#33363C" d="M306.6269,226.4986 L290.6859,226.4986 L293.6019,213.1026 C294.1189,210.7256 296.2239,209.0296 298.6559,209.0296 L298.6569,209.0296 C301.0899,209.0296 303.1929,210.7256 303.7109,213.1026 L306.6269,226.4986 Z"/>
    <path stroke="#23262D" stroke-width="2" d="M306.6269,226.4986 L290.6859,226.4986 L293.6019,213.1026 C294.1189,210.7256 296.2239,209.0296 298.6559,209.0296 L298.6569,209.0296 C301.0899,209.0296 303.1929,210.7256 303.7109,213.1026 L306.6269,226.4986 Z" stroke-linecap="round" stroke-linejoin="round"/>
    <path fill="#34373D" d="M306.6269,226.4986 L290.6859,226.4986 L293.6019,213.1026 C294.1189,210.7256 296.2239,209.0296 298.6559,209.0296 L298.6569,209.0296 C301.0899,209.0296 303.1929,210.7256 303.7109,213.1026 L306.6269,226.4986 Z"/>
    <path stroke="#23262D" stroke-width="2" d="M306.6269,226.4986 L290.6859,226.4986 L293.6019,213.1026 C294.1189,210.7256 296.2239,209.0296 298.6559,209.0296 L298.6569,209.0296 C301.0899,209.0296 303.1929,210.7256 303.7109,213.1026 L306.6269,226.4986 Z" stroke-linecap="round" stroke-linejoin="round"/>
    <path fill="#34373D" d="M81.831,114.4058 L81.83,114.4058 C74.453,117.2718 66.092,108.2808 69.484,101.1308 C76.862,98.2638 85.224,107.2558 81.831,114.4058"/>
    <path stroke="#23262D" stroke-width="2" d="M81.831,114.4058 L81.83,114.4058 C74.453,117.2718 66.092,108.2808 69.484,101.1308 C76.862,98.2638 85.224,107.2558 81.831,114.4058 Z" stroke-linecap="round" stroke-linejoin="round"/>
  </g>
</svg>
