<svg xmlns="http://www.w3.org/2000/svg" width="406" height="118">
  <g fill="none" fill-rule="evenodd">
    <path stroke="#1C1F23" stroke-width="3" d="M36.1212 105.8707l-1.414 1.414m-5.6571 5.6571l-1.414 1.414m8.4851.0002l-1.414-1.414m-5.6571-5.6571l-1.414-1.414m129.5196-74.956l-1.414 1.414m-5.657 5.6571l-1.414 1.414m8.485.0002l-1.414-1.414m-5.657-5.6571l-1.414-1.414m88.2698-27.4153l-1.414 1.414m-5.6571 5.657l-1.414 1.414m8.4851.0003l-1.414-1.414m-5.6571-5.6571l-1.414-1.414m173.7617 80.4352l-1.414 1.414m-5.6571 5.657l-1.414 1.414m8.4851.0002l-1.414-1.414m-5.6571-5.657l-1.414-1.414m-25.025-17.1323c0 1.657-1.343 3-3 3s-3-1.343-3-3 1.343-3 3-3 3 1.343 3 3zm-360.207-3c0 1.657-1.343 3-3 3s-3-1.343-3-3 1.343-3 3-3 3 1.343 3 3zm261.3276-43.2323c0 1.657-1.343 3-3 3s-3-1.343-3-3 1.343-3 3-3 3 1.343 3 3zm-224.1206 24v6m3-3h-6m333 50.9444v6m3-3h-6M22.0501 70.7395v6m3-3h-6M339.707 44.5708v6m3-3h-6m-234.0062-30v6m3-3h-6" stroke-linecap="round" stroke-linejoin="round"/>
    <path d="M0 0h406v118H0z"/>
  </g>
</svg>