<?xml version="1.0" encoding="UTF-8" standalone="no"?>
<svg width="17px" height="16px" viewBox="0 0 17 16" version="1.1" xmlns="http://www.w3.org/2000/svg" xmlns:xlink="http://www.w3.org/1999/xlink" xmlns:sketch="http://www.bohemiancoding.com/sketch/ns">
    <!-- Generator: Sketch 3.4.4 (17249) - http://www.bohemiancoding.com/sketch -->
    <title>icon-game-verified</title>
    <desc>Created with Sketch.</desc>
    <defs>
        <rect id="path-1" x="0" y="0" width="17" height="16"></rect>
    </defs>
    <g id="Settings" stroke="none" stroke-width="1" fill="none" fill-rule="evenodd" sketch:type="MSPage">
        <g id="Desktop-HD---Games,-Add" sketch:type="MSArtboardGroup" transform="translate(-650.000000, -533.000000)">
            <g id="Screenshot-2016-01-07-10.57.49-+-Rectangle-311" sketch:type="MSLayerGroup" transform="translate(320.000000, 187.000000)">
                <g id="Rectangle-653-+-Rectangle-652" transform="translate(198.000000, 338.000000)">
                    <g id="icon-game-verified" transform="translate(132.000000, 8.000000)">
                        <mask id="mask-2" sketch:name="Mask" fill="white">
                            <use xlink:href="#path-1"></use>
                        </mask>
                        <use id="Mask" sketch:type="MSShapeGroup" xlink:href="#path-1"></use>
                        <g id="Group" mask="url(#mask-2)" fill="#E1E6E9" sketch:type="MSShapeGroup">
                            <g transform="translate(8.000000, 8.000000) rotate(-315.000000) translate(-8.000000, -8.000000) " id="Rectangle-383">
                                <rect x="0.292893219" y="5.70710678" width="5" height="5" rx="7"></rect>
                                <rect x="5.70710678" y="11.4142136" width="4.29289322" height="4.29289322" rx="7"></rect>
                                <rect x="6" y="-6.39488462e-14" width="5" height="5" rx="7"></rect>
                                <rect x="11" y="5" width="5" height="5" rx="7"></rect>
                                <rect x="2" y="2" width="5" height="5" rx="3"></rect>
                                <rect x="3" y="3" width="10" height="10"></rect>
                                <rect x="2" y="9" width="5" height="5" rx="3"></rect>
                                <rect x="9" y="9" width="5" height="5" rx="3"></rect>
                                <rect x="9.70710678" y="1.29289322" width="5" height="5" rx="3"></rect>
                            </g>
                        </g>
                        <path d="M6.84273967,10.8167603 L11.8643,5.7952 C12.0513,5.6072 12.0513,5.3042 11.8643,5.1172 C11.6773,4.9312 11.3743,4.9312 11.1863,5.1172 L6.52303089,9.78138998 L4.8883,8.1475 C4.6843,7.9445 4.3553,7.9445 4.1523,8.1475 C3.9493,8.3515 3.9493,8.6805 4.1523,8.8835 L6.08381122,10.8160053 C6.09561409,10.8309877 6.10844368,10.8454178 6.1223,10.8592 C6.3093,11.0472 6.6123,11.0472 6.8003,10.8592 L6.82157566,10.8379243 C6.82518839,10.8345112 6.82876362,10.8310364 6.8323,10.8275 C6.83584168,10.8239583 6.83932157,10.820378 6.84273967,10.8167603 Z" id="Fill-3" fill="#737F8D" sketch:type="MSShapeGroup" mask="url(#mask-2)"></path>
                    </g>
                </g>
            </g>
        </g>
    </g>
</svg>