<svg xmlns="http://www.w3.org/2000/svg" width="110" height="80" viewBox="0 0 110 80" xmlns:xlink="http://www.w3.org/1999/xlink">
  <defs>
    <polygon id="a" points="0 73.364 101.71 73.364 101.71 0 0 0"/>
  </defs>
  <g fill="none" fill-rule="evenodd">
    <g transform="translate(4 3)">
      <path fill="#ECEFF8" d="M47.5677,12.1904 L45.3607,12.6204 C45.0917,12.6724 44.9167,12.9334 44.9687,13.2034 L45.5127,15.9924 C45.5397,16.1324 45.5967,16.2654 45.6807,16.3814 L46.9437,18.1434 L52.1347,44.4574 L53.3657,44.2164 L48.1747,17.9034 L48.6847,15.7954 C48.7177,15.6574 48.7207,15.5124 48.6937,15.3724 L48.1497,12.5834 C48.0977,12.3144 47.8367,12.1384 47.5677,12.1904 Z"/>
      <polygon fill="#DAE2ED" points="31.183 52.96 30.003 53.39 22.901 33.929 24.079 33.499"/>
      <path fill="#B7C2CE" d="M20.9247,24.2471 L19.3547,24.8201 C19.0217,24.9421 18.7787,25.2321 18.7167,25.5811 L18.3897,27.4451 C18.3507,27.6691 18.3897,27.9011 18.5007,28.1001 L22.2557,34.8301 C22.4927,35.2571 23.0047,35.4471 23.4637,35.2801 L24.5197,34.8941 C24.9777,34.7271 25.2467,34.2511 25.1537,33.7731 L23.6907,26.2061 C23.6477,25.9821 23.5287,25.7801 23.3537,25.6331 L21.9027,24.4181 C21.6307,24.1911 21.2577,24.1251 20.9247,24.2471"/>
      <path fill="#FFFFFF" d="M24.7787,39.8184 C24.3787,39.8184 24.0547,40.1424 24.0547,40.5424 C24.0547,40.9424 24.3787,41.2664 24.7787,41.2664 C25.1787,41.2664 25.5037,40.9424 25.5037,40.5424 C25.5037,40.1424 25.1787,39.8184 24.7787,39.8184"/>
      <path fill="#4F5D7F" d="M81.1835,34.1172 L81.1835,22.6972 C81.1835,19.9552 78.9605,17.7322 76.2185,17.7322 C73.4755,17.7322 71.2525,19.9552 71.2525,22.6972 L71.2525,34.1172 C71.2525,38.5052 67.6965,42.0622 63.3085,42.0622 L62.3155,42.0622 C61.7665,42.0622 61.3225,42.5062 61.3225,43.0552 L61.3225,65.3992 C61.3225,66.4952 62.2115,67.3852 63.3085,67.3852 L89.1275,67.3852 C90.2255,67.3852 91.1145,66.4952 91.1145,65.3992 L91.1145,43.0552 C91.1145,42.5062 90.6695,42.0622 90.1215,42.0622 L89.1275,42.0622 C84.7405,42.0622 81.1835,38.5052 81.1835,34.1172"/>
      <path fill="#B7C2CE" d="M82.6727,21.0073 C81.7527,20.7173 81.2407,19.7363 81.5307,18.8153 C81.8207,17.8953 82.8027,17.3833 83.7227,17.6743 C84.6437,17.9643 85.1537,18.9453 84.8647,19.8653 C84.5747,20.7863 83.5927,21.2973 82.6727,21.0073 M84.1687,16.2603 L84.1677,16.2603 C82.5787,15.7593 80.8937,16.6863 80.4657,18.2963 L72.9327,48.7223 L74.7657,49.3003 L86.0347,20.0503 C86.6067,18.4863 85.7577,16.7613 84.1687,16.2603"/>
      <polygon fill="#C5CEDD" points="81.285 59.187 85.164 58.86 82.821 31.067 78.941 31.394"/>
      <path fill="#D0D9EB" d="M78.9462,36.082 L83.6012,35.689 C84.0292,35.653 84.3482,35.277 84.3122,34.848 L83.7232,27.865 C83.6872,27.437 83.3102,27.119 82.8822,27.155 L78.2262,27.547 C77.7982,27.583 77.4802,27.96 77.5162,28.389 L78.1052,35.372 C78.1412,35.8 78.5172,36.118 78.9462,36.082"/>
      <path fill="#DAE2ED" d="M64.8822,32.2661 C64.7332,32.1181 64.7282,31.8731 64.8712,31.7191 C70.3482,25.8041 75.3362,25.4471 75.3362,25.4471 L75.7022,25.4161 L78.3432,25.1931 L84.6252,24.6631 C84.8392,24.6451 85.0282,24.8051 85.0462,25.0191 C85.0642,25.2331 85.2522,25.3921 85.4662,25.3741 L87.7942,25.1781 C88.0082,25.1601 88.1962,25.3191 88.2142,25.5331 L88.4762,28.6371 C88.4942,28.8511 88.3352,29.0391 88.1212,29.0571 L87.7332,29.0901 C86.4472,29.1981 85.4932,30.3291 85.6022,31.6141 L85.7002,32.7781 C85.7182,32.9921 85.5592,33.1801 85.3442,33.1981 L76.8102,33.9181 C76.5962,33.9361 76.4072,33.7771 76.3892,33.5631 L76.2582,32.0141 C76.1442,30.6511 74.8832,29.6651 73.5382,29.9061 C68.9152,30.7321 66.6572,32.2671 65.9462,32.8411 C65.7932,32.9651 65.5732,32.9501 65.4342,32.8111 L64.8822,32.2661 Z"/>
      <path fill="#ECEFF8" d="M88.6112,30.2368 L90.1632,30.1058 C90.5912,30.0698 90.9092,29.6938 90.8732,29.2648 L90.4812,24.6098 C90.4442,24.1808 90.0682,23.8628 89.6392,23.8988 L88.0882,24.0298 C87.6592,24.0658 87.3412,24.4428 87.3772,24.8708 L87.7702,29.5268 C87.8062,29.9548 88.1822,30.2728 88.6112,30.2368"/>
      <path fill="#DAE2ED" d="M19.0814,34.6709 L17.7164,35.3809 C17.5494,35.4679 17.4844,35.6729 17.5714,35.8399 L18.4694,37.5669 C18.5144,37.6529 18.5784,37.7289 18.6554,37.7889 L19.8264,38.7009 L28.3394,54.9749 L29.1014,54.5779 L20.5884,38.3049 L20.5144,36.8219 C20.5094,36.7239 20.4834,36.6289 20.4384,36.5419 L19.5394,34.8159 C19.4534,34.6489 19.2484,34.5849 19.0814,34.6709"/>
      <polygon fill="#C5CEDD" points="52.517 44.426 50.723 46.116 44.709 39.733 46.503 38.043"/>
      <polygon fill="#DAE2ED" points="50.274 46.539 49.377 47.384 43.363 41.001 44.26 40.156"/>
      <polygon fill="#D0D9EB" points="46.073 41.181 44.279 42.872 42.914 41.424 44.709 39.733"/>
      <polygon fill="#C5CEDD" points="41.172 41.372 46.504 38.042 43.691 35.057 38.9 41.432"/>
      <path fill="#ECEFF8" d="M48.0067,37.6655 L42.8977,42.4795 C42.6977,42.6675 42.3837,42.6585 42.1947,42.4585 L41.5117,41.7335 C41.3237,41.5335 41.3337,41.2195 41.5327,41.0315 L46.6427,36.2175 C46.8417,36.0295 47.1567,36.0395 47.3447,36.2385 L48.0277,36.9635 C48.2157,37.1635 48.2067,37.4775 48.0067,37.6655"/>
      <path fill="#A2B8DB" d="M78.2045,22.2007 C78.2045,23.2977 77.3155,24.1867 76.2185,24.1867 C75.1215,24.1867 74.2325,23.2977 74.2325,22.2007 C74.2325,21.1037 75.1215,20.2147 76.2185,20.2147 C77.3155,20.2147 78.2045,21.1037 78.2045,22.2007"/>
      <mask id="b" fill="white">
        <use xlink:href="#a"/>
      </mask>
      <polygon fill="#A2B8DB" points="32.27 24.187 76.218 24.187 76.218 20.215 32.27 20.215" mask="url(#b)"/>
      <polygon fill="#C5CEDD" points="52.751 61.966 50.977 61.644 56.299 32.34 58.074 32.662" mask="url(#b)"/>
      <path fill="#ECEFF8" d="M60.8793,18.8936 L58.5153,18.4646 C58.0133,18.3726 57.5013,18.5566 57.1713,18.9456 L55.4123,21.0206 C55.2003,21.2706 55.0803,21.5856 55.0733,21.9146 L54.8433,32.9906 C54.8293,33.6916 55.3253,34.2996 56.0153,34.4256 L57.6073,34.7146 C58.2963,34.8396 58.9753,34.4456 59.2083,33.7836 L62.8883,23.3336 C62.9973,23.0236 62.9963,22.6866 62.8853,22.3776 L61.9683,19.8166 C61.7963,19.3366 61.3813,18.9846 60.8793,18.8936" mask="url(#b)"/>
      <path fill="#7687B2" d="M31.5306,42.062 L90.1206,42.062 C90.6696,42.062 91.1136,42.506 91.1136,43.055 L91.1136,65.399 C91.1136,66.496 90.2246,67.385 89.1276,67.385 L29.5446,67.385" mask="url(#b)"/>
      <path fill="#8DA0C4" d="M36.496,34.1172 L36.496,22.6972 C36.496,19.9552 34.273,17.7322 31.531,17.7322 C28.788,17.7322 26.565,19.9552 26.565,22.6972 L26.565,34.1172 C26.565,38.5052 23.009,42.0622 18.621,42.0622 L17.628,42.0622 C17.079,42.0622 16.635,42.5062 16.635,43.0552 L16.635,65.3992 C16.635,66.4952 17.524,67.3852 18.621,67.3852 L46.427,67.3852 L46.427,42.0622 L44.44,42.0622 C40.053,42.0622 36.496,38.5052 36.496,34.1172" mask="url(#b)"/>
      <path fill="#A2B8DB" d="M33.517,22.2007 C33.517,23.2977 32.628,24.1867 31.531,24.1867 C30.434,24.1867 29.545,23.2977 29.545,22.2007 C29.545,21.1037 30.434,20.2147 31.531,20.2147 C32.628,20.2147 33.517,21.1037 33.517,22.2007" mask="url(#b)"/>
      <polygon fill="#A2B8DB" points="29.545 24.187 31.298 24.187 31.298 20.215 29.545 20.215" mask="url(#b)"/>
      <path fill="#FFFFFF" d="M31.5306,22.2007 C31.5306,23.2977 30.6416,24.1867 29.5446,24.1867 C28.4476,24.1867 27.5586,23.2977 27.5586,22.2007 C27.5586,21.1037 28.4476,20.2147 29.5446,20.2147 C30.6416,20.2147 31.5306,21.1037 31.5306,22.2007" mask="url(#b)"/>
      <polygon fill="#C5CEDD" points="40.027 38.359 43.616 34.978 39.187 30.277 35.598 33.658" mask="url(#b)"/>
      <path fill="#ECEFF8" d="M41.5609 30.8242L29.8199 41.8852C29.4929 42.1932 28.9579 41.9442 28.9839 41.4952L29.3529 35.1032C29.3599 34.9762 29.4149 34.8572 29.5069 34.7702L37.8629 26.8982C38.0619 26.7102 38.3769 26.7202 38.5649 26.9192L41.5819 30.1222C41.7699 30.3222 41.7609 30.6362 41.5609 30.8242M43.1742 32.5361L34.2542 40.9391C33.9112 41.2621 34.1682 41.8361 34.6362 41.7961L38.7272 41.4471C38.8392 41.4371 38.9442 41.3901 39.0262 41.3131L45.6042 35.1161C45.8042 34.9281 45.8132 34.6131 45.6252 34.4131L43.8762 32.5571C43.6882 32.3571 43.3732 32.3481 43.1742 32.5361" mask="url(#b)"/>
      <path fill="#C5CEDD" d="M37.8299 30.6343C37.3629 30.1383 36.5829 30.1153 36.0879 30.5823 35.5919 31.0493 35.5689 31.8293 36.0359 32.3243 36.5019 32.8203 37.2829 32.8433 37.7779 32.3763 38.2739 31.9093 38.2969 31.1293 37.8299 30.6343M26.7865 64.6436C23.9455 65.9486 20.5845 64.7036 19.2805 61.8616 17.9755 59.0206 19.2215 55.6606 22.0615 54.3556 24.9035 53.0516 28.2635 54.2966 29.5685 57.1376 30.8725 59.9786 29.6275 63.3396 26.7865 64.6436M36.6395 58.7736L31.4775 49.8336C31.1615 49.2876 30.5785 48.9506 29.9485 48.9506L19.6245 48.9506C18.9935 48.9506 18.4105 49.2876 18.0945 49.8336L12.9325 58.7736C12.6175 59.3206 12.6175 59.9936 12.9325 60.5406L18.0945 69.4806C18.4105 70.0276 18.9935 70.3636 19.6245 70.3636L29.9485 70.3636C30.5785 70.3636 31.1615 70.0276 31.4775 69.4806L36.6395 60.5406C36.9545 59.9936 36.9545 59.3206 36.6395 58.7736" mask="url(#b)"/>
      <path fill="#ECEFF8" d="M22.8143,64.6436 C19.9733,65.9486 16.6123,64.7036 15.3083,61.8616 C14.0033,59.0206 15.2493,55.6606 18.0893,54.3556 C20.9303,53.0516 24.2913,54.2966 25.5963,57.1376 C26.9003,59.9786 25.6553,63.3396 22.8143,64.6436 M32.6673,58.7736 L27.5053,49.8336 C27.1893,49.2876 26.6063,48.9506 25.9763,48.9506 L15.6523,48.9506 C15.0213,48.9506 14.4383,49.2876 14.1223,49.8336 L8.9603,58.7736 C8.6453,59.3206 8.6453,59.9936 8.9603,60.5406 L14.1223,69.4806 C14.4383,70.0276 15.0213,70.3636 15.6523,70.3636 L25.9763,70.3636 C26.6063,70.3636 27.1893,70.0276 27.5053,69.4806 L32.6673,60.5406 C32.9823,59.9936 32.9823,59.3206 32.6673,58.7736" mask="url(#b)"/>
      <path fill="#C5CEDD" d="M5.9584,72.1226 L0.9934,72.1226 C0.4444,72.1226 0.0004,71.6786 0.0004,71.1296 C0.0004,70.5806 0.4444,70.1366 0.9934,70.1366 L5.9584,70.1366 C6.5064,70.1366 6.9514,70.5806 6.9514,71.1296 C6.9514,71.6786 6.5064,72.1226 5.9584,72.1226" mask="url(#b)"/>
      <path fill="#DAE2ED" d="M6.9388,73.3638 L4.9528,73.3638 C4.6778,73.3638 4.4558,73.1418 4.4558,72.8678 L4.4558,69.3918 C4.4558,69.1178 4.6778,68.8948 4.9528,68.8948 L6.9388,68.8948 C7.2128,68.8948 7.4358,69.1178 7.4358,69.3918 L7.4358,72.8678 C7.4358,73.1418 7.2128,73.3638 6.9388,73.3638" mask="url(#b)"/>
      <path fill="#C5CEDD" d="M94.412,70.9082 L94.412,66.9352 C94.412,66.3872 94.856,65.9432 95.405,65.9432 C95.954,65.9432 96.398,66.3872 96.398,66.9352 L96.398,70.9082 C96.398,71.4562 95.954,71.9012 95.405,71.9012 C94.856,71.9012 94.412,71.4562 94.412,70.9082" mask="url(#b)"/>
      <path fill="#DAE2ED" d="M93.1703,71.8882 L93.1703,70.8952 C93.1703,70.6212 93.3933,70.3992 93.6673,70.3992 L97.1423,70.3992 C97.4173,70.3992 97.6393,70.6212 97.6393,70.8952 L97.6393,71.8882 C97.6393,72.1622 97.4173,72.3852 97.1423,72.3852 L93.6673,72.3852 C93.3933,72.3852 93.1703,72.1622 93.1703,71.8882" mask="url(#b)"/>
      <path fill="#C5CEDD" d="M12.3036,68.8872 L12.3036,64.9152 C12.3036,64.3662 12.7486,63.9222 13.2966,63.9222 C13.8456,63.9222 14.2896,64.3662 14.2896,64.9152 L14.2896,68.8872 C14.2896,69.4352 13.8456,69.8802 13.2966,69.8802 C12.7486,69.8802 12.3036,69.4352 12.3036,68.8872" mask="url(#b)"/>
      <path fill="#DAE2ED" d="M11.0624,69.8677 L11.0624,68.8747 C11.0624,68.5997 11.2844,68.3777 11.5594,68.3777 L15.0344,68.3777 C15.3094,68.3777 15.5314,68.5997 15.5314,68.8747 L15.5314,69.8677 C15.5314,70.1417 15.3094,70.3637 15.0344,70.3637 L11.5594,70.3637 C11.2844,70.3637 11.0624,70.1417 11.0624,69.8677" mask="url(#b)"/>
      <path stroke="#D5DBED" d="M37.0326.5L36.5886 1.091M34.8119 2.961L34.3679 3.553M37.0326 3.5528L36.5886 2.9608M34.8119 1.0913L34.3679.5003M8.1615 26.7632C8.1615 27.4312 7.6195 27.9732 6.9515 27.9732 6.2835 27.9732 5.7415 27.4312 5.7415 26.7632 5.7415 26.0952 6.2835 25.5532 6.9515 25.5532 7.6195 25.5532 8.1615 26.0952 8.1615 26.7632zM99.9999 32.7095L99.9999 35.1295M101.2103 33.9195L98.7903 33.9195M12.2723 14.9141L12.2723 17.3341M13.4828 16.124L11.0628 16.124" stroke-linecap="round" stroke-linejoin="round" mask="url(#b)"/>
    </g>
    <rect width="110" height="80"/>
  </g>
</svg>
