<svg height="157" viewBox="0 0 403 157" width="403" xmlns="http://www.w3.org/2000/svg"><g fill="none" fill-rule="evenodd"><path d="m14.803 110.4829c0 17.707 14.354 32.062 32.061 32.062h308.805c18.3 0 33.134-14.835 33.134-33.134s-14.834-33.134-33.134-33.134h-17.006c-20.094 0-36.383-16.289-36.383-36.383s-16.29-36.383-36.383-36.383h-208.823c-7.845 0-14.205 6.36-14.205 14.205s6.36 14.205 14.205 14.205h3.484c12.841 0 23.25 10.41 23.25 23.25v.001c0 12.841-10.409 23.25-23.25 23.25h-13.694c-17.707 0-32.061 14.355-32.061 32.061" fill="#f6f6f7" fill-opacity=".9"/><path d="m257.7981 95.1997v46.278h2.313c3.437 0 6.233 2.796 6.233 6.233 0 1.635-.637 3.12-1.671 4.233h5.125v-60.56c-.683.403-1.419.729-2.201.958zm12-27.9473v-20.309h-12v29.333c1.636-1.718 3.876-2.837 6.329-3.024 2.408-.18 4.776.541 6.671 1.994v-6.994c-.552 0-1-.447-1-1m39.6665 71.333c-12.958 0-23.5-10.542-23.5-23.5 0-3.401.71-6.681 2.112-9.749.229-.503.823-.726 1.325-.494.009.004.015.013.023.016.502-.98 1.072-1.918 1.707-2.808-.009-.006-.018-.008-.026-.014-.435-.34-.513-.969-.173-1.403.509-.652 1.061-1.287 1.643-1.889.384-.398 1.016-.41 1.414-.024.008.007.01.017.017.024 1.897-1.795 4.104-3.264 6.536-4.316-.004-.009-.011-.014-.015-.023-.196-.515.063-1.093.58-1.29 2.667-1.015 5.479-1.53 8.357-1.53 12.958 0 23.5 10.542 23.5 23.5s-10.542 23.5-23.5 23.5m0-50c-14.612 0-26.5 11.888-26.5 26.5s11.888 26.5 26.5 26.5 26.5-11.888 26.5-26.5-11.888-26.5-26.5-26.5" fill="#fff"/><path d="m294.9646 74.9223c3.033 0 5.5-2.468 5.5-5.5s-2.467-5.5-5.5-5.5-5.5 2.468-5.5 5.5 2.467 5.5 5.5 5.5m33 3.5c3.309 0 6-2.691 6-6s-2.691-6-6-6-6 2.691-6 6 2.691 6 6 6" fill="#dcddde"/><path d="m294.9646 61.9223c4.136 0 7.5 3.364 7.5 7.5s-3.364 7.5-7.5 7.5-7.5-3.364-7.5-7.5 3.364-7.5 7.5-7.5m0 18.5c6.065 0 11-4.935 11-11s-4.935-11-11-11-11 4.935-11 11 4.935 11 11 11m14.5 22.6631c6.617 0 12 5.383 12 12s-5.383 12-12 12-12-5.383-12-12 5.383-12 12-12m-19.569 3.081c-1.281 2.806-1.931 5.807-1.931 8.919 0 11.855 9.645 21.5 21.5 21.5s21.5-9.645 21.5-21.5-9.645-21.5-21.5-21.5c-2.634 0-5.207.471-7.646 1.399-.505.197-1.071-.057-1.276-.556-2.432 1.052-4.639 2.521-6.536 4.316.376.385.385.999.008 1.389-.533.553-1.04 1.135-1.506 1.73-.197.253-.491.385-.788.385-.206 0-.412-.067-.589-.198-.635.89-1.205 1.828-1.707 2.808.484.238.697.815.471 1.308" fill="#dcddde"/><path d="m309.4646 125.0854c5.514 0 10-4.486 10-10s-4.486-10-10-10-10 4.486-10 10 4.486 10 10 10" fill="#dcddde"/><path d="m130.9705 55.9575c.676-2.444 1.521-4.925 2.551-7.408.225-.542.456-1.076.692-1.606h-3.243z" fill="#f6f6f7"/><path d="m64.804 115.0854c0 14.612 11.888 26.5 26.5 26.5 3.021 0 5.921-.515 8.628-1.449-.952-.695-1.837-1.471-2.645-2.325-1.911.503-3.916.774-5.983.774-12.958 0-23.5-10.542-23.5-23.5s10.542-23.5 23.5-23.5c.261 0 .519.026.779.035v-.635c0-.806.067-1.595.165-2.377-.314-.01-.627-.023-.944-.023-14.612 0-26.5 11.888-26.5 26.5" fill="#fff"/><path d="m72.804 66.4223c-3.309 0-6 2.691-6 6s2.691 6 6 6 6-2.691 6-6-2.691-6-6-6m33-8c-6.065 0-11 4.935-11 11 0 3.038 1.238 5.792 3.236 7.784.858-.812 1.789-1.547 2.786-2.189-1.543-1.375-2.522-3.37-2.522-5.595 0-4.136 3.364-7.5 7.5-7.5.552 0 1 .447 1 1s-.448 1-1 1c-3.033 0-5.5 2.468-5.5 5.5 0 1.882.952 3.546 2.398 4.538 2.411-1.192 5.102-1.889 7.954-1.953.413-.772.648-1.65.648-2.585 0-.553.448-1 1-1s1 .447 1 1c0 .901-.168 1.763-.46 2.563h3.646c.198-.824.314-1.679.314-2.563 0-6.065-4.935-11-11-11m-36 56.6631c0 11.855 9.645 21.5 21.5 21.5 1.56 0 3.079-.177 4.545-.494-1.93-2.593-3.219-5.685-3.62-9.053-.306.024-.613.047-.925.047-6.617 0-12-5.383-12-12 0-4.042 2.015-7.615 5.085-9.791v-2.509c0-4.35 3.409-7.911 7.694-8.175v-.99c-.26-.01-.518-.035-.779-.035-11.855 0-21.5 9.645-21.5 21.5" fill="#dcddde"/><path d="m81.304 115.0854c0 5.455 4.393 9.896 9.826 9.991-4.117-3.488-6.741-8.686-6.741-14.491v-2.707c-1.897 1.821-3.085 4.376-3.085 7.207" fill="#dcddde"/><path d="m212.2005 98.0024c.109 2.444.171 4.972.177 7.575.26-2.579.426-5.082.512-7.491z" fill="#f6f6f7"/><path d="m208.2571 133.145c-2.154 6.119-4.934 12.417-8.479 18.799h4.395c1.786-6.439 3.121-12.727 4.084-18.799m9.3511 13.9844v-17.441c0-.553.448-1 1-1s1 .447 1 1v17.441c0 2.654 2.16 4.814 4.814 4.814h33.376 2.313c2.334 0 4.233-1.899 4.233-4.233s-1.899-4.232-4.233-4.232h-15.085c-.552 0-1-.448-1-1v-3.857c0-.553.448-1 1-1 .553 0 1 .447 1 1v2.857h2.972v-28.045c0-10.151-7.969-18.451-17.975-19.033l-3.166 7.627c-.458 1.105-1.324 1.967-2.436 2.427-.557.231-1.141.345-1.724.345-.582 0-1.162-.114-1.714-.343l-.264-.109c-2.163-.9-3.233-3.3-2.544-5.494l-4.302-.525c-.261 7.056-1.184 14.866-3.175 23.161-.841 9.556-2.534 19.797-5.452 30.454h4.852c.552 0 1 .448 1 .999h8.788c-1.962-1.197-3.278-3.351-3.278-5.813m-13.8828-33.6778c0 5.159-3.928 9.418-8.951 9.944v1.39c0 10.477-8.524 19-19 19h-35.923c-1.561.624-2.669 2.145-2.669 3.925 0 2.334 1.899 4.233 4.233 4.233h1.555 1.974 52.54c6.037-10.642 9.891-21.057 12.241-30.795.734-8.401.804-16.26.474-23.39l-6.703-.819c.147.682.229 1.388.229 2.113zm-67.1456 30.334h-17.266c-1.56.624-2.668 2.145-2.668 3.925 0 2.334 1.898 4.233 4.232 4.233h8.093 7.882c-1.033-1.113-1.67-2.598-1.67-4.233 0-1.487.524-2.853 1.397-3.925" fill="#dcddde"/><path d="m267.0379 90.4213c3.082-.898 5.316-3.653 5.56-6.855.171-2.257-.648-4.47-2.249-6.072-1.601-1.599-3.815-2.407-6.07-2.248-3.202.243-5.957 2.478-6.856 5.561l-3.579 12.27v-.001c-.112.383.094.642.188.736.093.093.351.297.735.188z" fill="#f6f6f7"/><path d="m162.1897 71.9858c1.828-2.866 3.5-6.052 4.928-9.495 6.086-14.665 5.824-29.176-.067-35.137l-.601-.559c-.749-.646-1.575-1.172-2.485-1.549-1.144-.475-2.359-.703-3.621-.703-8.388 0-18.877 10.078-24.975 24.772-3.348 8.07-4.772 16.092-4.397 22.671z" fill="#fff"/><path d="m114.0721 25.144c.304-.352.736-.548 1.196-.548.027 0 .055 0 .082.002.492.025.934.271 1.216.673l4.305 6.167-3.953-15.154-3.114 3.612c-.322.373-.794.58-1.279.546-.491-.026-.934-.271-1.215-.674l-4.305-6.166 3.953 15.154z" fill="#f6f6f7"/><path d="m104.5872 50.4624-.723-4.714c-.074-.484.077-.968.413-1.325.338-.357.81-.538 1.302-.488l7.486.733-14.088-6.839.722 4.714c.075.487-.077.971-.415 1.327-.339.357-.816.528-1.302.486l-7.485-.733zm67.0327 91.3232h4.154c9.374 0 17-7.626 17-17v-1.334h-8.999v1.334c0 7.854-5.105 14.557-12.155 17m12.0459-52.7334h8.99c-.964-8.466-8.162-15.066-16.882-15.066h-4.151c6.461 2.24 11.286 8.059 12.043 15.066" fill="#dcddde"/><path d="m111.0828 141.7856h60.537c7.05-2.443 12.155-9.146 12.155-17v-1.334h-4.649c-.552 0-1-.447-1-1s.448-1 1-1h14.6c4.411 0 8-3.589 8-8v-14.399c0-4.412-3.589-8-8-8h-14.6c-.552 0-1-.448-1-1 0-.553.448-1 1-1h4.54c-.757-7.007-5.582-12.827-12.043-15.067h-60.54c-9.374 0-17 7.626-17 17v3.6h16.952c.552 0 1 .447 1 1h9.554c0-.553.448-1 1-1h10.801c4.521 0 8.199 3.679 8.199 8.2v7.8c0 10.476-8.523 19-19 19h-19.199c-3.298 0-6.401-.848-9.107-2.332 1.202 8.206 8.266 14.532 16.8 14.532" fill="#f6f6f7"/><path d="m132.1892 102.7856v7.8c0 7.853-5.104 14.556-12.153 17h2.553c9.374 0 17-7.626 17-17v-7.8c0-3.419-2.781-6.2-6.2-6.2h-4.765c2.127 1.255 3.565 3.564 3.565 6.2" fill="#f6f6f7"/><path d="m189.7254 95.0522h-6.6c-1.104 0-2 .896-2 2v18.399c0 1.105.896 2 2 2h6.6c2.762 0 5-2.238 5-5v-12.399c0-2.762-2.238-5-5-5" fill="#dcddde"/><path d="m116.158 120.3374h-5.877c-1.617 0-2.939-1.322-2.939-2.938 0-1.617 1.322-2.94 2.939-2.94h5.877c1.616 0 2.938 1.323 2.938 2.94 0 1.616-1.322 2.938-2.938 2.938zm-19.951-5.878h3.527c1.616 0 2.939 1.323 2.939 2.94 0 1.616-1.323 2.938-2.939 2.938h-3.527c-1.616 0-2.938-1.322-2.938-2.938 0-1.617 1.322-2.94 2.938-2.94zm15.828-18.874c0 .553-.448 1-1 1h-18.446c-3.418 0-6.2 2.781-6.2 6.2v7.8c0 9.374 7.626 17 17 17h16.647c7.049-2.443 12.153-9.146 12.153-17v-7.8c0-2.635-1.438-4.945-3.565-6.2h-6.035c-.552 0-1-.447-1-1z" fill="#fff"/><path d="m119.0965 117.3989c0-1.616-1.322-2.939-2.938-2.939h-5.878c-1.617 0-2.939 1.323-2.939 2.939s1.322 2.938 2.939 2.938h5.878c1.616 0 2.938-1.322 2.938-2.938m-22.8892 2.9385h3.527c1.616 0 2.938-1.322 2.938-2.938 0-1.617-1.322-2.94-2.938-2.94h-3.527c-1.616 0-2.938 1.323-2.938 2.94 0 1.616 1.322 2.938 2.938 2.938" fill="#dcddde"/><g fill="#b9bbbe"><path d="m309.4646 88.5854c14.612 0 26.5 11.888 26.5 26.5s-11.888 26.5-26.5 26.5-26.5-11.888-26.5-26.5 11.888-26.5 26.5-26.5m0 55c15.715 0 28.5-12.785 28.5-28.5s-12.785-28.5-28.5-28.5-28.5 12.785-28.5 28.5 12.785 28.5 28.5 28.5"/><path d="m291.1311 102.0502c.178.131.383.198.589.198.298 0 .592-.132.789-.385.465-.595.972-1.177 1.505-1.73.377-.39.368-1.004-.007-1.389-.007-.007-.01-.017-.017-.024-.398-.386-1.03-.374-1.414.024-.582.602-1.135 1.238-1.643 1.889-.34.435-.263 1.063.172 1.403.008.006.018.008.026.014"/><path d="m309.4646 138.5854c12.958 0 23.5-10.542 23.5-23.5s-10.542-23.5-23.5-23.5c-2.878 0-5.69.515-8.357 1.53-.517.197-.776.775-.58 1.29.004.009.011.014.015.023.205.499.771.753 1.276.556 2.439-.928 5.012-1.399 7.646-1.399 11.855 0 21.5 9.645 21.5 21.5s-9.645 21.5-21.5 21.5-21.5-9.645-21.5-21.5c0-3.112.65-6.113 1.931-8.919.226-.493.013-1.07-.471-1.308-.008-.003-.014-.012-.023-.016-.502-.232-1.096-.009-1.325.494-1.402 3.068-2.112 6.348-2.112 9.749 0 12.958 10.542 23.5 23.5 23.5"/><path d="m299.4646 115.0854c0-5.514 4.486-10 10-10s10 4.486 10 10-4.486 10-10 10-10-4.486-10-10m22 0c0-6.617-5.383-12-12-12s-12 5.383-12 12 5.383 12 12 12 12-5.383 12-12m-37.5-45.6631c0-6.065 4.935-11 11-11s11 4.935 11 11-4.935 11-11 11-11-4.935-11-11m24 0c0-7.168-5.832-13-13-13s-13 5.832-13 13 5.832 13 13 13 13-5.832 13-13"/><path d="m289.4646 69.4223c0-3.032 2.467-5.5 5.5-5.5s5.5 2.468 5.5 5.5-2.467 5.5-5.5 5.5-5.5-2.468-5.5-5.5m13 0c0-4.136-3.364-7.5-7.5-7.5s-7.5 3.364-7.5 7.5 3.364 7.5 7.5 7.5 7.5-3.364 7.5-7.5m25.5-3c3.309 0 6 2.691 6 6s-2.691 6-6 6-6-2.691-6-6 2.691-6 6-6m0 14c4.411 0 8-3.589 8-8s-3.589-8-8-8-8 3.589-8 8 3.589 8 8 8m-59.6767-51.0117h1.51v1.511c0 .552.448 1 1 1 .553 0 1-.448 1-1v-1.511h1.51c.552 0 1-.447 1-1s-.448-1-1-1h-1.51v-1.51c0-.552-.447-1-1-1-.552 0-1 .448-1 1v1.51h-1.51c-.552 0-1 .447-1 1s.448 1 1 1m-36.5567-4.7324c.256 0 .512-.098.707-.293l1.183-1.184c.391-.39.391-1.023 0-1.414-.39-.39-1.024-.39-1.414 0l-1.183 1.184c-.391.391-.391 1.023 0 1.414.195.195.451.293.707.293m-5.9165 5.916c.256 0 .512-.098.707-.293l1.184-1.184c.39-.39.39-1.023 0-1.414-.391-.39-1.024-.39-1.414 0l-1.184 1.184c-.391.391-.391 1.023 0 1.414.195.195.451.293.707.293m6.3926-.293c.195.195.451.293.707.293s.512-.098.707-.293c.391-.391.391-1.023 0-1.414l-1.183-1.184c-.391-.39-1.023-.39-1.414 0-.391.391-.391 1.024 0 1.414zm-5.916-5.916c.195.195.451.293.707.293s.512-.098.707-.293c.391-.391.391-1.023 0-1.414l-1.184-1.184c-.39-.39-1.023-.39-1.414 0-.39.391-.39 1.024 0 1.414zm11.0556-22.3848c.833 0 1.51.678 1.51 1.511 0 .832-.677 1.51-1.51 1.51s-1.51-.678-1.51-1.51c0-.833.677-1.511 1.51-1.511m0 5.021c1.935 0 3.51-1.575 3.51-3.51 0-1.936-1.575-3.511-3.51-3.511-1.936 0-3.51 1.575-3.51 3.511 0 1.935 1.574 3.51 3.51 3.51m-164.5429 59.4009c3.309 0 6 2.691 6 6s-2.691 6-6 6-6-2.691-6-6 2.691-6 6-6m0 14c4.411 0 8-3.589 8-8s-3.589-8-8-8-8 3.589-8 8 3.589 8 8 8"/><path d="m267.0379 90.4213-12.271 3.579c-.384.109-.642-.095-.735-.188-.094-.094-.3-.353-.188-.736v.001l3.579-12.27c.899-3.083 3.654-5.318 6.856-5.561 2.255-.159 4.469.649 6.07 2.248 1.601 1.602 2.42 3.815 2.249 6.072-.244 3.202-2.478 5.957-5.56 6.855zm2.76 58.522c0 1.658-1.343 3-3 3h-.006c-.833 0-1.38-.862-1.028-1.617.368-.787.576-1.663.58-2.587.016-3.446-3.051-6.261-6.497-6.261h-.909c-.629 0-1.14-.511-1.14-1.14v-45.139l9.8-2.858c.781-.229 1.517-.555 2.2-.958zm-43.788-47.682c-.254.611-.734 1.089-1.353 1.345-.618.256-1.297.257-1.907.003l-.264-.11c-1.272-.528-1.876-1.987-1.348-3.261l3.906-9.414c.212-.509-.03-1.094-.54-1.306-.512-.211-1.096.031-1.307.541l-2.43 5.854c-.495 1.193-1.724 1.909-3.006 1.753l-.775-.095c-1.17-.142-2.034-1.142-2.032-2.321.018-7.351-.655-13.744-1.488-18.827-.308-1.878 1.944-3.072 3.336-1.775l7.764 7.223c.88.82 1.158 2.099.697 3.209-.211.51.03 1.095.541 1.307.51.211 1.095-.031 1.307-.541l1.665-4.013c.254-.612.734-1.09 1.352-1.346.619-.254 1.296-.255 1.908-.002l.264.11c.612.254 1.09.734 1.345 1.352.256.619.257 1.296.003 1.908zm-13.067-5.183-.844-.102c-.752-13.423-2.872-24.172-4.567-30.954l1.686 1.568c.279.26.478.585.573.954 1.392 5.408 3.389 15.547 3.152 28.534zm-3.217 25.071c-2.283 9.458-5.985 19.556-11.728 29.88-.313.564-.913.914-1.557.914h-51.496-1.974-1.353c-2.246 0-4.25-1.661-4.422-3.901-.148-1.922.999-3.595 2.655-4.257h35.923c10.494 0 19-8.507 19-19v-1.389c5.023-.527 8.951-4.786 8.951-9.945v-14.399c0-.725-.081-1.431-.229-2.112l4.92.6c1.028.125 1.82.973 1.857 2.008.241 6.648.126 13.896-.547 21.601zm-6.91 30.794h-.072c-1.325 0-2.188-1.407-1.572-2.58 1.183-2.25 2.272-4.488 3.274-6.71.491-1.088 2.145-.537 1.886.63-.537 2.423-1.135 4.873-1.8 7.347-.208.773-.915 1.313-1.716 1.313zm-73.845 0h-7.89c-2.246 0-4.25-1.661-4.422-3.9-.148-1.923.999-3.596 2.655-4.258h14.493c.735 0 1.194.756.898 1.429-.336.765-.523 1.608-.523 2.496 0 1.015.245 1.971.678 2.816.332.65-.179 1.417-.908 1.417zm-17.873 0h-35.127-17.424c-1.975 0-3.576-1.6-3.576-3.576v-97.847c0-1.976 1.601-3.577 3.576-3.577h17.424 13.812c1.958 0 3.891.445 5.653 1.3l8.995 4.366c.22.108.457.161.692.161.331 0 .659-.105.936-.309.476-.35.715-.93.626-1.514l-.261-1.701c-.185-1.211.752-2.303 1.977-2.303h16.994c1.975 0 3.576 1.601 3.576 3.577v17.889c0 1.976-1.601 3.576-3.576 3.576h-6.847c.272-1.353.339-2.779.146-4.25-.834-6.331-6.347-11.237-12.733-11.312-7.24-.086-13.157 5.779-13.157 12.999 0 3.605 1.478 6.871 3.857 9.228-1.675 1.956-2.954 4.252-3.727 6.772-.215.701-.883 1.164-1.616 1.163h-.014c-16.286 0-29.425 13.732-28.449 30.224.845 14.258 12.446 25.861 26.704 26.723 3.827.232 7.501-.304 10.892-1.459 1.01-.343 2.105-.277 3.084.148 2.315 1.006 4.867 1.564 7.548 1.564 2.045 0 3.621 1.709 3.565 3.754-.001.057-.002.114-.002.171 0 .165.007.328.019.489.16 2.035-1.526 3.744-3.567 3.744zm-13.116-107.587c.487.042.964-.129 1.302-.486.338-.356.49-.84.416-1.327l-.723-4.714 9.063 4.4c1.004.487.576 2.004-.534 1.894l-1.926-.188c-.493-.05-.965.132-1.302.488-.337.357-.488.841-.413 1.325l.722 4.714-9.065-4.4c-1.004-.488-.576-2.003.535-1.895zm14.322 24.066c-.552 0-1 .447-1 1 0 .481-.062.949-.18 1.395-.185.703-.804 1.187-1.529 1.244-2.107.165-4.116.675-5.975 1.475-.663.285-1.436.083-1.916-.455-1.588-1.775-2.042-4.583-.211-7.279.944-1.389 2.603-1.929 4.282-1.88.566.016 1.029-.438 1.029-1 0-.553-.448-1-1-1-4.136 0-7.5 3.364-7.5 7.5 0 1.616.517 3.111 1.391 4.335.523.732.4 1.729-.307 2.285-.049.038-.097.076-.144.115-.745.596-1.831.432-2.387-.343-1.622-2.264-2.408-5.166-1.899-8.251.786-4.767 4.766-8.523 9.566-9.068 6.636-.754 12.28 4.44 12.28 10.927 0 .358-.019.713-.055 1.062-.087.851-.801 1.501-1.657 1.501h-.175c-1.007 0-1.738-.883-1.644-1.886.02-.223.031-.449.031-.677 0-.553-.448-1-1-1zm-22.202 23.193c-13.222.67-23.595 12.318-22.166 25.989 1.112 10.63 9.499 19.296 20.087 20.755 2.938.405 5.786.253 8.464-.352.501-.113 1.012.034 1.381.392l.025.024c.828.802.463 2.228-.66 2.487-3.093.714-6.391.888-9.795.395-11.885-1.719-21.253-11.466-22.488-23.412-1.591-15.385 10.073-28.491 24.949-29.271.914-.048 1.66.717 1.572 1.628-.002.015-.003.028-.005.043-.071.714-.647 1.286-1.364 1.322zm-5.712 13.679c-3.071 2.176-5.086 5.749-5.086 9.791 0 6.617 5.383 12 12 12 .313 0 .619-.023.925-.047.401 3.368 1.69 6.46 3.62 9.053-1.466.317-2.985.494-4.545.494-11.855 0-21.5-9.644-21.5-21.5 0-11.855 9.645-21.5 21.5-21.5.261 0 .519.025.779.035v.99c-4.285.264-7.693 3.825-7.693 8.175zm4.526 17.573c.667.784-.179 1.932-1.141 1.568-3.778-1.428-6.471-5.078-6.471-9.35 0-2.032.749-3.735 1.498-4.932.748-1.195 1.588.432 1.588.432 0 4.682 1.707 8.969 4.526 12.282zm82.706-48.882h4.152c7.828 0 14.43 5.32 16.396 12.533.347 1.274-.615 2.534-1.936 2.534h-6.568-4.54c-.552 0-1 .447-1 1s.448 1 1 1h14.599c4.419 0 8 3.582 8 8v14.399c0 4.418-3.581 8-8 8h-14.599c-.552 0-1 .448-1 1 0 .553.448 1 1 1h4.649c5.97.885 8.738 8.068 4.74 12.589-3.115 3.524-7.668 5.745-12.741 5.745h-4.154-60.537c-6.99 0-12.995-4.245-15.598-10.29-.683-1.585.792-3.209 2.443-2.712 1.731.522 3.564.802 5.462.802h19.199c10.494 0 19-8.507 19-19v-7.8c0-4.529-3.671-8.2-8.2-8.2h-10.8c-.552 0-1 .447-1 1s.448 1 1 1h6.035 4.765c3.424 0 6.2 2.776 6.2 6.2v7.8c0 9.389-7.611 17-17 17h-2.553-16.646c-9.389 0-17-7.611-17-17v-7.8c0-3.424 2.776-6.2 6.2-6.2h18.445c.552 0 1-.447 1-1s-.448-1-1-1h-14.952c-1.105 0-2-.895-2-2v-1.6c0-9.388 7.611-17 17-17zm-36.253-24.67c6.098-14.695 16.587-24.773 24.975-24.773 1.261 0 2.477.229 3.621.703.91.377 1.736.904 2.485 1.549l.601.56c5.891 5.961 6.153 20.471.067 35.136l-.042.104c-2.366 5.686-7.92 9.391-14.08 9.391h-17.872c-2.355 0-4.276-1.958-4.15-4.309.304-5.631 1.748-11.982 4.395-18.361zm69.58 13.706c1.627 5.969 4.023 16.644 5.001 30.466.082 1.165-.928 2.113-2.087 1.972l-5.081-.62c-1.466-3.138-4.505-5.397-8.103-5.738-.95-9.595-9.064-17.116-18.905-17.116h-7.003c-1.851 0-3.063-1.96-2.205-3.599s1.662-3.351 2.4-5.13c3.935-9.482 5.256-18.953 4.181-26.37-.216-1.488 1.547-2.421 2.648-1.397l28.588 26.602c.273.254.468.571.566.93zm196.878 88.922h-54.029v-106c0-.552-.447-1-1-1h-11.833c-.552 0-1 .448-1 .999v.001c0 .553.448 1 1 1h7.833c1.657 0 3 1.343 3 3v99c0 1.658-1.343 3-3 3h-17-46.504-4.496c-1.656 0-3-1.342-3-3v-59.125c1.588-1.613 2.616-3.759 2.794-6.1.216-2.84-.815-5.624-2.829-7.638-.303-.304-.629-.576-.965-.834-1.894-1.453-4.262-2.174-6.671-1.994-2.452.187-4.693 1.306-6.329 3.024v-26.333c0-1.657 1.344-3 3-3h6c1.657 0 3 1.343 3 3v17.309c0 .553.448 1 1 1s1-.447 1-1v-17.309c0-1.657 1.344-3 3-3h5.36 47.813c.552 0 1-.447 1-1v-.001c-.001-.551-.449-.999-1-.999h-47.813-9.36-14c-.552 0-1 .448-1 1v33.456c-.109.277-.211.558-.295.847l-3.579 12.271v.871c0 .637.182 1.287.614 1.756.53.574 1.266.886 2.02.886.257 0 .516-.036.769-.11l.471-.138v43.295c0 1.326-1.074 2.401-2.4 2.401-1.325 0-2.4-1.075-2.4-2.401v-25.644c0-9.46-6.263-17.478-14.858-20.14-2.205-.684-3.387-3.062-2.502-5.193l1.858-4.479c.952-2.294-.137-4.925-2.432-5.875l-.102-.042c-.966-.4-2.047-.532-3.054-.252-1.373.381-2.448 1.335-2.98 2.615l-.081.195-14.004-13.031c-.901-.838-1.569-1.905-1.927-3.082-.31-1.025-.513-1.587-.531-1.635-.192-.518-.767-.779-1.285-.589-.513.19-.774.759-.591 1.272l-.533-.495c-.91-.847-1.576-1.925-1.936-3.115-.496-1.636-.818-2.532-.841-2.593-.191-.518-.766-.783-1.284-.593-.518.192-.783.767-.592 1.285.014.036.138.381.341 1.004l-35.871-33.378c-.034-.033-.078-.045-.116-.072-.886-.767-1.865-1.394-2.945-1.842-8.411-3.491-19.953 4.386-27.748 18.077-1.23 2.161-3.554 3.468-6.041 3.468h-.972s-11.914-.075-11.972-.103l-18.865-9.158c-.53-.258-1.155-.2-1.63.148-.474.351-.714.93-.625 1.513l.372 2.426c.198 1.29-.873 2.42-2.171 2.293l-9.039-.885c-.307-.028-.611.084-.824.307-.212.224-.309.534-.262.839l.058.38c.049.325.256.605.552.748l3.074 1.492h-13.668-21c-.553 0-1 .448-1 1v107c0 .553.447 1 1 1h21 45.907 9.093 11.444 2.556.974 51.379c-.16.271-.313.54-.476.81-.285.474-.132 1.088.341 1.372.161.098.34.144.515.144.339 0 .67-.173.858-.485.195-.323.386-.645.575-.968.317-.541.893-.873 1.52-.873h1.785c.904 0 1.568.698 1.759 1.582.058.27.271.52.775.702.094.033.191.042.286.042.721 0 1.078-.556 1.254-1.124.225-.724.917-1.202 1.675-1.202h3.907c.552 0 1-.447 1-1v-.001c0-.551-.448-.999-1-.999h-2.606c-1.134 0-1.952-1.074-1.666-2.171 2.565-9.877 4.089-19.378 4.872-28.283 1.764-7.347 2.69-14.315 3.059-20.715.077-1.328 1.266-2.306 2.586-2.145l1.833.224c-.689 2.194.38 4.594 2.543 5.494l.264.109c.552.229 1.133.343 1.714.343.923 0 1.847-.286 2.662-.865.699-.497 1.213-1.217 1.541-2.009l3.123-7.525c10.007.582 17.975 8.882 17.975 19.033v26.559c0 .821-.665 1.486-1.485 1.486-.821 0-1.486-.665-1.486-1.486v-1.371c0-.553-.448-1-1-1s-1 .447-1 1v3.857c0 .552.448 1 1 1h14.896c2.209 0 4.186 1.61 4.401 3.808.246 2.524-1.738 4.657-4.212 4.657h-2.314-33.376c-2.658 0-4.814-2.155-4.814-4.813v-17.442c0-.553-.447-1-1-1-.552 0-1 .447-1 1v17.441c0 2.462 1.317 4.616 3.278 5.813 1.033.631 2.241 1.001 3.536 1.001h32.376 3.314 10.686 8.496 46.504 21 55.029c.552 0 1-.447 1-1 0-.552-.448-1-1-1zm-354.5708.0005h-46.256c-.553 0-1 .447-1 1s.447 1 1 1h46.256c.552 0 1-.447 1-1s-.448-1-1-1"/><path d="m111.3098 19.768c.281.403.724.648 1.215.674.485.034.957-.173 1.279-.546l1.871-2.169c.526-.61 1.521-.38 1.724.4l2.063 7.906c.282 1.08-1.149 1.74-1.788.825l-1.108-1.587c-.281-.402-.724-.649-1.215-.673-.028-.002-.056-.002-.083-.002-.46 0-.892.196-1.196.548l-1.87 2.169c-.526.61-1.521.38-1.725-.4l-2.062-7.907c-.281-1.079 1.149-1.739 1.788-.824zm-2.085 10.266c.149.571.599 1.007 1.174 1.14.573.135 1.17-.061 1.553-.508l3.283-3.808 6.673 9.557c.176.253.46.412.768.427.017.001.034.001.051.001.291 0 .567-.126.758-.346l.251-.292c.215-.249.293-.587.21-.905l-5.294-20.293c-.149-.57-.597-1.008-1.171-1.14-.572-.135-1.171.06-1.557.506l-3.282 3.808-6.673-9.557c-.177-.253-.461-.411-.769-.426-.311-.014-.608.112-.809.346l-.25.291c-.215.249-.293.587-.21.905zm-71.8115 75.4323 4.522.979c.071.015.142.022.212.022.461 0 .875-.32.977-.788.117-.54-.226-1.072-.766-1.19l-4.522-.978c-.539-.118-1.071.226-1.189.766-.117.54.226 1.072.766 1.189m-2.8593 13.0156c.011 0 .023 0 .035-.001l6.621-.226c.552-.018.984-.481.965-1.033-.019-.551-.454-1.019-1.034-.965l-6.621.226c-.551.019-.984.481-.965 1.033.019.54.462.966.999.966m4.0234 10.874c-.526.169-.815.731-.646 1.258.136.424.528.694.952.694.101 0 .204-.015.305-.048l4.406-1.413c.525-.169.815-.731.646-1.258-.169-.525-.731-.816-1.258-.646zm321.0581-22.8887c.07 0 .141-.007.212-.022l4.522-.979c.54-.117.883-.649.766-1.189-.116-.539-.649-.884-1.188-.766l-4.522.978c-.54.118-.883.65-.767 1.19.102.468.517.788.977.788m-.0273 10.7549c-.019.552.414 1.015.965 1.033l6.621.226c.012.001.024.001.035.001.537 0 .981-.426.999-.966.019-.552-.413-1.015-.965-1.033l-6.621-.226c-.572-.056-1.015.414-1.034.965m-1.419 12.625 4.405 1.413c.102.032.205.048.306.048.423 0 .816-.271.952-.694.169-.527-.121-1.089-.646-1.258l-4.406-1.413c-.527-.165-1.089.122-1.257.646-.169.527.12 1.089.646 1.258m-203.7993-28.5957c-2.475 0-4.5 2.025-4.5 4.5 0 2.476 2.025 4.5 4.5 4.5s4.5-2.024 4.5-4.5c0-2.475-2.025-4.5-4.5-4.5"/></g></g></svg>