<svg id="sc_x5F_fg" xmlns="http://www.w3.org/2000/svg" xmlns:xlink="http://www.w3.org/1999/xlink" viewBox="0 0 1860 314"><style>.st0{clip-path:url(#SVGID_2_);fill:#738BD7;} .st1{clip-path:url(#SVGID_2_);} .st2{fill:#738BD7;} .st3{fill:none;stroke:#9CB4F7;stroke-width:2;stroke-linecap:round;stroke-linejoin:round;stroke-miterlimit:10;}</style><defs><path id="SVGID_1_" d="M1172.9 105.4h290.8v205.4h-290.8z"/></defs><clipPath id="SVGID_2_"><use xlink:href="#SVGID_1_" overflow="visible"/></clipPath><path class="st0" d="M1262.6 315.4l-11.6-50.3v-.1-.1s0-.1-.1-.1c0-.1-.1-.1-.1-.2l-.1-.1-1.1-2.1-21.2-13.8s0 1-.1 1c0 0-.1 0-.1-.1-.1 0-.1 0-.2-.1h-.1-.1-.1c-.2 0-.4.1-.5.3l-15 17.3s0 .1-.1.1c0 .1-.1.1-.1.2V268l4.3 20.8-5.9 2-7.3-7.3s-.1 1-.1.9c0 0-1-1-1.1-1-.1-.1.8.9.7.9h-.1c-.2-.1-.4-.1-.6 0l-11.6 3.8s-.1 0-.1.1c-.1 0-.1.1-.2.2s-.1.1-.1.2v.4l1.5 25.1c0 .5.5.9 1 .9s.9-.5.9-1l18.5 2.9c.2.3.5.5.9.5.1 0 .3 0 .4-.1.5-.2.7-.8.4-1.3 0 0 13.6-2.8 13.6-1.5 0 .5.4 1 1 1 .5 0 1-.4 1-1 0-1 13.1 1.7 13.1 1.7.1.4.5.7.9.7h.3c.5-.2.8-.7.6-1.2l10.4-2c.2.2.5.4.8.4.2 0 .4-.1.6-.2.4-.3.5-.9.2-1.4l5.1 3.2c.1.4.5.7.9.7h.2c.2.1.5-.4.4-1z"/><g class="st1"><path class="st2" d="M1286.5 310.6c.7.2 1.5.4 2.4.6l.4.1v.9h5.5l.2-.3H1303.8l-.1.3h1l.1-.3h.4c6.1.1 12.2.1 18.2.2h10.2v.1h1v-.1h5v.1h5.5l.1-.1h35.8v.1h1.4l.3-.1h56.4c.4-1.2.9-2.2 1.3-3.2l.3-.9.1-.5 15.8-47.4 2-20.6c0-.2 0-.3-.1-.4-.1-.1-.3-.2-.4-.1l-16.4 2c-.1 0-.1 0-.1.1l-10.6 8.2 6.1-38.1v-.2l-11.3-69.6s0-.1-.1-.2l-.1-.1c-.1 0-.1-.1-.1-.1h-.1H1425.1c-.1 0-.1.1-.2.1l-49 52v.1s0 .1-.1.1v.2l-5 33.6-5.8-5.3c-.1-.1-.2-.1-.3-.1h-.1-.1l-.2.1-6 6.1-3-39.1c0-.1 0-.2-.1-.2l-.1-.1-36.1-34.6-20.7-20.3-.1-.1c-.1 0-.1 0-.2-.1h-.2-.1l-.1.1s0 .1-.1.1v.1l-17.2 36.6-12 40.7v.2l16 99c0 .2.2.4.5.4.2 0 .3-.1.4-.2l.2-.3.3.1c.2.1.3.1.5.1h.2l.1.3-.3.4.3-.4z"/><path class="st3" d="M1364.6 222.1l1.7 28.3-23-6.6M1366.3 250.4l7.3 44.4-31.5-14.7"/><path class="st3" d="M1378.6 234.8l-5 60.1-32.7 19.3c0-1 2.3-70.3 2.3-70.3l21.3-21.7 14.1 12.6 9 33.3 7 31.9M1373.6 294.8l15.1 10M1382.6 314.1c.7-1 9.7-13.1 9.7-13.1l15-6.1v16.3l-.4 3"/><path class="st3" d="M1341.4 299.8l-26.5-77.7-19.6-6.3-7.4 9.3 11.7 57 25-6-16.7-37.6"/><path class="st3" d="M1290.2 236.3l-2.3 31.8 2.3 52 9.4-38"/><path class="st3" d="M1324.6 276.1l11 21.7-24.4-18.5-21 40.8M1311.2 279.3c-1 1.7-7.2 34.8-7.2 34.8M1333.6 313.1l2-15.3 5.3 16.3"/><path class="st3" d="M1357.8 229l-3-40.2-36.2-34.7-20.7-20.3-17.3 36.6-12 40.7 16 99"/><path class="st3" d="M1280.6 170.4l-4 58.4-8-17.7M1297.1 135.4l-6.9 32.4-13.6 61 13.5 9.7"/><path class="st3" d="M1290.2 167.8l44.4 32.8 20.2-11.8M1331.3 240.4l3.3-39.8-23.7 19.9M1305.6 159.6l-7.7-25.8M1305.6 159.6l29 41M1354.8 232.1l-7.9-13.3-22.3 31.6M1376.3 193.4l21.6 17.7-2.4 49M1388.7 270.8l34.2-52 7.5 31.6 11.5-9 16.4-1.9-2 20.6-18 54"/><path class="st3" d="M1422.9 218.8l-7.6 41.3-23.8 25.5M1441.9 241.4l3.4 11 11 7.7"/><path class="st3" d="M1457.3 241.5l-13 12.9-19.3 30M1436.6 211.1l-28 7.7-10.7-7.7"/><path class="st3" d="M1408.6 218.8l16.7-77.4-27.4 69.7-9.2-30.9"/><path class="st3" d="M1415.3 260.1l4 60 17.3-109-11.3-69.7-49 52-5.2 34.6M1287.9 225.1l20 13.4 7-16.4"/></g><g class="st1"><path class="st3" d="M1262.9 315.8l-12-52-23-15.3-15.5 17.9 4.5 21.9"/><path class="st3" d="M1227.9 314.8c0-1.5 5-31.5 5-31.5l-23.5 8-7-8-13 5 1.5 26M1212.4 266.4l14.5 6.1 24-8.7"/><path class="st3" d="M1243.4 316.3l-10.5-33-6-10.8 1-24"/><path class="st3" d="M1255.9 313.3l-23-30-28 14.7M1202.4 283.3l1 17-14-12"/><path class="st3" d="M1209.4 291.3l-6 9 8.5 16.5"/></g><g><path class="st2" d="M534.2 310.2l-21-69v-5.1c0-.1 0-.2-.1-.3l-7.5-21.2v-.1c0-.1-.1-.1-.1-.2l-.1-.1-.1-.1-5-3.7-3.9-9.9c-.1-.2-.2-.3-.3-.4l-9.9-7.4c-.2-.1-.4-.2-.6-.2h-10l-6.3-5.8c-.1-.1-.3-.2-.4-.2-1.1-.3-2.1-.4-3-.4-1-2-4.5-8.8-9.8-10.8-5.9-2.3-11-3.1-15-2.5-2.5.4-4.6 2-5.7 4.4-1.6 3.7-3.2 9.2-1.3 14.8l.6 2c2.2 6.8 3 9.3 8 9.3 1.4 0 2.9.1 4.4.4L453 226l7.4 28.3c0 .1.1.2.1.2.1.2 3 5.3 7.5 7.1.1.1.3.1.4.2l7.1 23.3c1.6 5.2 5.1 9.5 9.8 12l2.4 1.3 3.9 12.3c.1.4.5.7 1 .7h40.7c.3 0 .6-.2.8-.4s.2-.5.1-.8z"/><path class="st3" d="M533.3 310.5l-21-69.2v-5.2l-7.6-21.3-5.2-3.8-4-10.2-9.9-7.5h-18.9l12 8.9 5.1 13.7 4.4 3.6 6.3 18.8v4.9l8.6 29.8"/><path class="st3" d="M473 193.3l9.8 7.5 4 10.2 5.2 3.8 7.6 21.3v5.2l21 69.2M511 300l3 10.5"/><path class="st3" d="M475.2 193.3l-6.6-6.1c-9.1-2.2-13 4.2-13 4.2l9.5 12.9-3.7 7.4 31.1 98.7"/><path class="st3" d="M465.2 186.8s-3.7-8.6-9.5-10.8c-4.5-1.7-9.9-3.1-14.5-2.4-2.2.3-4 1.8-4.9 3.9-1.4 3.2-3.1 8.6-1.3 14.1 2.8 8.5 3 10.7 7.7 10.7s14.1 1.7 14.3 5.8c0 0 1.7 7.2.5 8.5 0 0-4.4 4.4-3.5 9.4l7.4 28.3s2.8 5 7 6.6c4.2 1.7 10.1 5 11.7 9.9"/><path class="st3" d="M469.2 261.1l7.3 23.8c1.5 4.9 4.8 9 9.3 11.5l2.8 1.5M470.2 214.8l15.3 51h8.1l-15.8-51zM457.4 211.4s-.7-.7-2.3-.6l-1.6.1.6 2.1s3.2-.7 3.9 1.2M507 279.3l-5.1 3.6M508.3 283.8l-5.1 3.6M509.7 288.2l-5.1 3.6M511.1 292.2l-5.2 3.6M492 214.8h12.7M486.8 211h12.7M499.6 236.1h12.7M499.6 241.3h12.7M446.1 173.5s-7.4 7.1-5.5 16.6c1.2 6.1 3.1 11.9 5.1 12.2M465.2 223.6s-5.1 2.2-4 5c1.1 2.8 6.4 2.7 6.4 2.7M470.4 240.3s-4.1.7-3.8 4c.4 3.3 6.3 4 6.3 4M454 225.8l-6.1-23.1"/></g><g><path class="st2" d="M457.1 292.4v-.2c-.1-3.5-2.6-6.5-6-7.2 0-.1.1-.2 0-.3-.5-6.5-2.4-11.7-5-15.7-10.6-23-38.8-23.3-39.1-23.3-26.2 0-39.8 10.6-46.5 19.4-6.4 8.4-8 16.7-8.3 18.9h-1.6c-.1 0-3.3.1-4.9 5.8-1.4 5.1-3.1 17.2-1.6 20.5.1.2.3.4.6.4h112.5c.2 0 .4-.1.5-.2.1-.1.2-.3.2-.5-.1 0-.8-12.2-.8-17.6z"/><path class="st3" d="M449.5 298.7s.7-38.9-28.1-38.9-43.3 13.9-49.6 27.8"/><path class="st3" d="M367.9 284.8s8.1-27.2 45.7-29.9c6.8-.5 13.6.8 19.7 3.8 7.7 3.9 16 11.4 17.1 26.1"/><path class="st3" d="M352.7 284.8s4-38.4 54.2-38.4c0 0 28 0 38.5 22.9M377 298.7l-4.3-9.6c-1.2-2.6-3.9-3.3-6.6-4.3-.9-.3-5.7 0-5.7 0M379.4 304h1.1M349.9 293.8H361c1.3 0 2.5.7 3 1.9l3 6.4c.5 1.2 1.7 1.9 3 1.9h6.2"/><path class="st3" d="M344.6 310.1c-1.3-3 .2-14.7 1.7-20 1.5-5.3 4.3-5.3 4.3-5.3h11.3c2.9 0 5.5 1.7 6.6 4.3l3.3 7.3c.6 1.4 2.1 2.3 3.6 2.3h33.7l2.4-3.3h23.1l2.8 3.3h15M448 285.6h1.5c3.7 0 6.9 3 6.9 6.7v.2c0 5.5.7 17.7.7 17.7"/><path class="st3" d="M382 273.3s2.6 2 4.9 4.8 8.8 6.6 8.8 6.6 4.3-6.6 7.8-5.4c3.5 1.2 6.4 5.4 6.4 5.4v5.9l4 4.8M431.8 295.4l4.6-4.6v-6.4s.7-5.8 2.3-6.5 3 2.6 3 2.6l3.3-4.2M403.3 262l10.6 9.1-3.3 6.3-19-10.9M433 262.5c-.6-.3-5.2 7.3-5.2 7.3l4 4.7 7.3-7.1M413.9 295.4v14.7M436.1 302.9c-.4.4 0 7.3 0 7.3M419.9 300.9h10.9M419.9 305.5h10.9M419.9 276.3l1.6-1v9.5h-3.6zM425.8 275.3v9.1l2.8 1.5v-7.8z"/></g></svg>