<?xml version="1.0" encoding="utf-8"?>
<!-- Generator: Adobe Illustrator 17.1.0, SVG Export Plug-In . SVG Version: 6.00 Build 0)  -->
<!DOCTYPE svg PUBLIC "-//W3C//DTD SVG 1.1//EN" "http://www.w3.org/Graphics/SVG/1.1/DTD/svg11.dtd">
<svg version="1.1" id="Isolation_Mode" xmlns="http://www.w3.org/2000/svg" xmlns:xlink="http://www.w3.org/1999/xlink" x="0px"
	 y="0px" viewBox="0 0 16 16" enable-background="new 0 0 16 16" xml:space="preserve">
<circle fill="#FFFFFF" cx="8" cy="8" r="8"/>
<g id="time_-_clock_time_alarm">
	<g>
		<path fill-rule="evenodd" clip-rule="evenodd" fill="#99AAB5" d="M12.7,7.7C12.7,5.1,10.6,3,8,3C5.4,3,3.3,5.1,3.3,7.7
			c0,1.8,1.1,3.4,2.6,4.2l-0.5,0.7c-0.1,0.2,0,0.3,0.2,0.4C5.8,13,6,13,6.2,12.8l0.6-0.7c0.4,0.1,0.8,0.2,1.3,0.2
			c0.4,0,0.9-0.1,1.3-0.2l0.6,0.7C10,13,10.2,13,10.4,13c0.2-0.1,0.3-0.3,0.2-0.4L10,11.8C11.6,11.1,12.7,9.5,12.7,7.7z M8,11.7
			c-2.2,0-4-1.8-4-4c0-2.2,1.8-4,4-4c2.2,0,4,1.8,4,4C12,9.9,10.2,11.7,8,11.7z M10.3,7.7H8V5.3C8,5.1,7.9,5,7.7,5
			C7.5,5,7.3,5.1,7.3,5.3V8c0,0,0,0,0,0c0,0.1,0,0.2,0.1,0.2c0.1,0.1,0.1,0.1,0.2,0.1c0,0,0,0,0,0h2.7c0.2,0,0.3-0.1,0.3-0.3
			C10.7,7.8,10.5,7.7,10.3,7.7z"/>
	</g>
</g>
</svg>
