<svg xmlns="http://www.w3.org/2000/svg" width="120" height="138" viewBox="0 0 120 138">
  <g fill="none" fill-rule="evenodd">
    <polygon fill="#72767D" points="25.878 29.853 82.797 29.853 82.797 10.424 25.878 10.424"/>
    <polygon fill="#4F545C" points="22.574 135.542 77.104 135.542 77.104 93.091 22.574 93.091"/>
    <polygon fill="#4F545C" points="39.679 30.63 44.595 30.63 31.807 76.31 26.538 76.31"/>
    <path fill="#EBEFF7" d="M37.3997228,73.4422574 L37.3997228,75.1222574 L42.4177426,75.1222574 L42.4177426,70.6870099 C40.5209109,70.3988911 39.061901,68.7622574 39.061901,66.7864158 C39.061901,64.6085941 40.8333861,62.8365149 43.011802,62.8365149 C45.1896238,62.8365149 46.962297,64.6085941 46.962297,66.7864158 C46.962297,68.7622574 45.5026931,70.3988911 43.6058614,70.6870099 L43.6058614,75.1222574 L47.3989307,75.1222574 L47.3989307,73.4422574 C47.3989307,72.497703 48.1670495,71.7295842 49.111604,71.7295842 L52.4674455,71.7295842 C53.412,71.7295842 54.1801188,72.497703 54.1801188,73.4422574 L54.1801188,75.1222574 L55.7888317,75.1222574 L55.7888317,73.4422574 C55.7888317,72.497703 56.5575446,71.7295842 57.501505,71.7295842 L60.8573465,71.7295842 C61.801901,71.7295842 62.5706139,72.497703 62.5706139,73.4422574 L62.5706139,75.1222574 L63.9131881,75.1222574 L79.4282376,75.1222574 L92.2272475,30.6301782 L80.6941782,30.6301782 L45.8312079,30.6301782 L34.0082376,71.7295842 L35.6870495,71.7295842 C36.631604,71.7295842 37.3997228,72.497703 37.3997228,73.4422574"/>
    <polygon fill="#7687B2" points="80.871 11.612 111.424 11.612 111.424 136.15 77.372 136.15 77.372 93.091 64.25 93.091 64.25 76.31 79.875 76.31 93.587 30.2 80.871 30.2"/>
    <path fill="#EBEFF7" d="M87.9945743,87.3382574 L88.8048713,84.6026139 C88.8500198,84.4517228 88.9527921,84.3245941 89.091802,84.2491485 C89.2296238,84.174297 89.392396,84.1570693 89.5432871,84.2016238 L100.475168,87.4398416 C101.470812,86.1305347 102.06903,84.5034059 102.06903,82.7348911 C102.06903,78.4362772 98.571802,74.9390495 94.2725941,74.9390495 C89.9739802,74.9390495 86.4767525,78.4362772 86.4767525,82.7348911 C86.4767525,84.4576634 87.0446733,86.0461782 87.9945743,87.3382574"/>
    <polygon fill="#B7C2CE" points="54.18 118.751 58.586 118.751 58.586 99.803 54.18 99.803"/>
    <polygon fill="#B7C2CE" points="30.387 25.527 76.185 25.527 76.185 15.528 30.387 15.528"/>
    <path fill="#72767D" d="M37.0852871 116.323901L33.7294455 116.323901C33.4015248 116.323901 33.1353861 116.057762 33.1353861 115.729842L33.1353861 111.814396C33.1353861 111.485881 33.4015248 111.220337 33.7294455 111.220337L37.0852871 111.220337C37.413802 111.220337 37.6793465 111.485881 37.6793465 111.814396L37.6793465 115.729842C37.6793465 116.057762 37.413802 116.323901 37.0852871 116.323901zM39.6213267 109.277168C39.6213267 109.189248 39.6427129 109.107267 39.6765743 109.032416L32.0512277 109.032416C31.7233069 109.032416 31.4571683 108.766277 31.4571683 108.438356L31.4571683 102.285683C31.4571683 101.957168 31.7233069 101.691624 32.0512277 101.691624L39.6213267 101.691624 39.6213267 99.8031089 29.5692475 99.8031089 29.5692475 118.751228 39.6213267 118.751228 39.6213267 109.277168zM42.644198 111.814218C42.644198 111.486297 42.9103366 111.220158 43.2382574 111.220158L48.2729109 111.220158C48.6002376 111.220158 48.8669703 111.486297 48.8669703 111.814218L48.8669703 115.729663C48.8669703 116.058178 48.6002376 116.323723 48.2729109 116.323723L43.2382574 116.323723C42.9103366 116.323723 42.644198 116.058178 42.644198 115.729663L42.644198 111.814218zM40.8091485 118.751644L51.0697426 118.751644 52.9921188 118.751644 52.9921188 99.8029307 51.0697426 99.8029307 40.8091485 99.8029307 40.8091485 101.691446 50.5095446 101.691446C50.8380594 101.691446 51.103604 101.957584 51.103604 102.285505L51.103604 108.438178C51.103604 108.766099 50.8380594 109.032238 50.5095446 109.032238L40.7527129 109.032238C40.7871683 109.107089 40.8091485 109.189663 40.8091485 109.27699L40.8091485 118.751644z"/>
    <polygon fill="#FFD773" points="89.776 85.51 87.889 91.879 106.594 97.419 108.48 91.05"/>
    <path fill="#F75959" d="M15.5854455 66.7866535C15.5854455 68.3092277 16.8246535 69.5484356 18.3472277 69.5484356 19.870396 69.5484356 21.109604 68.3092277 21.109604 66.7866535 21.109604 65.2640792 19.870396 64.0248713 18.3472277 64.0248713 16.8246535 64.0248713 15.5854455 65.2640792 15.5854455 66.7866535M43.0119802 69.5486733C44.5345545 69.5486733 45.7737624 68.3094653 45.7737624 66.7868911 45.7737624 65.2637228 44.5345545 64.0245149 43.0119802 64.0245149 41.4894059 64.0245149 40.250198 65.2637228 40.250198 66.7868911 40.250198 68.3094653 41.4894059 69.5486733 43.0119802 69.5486733"/>
    <path fill="#FFD773" d="M27.2966733 72.9175248L23.9408317 72.9175248C23.6515248 72.9175248 23.4162772 73.1527723 23.4162772 73.4420792L23.4162772 75.1220792 27.8218218 75.1220792 27.8218218 73.4420792C27.8218218 73.1527723 27.5859802 72.9175248 27.2966733 72.9175248M31.8066535 75.1220792L36.211604 75.1220792 36.211604 73.4420792C36.211604 73.1533663 35.9763564 72.9175248 35.6870495 72.9175248L32.3312079 72.9175248C32.041901 72.9175248 31.8066535 73.1533663 31.8066535 73.4420792L31.8066535 75.1220792zM52.9920594 75.1220792L52.9920594 73.4420792C52.9920594 73.1533663 52.7568119 72.9175248 52.467505 72.9175248L49.1116634 72.9175248C48.8217624 72.9175248 48.5871089 73.1533663 48.5871089 73.4420792L48.5871089 75.1220792 52.9920594 75.1220792zM61.3825545 75.1220792L61.3825545 73.4420792C61.3825545 73.1533663 61.1473069 72.9175248 60.8574059 72.9175248L57.5015644 72.9175248C57.2122574 72.9175248 56.9770099 73.1533663 56.9770099 73.4420792L56.9770099 75.1220792 61.3825545 75.1220792z"/>
    <path fill="#72767D" d="M14.2842178,76.310198 C13.956297,76.310198 13.6901584,76.0440594 13.6901584,75.7161386 L13.2541188,75.7161386 C13.2535248,76.0440594 12.9873861,76.310198 12.6600594,76.310198 L11.8943168,76.310198 C11.565802,76.310198 11.3002574,76.0440594 11.3002574,75.7161386 L9.69154455,75.7161386 L9.69154455,91.9030693 L63.3190693,91.9030693 L63.3190693,76.310198 L14.2842178,76.310198 Z"/>
    <path fill="#202225" d="M80.6941188 21.9844752L80.6935248 21.9844752C80.365604 21.9844752 80.1000594 22.2506139 80.1000594 22.5785347L80.1000594 22.7644752C80.1000594 23.092396 80.365604 23.3585347 80.6935248 23.3585347L80.6941188 23.3585347C81.0220396 23.3585347 81.2881782 23.092396 81.2881782 22.7644752L81.2881782 22.5785347C81.2881782 22.2506139 81.0220396 21.9844752 80.6941188 21.9844752M71.1845347 25.526495L35.3865149 25.526495C32.6253267 25.526495 30.3869109 23.2880792 30.3869109 20.5268911 30.3869109 17.766297 32.6253267 15.5272871 35.3865149 15.5272871L71.1845347 15.5272871C73.9457228 15.5272871 76.1841386 17.766297 76.1841386 20.5268911 76.1841386 23.2880792 73.9457228 25.526495 71.1845347 25.526495M76.778198 14.3391683L29.7928515 14.3391683C29.4649307 14.3391683 29.1987921 14.6053069 29.1987921 14.9332277L29.1987921 26.1205545C29.1987921 26.4484752 29.4649307 26.7146139 29.7928515 26.7146139L76.778198 26.7146139C77.1067129 26.7146139 77.3722574 26.4484752 77.3722574 26.1205545L77.3722574 14.9332277C77.3722574 14.6053069 77.1067129 14.3391683 76.778198 14.3391683M58.5857228 116.54899C58.5857228 117.76503 57.5995842 118.751762 56.3829505 118.751762 55.1663168 118.751762 54.1801782 117.76503 54.1801782 116.54899L54.1801782 102.005822C54.1801782 100.789188 55.1663168 99.8030495 56.3829505 99.8030495 57.5995842 99.8030495 58.5857228 100.789188 58.5857228 102.005822L58.5857228 116.54899zM52.9920594 116.969584C52.9920594 117.953347 52.1942376 118.751762 51.2098812 118.751762L51.0696832 118.751762 40.8090891 118.751762 40.8090891 110.814535C40.8090891 109.830178 41.6069109 109.032356 42.5912673 109.032356L50.5094851 109.032356C50.838 109.032356 51.1035446 108.766218 51.1035446 108.438297L51.1035446 102.285624C51.1035446 101.957703 50.838 101.691564 50.5094851 101.691564L41.9972079 101.691564C41.3407723 101.691564 40.8090891 101.159287 40.8090891 100.503446L40.8090891 99.8030495 51.0696832 99.8030495 51.2098812 99.8030495C52.1942376 99.8030495 52.9920594 100.600871 52.9920594 101.585228L52.9920594 116.969584zM40.7526535 109.032356L40.7669109 109.032356C40.7621584 109.040673 40.7574059 109.04305 40.7526535 109.032356zM32.6455248 107.250178L32.6455248 103.473743C32.6455248 103.145822 32.9110693 102.879683 33.2395842 102.879683L49.3213663 102.879683C49.6498812 102.879683 49.9154257 103.145822 49.9154257 103.473743L49.9154257 107.250178C49.9154257 107.578099 49.6498812 107.844238 49.3213663 107.844238L33.2395842 107.844238C32.9110693 107.844238 32.6455248 107.578099 32.6455248 107.250178zM29.5688911 117.563644L29.5688911 100.991168C29.5688911 100.335327 30.1005743 99.8030495 30.7570099 99.8030495L39.6209703 99.8030495 39.6209703 100.503446C39.6209703 101.159287 39.0892871 101.691564 38.4328515 101.691564L32.0514653 101.691564C31.7229505 101.691564 31.4574059 101.957703 31.4574059 102.285624L31.4574059 108.438297C31.4574059 108.766218 31.7229505 109.032356 32.0514653 109.032356L37.8387921 109.032356C38.8225545 109.032356 39.6209703 109.830178 39.6209703 110.814535L39.6209703 118.751762 30.7570099 118.751762C30.1005743 118.751762 29.5688911 118.219485 29.5688911 117.563644zM59.1797822 98.6149307L53.5861188 98.6149307 51.0696832 98.6149307 28.9748317 98.6149307C28.6469109 98.6149307 28.3807723 98.8810693 28.3807723 99.2089901L28.3807723 119.345822C28.3807723 119.673743 28.6469109 119.939881 28.9748317 119.939881L51.0696832 119.939881 53.5861188 119.939881 59.1797822 119.939881C59.507703 119.939881 59.7738416 119.673743 59.7738416 119.345822L59.7738416 99.2089901C59.7738416 98.8810693 59.507703 98.6149307 59.1797822 98.6149307z"/>
    <path fill="#202225" d="M34.3235644 115.135842L36.4912871 115.135842 36.4912871 112.408515 34.3235644 112.408515 34.3235644 115.135842zM37.0853465 111.220396L33.729505 111.220396C33.4015842 111.220396 33.1354455 111.485941 33.1354455 111.814455L33.1354455 115.729901C33.1354455 116.057822 33.4015842 116.32396 33.729505 116.32396L37.0853465 116.32396C37.4138614 116.32396 37.6794059 116.057822 37.6794059 115.729901L37.6794059 111.814455C37.6794059 111.485941 37.4138614 111.220396 37.0853465 111.220396zM43.8320792 115.135842L47.6786139 115.135842 47.6786139 112.408515 43.8320792 112.408515 43.8320792 115.135842zM48.2726733 111.220396L43.2380198 111.220396C42.9106931 111.220396 42.6439604 111.485941 42.6439604 111.814455L42.6439604 115.729901C42.6439604 116.057822 42.9106931 116.32396 43.2380198 116.32396L48.2726733 116.32396C48.6005941 116.32396 48.8667327 116.057822 48.8667327 115.729901L48.8667327 111.814455C48.8667327 111.485941 48.6005941 111.220396 48.2726733 111.220396zM95.6610891 75.059703C98.7157426 75.590198 101.210198 77.9664356 101.877327 80.9931683 102.343663 83.1109901 101.93198 85.1177228 100.948218 86.7430693 100.69396 87.1636634 100.178911 87.3519802 99.7078218 87.2123762L89.5434653 84.2016832C89.3919802 84.1571287 89.229802 84.1743564 89.0913861 84.2492079 88.9529703 84.3246535 88.850198 84.4517822 88.8050495 84.6026733 88.4907921 85.6642574 86.959901 85.6434653 86.6967327 84.5682178 86.5529703 83.9806931 86.4769307 83.3670297 86.4769307 82.7349505 86.4769307 77.9812871 90.7529703 74.2078218 95.6610891 75.059703zM108.480297 91.05L106.593564 97.419505 87.8890099 91.8787129 89.7757426 85.509802 108.480297 91.05zM85.2923762 82.4830693C85.2341584 84.5628713 85.8935644 86.4846535 87.0329703 88.0333663 87.3680198 88.4890099 87.4820792 89.0694059 87.3216832 89.6117822L86.5814851 92.1109901C86.4882178 92.4258416 86.6676238 92.7561386 86.9824752 92.8494059L106.825842 98.7276238C106.882277 98.7442574 106.938713 98.7519802 106.994554 98.7519802 107.251188 98.7519802 107.487624 98.5850495 107.564257 98.3266337L109.788416 90.8183168C109.83297 90.6668317 109.815743 90.5046535 109.740891 90.3662376 109.665446 90.2272277 109.538317 90.1244554 109.387426 90.079901L103.769406 88.4153465C102.75297 88.1147525 102.243861 87.0068317 102.63297 86.0212871 103.035743 85.0030693 103.257327 83.8951485 103.257327 82.7349505 103.257327 77.640297 98.9943564 73.5222772 93.8480198 73.760495 89.2078218 73.9755446 85.4212871 77.8393069 85.2923762 82.4830693zM11.8940792 75.1220792C11.5655644 75.1220792 11.3000198 75.3882178 11.3000198 75.7161386 11.3000198 76.0440594 11.5655644 76.310198 11.8940792 76.310198L12.6598218 76.310198C12.9877426 76.310198 13.2532871 76.0440594 13.2538812 75.7161386 13.2538812 75.3882178 12.9877426 75.1220792 12.6598218 75.1220792L11.8940792 75.1220792z"/>
    <path fill="#202225" d="M111.423386 119.502772C111.423386 128.361386 104.242396 135.542376 95.3837822 135.542376L94.272297 135.542376C85.4136832 135.542376 78.2326931 128.361386 78.2326931 119.502772L78.2326931 92.4968317C78.2326931 92.1689109 77.9665545 91.9027723 77.6386337 91.9027723L66.8831881 91.9027723C65.5709109 91.9027723 64.5069505 90.8388119 64.5069505 89.5265347L64.5069505 78.6861386C64.5069505 77.3738614 65.5709109 76.309901 66.8831881 76.309901L79.8758614 76.309901C80.1408119 76.309901 80.3730891 76.1352475 80.4461584 75.880396L93.5873465 30.200198C93.6390297 30.0207921 93.6033861 29.8277228 93.4905149 29.6786139 93.3788317 29.529505 93.2029901 29.4415842 93.0164554 29.4415842L84.2582376 29.4415842C82.6180396 29.4415842 81.2879406 28.1120792 81.2879406 26.4712871L81.2879406 24.8156436C81.2879406 24.4877228 81.021802 24.2215842 80.6938812 24.2215842L80.6932871 24.2215842C80.3659604 24.2215842 80.0998218 24.4877228 80.0998218 24.8156436L80.0998218 28.2534653C80.0998218 28.909901 79.5681386 29.4415842 78.911703 29.4415842L27.6598218 29.4415842C27.0039802 29.4415842 26.471703 28.909901 26.471703 28.2534653L26.471703 12.800198C26.471703 12.1443564 27.0039802 11.6120792 27.6598218 11.6120792L78.911703 11.6120792C79.5681386 11.6120792 80.0998218 12.1443564 80.0998218 12.800198L80.0998218 19.0354455C80.0998218 19.3633663 80.3659604 19.629505 80.6932871 19.629505L80.6938812 19.629505C81.021802 19.629505 81.2879406 19.3633663 81.2879406 19.0354455L81.2879406 14.5823762C81.2879406 12.9421782 82.6180396 11.6120792 84.2582376 11.6120792L107.85903 11.6120792C109.827149 11.6120792 111.423386 13.2083168 111.423386 15.1764356L111.423386 119.502772zM43.012099 69.5489109C41.4889307 69.5489109 40.2497228 68.309703 40.2497228 66.7865347 40.2497228 65.2639604 41.4889307 64.0247525 43.012099 64.0247525 44.5346733 64.0247525 45.7738812 65.2639604 45.7738812 66.7865347 45.7738812 68.309703 44.5346733 69.5489109 43.012099 69.5489109zM62.5709109 75.1217822L62.5709109 73.4423762C62.5709109 72.4966337 61.8039802 71.729703 60.8576436 71.729703L57.5012079 71.729703C56.5560594 71.729703 55.7891287 72.4960396 55.7891287 73.4417822L55.7891287 75.1217822 54.1804158 75.1217822 54.1804158 73.4423762C54.1804158 72.4966337 53.4134851 71.729703 52.4677426 71.729703L49.1113069 71.729703C48.1655644 71.729703 47.3992277 72.4960396 47.3992277 73.4417822L47.3992277 75.1217822 45.3883366 75.1217822C44.4039802 75.1217822 43.6061584 74.3239604 43.6061584 73.339604L43.6061584 70.6871287C45.702 70.3687129 47.2643762 68.4029703 46.912099 66.1526733 46.6608119 64.5487129 45.402 63.2281188 43.8093267 62.9150495 41.2833861 62.4184158 39.061604 64.3479208 39.061604 66.7865347 39.061604 68.7623762 40.5206139 70.3990099 42.4180396 70.6871287L42.4180396 73.339604C42.4180396 74.3239604 41.6196238 75.1217822 40.6358614 75.1217822L37.4000198 75.1217822 37.4000198 73.4423762C37.4000198 72.4966337 36.6330891 71.729703 35.6873465 71.729703L34.0085347 71.729703 44.3475446 35.7879208C45.2261584 32.7338614 48.0200198 30.629703 51.1982376 30.629703L82.7588317 30.629703C87.5000198 30.629703 90.9206139 35.1724752 89.6095248 39.729505L81.6544752 67.3853465C80.3362574 71.9661386 76.1445743 75.1217822 71.3778416 75.1217822L62.5709109 75.1217822zM61.3827921 75.1217822L56.9772475 75.1217822 56.9772475 73.4423762C56.9772475 73.1530693 57.212495 72.9178218 57.5012079 72.9178218L60.8576436 72.9178218C61.1469505 72.9178218 61.3827921 73.1530693 61.3827921 73.4423762L61.3827921 75.1217822zM52.992297 75.1217822L48.5873465 75.1217822 48.5873465 73.4423762C48.5873465 73.1530693 48.822 72.9178218 49.1113069 72.9178218L52.4677426 72.9178218C52.7564554 72.9178218 52.992297 73.1530693 52.992297 73.4423762L52.992297 75.1217822zM36.211901 75.1217822L31.8069505 75.1217822 31.8069505 73.4423762C31.8069505 73.1530693 32.041604 72.9178218 32.3309109 72.9178218L35.6873465 72.9178218C35.9760594 72.9178218 36.211901 73.1530693 36.211901 73.4423762L36.211901 75.1217822zM30.6188317 73.4423762L30.6188317 75.1217822 29.0101188 75.1217822 29.0101188 73.4423762C29.0101188 72.6843564 28.512297 72.0481188 27.8285347 71.8223762L39.6782376 30.629703 44.5952673 30.629703 32.772297 71.729703 32.3309109 71.729703C31.3863564 71.729703 30.6188317 72.4978218 30.6188317 73.4423762zM27.822 75.1217822L23.4158614 75.1217822 23.4158614 73.4423762C23.4158614 73.1530693 23.651703 72.9178218 23.9404158 72.9178218L27.2968515 72.9178218C27.5861584 72.9178218 27.822 73.1530693 27.822 73.4423762L27.822 75.1217822zM15.5855644 66.7865347C15.5855644 65.2639604 16.8247723 64.0247525 18.3473465 64.0247525 19.8705149 64.0247525 21.1097228 65.2639604 21.1097228 66.7865347 21.1097228 68.309703 19.8705149 69.5489109 18.3473465 69.5489109 16.8247723 69.5489109 15.5855644 68.309703 15.5855644 66.7865347zM119.405168 135.542376L116.069525 135.542376C114.159624 135.542376 112.611505 133.994257 112.611505 132.084356L112.611505 13.9883168C112.611505 12.020198 111.015267 10.4239604 109.047149 10.4239604L25.8776436 10.4239604C25.5491287 10.4239604 25.2835842 10.690099 25.2835842 11.0180198L25.2835842 30.0356436C25.2835842 30.3641584 25.5491287 30.629703 25.8776436 30.629703L36.8641782 30.629703C37.6542772 30.629703 38.2245743 31.3871287 38.0059604 32.1469307L26.6196238 71.729703 23.9404158 71.729703C22.9946733 71.729703 22.2277426 72.4966337 22.2277426 73.4423762L22.2277426 75.1217822 20.7235842 75.1217822C19.7392277 75.1217822 18.9414059 74.3239604 18.9414059 73.339604L18.9414059 70.6871287C21.0384356 70.3687129 22.6002178 68.4017822 22.2473465 66.1508911 21.9954653 64.5475248 20.7366535 63.2281188 19.1439802 62.9150495 16.6186337 62.4184158 14.3974455 64.3479208 14.3974455 66.7865347 14.3974455 68.7623762 15.8564554 70.3990099 17.7532871 70.6871287L17.7532871 73.339604C17.7532871 74.3239604 16.9554653 75.1217822 15.9711089 75.1217822L14.2839802 75.1217822C13.9566535 75.1217822 13.6899208 75.3879208 13.6899208 75.7158416 13.6899208 76.0443564 13.9566535 76.309901 14.2839802 76.309901L63.3188317 76.309901 63.3188317 88.9324752C63.3188317 90.5726733 61.9893267 91.9027723 60.3485347 91.9027723L12.661604 91.9027723C11.0208119 91.9027723 9.69130693 90.5726733 9.69130693 88.9324752L9.69130693 75.7158416C9.69130693 75.3879208 9.42516832 75.1217822 9.09724752 75.1217822 8.76873267 75.1217822 8.50318812 75.3879208 8.50318812 75.7158416L8.50318812 92.4968317C8.50318812 92.8247525 8.76873267 93.0908911 9.09724752 93.0908911L75.8564554 93.0908911C76.512297 93.0908911 77.0445743 93.6231683 77.0445743 94.2790099L77.0445743 134.354257C77.0445743 135.010099 76.512297 135.542376 75.8564554 135.542376L24.6039802 135.542376C23.9475446 135.542376 23.4158614 135.010099 23.4158614 134.354257L23.4158614 95.8526733C23.4158614 95.5247525 23.1497228 95.2586139 22.821802 95.2586139 22.4938812 95.2586139 22.2277426 95.5247525 22.2277426 95.8526733L22.2277426 126.974257C22.2277426 131.705941 18.3913069 135.542376 13.6602178 135.542376L12.7649703 135.542376C12.4364554 135.542376 12.1709109 135.808515 12.1709109 136.136436 12.1709109 136.464356 12.4364554 136.730495 12.7649703 136.730495L119.405168 136.730495C119.732495 136.730495 119.999228 136.464356 119.999228 136.136436 119.999228 135.808515 119.732495 135.542376 119.405168 135.542376zM10.1298416 135.542376L8.9779604 135.542376C8.64944554 135.542376 8.38390099 135.808515 8.38390099 136.136436 8.38390099 136.464356 8.64944554 136.730495 8.9779604 136.730495L10.1298416 136.730495C10.4583564 136.730495 10.723901 136.464356 10.723901 136.136436 10.723901 135.808515 10.4583564 135.542376 10.1298416 135.542376"/>
    <path fill="#FFFFFF" d="M97.429901 14.9976238C98.0643564 14.9976238 98.5805941 15.5138614 98.5805941 16.1483168 98.5805941 16.7827723 98.0643564 17.2990099 97.429901 17.2990099 96.7960396 17.2990099 96.2792079 16.7827723 96.2792079 16.1483168 96.2792079 15.5138614 96.7960396 14.9976238 97.429901 14.9976238M97.429901 17.8930693C98.3922772 17.8930693 99.1752475 17.1106931 99.1752475 16.1483168 99.1752475 15.1859406 98.3922772 14.4035644 97.429901 14.4035644 96.4681188 14.4035644 95.6851485 15.1859406 95.6851485 16.1483168 95.6851485 17.1106931 96.4681188 17.8930693 97.429901 17.8930693M19.4271089 57.3313069C19.4271089 57.4952673 19.5601782 57.6283366 19.7241386 57.6283366 19.888099 57.6283366 20.0211683 57.4952673 20.0211683 57.3313069 20.0211683 56.6956634 20.5362178 56.1806139 21.1718614 56.1806139L21.1724554 56.1806139C21.3364158 56.1806139 21.4694851 56.0475446 21.4694851 55.8835842 21.4694851 55.7196238 21.3364158 55.5865545 21.1724554 55.5865545L21.1718614 55.5865545C20.5362178 55.5865545 20.0211683 55.071505 20.0211683 54.4358614L20.0211683 54.4352673C20.0211683 54.2713069 19.888099 54.1382376 19.7241386 54.1382376 19.5601782 54.1382376 19.4271089 54.2713069 19.4271089 54.4352673L19.4271089 54.4358614C19.4271089 55.071505 18.9120594 55.5865545 18.2764158 55.5865545 18.1118614 55.5865545 17.9787921 55.7196238 17.9787921 55.8835842 17.9787921 56.0475446 18.1118614 56.1806139 18.2764158 56.1806139 18.9120594 56.1806139 19.4271089 56.6956634 19.4271089 57.3313069M3.19259406 90.7515446L2.6359604 90.7515446C2.3080396 90.7515446 2.04190099 90.4854059 2.04190099 90.1574851L2.04190099 89.6008515C2.04190099 89.436297 1.90883168 89.3032277 1.74427723 89.3032277 1.58031683 89.3032277 1.44724752 89.436297 1.44724752 89.6008515L1.44724752 90.1574851C1.44724752 90.4854059 1.18170297 90.7515446.853188119 90.7515446L.297148515 90.7515446C.133188119 90.7515446.000118811881 90.8846139.000118811881 91.0485743.000118811881 91.2125347.133188119 91.345604.297148515 91.345604L.853188119 91.345604C1.18170297 91.345604 1.44724752 91.6117426 1.44724752 91.9396634L1.44724752 92.496297C1.44724752 92.6602574 1.58031683 92.7933267 1.74427723 92.7933267 1.90883168 92.7933267 2.04190099 92.6602574 2.04190099 92.496297L2.04190099 91.9396634C2.04190099 91.6117426 2.3080396 91.345604 2.6359604 91.345604L3.19259406 91.345604C3.35655446 91.345604 3.48962376 91.2125347 3.48962376 91.0485743 3.48962376 90.8846139 3.35655446 90.7515446 3.19259406 90.7515446M87.9452673 1.28233663C87.8799208 1.28233663 87.8139802 1.2609505 87.7599208 1.2169901 87.631604 1.11421782 87.6114059.927089109 87.7135842.799366337L88.2672475.110851485C88.3700198-.0168712871 88.5571485-.0370693069 88.6842772.0657029703 88.8125941.168475248 88.8327921.355009901 88.7300198.482732673L88.1769505 1.17124752C88.1181386 1.24431683 88.032 1.28233663 87.9452673 1.28233663M85.1612079 4.15835644C85.0964554 4.15835644 85.0305149 4.1369703 84.9758614 4.0930099 84.8481386 3.99023762 84.8273465 3.80310891 84.9301188 3.67538614L85.4831881 2.98687129C85.5865545 2.85914851 85.7730891 2.8389505 85.9008119 2.94172277 86.0285347 3.04449505 86.0487327 3.2310297 85.9459604 3.35875248L85.3934851 4.04726733C85.3346733 4.12033663 85.2479406 4.15835644 85.1612079 4.15835644M88.612396 4.0710297C88.5310099 4.0710297 88.4508119 4.03835644 88.392 3.9730099L87.7949703 3.31419802C87.6844752 3.19241584 87.6939802 3.00469307 87.8157624 2.89479208 87.9375446 2.78429703 88.1252673 2.79320792 88.2351683 2.91558416L88.832198 3.5749901C88.9426931 3.69617822 88.9331881 3.88390099 88.8114059 3.99439604 88.7543762 4.04548515 88.6830891 4.0710297 88.612396 4.0710297M85.6450099 1.34067327C85.5642178 1.34067327 85.4840198 1.308 85.4252079 1.24265347L84.8275842.583841584C84.7170891.462059406 84.7265941.274336634 84.8483762.164435644 84.9701584.0539405941 85.1578812.0634455446 85.2677822.185227723L85.8654059.844633663C85.975901.965821782 85.966396 1.15354455 85.8446139 1.2640396 85.7875842 1.31512871 85.716297 1.34067327 85.6450099 1.34067327"/>
  </g>
</svg>
