<svg xmlns="http://www.w3.org/2000/svg" width="70" height="86" xmlns:xlink="http://www.w3.org/1999/xlink">
  <defs>
    <path id="a" d="M0 85.5h70V.4495H0z"/>
    <path id="c" d="M18.3746 3.19153922C15.5033634 1.6882544 11.3893901.3715 5.787.3715c-2.03349578 0-3.89728685.2262689-5.5949.63592193V6.8989h18.1825V3.19153922z"/>
  </defs>
  <g fill="none" fill-rule="evenodd">
    <g transform="translate(0 .05)">
      <path fill="#FF7B78" d="M23.54985 67.692h-7.248c-.616 0-1.1155-.4995-1.1155-1.115v-3.903c0-.616.4995-1.115 1.1155-1.115h7.248c.616 0 1.115.499 1.115 1.115v3.903c0 .6155-.499 1.115-1.115 1.115z"/>
      <path fill="#4F5D7F" d="M54.86575 83.4597c-11.1935 5.14-24.434.233-29.5745-10.96-5.14-11.1935-.233-24.434 10.96-29.5745 11.1935-5.14 24.4345-.233 29.5745 10.96 5.1405 11.1935.2335 24.4345-10.96 29.5745"/>
      <path fill="#AABFF2" d="M48.89055 38.9783c-1.728-2.35-4.511-3.8825-7.635-3.8825h-11.7775v20.533h21.25v-11.061c0-2.086-.6835-4.02-1.8375-5.5895"/>
      <path fill="#8BA4E8" d="M31.86155 35.09565h-5.705c-2.453 0-4.4605 2.007-4.4605 4.4605v9.645c0 2.463 1.997 4.46 4.4605 4.46h5.705v-18.5655z"/>
      <mask id="b" fill="#fff">
        <use xlink:href="#a"/>
      </mask>
      <path fill="#2F3849" d="M22.8745 61.0015H51.502V44.979H22.8745" mask="url(#b)"/>
      <path fill="#B7C2CE" d="M33.71135 69.9222h-13.3815c-1.8475 0-3.345-1.4975-3.345-3.3455v-6.6905l16.7265 3.903v6.133z" mask="url(#b)"/>
      <path fill="#7687B2" d="M51.60675 76.363c-7.274 3.3405-15.8785.1515-19.2185-7.1225-3.3405-7.2735-.152-15.878 7.122-19.2185 7.274-3.3405 15.8785-.1515 19.219 7.1225 3.34 7.2735.1515 15.878-7.1225 19.2185" mask="url(#b)"/>
      <path fill="#EF8843" d="M63.00345 78.29545c-3.414 0-11.611-9.0885-16.1525-15.0235.025-5.4155.746-18.8805 3.8595-21.9985.4475-.4485.7885-.5 1.0055-.5.126 0 .262.021.405.063 6.6665 1.964 11.8935 6.4325 14.7185 12.5835 3.556 7.744 2.414 16.898-3.055 24.4865-.199.2765-.425.389-.781.389" mask="url(#b)"/>
      <path stroke="#E4E9F8" stroke-width="2" d="M39.9254 38.083h8.6695c.6825 0 1.296.4145 1.5515 1.047l5.9045 14.641" stroke-linecap="round" stroke-linejoin="round" mask="url(#b)"/>
      <path fill="#FC964B" d="M45.73515 63.6471s13.0735-21.297 15.718-19.084c2.645 2.2125 4.8535 5.025 6.3995 8.3915 4.008 8.7285 2.094 18.3085-3.1635 25.604-3.729 5.1745-18.954-14.9115-18.954-14.9115" mask="url(#b)"/>
      <path fill="#DAE2ED" d="M66.4996 75.5911c-.713.276-1.682.3375-2.972-.1405-5.237-1.941-13.497-12.1595-15.7835-15.0835-1.9005 1.527-3.125 2.7775-3.124 3.2815l.0005.374.226.298c.421.5555 10.379 13.627 16.375 15.849 2.528.937 3.8245-.1985 4.3725-.959 1.5795-2.192 1.59-3.8845.9055-3.6195" mask="url(#b)"/>
      <path fill="#2F3849" d="M24.75325 54.7359h-4.8725v-13.381c0-.924.7485-1.673 1.6725-1.673h1.5275c.9235 0 1.6725.749 1.6725 1.673v13.381z" mask="url(#b)"/>
      <path fill="#C5CEDD" d="M29.06925 66.0276l-8.073-4.591 2.6235-4.613 8.073 4.591" mask="url(#b)"/>
      <path fill="#DAE2ED" d="M21.538 63.3847L.886 53.7587c-.399-.186-.6855-.554-.75-.9895-.14-.946-.094-2.795 1.413-5.4445 1.5065-2.65 3.072-3.635 3.9565-3.9975.4075-.1675.8705-.1095 1.234.1385L25.571 56.2932c.571.389.748 1.1515.4065 1.7525l-2.7255 4.7925c-.342.6005-1.0875.8385-1.714.5465" mask="url(#b)"/>
      <path fill="#D0D9EB" d="M36.4864 71.7719l-9.2265-5.247c-.3185-.181-.4295-.586-.2485-.9045l3.2795-5.7665c.181-.3185.586-.4295.9045-.2485l9.226 5.247-3.935 6.9195zM12.32755 48.8755c.637.362.8595 1.172.4975 1.809-.3625.637-1.1725.86-1.809.4975m7.3352 3.2043c-.362.637-1.172.8595-1.809.4975-.637-.3625-.86-1.1725-.4975-1.809m12.9404 6.8911l-8.073-4.591 2.6235-4.613 8.073 4.591" mask="url(#b)"/>
      <path fill="#ECEFF8" d="M21.4539 57.32295l-20.652-9.626c-.399-.186-.6855-.554-.75-.9895-.14-.946-.094-2.795 1.413-5.4445 1.5065-2.65 3.072-3.635 3.9565-3.9975.4075-.1675.8705-.1095 1.234.1385l18.8315 12.8275c.571.389.748 1.1515.4065 1.7525l-2.7255 4.7925c-.342.6005-1.0875.8385-1.714.5465" mask="url(#b)"/>
      <path fill="#DAE2ED" d="M36.4023 65.7102l-9.2265-5.247c-.3185-.181-.4295-.586-.2485-.9045l3.2795-5.7665c.181-.3185.586-.4295.9045-.2485l9.226 5.247-3.935 6.9195z" mask="url(#b)"/>
      <path fill="#B7C2CE" d="M21.79705 50.7822c-.2285.4015-.739.542-1.14.3135-.4015-.2285-.542-.739-.3135-1.14.228-.4015.7385-.542 1.14-.3135.4015.228.542.7385.3135 1.14m-3.95635-2.70015c-.2285.4015-.739.542-1.14.3135-.4015-.2285-.542-.739-.3135-1.14.228-.4015.7385-.542 1.14-.3135.4015.228.542.7385.3135 1.14" mask="url(#b)"/>
      <path fill="#ECEFF8" d="M50.6763 74.3368c-6.155 2.8265-13.4355.128-16.262-6.0265-2.8265-6.155-.128-13.4355 6.0265-16.262 6.155-2.8265 13.4355-.1285 16.262 6.0265 2.8265 6.155.1285 13.4355-6.0265 16.262" mask="url(#b)"/>
      <path fill="#DAE2ED" d="M49.8621 72.56385c-5.1755 2.377-11.298.108-13.675-5.068-2.3765-5.1755-.1075-11.298 5.068-13.6745 5.1755-2.377 11.298-.108 13.675 5.0675 2.3765 5.176.1075 11.298-5.068 13.675" mask="url(#b)"/>
      <path fill="#8BA4E8" d="M41.65435 36.9965h-7.113c-1.172 0-2.122-.95-2.122-2.122h-4.474v10.037h4.44c.411-2.3345 2.4445-4.11 4.8965-4.11h4.289c.9205 0 1.769-.6165 1.948-1.519.2405-1.2125-.6925-2.286-1.8645-2.286" mask="url(#b)"/>
      <path fill="#8BA4E8" d="M24.6482 35.14235h18.322c3.268 0 5.9415-2.6735 5.9415-5.9415v-10.994c0-3.268-2.6735-5.9415-5.9415-5.9415h-18.322c-3.268 0-5.9415 2.6735-5.9415 5.9415v10.994c0 3.268 2.6735 5.9415 5.9415 5.9415" mask="url(#b)"/>
      <path fill="#AABFF2" d="M28.5073 35.14235h18.322c3.268 0 5.9415-2.6735 5.9415-5.9415v-10.994c0-3.268-2.6735-5.9415-5.9415-5.9415h-18.322c-3.268 0-5.9415 2.6735-5.9415 5.9415v10.994c0 3.268 2.6735 5.9415 5.9415 5.9415" mask="url(#b)"/>
      <path fill="#AABFF2" d="M20.48985 27.8468h4.3725V17.1523h-4.3725c-2.1875 0-3.961 1.7735-3.961 3.961v2.7725c0 2.1875 1.7735 3.961 3.961 3.961" mask="url(#b)"/>
      <path fill="#8BA4E8" d="M24.8624 25.47025v-5.9415c0-.2185-.1775-.396-.396-.396h-3.9765c-1.094 0-1.9805.8865-1.9805 1.9805v2.7725c0 1.094.8865 1.9805 1.9805 1.9805h3.9765c.2185 0 .396-.177.396-.396" mask="url(#b)"/>
      <path fill="#323132" d="M31.75255 24.37595c1.0755 0 1.9555-.88 1.9555-1.9555s-.88-1.9555-1.9555-1.9555-1.9555.88-1.9555 1.9555.88 1.9555 1.9555 1.9555" mask="url(#b)"/>
      <path fill="#B3C9F4" d="M52.93385 18.20665h-13.467c-1.3075 0-2.377 1.0695-2.377 2.3765v2.7725c0 3.268 2.674 5.9415 5.9415 5.9415h6.3375c3.268 0 5.9415-2.6735 5.9415-5.9415v-2.7725c0-1.307-1.0695-2.3765-2.3765-2.3765" mask="url(#b)"/>
      <path fill="#CBDAF8" d="M45.8041 29.29725h3.565c3.2675 0 5.9415-2.6735 5.9415-5.9415v-2.7725c0-1.307-1.0695-2.3765-2.377-2.3765H42.2391c-1.307 0-2.3765 1.0695-2.3765 2.3765v2.7725c0 3.268 2.6735 5.9415 5.9415 5.9415" mask="url(#b)"/>
      <path fill="#AABFF2" d="M47.4028 24.8147h-2.5745c-.545 0-.9905.4455-.9905.99v.0005c0 .5445.4455.99.9905.99h2.5745c.5445 0 .99-.4455.99-.99v-.0005c0-.5445-.4455-.99-.99-.99m4.6541 0h-.594.198-.594c-.545 0-.9905.4455-.9905.99v.0005c0 .5445.4455.99.9905.99h.594-.198.594c.5445 0 .99-.4455.99-.99v-.0005c0-.5445-.4455-.99-.99-.99" mask="url(#b)"/>
      <path fill="#8BA4E8" d="M46.31595 31.651h1.5845c.364 0 .659-.295.659-.659 0-.364-.295-.659-.659-.659h-1.5845c-.364 0-.659.295-.659.659 0 .364.295.659.659.659" mask="url(#b)"/>
      <path fill="#EF8843" d="M19.0149 33.42995c-.3025 0-.548-.2455-.548-.548 0-.3025.2455-.5475.548-.5475.3025 0 .548.245.548.5475s-.2455.548-.548.548zm0 2.922c-.3025 0-.548-.2455-.548-.548 0-.3025.2455-.548.548-.548.3025 0 .548.2455.548.548 0 .3025-.2455.548-.548.548zm0-13.342l-2.248 1.579v12.8255l2.248 1.579 2.248-1.579v-12.8255l-2.248-1.579z" mask="url(#b)"/>
      <path fill="#D0D9EB" d="M34.6855 5.80425s-7.1485 15.851-8.547 19.4255c-2.009 5.133-10.5675 4.5065-10.5675-2.7975l19.1145-16.628z" mask="url(#b)"/>
      <path fill="#ECEFF8" d="M51.31375 12.0204s-4.973-7.1485-18.027-7.1485c-13.054 0-19.1145 9.324-19.1145 16.628s8.559 7.9305 10.5675 2.7975c1.3985-3.5745 3.885-9.169 3.885-9.169l22.689-3.108z" mask="url(#b)"/>
    </g>
    <g transform="translate(27.5 4.55)">
      <mask id="d" fill="#fff">
        <use xlink:href="#c"/>
      </mask>
      <path fill="#FC964B" d="M18.3746 6.7434s-2.642-5.439-11.966-6.6825L.1921.3719s9.946-.4665 14.7635 6.527l3.419-.1555z" mask="url(#d)"/>
    </g>
    <path fill="#647096" d="M28.62475 15.179h31.081s-4.8175-4.196-15.385-4.0405c-10.5675.1555-15.696 4.0405-15.696 4.0405"/>
    <path fill="#7687B2" d="M22.6914 21.1518c-.299 2.4275-2.199 4.1915-4.243 3.94-2.0445-.252-3.4595-2.424-3.1605-4.852.299-2.4275 2.199-4.1915 4.243-3.9395 2.0445.2515 3.4595 2.424 3.1605 4.8515"/>
    <path fill="#FFF" d="M21.1536 21.0198c-.2125 1.725-1.5625 2.9785-3.015 2.7995-1.4525-.179-2.458-1.7225-2.2455-3.4475.2125-1.725 1.5625-2.978 3.015-2.7995 1.4525.179 2.458 1.7225 2.2455 3.4475"/>
    <path fill="#F8AE69" d="M20.3157 20.92785c-.152 1.2355-1.119 2.133-2.159 2.005-1.0405-.1285-1.7605-1.2335-1.608-2.469.152-1.2355 1.1185-2.133 2.159-2.005 1.04.1285 1.76 1.2335 1.608 2.469"/>
    <path fill="#FFF" d="M27.12515 8.5409c.2135.421.0145.951-.4445 1.184-.4595.233-1.005.081-1.2185-.34-.2135-.421-.0145-.951.4445-1.1845.4595-.233 1.005-.0805 1.2185.3405"/>
    <path fill="#C5CEDD" d="M50.01185 57.14l3.259 5.645c.1995.345.1995.77 0 1.115l-3.259 5.645c-.199.345-.5675.5575-.9655.5575h-6.5185c-.398 0-.7665-.2125-.9655-.5575l-3.259-5.645c-.1995-.345-.1995-.77 0-1.115l3.259-5.645c.199-.345.5675-.5575.9655-.5575h6.5185c.398 0 .7665.2125.9655.5575"/>
    <path fill="#ECEFF8" d="M47.05 66.49075c-1.7935.8235-3.9155.0375-4.739-1.7565-.824-1.7935-.0375-3.9155 1.756-4.739 1.794-.8235 3.9155-.0375 4.7395 1.7565.8235 1.7935.037 3.9155-1.7565 4.739"/>
  </g>
</svg>