<?xml version="1.0" encoding="utf-8"?>
<!-- Generator: Adobe Illustrator 17.1.0, SVG Export Plug-In . SVG Version: 6.00 Build 0)  -->
<!DOCTYPE svg PUBLIC "-//W3C//DTD SVG 1.1//EN" "http://www.w3.org/Graphics/SVG/1.1/DTD/svg11.dtd">
<svg version="1.1" id="Isolation_Mode" xmlns="http://www.w3.org/2000/svg" xmlns:xlink="http://www.w3.org/1999/xlink" x="0px"
	 y="0px" viewBox="0 0 100 100" enable-background="new 0 0 100 100" xml:space="preserve">
<circle fill-rule="evenodd" clip-rule="evenodd" fill="#FFFFFF" cx="50" cy="50" r="50"/>
<g>
	<g id="communication_-_mic_silent_mute">
		<g>
			<path fill-rule="evenodd" clip-rule="evenodd" fill="#99AAB5" d="M60,52c0,5.5-4.5,10-10,10c-2,0-3.8-0.6-5.4-1.6l-2.9,2.9
				C44,65,46.9,66,50,66c7.7,0,14-6.3,14-14V41l-4,4V52z M40,51V32c0-5.5,4.5-10,10-10c5.2,0,9.5,4,10,9l3.4-3.4
				C61.5,22.1,56.2,18,50,18c-7.7,0-14,6.3-14,14v20c0,0.9,0.1,1.8,0.3,2.7L40,51z M68,50v4c0,8.8-7.2,16-16,16h-4
				c-3.7,0-7-1.2-9.7-3.3l-2.9,2.9C38.9,72.3,43.2,74,48,74v4h-2c-1.1,0-2,0.9-2,2c0,1.1,0.9,2,2,2h8c1.1,0,2-0.9,2-2
				c0-1.1-0.9-2-2-2h-2v-4c11.1,0,20-9,20-20v-4H68z M32,50h-4v4c0,2.7,0.5,5.2,1.5,7.5l3.1-3.1C32.2,57,32,55.5,32,54V50z"/>
		</g>
	</g>
	<polygon fill-rule="evenodd" clip-rule="evenodd" fill="#F04747" points="71.8,24.8 74.6,27.6 28.4,73.8 25.6,71 	"/>
</g>
</svg>
