<svg xmlns="http://www.w3.org/2000/svg" width="24" height="24" viewBox="0 0 24 24">
  <g fill="none" fill-rule="evenodd">
    <path d="M0,0 L24,0 L24,24 L0,24 L0,0 Z M0,0 L24,0 L24,24 L0,24 L0,0 Z"/>
    <rect width="24" height="24"/>
    <path fill="#FFFFFF" fill-opacity=".6" fill-rule="nonzero" d="M21,6.5 L17,10.5 L17,7 C17,6.45 16.55,6 16,6 L9.82,6 L21,17.18 L21,6.5 Z M4.73,6 L4,6 C3.45,6 3,6.45 3,7 L3,17 C3,17.55 3.45,18 4,18 L16,18 C16.21,18 16.39,17.92 16.54,17.82 L4.73,6 Z"/>
    <polygon fill="#F04747" fill-rule="nonzero" points="3.27 2 2 3.27 19.73 21 21 19.73"/>
  </g>
</svg>
