<svg xmlns="http://www.w3.org/2000/svg" width="79.5" height="113.4">
  <style>
    .st0{fill:#DBDDE1;} .st1{fill:#83878E;} .st2{fill:#6A737F;} .st3{fill:#F3F3F3;} .st4{fill:#F9F9F9;} .st5{fill:#36393E;} .st6{fill:#282B30;} .st7{fill:#4CD964;} .st8{fill:#E9E7E7;} .st9{fill:none;stroke:#F3F3F3;stroke-miterlimit:10;}
  </style>
  <path d="M8 106.4h4v-16H8c-4.4 0-8 3.6-8 8s3.6 8 8 8z" class="st0"/>
  <path d="M6.5 113.4h4c2.2 0 4-1.8 4-4v-22c0-2.2-1.8-4-4-4h-4c-2.2 0-4 1.8-4 4v22c0 2.2 1.8 4 4 4z" class="st1"/>
  <path d="M9.7 83.4h.8c2.2 0 4 1.8 4 4v22c0 .6-.1 1.1-.4 1.6-2.7-2.9-4.4-6.7-4.4-11V83.4z" class="st2"/>
  <path d="M71.5 106.4h-4v-16h4c4.4 0 8 3.6 8 8s-3.6 8-8 8zM46.7 30h-14c-1.1 0-2-.9-2-2V2c0-1.1.9-2 2-2h14c1.1 0 2 .9 2 2v26c0 1.1-.9 2-2 2z" class="st0"/>
  <path d="M44 18v14c0 1.1-.1 2 1 2h21c3.9 0 7-3.1 7-7v-4c0-3.9-3.1-7-7-7H45c-1.1 0-1 .9-1 2zm-7.3 0v14c0 1.1-.9 2-2 2h-21c-3.9 0-7-3.1-7-7v-4c0-3.9 3.1-7 7-7h21c1.1 0 2 .9 2 2z" class="st0"/>
  <path d="M52.7 51h-26c-8.8 0-16-7.2-16-16V19c0-8.8 7.2-16 16-16h26c8.8 0 16 7.2 16 16v16c0 8.8-7.1 16-16 16z" class="st3"/>
  <path d="M52.7 46h-26c-8.8 0-16-7.2-16-16V19c0-8.8 7.2-16 16-16h26c8.8 0 16 7.2 16 16v11c0 8.8-7.1 16-16 16z" class="st4"/>
  <path d="M51.7 37h-24c-5.5 0-10-4.5-10-10v-7c0-5.5 4.5-10 10-10h24c5.5 0 10 4.5 10 10v7c0 5.5-4.4 10-10 10z" class="st5"/>
  <path d="M51.7 10h-24c-5.5 0-10 4.5-10 10v4c0-5.5 4.5-10 10-10h24c5.5 0 10 4.5 10 10v-4c0-5.5-4.4-10-10-10z" class="st6"/>
  <circle cx="53.4" cy="24" r="3" class="st7"/>
  <circle cx="25.6" cy="24" r="3" class="st7"/>
  <path d="M48.7 51h-18v-9c0-.6.4-1 1-1h16c.6 0 1 .4 1 1v9z" class="st8"/>
  <path d="M30.7 46h18v5h-18z" class="st0"/>
  <path d="M73 113.4h-4c-2.2 0-4-1.8-4-4v-22c0-2.2 1.8-4 4-4h4c2.2 0 4 1.8 4 4v22c0 2.2-1.8 4-4 4z" class="st1"/>
  <path d="M69.7 83.4H69c-2.2 0-4 1.8-4 4v22c0 .6.1 1.1.4 1.6 2.7-2.9 4.4-6.7 4.4-11V83.4z" class="st2"/>
  <path d="M53.7 109h-28c-8.8 0-16-7.2-16-16V72c0-8.8 7.2-16 16-16h28c8.8 0 16 7.2 16 16v21c0 8.8-7.1 16-16 16z" class="st4"/>
  <path d="M55.7 90h-32c-2.2 0-4-1.8-4-4V69c0-2.2 1.8-4 4-4h32c2.2 0 4 1.8 4 4v17c0 2.2-1.8 4-4 4z" class="st9"/>
  <path d="M53.7 102h-28c-8.8 0-16-7.2-16-16v8c0 8.8 7.2 16 16 16h28c8.8 0 16-7.2 16-16v-8c0 8.8-7.1 16-16 16z" class="st3"/>
  <circle cx="55.2" cy="69.5" r="1.5" class="st8"/>
  <circle cx="50.2" cy="69.5" r="1.5" class="st8"/>
  <circle cx="45.2" cy="69.5" r="1.5" class="st8"/>
</svg>
