<svg id="balloon2" xmlns="http://www.w3.org/2000/svg" viewBox="0 0 70 192"><style>.st0{fill:none;stroke:#7C93E4;stroke-width:2;stroke-linecap:round;stroke-linejoin:round;stroke-miterlimit:10;} .st1{fill:#738BD7;}</style><path class="st0" d="M46.8 115.2s4 39.2-4.2 72"/><path class="st1" d="M51.3 121.2l-9.6 2.4 1.2-7.5 3.9-.9z"/><path class="st1" d="M51.3 121.2l-9.6 2.4 1.2-7.5 3.9-.9z"/><path class="st0" d="M51.3 121.2l-9.6 2.4 1.2-7.5 3.9-.9z"/><path class="st0" d="M51.3 121.2l-9.6 2.4 1.2-7.5 3.9-.9z"/><path class="st1" d="M63.1 69c4.7 19-8.4 44.1-18.3 46.6C34 118.2 11.5 102 6.8 83c-3.9-15.5 5.6-31.3 21.1-35.2S59.2 53.4 63.1 69z"/><path class="st0" d="M63.1 69c4.7 19-8.4 44.1-18.3 46.6C34 118.2 11.5 102 6.8 83c-3.9-15.5 5.6-31.3 21.1-35.2S59.2 53.4 63.1 69z"/></svg>