<svg width="288" height="124" fill="none" xmlns="http://www.w3.org/2000/svg"><g clip-path="url(#clip0)"><path d="M20.213 115.438c-.59 1.181-.59 2.51 0 3.838l.148.296v.147c.59 1.181 1.623 2.214 2.95 2.657.443.148 1.033.296 1.476.148 0-5.905-2.508-7.824-3.541-8.414-.443.442-.738.885-1.033 1.328z" fill="#72767D"/><path d="M90.442 100.529l-1.18-2.215c-.442 0-.738-.147-1.18-.295v.148l.295 4.133c.885-.148 1.77-.148 2.656-.148-.148-.442-.296-1.033-.59-1.623z" fill="#4F545C"/><path d="M88.525 105.548l.147 1.328a5.209 5.209 0 0 0 2.213-2.509c.295-.738.295-1.476.148-2.215-.885 0-1.77 0-2.656.148 0 .443-.295.738-.738.886l.148 1.624c.443 0 .738.442.738.738z" fill="#72767D"/><path d="M86.164 118.538c-.59.738-1.328 1.329-2.066 1.772H90a2.96 2.96 0 0 0 2.95-2.953 2.96 2.96 0 0 0-2.95-2.952h-1.475c-.443 1.476-1.328 2.952-2.361 4.133zM50.754 103.924h1.77c2.361 0 4.574.886 6.345 2.362l.443-2.657h-.296a4.283 4.283 0 0 1-4.278-4.281v-2.215a4.283 4.283 0 0 1 4.278-4.28c.443 0 .738.295.738.738 0 .442-.295.738-.738.738a2.645 2.645 0 0 0-2.655 2.657v.443c.59-.739 1.623-1.329 2.655-1.329 1.476 0 2.804.886 3.246 2.214h.295v-1.476a3.36 3.36 0 0 0-1.475-2.805c.295-.738.59-1.328.885-1.919l-.295-.295a19.361 19.361 0 0 1-4.131-3.543c-2.95 1.92-4.869 5.02-5.459 8.71l-1.328 6.938zM54.59 120.31h10.623c.885 0 1.623-.443 2.213-1.034.59-.738.885-1.476.738-2.362-.295-1.476-1.475-2.509-3.099-2.509H61.23c-.443 0-.738-.295-.738-.738 0-4.429-3.689-8.119-8.115-8.119h-1.18c-2.066 0-3.836 1.771-3.836 3.838v3.985c.147 3.839 3.393 6.939 7.23 6.939zM100.033 73.81c.59 2.952.59 5.904 0 8.71l1.18.737c.147-.295.147-.443.295-.738l.148-.443c.737-2.066.737-4.28-.148-6.347a14.66 14.66 0 0 0-1.623-2.51c0 .295 0 .443.148.59zM80.41 56.833v-.59c0-.148 0-.148.147-.148-2.36-1.033-4.868-1.476-7.377-1.476-.59 0-1.033 0-1.623.148l.148.147 2.213 2.215c2.066-.59 4.279-.739 6.492-.296zM61.967 90.49c-5.164-5.904-6.492-14.17-3.54-21.404-.148.147-.296.147-.444.147-.147 0-.442 0-.59-.147-1.032-.886-1.623-2.067-2.213-3.248-1.77 3.838-2.36 8.267-1.475 12.548 1.18 5.019 3.983 9.3 8.262 12.105z" fill="#4F545C"/><path d="M70.967 73.957c.148.886.59 1.476 1.328 1.92l.443.294c.737.443 1.475.59 2.36.443.886-.147 1.476-.59 1.918-1.328l.295-.443c.443-.738.59-1.476.443-2.362-.148-.886-.59-1.476-1.328-1.92l-.442-.294c-.59-.295-1.033-.443-1.623-.443-1.033 0-2.066.443-2.656 1.476l-.295.443c-.443.59-.59 1.329-.443 2.214zm3.689-.443c.295-.442.885-.59 1.328-.295.442.295.59.886.295 1.329-.295.442-.886.59-1.328.295-.443-.443-.59-.886-.295-1.329zm-2.213-1.476c.295-.443.885-.59 1.328-.295.442.295.59.886.295 1.329-.296.442-.886.59-1.328.295-.443-.443-.59-1.034-.295-1.329zM96.05 60.228l2.95-4.87-3.394 1.328c-.295.147-.737.147-1.032-.148-.295-.148-.443-.443-.59-.886l-.59-4.871-4.427 1.771c-.295.148-.738.148-1.033-.147-.295-.148-.442-.443-.59-.886l-.295-3.395-5.016 8.414c.147.443.885 2.067 5.311 4.724s6.197 2.51 6.64 2.51l.737-1.182c.148-.295.738-.442 1.033-.295l.59-1.033c-.442-.295-.59-.738-.295-1.034zM58.869 102.005a2.645 2.645 0 0 0 2.656-2.657c0-.296.295-.59.59-.739-.443-1.328-1.77-2.214-3.246-2.214-1.033 0-2.066.59-2.656 1.329v1.624c-.147 1.476 1.18 2.657 2.656 2.657z" fill="#72767D"/><path d="M210.394 13.876h-.296l-3.098 3.1c-.147.148-.147.296 0 .296l3.098 3.1c.148.147.296.147.296 0l3.098-3.1v-.296l-3.098-3.1zM228.541 13.876h-.295l-3.099 3.1v.296l3.099 3.1c.147.147.147.147.295 0l3.098-3.1v-.296l-3.098-3.1zM191.803 20.372c.148.147.148.147.295 0l3.099-3.1v-.296l-3.099-3.1h-.295l-3.098 3.1v.296l3.098 3.1zM236.213 75.729h3.098c7.23 0 12.984-5.905 12.984-12.99v-1.034h-6.934v1.033c.147 5.905-3.689 11.072-9.148 12.99zM244.77 35.281h6.787c-1.918-4.871-6.639-8.414-12.246-8.414h-3.246c4.132 1.328 7.377 4.428 8.705 8.414z" fill="#4F545C"/><path d="M207.295 75.729l.59-1.477c.295-.59.59-1.033 1.181-1.328-.148-.295-.296-.443-.296-.738a7.023 7.023 0 0 1 0-5.462c.443-1.181 1.328-2.362 2.509-3.1.295-.295.885-.148 1.032.147.591-.295 1.328-.59 1.918-.738 0-.443.296-.738.738-.885.885 0 1.918.147 2.803.442 0-.295 0-.59.148-.885.295-.59.738-1.181 1.475-1.329.443-.147 1.033-.295 1.476-.147.295-.59.738-1.181 1.18-1.477.59-.295 1.328-.443 1.918-.147l.295.147c.59.296 1.033.738 1.181 1.477.147.59.147 1.328-.148 1.919 1.033.738 1.475 2.066.885 3.1-.147.295-.295.59-.59.885 3.394 1.624 5.017 5.61 3.541 9.153-.147.295-.147.443-.295.59h7.377c5.459-1.919 9.295-6.938 9.295-12.99v-1.034h-3.541c-.442 0-.738-.295-.738-.738s.296-.738.738-.738h11.213c3.394 0 6.197-2.805 6.197-6.2V43.105c0-3.395-2.803-6.2-6.197-6.2h-11.213c-.442 0-.738-.296-.738-.738 0-.443.296-.738.738-.738h2.803c-1.327-3.986-4.573-7.086-8.557-8.415h-46.328c-7.082 0-12.836 5.61-12.983 12.695h12.983c.443 0 .738.296.738.739H198c0-.443.295-.739.738-.739H207c3.393 0 6.344 2.805 6.344 6.348v5.905c0 7.971-6.492 14.614-14.606 14.614h-14.754c-2.509 0-4.869-.59-6.935-1.771.885 6.347 6.344 11.071 12.836 11.071h17.41v-.147z" fill="#72767D"/><path d="M206.115 45.762v5.905c0 6.052-3.836 11.219-9.295 12.99h1.918c7.229 0 12.983-5.905 12.983-12.99v-5.905c0-2.657-2.065-4.724-4.721-4.724h-3.689c1.623 1.033 2.804 2.805 2.804 4.724z" fill="#72767D"/><path d="M250.082 56.981c2.065 0 3.836-1.771 3.836-3.838v-9.448c0-2.066-1.771-3.838-3.836-3.838h-5.017c-.885 0-1.475.738-1.475 1.476v14.172c0 .886.738 1.476 1.475 1.476h5.017z" fill="#4F545C"/><path d="M189.885 41.038h-14.164c-2.655 0-4.721 2.067-4.721 4.724v5.905c0 7.233 5.902 12.99 12.984 12.99h12.688c5.459-1.919 9.295-6.938 9.295-12.99v-5.905c0-2.067-1.033-3.838-2.803-4.724h-4.574c-.442 0-.738-.295-.738-.738h-7.377c.148.443-.147.738-.59.738zm-13.574 15.943c0-1.181 1.033-2.214 2.214-2.214h2.655c1.181 0 2.213 1.033 2.213 2.214s-1.032 2.214-2.213 2.214h-2.655c-1.328 0-2.214-.885-2.214-2.214zm19.771 0c0 1.181-1.033 2.214-2.213 2.214h-4.574c-1.18 0-2.213-1.033-2.213-2.214s1.033-2.214 2.213-2.214h4.574c1.18 0 2.213 1.033 2.213 2.214z" fill="#B9BBBE"/><path d="M189.295 54.767c-1.18 0-2.213 1.033-2.213 2.214s1.033 2.214 2.213 2.214h4.574c1.18 0 2.213-1.033 2.213-2.214 0-1.18-1.033-2.214-2.213-2.214h-4.574zM178.524 59.195h2.656c1.18 0 2.213-1.033 2.213-2.214 0-1.18-1.033-2.214-2.213-2.214h-2.656c-1.18 0-2.213 1.033-2.213 2.214 0 1.329.886 2.214 2.213 2.214zM178.229 107.762v-7.233a8.502 8.502 0 0 0-3.983 7.233v3.69a2.646 2.646 0 0 1-2.656 2.658h-8.262c-1.918 0-3.394 1.476-3.394 3.395s1.476 3.395 3.394 3.395h23.016c-4.721-2.51-8.115-7.529-8.115-13.138zM181.623 87.39h-7.672c-1.918 0-3.394 1.477-3.394 3.396 0 1.919 1.476 3.395 3.394 3.395h5.016a18.166 18.166 0 0 1 2.656-6.79z" fill="#4F545C"/><path d="M195.049 117.21c.148-.296.295-.738.59-1.034h-.147a2.896 2.896 0 0 1-1.328-1.328c-.295-.591-.295-1.181 0-1.919l.147-.443a2.894 2.894 0 0 1 1.328-1.329c.59-.295 1.181-.295 1.918 0l1.623.591 6.345-15.796c-1.476 0-2.804-.59-3.689-1.77-.885-1.034-1.328-2.51-1.18-3.987.295-2.362 2.508-4.133 5.016-4.133h3.836l2.508-6.052-3.098-1.329a1.6 1.6 0 0 1-1.18-1.18h-.148c0-.148-.147-.296-.147-.444h-5.164a21.951 21.951 0 0 0-17.853 9.153 22.201 22.201 0 0 0-4.279 13.138v8.414c0 7.233 5.902 12.99 12.984 12.99h2.213c-.738-1.18-.738-2.361-.295-3.542zM218.803 85.176c0-.738.148-1.476.295-2.067l-1.328-.59-1.475 3.69H217.77c.591 0 1.033-.442 1.033-1.033zM209.951 99.938c.442.148.59.591.442 1.033l-4.721 11.515h10.033a1.01 1.01 0 0 0 1.033-1.034v-3.69c0-5.462 4.426-9.89 9.885-9.89h1.77c.443 0 .886-.444.886-.886 0-.443-.443-.886-.886-.886H211.279l-1.328 3.838zM259.525 96.395l-2.804 9.743c-.147.295.148.591.148.591.147.147.295.295.59.147l9.738-2.805c2.508-.738 4.278-2.952 4.426-5.462.147-1.77-.443-3.542-1.771-4.87-1.18-1.182-2.655-1.772-4.278-1.772h-.443c-2.803.295-4.869 2.066-5.606 4.428z" fill="#72767D"/><path d="M238.869 120.752c.59 0 1.033-.147 1.623-.295h.147c5.754-1.476 9.885-6.643 9.885-12.695V90.195c0-7.233-5.901-12.99-12.983-12.99h-9.59c-.886.886-1.918 1.624-3.099 1.919a3.59 3.59 0 0 1 0 1.771l-.59 1.477c-.442.885-1.328 1.476-2.213 1.476-.295 0-.59 0-.885-.148l-.295-.148c-.148.443-.148 1.034-.148 1.477a2.645 2.645 0 0 1-2.656 2.657H205.672c-1.771 0-3.246 1.18-3.393 2.804-.148 1.034.147 1.92.737 2.658s1.623 1.18 2.508 1.18h23.164a2.331 2.331 0 0 1 2.361 2.362 2.331 2.331 0 0 1-2.361 2.362h-1.77c-4.574 0-8.41 3.839-8.41 8.415v3.69a2.645 2.645 0 0 1-2.656 2.657h-10.77l-.148.296 1.623.59c1.181.443 1.771 1.919 1.328 3.1l-.147.443c-.443.886-1.328 1.476-2.214 1.476-.295 0-.59 0-.885-.147h-.147c0 .295-.148.738-.295 1.033h34.672v.147zM223.524 60.08l-.295-.147c-.147-.147-.442 0-.59 0a1.154 1.154 0 0 0-.59.59l1.623.591a.939.939 0 0 0 0-.886c.148.148 0-.147-.148-.147z" fill="#4F545C"/><path d="M212.016 64.953c-.885.59-1.475 1.476-1.918 2.509a5.398 5.398 0 0 0 0 4.281c.148.443.443.886.738 1.18h.148l3.098 1.182 3.836-9.595-.59-.296c-.738-.295-1.623-.442-2.508-.442-.443 0-.738-.296-.738-.739-.738.148-1.328.296-1.918.739.295.442.147.885-.148 1.18zM227.803 74.548c1.181-2.805-.295-6.2-3.098-7.234l-.59-.295-1.623 4.133v.148l-2.066 5.314 3.099 1.181s.147 0 .147.148c1.623-.295 3.246-1.624 4.131-3.395z" fill="#36393F"/><path d="M207 96.1l-6.639 16.386 3.245 1.181 5.459-13.434c.148-.443.591-.59 1.033-.443l1.623-3.838H207v.148zM214.672 86.21l1.623-4.134-3.098-1.328-2.214 5.462h3.689z" fill="#4F545C"/><path d="M202.721 120.31c.148-.296.148-.739.295-1.181l-5.754-2.362c-.295.295-.442.59-.59 1.033-.295.886-.295 1.771 0 2.51.295.885 1.033 1.476 1.77 1.771 1.623.738 3.541-.148 4.279-1.771z" fill="#36393F"/><path d="M219.369 65.287l-3.81 9.445 3.147 1.27 3.81-9.444-3.147-1.271z" fill="#4F545C"/><path d="M207.443 77.795c-.148-.147-.148-.147 0 0zM141.787 107.024c2.066 0 3.836-1.772 3.836-3.838v-7.677h-10.77v7.677c0 2.066 1.77 3.838 3.836 3.838h3.098zM122.164 107.024c2.065 0 3.836-1.772 3.836-3.838v-3.838h-8.41v3.838c0 2.066 1.771 3.838 3.836 3.838h.738z" fill="#72767D"/><path d="M117 115.438h-3.098v5.314H117v-5.314zM149.164 115.438h-3.099v5.314h3.099v-5.314z" fill="#4F545C"/><path d="M43.082 120.605v-1.034c0-.442-.295-.738-.738-.738h-.885c-.443 0-.738-.295-.738-.59-.147-.886-1.033-1.624-1.918-1.624H37.18c-1.032 0-1.918.886-1.918 1.919v2.214c0 .148 0 .148.148.148h3.393l4.279-.295c0 .147 0 0 0 0zM13.279 120.605v-.148c0-.886-.738-1.624-1.623-1.624-.886 0-1.623.738-1.623 1.624v.148c0 .147 0 .147.147.147l3.099-.147c0 .147 0 .147 0 0z" fill="#72767D"/><path d="M5.164 120.752H.738c-.443 0-.738.296-.738.738 0 .443.295.739.738.739h4.426c.443 0 .738-.296.738-.739 0-.442-.295-.738-.738-.738zM287.115 120.752h-36.738c-1.918 0-2.951-2.214-1.77-3.838 2.065-2.509 3.393-5.757 3.393-9.3V90.195c0-4.871-2.508-9.3-6.197-11.957-1.032-.738-.885-2.067.148-2.657 4.721-2.362 7.967-7.381 7.967-12.99 0-.591.443-1.034 1.033-1.181 3.393-.886 5.902-3.839 5.902-7.381V42.957c0-3.986-2.951-7.233-6.787-7.676-.443 0-.886-.295-1.033-.738-2.066-5.462-7.377-9.3-13.574-9.3H192.689v-3.395c.147-.148.295-.148.442-.296l3.099-3.1c.295-.295.59-.738.59-1.18 0-.444-.148-.886-.59-1.182l-2.951-3.247c-.148-.148-.295-.295-.443-.295V2.952s0-.147.148-.147h.147l6.787 8.857c.738.886 2.066.886 2.656 0l7.672-10.186c0-.147.148-.147.295 0l7.672 10.038c.295.443.738.738 1.328.738.59 0 1.033-.295 1.328-.738l6.787-8.857s0-.148.147 0c.148 0 .148.148.148.148V12.4c-.148.148-.295.148-.443.295l-3.098 3.1c-.295.295-.59.738-.59 1.181 0 .443.147.886.59 1.181l3.098 3.1c.295.295.738.59 1.181.59.442 0 .885-.147 1.18-.59l3.098-3.1c.295-.295.59-.738.59-1.18 0-.444-.147-.887-.59-1.182l-3.098-3.1c-.148-.147-.295-.295-.443-.295V2.952c0-.738-.442-1.328-1.032-1.623-.738-.296-1.476 0-1.919.59l-4.426 5.905c-1.328 1.771-3.541 1.771-4.869 0L211.869.738c-.295-.443-.738-.59-1.328-.59-.59 0-1.033.295-1.328.59l-5.606 6.938c-1.328 1.772-3.541 1.772-4.869 0l-4.279-5.757a1.92 1.92 0 0 0-1.918-.738c-.738.148-1.18.886-1.18 1.624V12.4c-.148.148-.295.148-.443.295l-3.098 3.1c-.295.295-.59.738-.59 1.181 0 .443.147.886.59 1.181l3.098 3.1c.148.148.295.295.443.295v3.396h-1.328c-7.525 0-13.721 5.757-14.459 13.138 0 .59-.443 1.18-1.18 1.328-2.804.59-4.869 3.1-4.869 6.053v5.904c0 4.577 2.065 8.562 5.459 11.22.295.295.59.737.59 1.033.738 7.38 6.934 12.99 14.459 12.99h.295c.738 0 1.033 1.034.443 1.476-2.951 1.624-5.607 3.986-7.673 6.79-.147.148-.147.296-.295.444h-8.557c-2.508 0-4.721 1.771-5.016 4.28-.443 2.953 1.918 5.61 4.868 5.61h4.574c-.147 1.034-.295 2.067-.295 3.248-3.246 1.624-5.606 5.019-5.606 9.005v3.69c0 .591-.443 1.033-1.033 1.033h-8.115c-2.656 0-5.164 2.215-5.164 5.019 0 1.329.59 2.51 1.328 3.248h-8.41c-.442 0-.738-.295-.738-.738v-3.1c0-.886.738-1.476 1.476-1.476h.738c.442 0 .737-.295.737-.738v-6.643c0-.443-.295-.738-.737-.738h-5.755c-.59 0-1.032-.591-.737-1.181.442-.738.737-1.772.737-2.657v-6.938a2.33 2.33 0 0 0-2.36-2.362h-9a2.331 2.331 0 0 0-2.361 2.362v6.938c0 1.033.295 1.919.738 2.657.295.443-.148 1.181-.738 1.181h-5.901c-.591 0-1.033-.591-.738-1.181.442-.738.738-1.772.738-2.657v-2.362c0-1.624-1.328-3.1-3.099-3.1h-5.311c-1.623 0-3.099 1.328-3.099 3.1v2.362c0 1.033.295 1.919.738 2.657.295.443-.148 1.181-.738 1.181h-6.049c-.443 0-.738.295-.738.738v6.938c0 .443.295.738.738.738h.738c.885 0 1.475.738 1.475 1.476v3.1c0 .443-.295.738-.737.738H95.459c-1.033 0-1.77-1.033-1.475-2.066.295-.738.295-1.477.147-2.362-.442-2.067-2.36-3.543-4.573-3.543-.443 0-.738-.443-.738-.886v-2.657c0-.295.147-.59.442-.738 2.213-1.181 3.541-3.395 3.394-6.2a9.388 9.388 0 0 0-.885-2.657c-.296-.443 0-1.034.59-1.181.295 0 .737-.148 1.032-.148 2.804-.59 5.312-2.214 6.935-4.724l2.213-3.542c.738-1.181 1.033-2.658.738-3.986-.148-.295-.148-.738-.443-1.034-.295-.59-.295-1.18-.147-1.77 0-.148.147-.148.147-.296l.148-.148a9.363 9.363 0 0 0 .295-6.643c-.738-2.362-2.213-4.28-4.279-5.462-.738-1.919-1.77-3.838-3.098-5.461-.443-.59-.443-1.329-.148-1.92.148-.295.148-.885-.295-1.033-.295-.147-.885-.147-1.033.295-.442.886-1.475 1.329-2.36 1.034-1.033-.296-2.656-.886-4.87-2.215-2.212-1.328-3.54-2.509-4.278-3.247a2.48 2.48 0 0 1-.295-2.657l3.098-5.315c.443-.59 1.328-.442 1.476.296l.147 1.328c0 .295.295.738.59.886.296.148.738.148 1.033.148l3.541-1.477c.443-.147 1.033.148 1.033.59l.443 3.839c0 .295.295.738.59.886.295.147.738.147 1.033.147l1.18-.443c.738-.295 1.328.443.885 1.034l-1.77 2.952c-.148.295-.148.886.295 1.034.295.147.885.147 1.033-.296l3.541-5.904c.295-.443.147-1.034-.148-1.33-.295-.442-.885-.442-1.328-.294l-3.836 1.623-.443-5.019c0-.295-.295-.738-.59-.885-.295-.148-.737-.148-1.032-.148l-4.427 1.772-.442-4.134c0-.443-.443-.886-.886-1.033-.442-.148-1.032.148-1.18.59l-4.131 6.938c-.443.739-1.328 1.034-2.066.739-3.246-1.181-6.787-1.477-10.328-.886-1.918-1.181-4.278-1.624-6.786-1.329-2.066.295-3.984 1.476-5.607 2.953l-.147.147c-2.066 2.067-2.951 4.872-2.804 7.676 0 .59-.147 1.329-.442 1.92-2.214 4.28-2.804 9.152-1.77 14.023.59 2.51 1.475 4.872 2.802 6.938.59.886.443 2.215-.295 2.953-2.36 2.214-3.983 5.019-4.426 8.414l-.738 5.167c-.147 1.181-.737 2.362-1.623 3.1-1.18 1.033-1.918 2.362-1.918 3.985v3.986c0 2.067.738 3.986 2.066 5.462.738.738.148 2.067-.885 2.067h-1.18c-.738 0-1.18-.591-1.18-1.181a2.33 2.33 0 0 0-2.362-2.362h-.295c-.442-1.329-1.77-2.214-3.245-2.214h-.296c.296-.886.296-1.919-.147-2.953-.148-.295-.295-.443-.59-.443s-.59 0-.738.148c-.148.148-.443.295-.59.443-1.476.59-2.213-.443-2.36-.738-.148-.148-.296-.296-.591-.296s-.443 0-.59.148c-.148.148-.443.295-.59.443-.59.295-1.033.295-1.476 0a3.48 3.48 0 0 1-1.18-1.329c-.148-.442-.59-.59-1.033-.442-.442.147-.59.59-.442.885.295 1.034 1.032 1.919 1.918 2.362.885.443 1.77.443 2.803 0 .147 0 .295-.147.442-.147 1.033 1.033 2.361 1.328 3.836.738 0 .442 0 1.033-.295 1.476-1.475.147-2.803 1.328-3.098 2.805l-6.64 4.133-.884.443c0-5.019-1.771-7.529-3.246-8.71 0-.147 0-.295.147-.443l2.508-.738c.443-.147.59-.59.443-.885-.148-.443-.59-.591-.885-.443l-2.361.738c-.738.295-1.623.59-2.213 1.181a6.446 6.446 0 0 0-1.77 7.381v.147l.147.296c.738 1.623 2.066 2.804 3.836 3.395.59.147 1.18.295 1.918.295 1.18 0 2.213-.295 3.246-.886l4.869-2.952c.442-.295.885 0 .885.443 0 .886.738 1.624 1.623 1.624h160.672c.443.59 1.033.885 1.771 1.181.59.295 1.18.295 1.77.295a4.713 4.713 0 0 0 3.541-1.624h83.951c.443 0 .738-.295.738-.738-.148-1.033-.591-1.329-1.033-1.329zM228.246 13.876h.295l3.098 3.1v.295l-3.098 3.1c-.147.148-.295.148-.295 0l-3.098-3.1v-.295l3.098-3.1zM23.312 122.23c-1.328-.443-2.361-1.329-2.951-2.658v-.147l-.148-.295c-.442-1.181-.442-2.658 0-3.839.148-.147.148-.295.295-.442.443-.591 1.18-.739 1.77-.148 1.034.886 2.214 2.805 2.509 6.2 0 .886-.738 1.624-1.475 1.329zm19.77-2.215c0 .443-.295.738-.738.738H36c-.443 0-.738-.295-.738-.738v-1.624c0-1.033.886-1.919 1.918-1.919h1.476c.885 0 1.918.738 2.065 1.624 0 .443.443.591.738.591h.885c.443 0 .738.295.738.738v.59zm58.426-44.285c.886 2.066.886 4.28.148 6.347l-.148.443c-.147.295-.147.443-.295.738l-1.18-.738c.59-2.805.59-5.757 0-8.71 0-.147-.148-.442-.148-.59.59.738 1.181 1.624 1.623 2.51zm-1.18 8.857c.738.442 1.18 1.18 1.475 2.066.148.886 0 1.772-.442 2.51l-2.36 3.69c-1.329 2.067-3.394 3.543-5.903 3.986-2.508.59-5.016 0-7.082-1.328l-2.95-1.92c-4.279-2.804-5.607-8.562-2.804-12.99l2.361-3.69c.443-.739 1.18-1.181 2.066-1.477.885-.147 1.77 0 2.508.443l13.131 8.71zm-46.623-6.2c-.738-3.396-.59-6.79.443-9.89.295-1.034 1.623-1.182 2.213-.296.295.295.59.738.885 1.033.148.148.295.148.59.148.148 0 .295 0 .443-.148.59-.59-.295-1.328-.59-1.771-2.656-3.248-2.509-8.12.59-11.072l.295-.295c3.246-3.247 8.557-3.247 11.803 0l4.279 4.133a.713.713 0 0 0 1.033 0 .714.714 0 0 0 0-1.033l-1.918-2.362s-2.213-2.214-2.361-2.214c.59 0 1.033-.148 1.623-.148 2.508 0 5.016.443 7.377 1.477 0 0 0 .147-.148.147v.59c.148 1.034 1.18 2.953 6.05 5.758C90 64.657 92.066 65.1 93.394 65.1h.442c3.394 3.838 5.164 8.71 4.869 13.729 0 1.18-1.475 1.919-2.36 1.18 0-.147 0-.147.147-.295v-.885-1.034c0-.443-.443-.886-.885-.886-.443 0-.886.443-.886.886v1.034L87.934 74.4c-1.032-.738-2.36-.886-3.688-.738-1.328.295-2.36 1.033-3.098 2.066l-2.361 3.691c-3.246 5.02-1.77 11.81 3.246 15.057l1.475.886c.738.443.443 1.476-.295 1.771-5.164 1.034-10.475.148-14.901-2.657l-6.197-3.986c-.148-.147-.295-.147-.443-.295-3.983-2.51-6.787-6.79-7.967-11.81zm13.869 40.89c-.59.738-1.328 1.033-2.213 1.033H54.59c-3.836 0-7.082-3.247-7.082-7.085v-3.986c0-2.067 1.77-3.838 3.836-3.838h1.18c4.427 0 8.115 3.69 8.115 8.119 0 .443.295.738.738.738h3.836c1.476 0 2.803 1.033 3.099 2.51 0 1.033-.148 1.771-.738 2.509zm4.279 1.033h-3.246c.885-1.033 1.18-2.361 1.032-3.69-.295-2.214-2.36-3.838-4.573-3.838h-3.099c-.147-2.657-1.475-4.872-3.393-6.495-1.623-1.477-3.836-2.362-6.344-2.362h-1.77l1.032-6.643c.443-3.248 2.066-5.905 4.426-7.824a1.58 1.58 0 0 1 2.066.148c1.032 1.033 2.065 1.919 3.246 2.657l.295.295 5.754 3.838c3.393 2.215 7.377 3.395 11.508 3.395 1.475 0 2.95-.147 4.574-.442.885-.148 1.77-.443 2.655-.739.148 0 .148 0 .148.148l.295 4.133c0 .443.443.739.885.739.443 0 .738-.443.738-.886l-.295-4.133v-.148c.443.147.738.147 1.18.295l1.18 2.214c.296.591.443 1.181.59 1.772.148.738 0 1.476-.147 2.214-.442 1.033-1.18 2.067-2.213 2.51l.148-1.919c0-.443-.443-.739-.886-.739-.442 0-.737.443-.737.886l.295 5.019c.147 2.51-.59 4.872-2.213 6.791-1.623 1.919-3.984 2.804-6.492 2.804h-6.64zm18 0H83.95c.738-.442 1.475-1.033 2.066-1.771 1.18-1.181 1.918-2.657 2.36-4.281h1.328a2.96 2.96 0 0 1 2.95 2.952c.148 1.772-1.18 3.1-2.802 3.1zM135 103.186v-5.315a2.331 2.331 0 0 1 2.361-2.361h6.196a2.331 2.331 0 0 1 2.361 2.361v5.315c0 2.066-1.77 3.838-3.836 3.838h-3.393c-2.066 0-3.689-1.772-3.689-3.838zm-17.41 0v-.738c0-1.624 1.328-3.1 3.099-3.1h2.36c1.623 0 3.099 1.328 3.099 3.1v.738c0 2.066-1.771 3.838-3.836 3.838h-.738c-2.213 0-3.984-1.772-3.984-3.838zm-1.475 17.566h-1.476c-.442 0-.737-.295-.737-.738v-3.1c0-.885.737-1.476 1.475-1.476.885 0 1.476.738 1.476 1.476v3.1c.147.443-.296.738-.738.738zm27.59 0h-24.492c-.442 0-.737-.295-.737-.738v-3.1c0-.885.737-1.476 1.475-1.476h23.016c.886 0 1.476.738 1.476 1.476v3.1c0 .443-.295.738-.738.738zm4.574 0h-1.476c-.442 0-.737-.295-.737-.738v-3.1c0-.885.737-1.476 1.475-1.476.885 0 1.475.738 1.475 1.476v3.1c.148.443-.295.738-.737.738zm-2.951-6.938h-32.164a2.331 2.331 0 0 1-2.361-2.362v-.738a2.332 2.332 0 0 1 2.361-2.362h36.738a2.33 2.33 0 0 1 2.36 2.362v.738a2.33 2.33 0 0 1-2.36 2.362h-4.574zm43.377-96.543v-.295l3.098-3.1h.295l3.099 3.1v.295l-3.099 3.1c-.147.148-.295.148-.295 0l-3.098-3.1zm1.18 58.457c-5.311 0-9.885-3.247-11.95-7.823-.591-1.181.59-2.51 1.918-2.067 1.327.443 2.655.59 4.131.59h14.754c7.967 0 14.606-6.495 14.606-14.614V45.91c0-3.543-2.803-6.348-6.344-6.348h-8.262c-.443 0-.738.295-.738.738s.295.738.738.738H207c2.656 0 4.721 2.067 4.721 4.724v5.905c0 7.233-5.901 12.99-12.983 12.99h-14.607c-7.229 0-12.983-5.905-12.983-12.99v-5.905c0-2.657 2.065-4.724 4.721-4.724h14.164c.442 0 .738-.295.738-.738s-.296-.738-.738-.738h-11.361c-.885 0-1.623-.886-1.475-1.772 1.033-6.2 6.344-10.923 12.836-10.923H239.607c4.573 0 8.705 2.51 11.065 6.052.59 1.033-.147 2.362-1.328 2.362H241.967c-.442 0-.737.295-.737.738s.295.738.737.738h11.213c3.394 0 6.197 2.805 6.197 6.2V54.03c0 3.395-2.803 6.2-6.197 6.2h-11.213c-.442 0-.737.295-.737.738s.295.738.737.738h3.541c4.574.738 6.64 6.2 3.689 9.595-2.361 2.657-5.902 4.428-9.738 4.428h-10.475c.147-.147.295-.442.295-.59 1.475-3.543-.148-7.529-3.541-9.152.147-.296.442-.443.59-.886.443-1.181 0-2.51-.885-3.1.295-.59.295-1.329.147-1.92a2.344 2.344 0 0 0-1.18-1.475l-.295-.148c-.59-.295-1.328-.148-1.918.148a2.348 2.348 0 0 0-1.181 1.476c-.442-.148-1.032 0-1.475.147-.59.296-1.18.739-1.475 1.33-.148.294-.148.59-.148.885a8.583 8.583 0 0 0-2.803-.443c-.443 0-.738.443-.738.886 0 .442.443.738.738.738.59 0 1.918.295 2.508.443.295.147.443.443.295.59l-3.541 8.71c-.147.295-.443.295-.59.295l-2.656-1.034h-.147c-.295-.295-.443-.738-.738-1.18-.738-1.772-.59-3.69.59-5.315a6.989 6.989 0 0 1 1.476-1.476c.295-.295.295-.59.147-.886-.295-.295-.738-.443-1.033-.147-1.032.738-1.918 1.919-2.508 3.1a7.014 7.014 0 0 0 0 5.462c.148.295.295.442.295.738-.59.295-1.033.738-1.18 1.328l-.59 1.477h-17.558zm29.213 7.382c-.147.738-.295 1.328-.295 2.066 0 .59-.442 1.034-1.032 1.034h-1.476l.885-2.362c.295-.739 1.181-1.034 1.918-.739zm-5.311 3.1h-.885c-.886 0-1.623-.886-1.181-1.772l.886-2.067c.295-.885 1.328-1.328 2.213-.885.885.295 1.328 1.328.885 2.214l-.738 1.919c-.295.295-.737.59-1.18.59zm-4.574-8.71c-.147-.148-.442-.295-.442-.443-.148-.148-.148-.443 0-.738l.59-1.476c.147-.148.295-.443.442-.443h.591l12.245 4.871c.148.148.443.296.443.443.148.148.148.443 0 .738l-.59 1.477c-.148.442-.738.738-1.18.442L209.213 77.5zm14.902-14.467c.59.295.885.886.59 1.477a1.154 1.154 0 0 1-.59.59.94.94 0 0 1-.885 0l-3.394-1.329a1.154 1.154 0 0 1-.59-.59.939.939 0 0 1 0-.886c.148-.295.295-.443.59-.59.148 0 .295-.148.443-.148.147 0 .295 0 .442.148l3.394 1.328zm-1.918-2.362a1.15 1.15 0 0 1 .59-.59c.148 0 .295-.148.59 0l.295.147c.148.148.295.296.295.443v.886l-1.77-.886zm-1.181 5.167c.886.295 1.328 1.329.886 2.214l-3.246 7.824-3.099-1.328 3.246-7.824c.295-.738 1.328-1.181 2.213-.886zm-.737 10.333l3.541-8.71c.147-.294.442-.294.59-.294 2.656 1.033 4.279 3.985 3.541 6.79-.59 2.214-2.508 3.69-4.574 3.986 0 0-.147 0-.147-.148l-2.656-1.033c-.148-.148-.295-.443-.295-.59zM178.23 94.033h-4.279c-1.918 0-3.541-1.771-3.394-3.69.148-1.772 1.771-3.1 3.541-3.1h6.197c.59 0 .885.59.738 1.18-.885 1.625-1.476 3.248-1.918 5.02-.148.443-.443.59-.885.59zm5.459 26.719h-20.361c-1.918 0-3.541-1.771-3.393-3.69.147-1.772 1.77-3.1 3.54-3.1h8.115a2.645 2.645 0 0 0 2.656-2.657v-3.543c0-2.51 1.033-4.724 2.803-6.2.443-.443 1.328-.148 1.328.59v5.61c0 4.724 2.361 9.005 5.902 11.662.442.443.147 1.328-.59 1.328zm11.36-3.543a4.9 4.9 0 0 0 0 3.543h-2.213c-7.229 0-12.983-5.904-12.983-12.99v-8.267a22.2 22.2 0 0 1 4.278-13.138c4.131-5.757 10.918-9.152 17.853-9.152h5.164c0 .147 0 .295.147.443v.147c.295.443.59.886 1.18 1.034l1.919.738c.737.295 1.032 1.18.737 1.919l-1.918 4.724h-3.836a5.077 5.077 0 0 0-5.016 4.133c-.295 1.476.147 2.805 1.18 3.986.885 1.033 2.213 1.771 3.689 1.771l-6.345 15.795-1.475-.59c-.443-.148-1.033-.296-1.475-.148-.738.148-1.476.738-1.771 1.476l-.148.296c-.147.442-.295 1.033-.147 1.476.147.738.738 1.476 1.475 1.771h.148a7.22 7.22 0 0 0-.443 1.033zm14.902-17.27c-.443-.149-.885 0-1.033.442l-4.721 11.809c-.295.886-1.328 1.329-2.213.886-.886-.295-1.328-1.328-.886-2.214l5.164-12.695c.591-1.329 1.771-2.067 3.099-2.067h19.328c.442 0 .885.443.885.886 0 .442-.443.885-.885.885h-1.771c-5.459 0-9.885 4.429-9.885 9.891v3.69a1.01 1.01 0 0 1-1.033 1.034h-8.115c-.885 0-1.475-.886-1.18-1.772l3.984-9.743c-.148-.442-.443-.885-.738-1.033zm-8.262 21.551c-1.033.739-2.361 1.034-3.541.591-.738-.295-1.328-1.033-1.771-1.772-.295-.885-.295-1.771 0-2.509.295-.591.885-.886 1.476-.591l3.983 1.624c.59.296.885.886.738 1.476a2.3 2.3 0 0 1-.885 1.181zm-5.754-6.79c-.148-.148-.443-.295-.443-.443-.148-.148-.148-.443 0-.738l.147-.443c.148-.443.738-.738 1.181-.443l9.147 3.691c.443.147.738.738.443 1.181l-.148.443c-.147.442-.737.738-1.18.442l-9.147-3.69zm44.704 5.609s-.147 0 0 0c-.59.296-1.18.443-1.77.443h-34.672c.147-.295.147-.738.295-1.033h.147c.296.148.591.148.886.148.885 0 1.918-.591 2.213-1.477l.147-.442c.443-1.181-.147-2.658-1.328-3.1l-1.623-.591.148-.295h10.771a2.645 2.645 0 0 0 2.655-2.657v-3.543c0-4.576 3.836-8.414 8.41-8.414h1.771a2.331 2.331 0 0 0 2.36-2.362 2.331 2.331 0 0 0-2.36-2.362h-23.164c-1.033 0-1.918-.443-2.509-1.181-.59-.738-.885-1.772-.737-2.657.295-1.624 1.77-2.805 3.393-2.805H218.066a2.645 2.645 0 0 0 2.655-2.657c0-.443 0-1.034.148-1.476l.295.147c.295.148.59.148.885.148.886 0 1.918-.59 2.213-1.476l.591-1.477c.295-.59.295-1.18 0-1.771 1.18-.295 2.213-1.033 3.098-1.919h9.59c7.23 0 12.984 5.905 12.984 12.99v17.272c0 5.905-4.131 11.071-9.886 12.547z" fill="#202225"/><path d="M82.033 109.09a.713.713 0 0 0-1.033 0l-1.18 1.181-1.18-1.181a.713.713 0 0 0-1.033 0 .715.715 0 0 0 0 1.034l1.18 1.181-1.18 1.181a.713.713 0 0 0 0 1.033c.147.148.295.295.59.295s.442-.147.59-.295l1.18-1.181 1.18 1.181c.148.148.296.295.59.295.296 0 .443-.147.59-.295a.713.713 0 0 0 0-1.033l-1.18-1.181 1.18-1.181c0-.148 0-.738-.294-1.034zM93.246 69.381c.148.443.443.59.885.59h.295c.443-.147.738-.738.59-1.18-.295-1.181-.59-1.772-.59-1.772-.147-.443-.737-.738-1.18-.443-.443.148-.738.738-.443 1.181-.147 0 0 .59.443 1.624zM94.131 72.776c.148.59.295 1.181.295 1.772 0 .442.443.738.885.738h.148c.443-.148.885-.59.738-1.034-.148-.59-.148-1.18-.295-1.771a1.11 1.11 0 0 0-1.033-.738c-.59 0-.885.59-.738 1.033zM61.082 65.986c.148 0 .443-.148.59-.296a.714.714 0 0 0 0-1.033c-.738-.59-1.18-1.624-1.18-2.657s.442-1.919 1.033-2.657l.442-.295c.738-.739 1.623-1.181 2.656-1.181 1.033 0 1.918.443 2.656 1.033a.713.713 0 0 0 1.032 0 .714.714 0 0 0 0-1.033c-1.032-1.034-2.36-1.624-3.836-1.476-1.475 0-2.803.59-3.688 1.623l-.295.295c-1.033 1.034-1.476 2.362-1.476 3.839 0 1.476.59 2.804 1.623 3.69.148.148.295.148.443.148zM71.41 77.205l.443.295c.737.443 1.623.738 2.508.738.295 0 .59 0 1.032-.148 1.18-.295 2.214-1.033 2.951-2.066l.295-.443c1.328-2.214.738-5.02-1.328-6.348l-.59-.295c-2.213-1.329-5.016-.738-6.344 1.329l-.295.443c-.738 1.033-.885 2.214-.59 3.542.295 1.181.885 2.215 1.918 2.953zm0-5.61l.295-.443c.59-.885 1.623-1.476 2.656-1.476.59 0 1.18.148 1.623.443l.442.295c.738.443 1.18 1.181 1.328 1.92.148.885 0 1.623-.443 2.361l-.295.59c-.442.739-1.18 1.182-1.918 1.33-.885.147-1.623 0-2.36-.444l-.443-.295c-.738-.443-1.18-1.18-1.328-1.919-.147-.886 0-1.624.443-2.362z" fill="#202225"/><path d="M72.59 73.219c.443.295 1.033.148 1.328-.295.295-.443.147-1.034-.295-1.329-.443-.295-1.033-.147-1.328.295-.148.443 0 1.034.295 1.329zM74.95 74.695c.443.295 1.034.148 1.329-.295.295-.443.147-1.033-.295-1.329-.443-.295-1.033-.147-1.328.296-.295.59-.148 1.033.295 1.328zM62.262 98.61h-.295c-.295.147-.59.442-.59.738a2.646 2.646 0 0 1-2.656 2.657 2.645 2.645 0 0 1-2.655-2.657V97.28a2.645 2.645 0 0 1 2.655-2.657c.443 0 .738-.295.738-.738s-.295-.738-.738-.738a4.283 4.283 0 0 0-4.278 4.28v2.215a4.283 4.283 0 0 0 4.278 4.281h.295c2.214-.148 3.984-1.919 3.984-4.281.148-.738-.295-1.034-.738-1.034zM208.918 12.843l-3.098 3.1c-.738.738-.738 1.771 0 2.51l3.098 3.1c.295.295.738.59 1.18.59.443 0 .886-.148 1.181-.59l3.098-3.1c.295-.296.59-.739.59-1.181 0-.443-.147-.886-.59-1.181l-3.098-3.1c-.443-.886-1.623-.886-2.361-.148zm4.574 4.28v.148l-3.099 3.1c-.147.148-.295.148-.295 0l-3.098-3.1c-.148-.147-.148-.295 0-.295l3.098-3.1h.295l3.099 3.1v.148zM258.049 96.1l-2.803 9.743c-.148.738 0 1.624.59 2.067.443.442.885.59 1.475.59.148 0 .443 0 .591-.148l9.737-2.804c3.099-.886 5.312-3.691 5.459-6.79.148-2.215-.59-4.43-2.213-6.053-1.623-1.624-3.836-2.362-6.049-2.215a7.737 7.737 0 0 0-6.787 5.61zm6.935-3.986h.442c1.623 0 3.246.59 4.279 1.772 1.328 1.328 1.918 3.1 1.77 4.871-.147 2.51-1.918 4.724-4.426 5.462l-9.738 2.805c-.295.147-.59-.148-.59-.148-.147-.147-.295-.295-.147-.59l2.803-9.743c.885-2.51 2.951-4.281 5.607-4.429zM216.443 77.205c-.591-.296-1.328 0-1.623.738-.295.59 0 1.328.737 1.624.59.295 1.328 0 1.623-.738.148-.591-.147-1.33-.737-1.624zM211.869 75.433c-.59-.295-1.328 0-1.623.738-.295.59 0 1.329.738 1.624.59.296 1.327 0 1.623-.738.147-.738-.148-1.476-.738-1.624zM221.016 79.124c-.59-.295-1.328 0-1.623.738-.295.59 0 1.328.738 1.624.59.295 1.328 0 1.623-.738.148-.739-.148-1.477-.738-1.624zM11.656 117.209c-1.77 0-3.246 1.477-3.246 3.248v.148c0 .885.738 1.624 1.623 1.624h3.098c.886 0 1.623-.739 1.623-1.624v-.148c0-1.771-1.328-3.248-3.098-3.248zm1.623 3.396c0 .147 0 .147 0 0l-3.246.147c-.148 0-.148 0-.148-.147v-.148c0-.886.738-1.624 1.623-1.624.886 0 1.623.738 1.623 1.624v.148h.148zM106.229 45.467c.591 0 1.181.59 1.181 1.18 0 .444.295.739.737.739.443 0 .738-.296.738-.738 0-.59.59-1.181 1.18-1.181.443 0 .738-.296.738-.738 0-.443-.295-.739-.738-.739-.59 0-1.18-.59-1.18-1.18 0-.443-.295-.739-.738-.739-.442 0-.737.296-.737.739 0 .59-.59 1.18-1.181 1.18-.442 0-.737.296-.737.739 0 .295.295.738.737.738zM122.607 84.29h.442c.443 0 .738.296.738.738v.443c0 .443.295.739.738.739.442 0 .737-.296.737-.739v-.443c0-.442.295-.738.738-.738h.443c.442 0 .737-.295.737-.738s-.295-.885-.737-.885H126c-.443 0-.738-.296-.738-.739v-.442c0-.443-.295-.738-.737-.738-.443 0-.738.295-.738.738v.442c0 .443-.295.739-.738.739h-.442c-.443 0-.738.295-.738.738s.295.885.738.885zM151.525 64.214c.147 0 .442-.147.59-.295l.885-.886A.714.714 0 0 0 153 62a.713.713 0 0 0-1.033 0l-.885.886a.714.714 0 0 0 0 1.033c0 .148.295.295.443.295zM146.951 68.79c.147 0 .442-.147.59-.295l.885-.886a.714.714 0 0 0 0-1.033.713.713 0 0 0-1.033 0l-.885.886a.714.714 0 0 0 0 1.033c.148.148.295.295.443.295zM151.967 68.495c.148.148.295.295.59.295s.443-.147.59-.295a.714.714 0 0 0 0-1.033l-.885-.886a.713.713 0 0 0-1.033 0 .714.714 0 0 0 0 1.034l.738.885zM147.393 63.919c.148.148.295.295.591.295.147 0 .442-.147.59-.295a.714.714 0 0 0 0-1.033L147.541 62a.713.713 0 0 0-1.033 0 .714.714 0 0 0 0 1.033l.885.886zM149.754 90.048a2.645 2.645 0 0 0 2.656-2.658 2.645 2.645 0 0 0-2.656-2.657 2.646 2.646 0 0 0-2.656 2.657 2.646 2.646 0 0 0 2.656 2.658zm0-3.838c.59 0 1.18.59 1.18 1.18s-.59 1.181-1.18 1.181-1.18-.59-1.18-1.18c0-.591.442-1.181 1.18-1.181zM223.082 51.519c1.918 0 3.393-1.624 3.393-3.395 0-1.92-1.623-3.396-3.393-3.396-1.918 0-3.393 1.624-3.393 3.396-.148 1.919 1.475 3.395 3.393 3.395zM229.426 43.99c.443 0 .738-.295.738-.738s-.295-.738-.738-.738c-2.213 0-3.098-1.919-3.098-2.066-.148-.443-.59-.59-1.033-.443-.443.147-.59.59-.443 1.033 0 0 1.181 2.952 4.574 2.952z" fill="#202225"/></g><defs><clipPath id="clip0"><path fill="#fff" d="M0 0h288v124H0z"/></clipPath></defs></svg>