<svg xmlns="http://www.w3.org/2000/svg" width="142" height="88" viewBox="0 0 142 88" xmlns:xlink="http://www.w3.org/1999/xlink">
  <defs>
    <polygon id="a" points=".896 .3 6.771 .3 6.771 6.175 .896 6.175"/>
    <polygon id="c" points=".834 0 93.834 0 93.834 45 .834 45"/>
    <polygon id="e" points="0 .699 5.875 .699 5.875 6.574 0 6.574"/>
  </defs>
  <g fill="none" fill-rule="evenodd">
    <g transform="translate(10 15)">
      <g transform="translate(115 29.966)">
        <mask id="b" fill="white">
          <use xlink:href="#a"/>
        </mask>
        <path fill="#FFFFFF" d="M3.8341,0.2999 C3.5581,0.2999 3.3341,0.5239 3.3341,0.7999 C3.3341,1.8699 2.4661,2.7379 1.3971,2.7379 L1.3961,2.7379 C1.1201,2.7379 0.8961,2.9609 0.8961,3.2379 C0.8961,3.5139 1.1201,3.7379 1.3961,3.7379 L1.3971,3.7379 C2.4661,3.7379 3.3341,4.6049 3.3341,5.6749 C3.3341,5.9509 3.5581,6.1749 3.8341,6.1749 C4.1101,6.1749 4.3341,5.9509 4.3341,5.6749 C4.3341,4.6049 5.2011,3.7379 6.2711,3.7379 C6.5471,3.7379 6.7711,3.5139 6.7711,3.2379 C6.7711,2.9609 6.5471,2.7379 6.2711,2.7379 C5.2011,2.7379 4.3341,1.8699 4.3341,0.7999 C4.3341,0.5239 4.1101,0.2999 3.8341,0.2999" mask="url(#b)"/>
      </g>
      <path fill="#7687B2" d="M18.8336,17.9658 C18.8336,17.2338 19.0456,16.5568 19.3906,15.9658 L15.8336,15.9658 C14.7306,15.9658 13.8336,16.8628 13.8336,17.9658 L13.8336,54.9658 C13.8336,56.0688 14.7306,56.9658 15.8336,56.9658 L19.3906,56.9658 C19.0456,56.3748 18.8336,55.6968 18.8336,54.9658 L18.8336,17.9658 Z"/>
      <path fill="#E3E7F8" d="M100.8336,15.9658 L95.8336,15.9658 L22.8336,15.9658 C21.7306,15.9658 20.8336,16.8628 20.8336,17.9658 L20.8336,54.9658 C20.8336,56.0688 21.7306,56.9658 22.8336,56.9658 L95.8336,56.9658 L100.8336,56.9658 C101.9366,56.9658 102.8336,56.0688 102.8336,54.9658 L102.8336,17.9658 C102.8336,16.8628 101.9366,15.9658 100.8336,15.9658"/>
      <g transform="translate(11 13.966)">
        <mask id="d" fill="white">
          <use xlink:href="#c"/>
        </mask>
        <path fill="#040405" d="M4.8336,43.0001 C3.7296,43.0001 2.8336,42.1041 2.8336,41.0001 L2.8336,4.0001 C2.8336,2.8961 3.7296,2.0001 4.8336,2.0001 L5.9666,2.0001 C7.0426,2.0001 7.8396,2.9021 7.8336,3.9781 C7.8336,3.9851 7.8336,3.9931 7.8336,4.0001 L7.8336,41.0001 C7.8336,41.0071 7.8336,41.0151 7.8336,41.0221 C7.8396,42.0981 7.0426,43.0001 5.9666,43.0001 L4.8336,43.0001 Z M91.8336,41.0001 C91.8336,42.1031 90.9366,43.0001 89.8336,43.0001 L84.8336,43.0001 L11.8336,43.0001 C10.7306,43.0001 9.8336,42.1031 9.8336,41.0001 L9.8336,4.0001 C9.8336,2.8971 10.7306,2.0001 11.8336,2.0001 L84.8336,2.0001 L89.8336,2.0001 C90.9366,2.0001 91.8336,2.8971 91.8336,4.0001 L91.8336,41.0001 Z M89.8336,0.0001 L84.8336,0.0001 L11.8336,0.0001 L4.8336,0.0001 C2.6276,0.0001 0.8336,1.7941 0.8336,4.0001 L0.8336,41.0001 C0.8336,43.2061 2.6276,45.0001 4.8336,45.0001 L11.8336,45.0001 L84.8336,45.0001 L89.8336,45.0001 C92.0396,45.0001 93.8336,43.2061 93.8336,41.0001 L93.8336,4.0001 C93.8336,1.7941 92.0396,0.0001 89.8336,0.0001 Z" mask="url(#d)"/>
      </g>
      <path fill="#FFFFFF" d="M15.7105 2.1582C15.8565 2.1582 16.0025 2.0942 16.1005 1.9712L17.0315.8122C17.2045.5972 17.1705.2832 16.9555.1102 16.7405-.0628 16.4255-.0288 16.2525.1862L15.3215 1.3452C15.1485 1.5602 15.1825 1.8752 15.3985 2.0482 15.4905 2.1222 15.6005 2.1582 15.7105 2.1582M11.5665 5.0278L10.6355 6.1868C10.4625 6.4018 10.4965 6.7158 10.7125 6.8888 10.8045 6.9638 10.9145 6.9998 11.0245 6.9998 11.1705 6.9998 11.3165 6.9358 11.4145 6.8128L12.3455 5.6538C12.5185 5.4388 12.4845 5.1238 12.2695 4.9508 12.0545 4.7788 11.7395 4.8128 11.5665 5.0278M17.2042 6.017L16.1992 4.907C16.0132 4.702 15.6972 4.687 15.4932 4.872 15.2872 5.058 15.2722 5.373 15.4572 5.578L16.4632 6.688C16.5612 6.797 16.6972 6.852 16.8332 6.852 16.9532 6.852 17.0732 6.809 17.1692 6.723 17.3742 6.538 17.3902 6.222 17.2042 6.017M11.839 2.2563C11.959 2.2563 12.079 2.2133 12.174 2.1273 12.38 1.9413 12.395 1.6253 12.21 1.4213L11.204.3113C11.019.1053 10.703.0913 10.498.2763 10.293.4613 10.277.7773 10.463.9823L11.468 2.0913C11.567 2.2013 11.703 2.2563 11.839 2.2563"/>
      <path fill="#040405" d="M46.8233 45.7978L47.6113 45.7978C47.8303 45.7978 47.9893 46.0078 47.9273 46.2188L46.4833 51.2348C46.4423 51.3768 46.3133 51.4738 46.1663 51.4738L45.3233 51.4738C45.1803 51.4738 45.0533 51.3808 45.0093 51.2448L44.5863 49.9268C44.5813 49.9108 44.5773 49.8938 44.5743 49.8768L44.3773 48.6038 44.3533 48.6038 44.1403 49.8768C44.1383 49.8888 44.1353 49.9008 44.1323 49.9118L43.7563 51.2348C43.7163 51.3758 43.5863 51.4738 43.4393 51.4738L42.6053 51.4738C42.4583 51.4738 42.3293 51.3768 42.2883 51.2358L40.8363 46.2188C40.7753 46.0078 40.9333 45.7978 41.1533 45.7978L41.9473 45.7978C42.0993 45.7978 42.2313 45.9018 42.2673 46.0478L42.8733 48.4958C42.8773 48.5088 42.8793 48.5228 42.8813 48.5358L43.0233 49.7178 43.0633 49.7178 43.1953 48.5558C43.1983 48.5348 43.2023 48.5138 43.2093 48.4928L43.7593 46.7648C43.8033 46.6288 43.9303 46.5358 44.0733 46.5358L44.6763 46.5358C44.8223 46.5358 44.9513 46.6318 44.9923 46.7728L45.5023 48.5108C45.5063 48.5248 45.5093 48.5388 45.5113 48.5528L45.6923 49.7178 45.7163 49.7178 45.8743 48.5498C45.8763 48.5378 45.8783 48.5258 45.8813 48.5138L46.5033 46.0468C46.5403 45.9008 46.6723 45.7978 46.8233 45.7978M51.7647 49.5737C51.7647 50.4877 53.3847 50.4877 53.3927 49.5737L53.3927 46.1277C53.3927 45.9457 53.5397 45.7977 53.7227 45.7977L54.5137 45.7977C54.6957 45.7977 54.8437 45.9457 54.8437 46.1277L54.8437 49.5737C54.8357 52.2357 50.3067 52.2357 50.3147 49.5737L50.3147 46.1277C50.3147 45.9457 50.4617 45.7977 50.6437 45.7977L51.4347 45.7977C51.6177 45.7977 51.7647 45.9457 51.7647 46.1277L51.7647 49.5737zM57.7433 45.7978L58.6313 45.7978C58.7633 45.7978 58.8823 45.8768 58.9343 45.9968L59.7413 47.8708C59.8553 48.1358 60.2313 48.1368 60.3463 47.8718L61.1593 45.9968C61.2113 45.8758 61.3303 45.7978 61.4613 45.7978L62.3503 45.7978C62.5323 45.7978 62.6803 45.9458 62.6803 46.1278L62.6803 51.1438C62.6803 51.3258 62.5323 51.4738 62.3503 51.4738L61.5683 51.4738C61.3863 51.4738 61.2383 51.3248 61.2393 51.1428L61.2453 49.8508C61.2453 49.8428 61.2453 49.8348 61.2463 49.8268L61.3333 48.6928 61.2853 48.6848 60.6203 50.4208C60.5723 50.5478 60.4493 50.6318 60.3133 50.6318L59.7793 50.6318C59.6433 50.6318 59.5213 50.5488 59.4723 50.4228L58.7923 48.6848 58.7523 48.6928 58.8473 49.8248C58.8473 49.8338 58.8483 49.8428 58.8483 49.8528L58.8483 51.1438C58.8483 51.3258 58.7013 51.4738 58.5183 51.4738L57.7433 51.4738C57.5613 51.4738 57.4133 51.3258 57.4133 51.1438L57.4133 46.1278C57.4133 45.9458 57.5613 45.7978 57.7433 45.7978M67.5611 48.54C68.4271 48.548 68.4271 47.129 67.5611 47.137L67.0571 47.137C66.8741 47.137 66.7271 47.285 66.7271 47.466L66.7271 48.21C66.7271 48.393 66.8741 48.54 67.0571 48.54L67.5611 48.54zM65.2921 46.127C65.2921 45.946 65.4401 45.798 65.6221 45.798L67.5611 45.798C68.9481 45.798 69.6371 46.8 69.6371 47.802 69.6371 48.812 68.9401 49.814 67.5691 49.814L67.0571 49.814C66.8741 49.814 66.7271 49.962 66.7271 50.144L66.7271 51.144C66.7271 51.326 66.5801 51.474 66.3971 51.474L65.6221 51.474C65.4401 51.474 65.2921 51.326 65.2921 51.144L65.2921 46.127zM73.4293 49.5737C73.4293 50.4877 75.0483 50.4877 75.0563 49.5737L75.0563 46.1277C75.0563 45.9457 75.2043 45.7977 75.3863 45.7977L76.1783 45.7977C76.3603 45.7977 76.5073 45.9457 76.5073 46.1277L76.5073 49.5737C76.4993 52.2357 71.9703 52.2357 71.9783 49.5737L71.9783 46.1277C71.9783 45.9457 72.1253 45.7977 72.3073 45.7977L73.0993 45.7977C73.2823 45.7977 73.4293 45.9457 73.4293 46.1277L73.4293 49.5737zM79.505 49.8916C79.627 49.7776 79.81 49.7776 79.941 49.8806 80.56 50.3666 81.557 50.3336 81.592 49.7896 81.608 49.4696 81.088 49.2856 80.622 49.2216 79.708 49.0776 78.875 48.4996 78.875 47.4176 78.875 46.3036 79.885 45.7186 80.927 45.7186 81.517 45.7186 82.089 45.8586 82.608 46.3466 82.755 46.4836 82.738 46.7236 82.579 46.8456L82.144 47.1806C82.027 47.2696 81.865 47.2706 81.748 47.1816 81.15 46.7226 80.316 46.7986 80.294 47.3936 80.31 47.6656 80.606 47.8266 81.047 47.9226 82.057 48.1066 83.068 48.4596 83.004 49.8546 82.955 50.9536 81.8 51.5546 80.759 51.5546 80.17 51.5546 79.55 51.2966 79.051 50.7856 78.921 50.6526 78.923 50.4366 79.059 50.3096L79.505 49.8916z"/>
      <path fill="#8BA4E8" d="M27.8336 20.9658C27.8336 22.0698 26.9376 22.9658 25.8336 22.9658 24.7296 22.9658 23.8336 22.0698 23.8336 20.9658 23.8336 19.8618 24.7296 18.9658 25.8336 18.9658 26.9376 18.9658 27.8336 19.8618 27.8336 20.9658M99.8336 20.9658C99.8336 22.0698 98.9376 22.9658 97.8336 22.9658 96.7296 22.9658 95.8336 22.0698 95.8336 20.9658 95.8336 19.8618 96.7296 18.9658 97.8336 18.9658 98.9376 18.9658 99.8336 19.8618 99.8336 20.9658M27.8336 51.9658C27.8336 53.0698 26.9376 53.9658 25.8336 53.9658 24.7296 53.9658 23.8336 53.0698 23.8336 51.9658 23.8336 50.8618 24.7296 49.9658 25.8336 49.9658 26.9376 49.9658 27.8336 50.8618 27.8336 51.9658M99.8336 51.9658C99.8336 53.0698 98.9376 53.9658 97.8336 53.9658 96.7296 53.9658 95.8336 53.0698 95.8336 51.9658 95.8336 50.8618 96.7296 49.9658 97.8336 49.9658 98.9376 49.9658 99.8336 50.8618 99.8336 51.9658"/>
      <g transform="translate(0 17.966)">
        <mask id="f" fill="white">
          <use xlink:href="#e"/>
        </mask>
        <path fill="#FFFFFF" d="M2.9376,5.5743 C1.8696,5.5743 1.0006,4.7053 1.0006,3.6373 C1.0006,2.5693 1.8696,1.6993 2.9376,1.6993 C4.0056,1.6993 4.8746,2.5693 4.8746,3.6373 C4.8746,4.7053 4.0056,5.5743 2.9376,5.5743 M2.9376,0.6993 C1.3176,0.6993 -0.0004,2.0173 -0.0004,3.6373 C-0.0004,5.2573 1.3176,6.5743 2.9376,6.5743 C4.5576,6.5743 5.8746,5.2573 5.8746,3.6373 C5.8746,2.0173 4.5576,0.6993 2.9376,0.6993" mask="url(#f)"/>
      </g>
      <path fill="#000000" d="M37.6793 33.5893L37.7303 33.4023C37.8573 32.9363 37.5073 32.4773 37.0243 32.4773L36.1233 32.4773C35.7893 32.4773 35.4973 32.7033 35.4143 33.0273L35.3663 33.2143C35.2473 33.6773 35.5963 34.1293 36.0753 34.1293L36.9723 34.1293C37.3033 34.1293 37.5923 33.9073 37.6793 33.5893M41.8663 37.2303L40.2823 37.2303C39.9573 37.2303 39.6693 37.4513 39.5773 37.7633 39.0883 39.4373 38.7633 40.5673 38.5563 41.3013 38.4673 41.6163 38.1793 41.8333 37.8523 41.8333L35.9493 41.8333C35.4633 41.8333 35.1123 41.3693 35.2443 40.9013L36.0183 38.1623C36.1503 37.6943 35.7993 37.2303 35.3133 37.2303L35.0313 37.2303C34.7053 37.2303 34.4183 37.4463 34.3273 37.7603L33.3073 41.3033C33.2173 41.6173 32.9293 41.8333 32.6033 41.8333L30.6803 41.8333C30.1913 41.8333 29.8403 41.3633 29.9773 40.8953L30.7783 38.1693C30.9153 37.7003 30.5643 37.2303 30.0753 37.2303L30.0663 37.2303C29.6053 37.2303 29.2593 36.8103 29.3473 36.3583L29.7123 34.4953C29.7793 34.1513 30.0803 33.9033 30.4303 33.9033L31.5073 33.9033C31.8283 33.9033 32.1113 33.6953 32.2063 33.3893 32.2603 33.2173 32.3163 33.0163 32.4043 32.7023L30.9083 32.7023C30.4423 32.7023 30.0953 32.2733 30.1933 31.8173L30.6043 29.9043C30.6763 29.5673 30.9743 29.3253 31.3203 29.3253L32.8643 29.3253C33.1853 29.3253 33.4703 29.1213 33.5633 28.8133 33.8883 27.7483 34.2313 26.5383 34.5293 25.4983 34.6193 25.1843 34.9053 24.9733 35.2323 24.9733L37.1553 24.9733C37.6433 24.9733 37.9953 25.4423 37.8583 25.9113L37.1323 28.3873C36.9943 28.8563 37.3463 29.3253 37.8343 29.3253L38.1093 29.3253C38.4343 29.3253 38.7213 29.1113 38.8123 28.7993L39.7793 25.4993C39.8703 25.1873 40.1573 24.9733 40.4823 24.9733L42.4483 24.9733C42.9393 24.9733 43.2913 25.4483 43.1483 25.9183L42.3983 28.3803C42.2553 28.8503 42.6073 29.3253 43.0983 29.3253L43.1703 29.3253C43.6553 29.3253 44.0063 29.7893 43.8743 30.2563L43.3363 32.1693C43.2473 32.4853 42.9593 32.7023 42.6313 32.7023L41.6193 32.7023C41.2893 32.7023 40.9993 32.9243 40.9133 33.2433L40.7343 33.9033 42.2593 33.9033C42.7233 33.9033 43.0713 34.3313 42.9753 34.7863L42.5833 36.6493C42.5123 36.9883 42.2123 37.2303 41.8663 37.2303M49.7257 36.705C49.9257 39.282 55.2787 39.282 55.4787 36.705L55.4787 29.226C55.2787 26.599 49.9257 26.599 49.7257 29.226L49.7257 36.705zM46.1987 36.705L46.1987 29.226C46.1987 25.498 49.6007 23.847 52.6027 23.847 55.6297 23.847 59.0067 25.498 59.0067 29.226L59.0067 36.705C59.0067 40.407 55.6297 42.059 52.6027 42.059 49.6007 42.059 46.1987 40.407 46.1987 36.705zM65.3702 41.8081C64.9662 41.8081 64.6382 41.4801 64.6382 41.0761L64.6382 29.3261 63.4362 30.3661C63.1632 30.6021 62.7592 30.6041 62.4832 30.3701L61.2512 29.3261C60.9302 29.0541 60.9042 28.5691 61.1932 28.2641L64.9722 24.2761C65.1102 24.1301 65.3022 24.0471 65.5032 24.0471L67.3582 24.0471C67.7622 24.0471 68.0902 24.3751 68.0902 24.7791L68.0902 41.0761C68.0902 41.4801 67.7622 41.8081 67.3582 41.8081L65.3702 41.8081zM74.1978 41.8081C73.7938 41.8081 73.4658 41.4801 73.4658 41.0761L73.4658 29.3261 72.2638 30.3661C71.9908 30.6021 71.5868 30.6041 71.3108 30.3701L70.0788 29.3261C69.7578 29.0541 69.7318 28.5691 70.0208 28.2641L73.7998 24.2761C73.9378 24.1301 74.1298 24.0471 74.3308 24.0471L76.1858 24.0471C76.5898 24.0471 76.9178 24.3751 76.9178 24.7791L76.9178 41.0761C76.9178 41.4801 76.5898 41.8081 76.1858 41.8081L74.1978 41.8081zM91.2926 24.477L91.9456 25.783C92.0526 25.997 92.0476 26.248 91.9346 26.458L83.8436 41.424C83.7156 41.661 83.4676 41.808 83.1996 41.808L80.8836 41.808C80.3296 41.808 79.9766 41.217 80.2396 40.729L86.7816 28.579C87.0446 28.091 86.6906 27.499 86.1376 27.499L80.3146 27.499C79.9106 27.499 79.5826 27.171 79.5826 26.767L79.5826 24.805C79.5826 24.4 79.9106 24.072 80.3146 24.072L90.6376 24.072C90.9156 24.072 91.1686 24.229 91.2926 24.477"/>
    </g>
    <rect width="142" height="88"/>
  </g>
</svg>
