<svg enable-background="new 0 0 412 214" viewBox="0 0 412 214" xmlns="http://www.w3.org/2000/svg" xmlns:xlink="http://www.w3.org/1999/xlink"><mask id="a" height="205" maskUnits="userSpaceOnUse" width="394.4" x=".6" y=".5"><path d="m.6.5h394.5v205.1h-394.5z" fill="#fff"/></mask><mask id="b" height="139" maskUnits="userSpaceOnUse" width="124" x="163.1" y="72"><path d="m0 214h411.9v-213.5h-411.9z" fill="#fff"/></mask><mask id="c" height="102" maskUnits="userSpaceOnUse" width="20" x="267.1" y="109"><path d="m0 214h411.9v-213.5h-411.9z" fill="#fff"/></mask><mask id="d" height="82" maskUnits="userSpaceOnUse" width="62" x="287.1" y="129"><path d="m0 214h411.9v-213.5h-411.9z" fill="#fff"/></mask><mask id="e" height="62" maskUnits="userSpaceOnUse" width="42" x="297.1" y="139"><path d="m0 214h411.9v-213.5h-411.9z" fill="#fff"/></mask><mask id="f" height="6" maskUnits="userSpaceOnUse" width="6" x="303.1" y="145"><path d="m0 214h411.9v-213.5h-411.9z" fill="#fff"/></mask><mask id="g" height="6" maskUnits="userSpaceOnUse" width="6" x="315.1" y="145"><path d="m0 214h411.9v-213.5h-411.9z" fill="#fff"/></mask><mask id="h" height="6" maskUnits="userSpaceOnUse" width="6" x="327.1" y="145"><path d="m0 214h411.9v-213.5h-411.9z" fill="#fff"/></mask><mask id="i" height="6" maskUnits="userSpaceOnUse" width="6" x="303.1" y="156"><path d="m0 214h411.9v-213.5h-411.9z" fill="#fff"/></mask><mask id="j" height="6" maskUnits="userSpaceOnUse" width="6" x="315.1" y="156"><path d="m0 214h411.9v-213.5h-411.9z" fill="#fff"/></mask><mask id="k" height="6" maskUnits="userSpaceOnUse" width="6" x="327.1" y="156"><path d="m0 214h411.9v-213.5h-411.9z" fill="#fff"/></mask><mask id="l" height="6" maskUnits="userSpaceOnUse" width="6" x="303.1" y="167"><path d="m0 214h411.9v-213.5h-411.9z" fill="#fff"/></mask><mask id="m" height="6" maskUnits="userSpaceOnUse" width="6" x="315.1" y="167"><path d="m0 214h411.9v-213.5h-411.9z" fill="#fff"/></mask><mask id="n" height="6" maskUnits="userSpaceOnUse" width="6" x="327.1" y="167"><path d="m0 214h411.9v-213.5h-411.9z" fill="#fff"/></mask><mask id="o" height="6" maskUnits="userSpaceOnUse" width="6" x="303.1" y="178"><path d="m0 214h411.9v-213.5h-411.9z" fill="#fff"/></mask><mask id="p" height="6" maskUnits="userSpaceOnUse" width="6" x="315.1" y="178"><path d="m0 214h411.9v-213.5h-411.9z" fill="#fff"/></mask><mask id="q" height="6" maskUnits="userSpaceOnUse" width="6" x="327.1" y="178"><path d="m0 214h411.9v-213.5h-411.9z" fill="#fff"/></mask><mask id="r" height="6" maskUnits="userSpaceOnUse" width="6" x="303.1" y="189"><path d="m0 214h411.9v-213.5h-411.9z" fill="#fff"/></mask><mask id="s" height="6" maskUnits="userSpaceOnUse" width="6" x="315.1" y="189"><path d="m0 214h411.9v-213.5h-411.9z" fill="#fff"/></mask><mask id="t" height="6" maskUnits="userSpaceOnUse" width="6" x="327.1" y="189"><path d="m0 214h411.9v-213.5h-411.9z" fill="#fff"/></mask><mask id="u" height="20" maskUnits="userSpaceOnUse" width="82" x="267.1" y="109"><path d="m0 214h411.9v-213.5h-411.9z" fill="#fff"/></mask><mask id="v" height="139" maskUnits="userSpaceOnUse" width="118" x="133.1" y="72"><path d="m0 214h411.9v-213.5h-411.9z" fill="#fff"/></mask><mask id="w" height="73" maskUnits="userSpaceOnUse" width="59" x="81.1" y="91"><path d="m0 214h411.9v-213.5h-411.9z" fill="#fff"/></mask><mask id="x" height="12" maskUnits="userSpaceOnUse" width="30" x="91.1" y="96"><path d="m0 214h411.9v-213.5h-411.9z" fill="#fff"/></mask><mask id="y" height="7" maskUnits="userSpaceOnUse" width="30" x="91.1" y="111"><path d="m0 214h411.9v-213.5h-411.9z" fill="#fff"/></mask><mask id="z" height="73" maskUnits="userSpaceOnUse" width="52" x="133.1" y="91"><path d="m0 214h411.9v-213.5h-411.9z" fill="#fff"/></mask><mask id="A" height="35" maskUnits="userSpaceOnUse" width="42" x="138.1" y="96"><path d="m0 214h411.9v-213.5h-411.9z" fill="#fff"/></mask><mask id="B" height="35" maskUnits="userSpaceOnUse" width="38" x="138.1" y="96"><path d="m0 214h411.9v-213.5h-411.9z" fill="#fff"/></mask><mask id="C" height="75" maskUnits="userSpaceOnUse" width="108" x="62.6" y="136"><path d="m0 214h411.9v-213.5h-411.9z" fill="#fff"/></mask><mask id="D" height="75" maskUnits="userSpaceOnUse" width="108" x="101.1" y="136"><path d="m0 214h411.9v-213.5h-411.9z" fill="#fff"/></mask><mask id="E" height="59" maskUnits="userSpaceOnUse" width="62" x="142.1" y="141"><path d="m0 214h411.9v-213.5h-411.9z" fill="#fff"/></mask><mask id="F" height="12" maskUnits="userSpaceOnUse" width="10" x="189.1" y="146"><path d="m0 214h411.9v-213.5h-411.9z" fill="#fff"/></mask><mask id="G" height="12" maskUnits="userSpaceOnUse" width="10" x="175.1" y="146"><path d="m0 214h411.9v-213.5h-411.9z" fill="#fff"/></mask><mask id="H" height="12" maskUnits="userSpaceOnUse" width="10" x="161.1" y="146"><path d="m0 214h411.9v-213.5h-411.9z" fill="#fff"/></mask><mask id="I" height="12" maskUnits="userSpaceOnUse" width="10" x="147.1" y="146"><path d="m0 214h411.9v-213.5h-411.9z" fill="#fff"/></mask><mask id="J" height="12" maskUnits="userSpaceOnUse" width="10" x="189.1" y="162"><path d="m0 214h411.9v-213.5h-411.9z" fill="#fff"/></mask><mask id="K" height="12" maskUnits="userSpaceOnUse" width="10" x="175.1" y="162"><path d="m0 214h411.9v-213.5h-411.9z" fill="#fff"/></mask><mask id="L" height="12" maskUnits="userSpaceOnUse" width="10" x="161.1" y="162"><path d="m0 214h411.9v-213.5h-411.9z" fill="#fff"/></mask><mask id="M" height="12" maskUnits="userSpaceOnUse" width="10" x="147.1" y="162"><path d="m0 214h411.9v-213.5h-411.9z" fill="#fff"/></mask><mask id="N" height="12" maskUnits="userSpaceOnUse" width="10" x="189.1" y="178"><path d="m0 214h411.9v-213.5h-411.9z" fill="#fff"/></mask><mask id="O" height="12" maskUnits="userSpaceOnUse" width="10" x="175.1" y="178"><path d="m0 214h411.9v-213.5h-411.9z" fill="#fff"/></mask><mask id="P" height="12" maskUnits="userSpaceOnUse" width="10" x="161.1" y="178"><path d="m0 214h411.9v-213.5h-411.9z" fill="#fff"/></mask><mask id="Q" height="12" maskUnits="userSpaceOnUse" width="10" x="147.1" y="178"><path d="m0 214h411.9v-213.5h-411.9z" fill="#fff"/></mask><mask id="R" height="32" maskUnits="userSpaceOnUse" width="22" x="70.1" y="158"><path d="m0 214h411.9v-213.5h-411.9z" fill="#fff"/></mask><mask id="S" height="32" maskUnits="userSpaceOnUse" width="32" x="54.1" y="158"><path d="m0 214h411.9v-213.5h-411.9z" fill="#fff"/></mask><mask id="T" height="18" maskUnits="userSpaceOnUse" width="18" x="61.1" y="165"><path d="m0 214h411.9v-213.5h-411.9z" fill="#fff"/></mask><mask id="U" height="23" maskUnits="userSpaceOnUse" width="18" x="151.1" y="49"><path d="m0 214h411.9v-213.5h-411.9z" fill="#fff"/></mask><mask id="V" height="23" maskUnits="userSpaceOnUse" width="18" x="181.1" y="49"><path d="m0 214h411.9v-213.5h-411.9z" fill="#fff"/></mask><mask id="W" height="23" maskUnits="userSpaceOnUse" width="18" x="211.1" y="49"><path d="m0 214h411.9v-213.5h-411.9z" fill="#fff"/></mask><mask id="X" height="7" maskUnits="userSpaceOnUse" width="34" x="365.1" y="204"><path d="m0 214h411.9v-213.5h-411.9z" fill="#fff"/></mask><mask id="Y" height="3" maskUnits="userSpaceOnUse" width="2" x="142.1" y="100"><path d="m0 214h411.9v-213.5h-411.9z" fill="#fff"/></mask><mask id="Z" height="3" maskUnits="userSpaceOnUse" width="2" x="146.1" y="100"><path d="m0 214h411.9v-213.5h-411.9z" fill="#fff"/></mask><mask id="aa" height="3" maskUnits="userSpaceOnUse" width="2" x="154.1" y="100"><path d="m0 214h411.9v-213.5h-411.9z" fill="#fff"/></mask><mask id="ab" height="3" maskUnits="userSpaceOnUse" width="2" x="150.1" y="100"><path d="m0 214h411.9v-213.5h-411.9z" fill="#fff"/></mask><mask id="ac" height="3" maskUnits="userSpaceOnUse" width="2" x="158.1" y="100"><path d="m0 214h411.9v-213.5h-411.9z" fill="#fff"/></mask><mask id="ad" height="3" maskUnits="userSpaceOnUse" width="2" x="162.1" y="100"><path d="m0 214h411.9v-213.5h-411.9z" fill="#fff"/></mask><mask id="ae" height="3" maskUnits="userSpaceOnUse" width="2" x="166.1" y="100"><path d="m0 214h411.9v-213.5h-411.9z" fill="#fff"/></mask><mask id="af" height="3" maskUnits="userSpaceOnUse" width="2" x="170.1" y="100"><path d="m0 214h411.9v-213.5h-411.9z" fill="#fff"/></mask><mask id="ag" height="3" maskUnits="userSpaceOnUse" width="2" x="142.1" y="105"><path d="m0 214h411.9v-213.5h-411.9z" fill="#fff"/></mask><mask id="ah" height="3" maskUnits="userSpaceOnUse" width="2" x="146.1" y="105"><path d="m0 214h411.9v-213.5h-411.9z" fill="#fff"/></mask><mask id="ai" height="3" maskUnits="userSpaceOnUse" width="2" x="154.1" y="105"><path d="m0 214h411.9v-213.5h-411.9z" fill="#fff"/></mask><mask id="aj" height="3" maskUnits="userSpaceOnUse" width="2" x="150.1" y="105"><path d="m0 214h411.9v-213.5h-411.9z" fill="#fff"/></mask><mask id="ak" height="3" maskUnits="userSpaceOnUse" width="2" x="158.1" y="105"><path d="m0 214h411.9v-213.5h-411.9z" fill="#fff"/></mask><mask id="al" height="3" maskUnits="userSpaceOnUse" width="2" x="166.1" y="105"><path d="m0 214h411.9v-213.5h-411.9z" fill="#fff"/></mask><mask id="am" height="3" maskUnits="userSpaceOnUse" width="2" x="142.1" y="110"><path d="m0 214h411.9v-213.5h-411.9z" fill="#fff"/></mask><mask id="an" height="3" maskUnits="userSpaceOnUse" width="2" x="150.1" y="110"><path d="m0 214h411.9v-213.5h-411.9z" fill="#fff"/></mask><mask id="ao" height="3" maskUnits="userSpaceOnUse" width="2" x="142.1" y="123"><path d="m0 214h411.9v-213.5h-411.9z" fill="#fff"/></mask><mask id="ap" height="3" maskUnits="userSpaceOnUse" width="2" x="146.1" y="123"><path d="m0 214h411.9v-213.5h-411.9z" fill="#fff"/></mask><mask id="aq" height="3" maskUnits="userSpaceOnUse" width="2" x="154.1" y="123"><path d="m0 214h411.9v-213.5h-411.9z" fill="#fff"/></mask><mask id="ar" height="3" maskUnits="userSpaceOnUse" width="2" x="150.1" y="123"><path d="m0 214h411.9v-213.5h-411.9z" fill="#fff"/></mask><mask id="as" height="3" maskUnits="userSpaceOnUse" width="2" x="170.1" y="123"><path d="m0 214h411.9v-213.5h-411.9z" fill="#fff"/></mask><mask id="at" height="26" maskUnits="userSpaceOnUse" width="26" x="217.1" y="178"><path d="m0 214h411.9v-213.5h-411.9z" fill="#fff"/></mask><mask id="au" height="18" maskUnits="userSpaceOnUse" width="18" x="221.1" y="182"><path d="m0 214h411.9v-213.5h-411.9z" fill="#fff"/></mask><mask id="av" height="14" maskUnits="userSpaceOnUse" width="14" x="223.1" y="184"><path d="m0 214h411.9v-213.5h-411.9z" fill="#fff"/></mask><mask id="aw" height="8" maskUnits="userSpaceOnUse" width="8" x="226.1" y="187"><path d="m0 214h411.9v-213.5h-411.9z" fill="#fff"/></mask><mask id="ax" height="26" maskUnits="userSpaceOnUse" width="26" x="217.1" y="146"><path d="m0 214h411.9v-213.5h-411.9z" fill="#fff"/></mask><mask id="ay" height="18" maskUnits="userSpaceOnUse" width="18" x="221.1" y="150"><path d="m0 214h411.9v-213.5h-411.9z" fill="#fff"/></mask><mask id="az" height="14" maskUnits="userSpaceOnUse" width="14" x="223.1" y="152"><path d="m0 214h411.9v-213.5h-411.9z" fill="#fff"/></mask><mask id="aA" height="8" maskUnits="userSpaceOnUse" width="8" x="226.1" y="155"><path d="m0 214h411.9v-213.5h-411.9z" fill="#fff"/></mask><mask id="aB" height="59" maskUnits="userSpaceOnUse" width="12" x="124.1" y="141"><path d="m0 214h411.9v-213.5h-411.9z" fill="#fff"/></mask><mask id="aC" height="48" maskUnits="userSpaceOnUse" width="4" x="128.1" y="146.5"><path d="m0 214h411.9v-213.5h-411.9z" fill="#fff"/></mask><mask id="aD" height="8" maskUnits="userSpaceOnUse" width="8" x="126.1" y="162"><path d="m0 214h411.9v-213.5h-411.9z" fill="#fff"/></mask><mask id="aE" height="59" maskUnits="userSpaceOnUse" width="12" x="109.1" y="141"><path d="m0 214h411.9v-213.5h-411.9z" fill="#fff"/></mask><mask id="aF" height="48" maskUnits="userSpaceOnUse" width="4" x="113.1" y="146.5"><path d="m0 214h411.9v-213.5h-411.9z" fill="#fff"/></mask><mask id="aG" height="8" maskUnits="userSpaceOnUse" width="8" x="111.1" y="177"><path d="m0 214h411.9v-213.5h-411.9z" fill="#fff"/></mask><mask id="aH" height="7" maskUnits="userSpaceOnUse" width="108" x="138.1" y="79"><path d="m0 214h411.9v-213.5h-411.9z" fill="#fff"/></mask><mask id="aI" height="4" maskUnits="userSpaceOnUse" width="61" x="185.1" y="91"><path d="m0 214h411.9v-213.5h-411.9z" fill="#fff"/></mask><mask id="aJ" height="4" maskUnits="userSpaceOnUse" width="61" x="185.1" y="98"><path d="m0 214h411.9v-213.5h-411.9z" fill="#fff"/></mask><mask id="aK" height="4" maskUnits="userSpaceOnUse" width="61" x="185.1" y="105"><path d="m0 214h411.9v-213.5h-411.9z" fill="#fff"/></mask><mask id="aL" height="4" maskUnits="userSpaceOnUse" width="61" x="185.1" y="112"><path d="m0 214h411.9v-213.5h-411.9z" fill="#fff"/></mask><mask id="aM" height="4" maskUnits="userSpaceOnUse" width="61" x="185.1" y="119"><path d="m0 214h411.9v-213.5h-411.9z" fill="#fff"/></mask><mask id="aN" height="4" maskUnits="userSpaceOnUse" width="61" x="185.1" y="126"><path d="m0 214h411.9v-213.5h-411.9z" fill="#fff"/></mask><mask id="aO" height="19" maskUnits="userSpaceOnUse" width="10" x="168.1" y="186"><path d="m0 214h411.9v-213.5h-411.9z" fill="#fff"/></mask><mask id="aP" height="13" maskUnits="userSpaceOnUse" width="3" x="174.1" y="201"><path d="m0 214h411.9v-213.5h-411.9z" fill="#fff"/></mask><mask id="aQ" height="13" maskUnits="userSpaceOnUse" width="3" x="169.1" y="201"><path d="m0 214h411.9v-213.5h-411.9z" fill="#fff"/></mask><mask id="aR" height="15" maskUnits="userSpaceOnUse" width="6.3" x="165.8" y="181"><path d="m0 214h411.9v-213.5h-411.9z" fill="#fff"/></mask><mask id="aS" height="12" maskUnits="userSpaceOnUse" width="8" x="174.1" y="185"><path d="m0 214h411.9v-213.5h-411.9z" fill="#fff"/></mask><mask id="aT" height="17.7" maskUnits="userSpaceOnUse" width="17.1" x="61.1" y="119"><path d="m0 214h411.9v-213.5h-411.9z" fill="#fff"/></mask><mask id="aU" height="10.6" maskUnits="userSpaceOnUse" width="4.4" x="73.7" y="126.4"><path d="m0 214h411.9v-213.5h-411.9z" fill="#fff"/></mask><mask id="aV" height="9" maskUnits="userSpaceOnUse" width="8" x="57.1" y="133"><path d="m0 214h411.9v-213.5h-411.9z" fill="#fff"/></mask><mask id="aW" height="7" maskUnits="userSpaceOnUse" width="7" x="57.1" y="131"><path d="m0 214h411.9v-213.5h-411.9z" fill="#fff"/></mask><mask id="aX" height="50.3" maskUnits="userSpaceOnUse" width="83.2" x="286.3" y="30.2"><path d="m0 214h411.9v-213.5h-411.9z" fill="#fff"/></mask><mask id="aY" height="13" maskUnits="userSpaceOnUse" width="13" x="385.6" y="116.5"><path d="m0 214h411.9v-213.5h-411.9z" fill="#fff"/></mask><mask id="aZ" height="13" maskUnits="userSpaceOnUse" width="13" x="60.8" y="66.3"><path d="m0 214h411.9v-213.5h-411.9z" fill="#fff"/></mask><mask id="a0" height="4.4" maskUnits="userSpaceOnUse" width="4.4" x="0" y="93.2"><path d="m0 214h411.9v-213.5h-411.9z" fill="#fff"/></mask><mask id="a1" height="4.4" maskUnits="userSpaceOnUse" width="4.4" x="9.2" y="102.4"><path d="m0 214h411.9v-213.5h-411.9z" fill="#fff"/></mask><mask id="a2" height="4.4" maskUnits="userSpaceOnUse" width="4.4" x="9.2" y="93.2"><path d="m0 214h411.9v-213.5h-411.9z" fill="#fff"/></mask><mask id="a3" height="4.4" maskUnits="userSpaceOnUse" width="4.4" x="0" y="102.4"><path d="m0 214h411.9v-213.5h-411.9z" fill="#fff"/></mask><mask id="a4" height="11" maskUnits="userSpaceOnUse" width="11" x="371.1" y="92.5"><path d="m0 214h411.9v-213.5h-411.9z" fill="#fff"/></mask><g transform="translate(0 -1)"><g mask="url(#a)" opacity=".3" transform="translate(13 .453)"><path d="m393.1 118.1c-.1-.3-.2-.6-.4-1-9.6-24.7-44.3-21.7-65.5-20.9-21.6.8-43.4-.2-61.4-13.7-17.9-13.4-28.2-35.7-44.7-51.3-25.1-23.4-58.5-32.9-92.4-30.2-35.9 2.8-67 22.3-86.6 52.3-9.7 14.7-13 31.1-16.7 47.9-2.5 11.3-5.9 23-13.1 32.2-7.3 9.4-12.4 19.1-11.5 31.7 1.4 20.7 23.2 31.7 41.3 35.6 35.9 7.6 72.8 4.4 109.1 2.9 30.9 0 62.1-2.4 93-3.9 42.1-2 83.1-2.6 120.4-24.7 10.1-6 19.2-13.9 24.9-24.1 5.4-9.9 7.4-22.1 3.6-32.8" fill="#4f545c"/></g><path d="m402.3 188.2-1.2 8.9" fill="#202225"/><path d="m402.3 188.2-1.2 8.9" fill="none" stroke="#202225" stroke-linecap="round" stroke-linejoin="round" stroke-width="10"/><path d="m402.2 210.4.5-11" fill="none" stroke="#202225" stroke-linecap="round" stroke-linejoin="round" stroke-width="2"/><g transform="translate(0 .453)"><g fill="#202225"><path d="m403.6 194c-.4 0-.7-.2-.9-.5-.3-.5-.1-1.1.4-1.4 4-2.2 6.9-8.5 6.9-8.6.2-.5.8-.7 1.3-.5s.7.8.5 1.3c-.1.3-3.1 7-7.7 9.6-.2 0-.4.1-.5.1z"/><path d="m393.1 209c-.2 0-.3 0-.5-.1-.5-.3-.7-.9-.4-1.4l7-13c.3-.5.9-.7 1.4-.4s.7.9.4 1.4l-7 13c-.2.3-.6.5-.9.5z"/><path d="m391.1 193c-.5 0-.9-.3-1-.8s.2-1.1.8-1.2l9-2c.5-.1 1.1.2 1.2.8.1.5-.2 1.1-.8 1.2l-9 2c-.1 0-.1 0-.2 0z"/></g><path d="m392.1 208h-20v-18.1c0-9.3-7.6-16.9-16.9-16.9h-20.1v-20h20.1c20.3 0 36.9 16.5 36.9 36.9z" fill="#b9bbbe"/><path d="m395.1 209v-8c-8.7 0-17.3 0-26 0v8" fill="#72767d"/><g mask="url(#b)"><path d="m163.1 211h124v-139h-124z" fill="#202225"/></g><g mask="url(#c)"><path d="m267.1 211h20v-102h-20z" fill="#36393f"/></g><g mask="url(#d)"><path d="m287.1 211h62v-82h-62z" fill="#202225"/></g><g mask="url(#e)"><path d="m297.1 201h42v-62h-42z" fill="#4f545c"/></g><g mask="url(#f)"><path d="m309.1 148c0 1.7-1.3 3-3 3s-3-1.3-3-3 1.3-3 3-3 3 1.3 3 3" fill="#202225"/></g><g mask="url(#g)"><path d="m321.1 148c0 1.7-1.3 3-3 3s-3-1.3-3-3 1.3-3 3-3 3 1.3 3 3" fill="#202225"/></g><g mask="url(#h)"><path d="m333.1 148c0 1.7-1.3 3-3 3s-3-1.3-3-3 1.3-3 3-3 3 1.3 3 3" fill="#202225"/></g><g mask="url(#i)"><path d="m309.1 159c0 1.7-1.3 3-3 3s-3-1.3-3-3 1.3-3 3-3 3 1.3 3 3" fill="#202225"/></g><g mask="url(#j)"><path d="m321.1 159c0 1.7-1.3 3-3 3s-3-1.3-3-3 1.3-3 3-3 3 1.3 3 3" fill="#202225"/></g><g mask="url(#k)"><path d="m333.1 159c0 1.7-1.3 3-3 3s-3-1.3-3-3 1.3-3 3-3 3 1.3 3 3" fill="#202225"/></g><g mask="url(#l)"><path d="m309.1 170c0 1.7-1.3 3-3 3s-3-1.3-3-3 1.3-3 3-3 3 1.3 3 3" fill="#202225"/></g><g mask="url(#m)"><path d="m321.1 170c0 1.7-1.3 3-3 3s-3-1.3-3-3 1.3-3 3-3 3 1.3 3 3" fill="#202225"/></g><g mask="url(#n)"><path d="m333.1 170c0 1.7-1.3 3-3 3s-3-1.3-3-3 1.3-3 3-3 3 1.3 3 3" fill="#202225"/></g><g mask="url(#o)"><path d="m309.1 181c0 1.7-1.3 3-3 3s-3-1.3-3-3 1.3-3 3-3 3 1.3 3 3" fill="#202225"/></g><g mask="url(#p)"><path d="m321.1 181c0 1.7-1.3 3-3 3s-3-1.3-3-3 1.3-3 3-3 3 1.3 3 3" fill="#202225"/></g><g mask="url(#q)"><path d="m333.1 181c0 1.7-1.3 3-3 3s-3-1.3-3-3 1.3-3 3-3 3 1.3 3 3" fill="#202225"/></g><g mask="url(#r)"><path d="m309.1 192c0 1.7-1.3 3-3 3s-3-1.3-3-3 1.3-3 3-3 3 1.3 3 3" fill="#202225"/></g><g mask="url(#s)"><path d="m321.1 192c0 1.7-1.3 3-3 3s-3-1.3-3-3 1.3-3 3-3 3 1.3 3 3" fill="#202225"/></g><g mask="url(#t)"><path d="m333.1 192c0 1.7-1.3 3-3 3s-3-1.3-3-3 1.3-3 3-3 3 1.3 3 3" fill="#202225"/></g><g mask="url(#u)"><path d="m349.1 129h-62l-20-20h62z" fill="#72767d"/></g><g mask="url(#v)"><path d="m133.1 211h118v-139h-118z" fill="#4f545c"/></g><g mask="url(#w)"><path d="m81.1 164h59v-73h-59z" fill="#202225"/></g><g mask="url(#x)"><path d="m91.1 108h30v-12h-30z" fill="#36393f"/></g><g mask="url(#y)"><path d="m91.1 118h30v-7h-30z" fill="#36393f"/></g><g mask="url(#z)"><path d="m133.1 164h52v-73h-52z" fill="#36393f"/></g><g mask="url(#A)"><path d="m138.1 131h42v-35h-42z" fill="#202225"/></g><g mask="url(#B)"><path d="m138.1 131h38v-35h-38z" fill="#4f545c"/></g><g mask="url(#C)"><path d="m62.6 211h108v-75h-108z" fill="#4f545c"/></g><g mask="url(#D)"><path d="m101.1 211h108v-75h-108z" fill="#72767d"/></g><g mask="url(#E)"><path d="m142.1 200h62v-59h-62z" fill="#4f545c"/></g><g mask="url(#F)"><path d="m189.1 158h10v-12h-10z" fill="#b9bbbe"/></g><g mask="url(#G)"><path d="m175.1 158h10v-12h-10z" fill="#b9bbbe"/></g><g mask="url(#H)"><path d="m161.1 158h10v-12h-10z" fill="#b9bbbe"/></g><g mask="url(#I)"><path d="m147.1 158h10v-12h-10z" fill="#b9bbbe"/></g><g mask="url(#J)"><path d="m189.1 174h10v-12h-10z" fill="#b9bbbe"/></g><g mask="url(#K)"><path d="m175.1 174h10v-12h-10z" fill="#b9bbbe"/></g><g mask="url(#L)"><path d="m161.1 174h10v-12h-10z" fill="#b9bbbe"/></g><g mask="url(#M)"><path d="m147.1 174h10v-12h-10z" fill="#b9bbbe"/></g><g mask="url(#N)"><path d="m189.1 190h10v-12h-10z" fill="#b9bbbe"/></g><g mask="url(#O)"><path d="m175.1 190h10v-12h-10z" fill="#b9bbbe"/></g><g mask="url(#P)"><path d="m161.1 190h10v-12h-10z" fill="#b9bbbe"/></g><g mask="url(#Q)"><path d="m147.1 190h10v-12h-10z" fill="#b9bbbe"/></g><g mask="url(#R)"><path d="m76.1 190c8.8 0 16-7.2 16-16s-7.2-16-16-16h-6v32z" fill="#72767d"/></g><g mask="url(#S)"><path d="m86.1 174c0 8.8-7.2 16-16 16s-16-7.2-16-16 7.2-16 16-16 16 7.2 16 16" fill="#b9bbbe"/></g><g mask="url(#T)"><path d="m79.1 174c0 5-4 9-9 9s-9-4-9-9 4-9 9-9 9 4 9 9" fill="#36393f"/></g><g mask="url(#U)"><path d="m160.1 49c-5 0-9 4-9 9v14h18v-14c0-5-4-9-9-9" fill="#202225"/></g><g mask="url(#V)"><path d="m190.1 49c-5 0-9 4-9 9v14h18v-14c0-5-4-9-9-9" fill="#202225"/></g><g mask="url(#W)"><path d="m220.1 49c-5 0-9 4-9 9v14h18v-14c0-5-4-9-9-9" fill="#202225"/></g><g mask="url(#X)"><path d="m365.1 206v5h34v-5c0-1.1-.9-2-2-2-9.1 0-20.9 0-30 0-1.1 0-2 .9-2 2" fill="#4f545c"/></g><g mask="url(#Y)"><path d="m143.1 103c-.6 0-1-.4-1-1v-1c0-.6.4-1 1-1s1 .4 1 1v1c0 .6-.5 1-1 1" fill="#202225"/></g><g mask="url(#Z)"><path d="m147.1 103c-.6 0-1-.4-1-1v-1c0-.6.4-1 1-1s1 .4 1 1v1c0 .6-.5 1-1 1" fill="#202225"/></g><g mask="url(#aa)"><path d="m155.1 103c-.6 0-1-.4-1-1v-1c0-.6.4-1 1-1s1 .4 1 1v1c0 .6-.5 1-1 1" fill="#202225"/></g><g mask="url(#ab)"><path d="m151.1 103c-.6 0-1-.4-1-1v-1c0-.6.4-1 1-1s1 .4 1 1v1c0 .6-.5 1-1 1" fill="#202225"/></g><g mask="url(#ac)"><path d="m159.1 103c-.6 0-1-.4-1-1v-1c0-.6.4-1 1-1s1 .4 1 1v1c0 .6-.5 1-1 1" fill="#202225"/></g><g mask="url(#ad)"><path d="m163.1 103c-.6 0-1-.4-1-1v-1c0-.6.4-1 1-1s1 .4 1 1v1c0 .6-.5 1-1 1" fill="#202225"/></g><g mask="url(#ae)"><path d="m167.1 103c-.6 0-1-.4-1-1v-1c0-.6.4-1 1-1s1 .4 1 1v1c0 .6-.5 1-1 1" fill="#202225"/></g><g mask="url(#af)"><path d="m171.1 103c-.6 0-1-.4-1-1v-1c0-.6.4-1 1-1s1 .4 1 1v1c0 .6-.5 1-1 1" fill="#202225"/></g><g mask="url(#ag)"><path d="m143.1 108c-.6 0-1-.4-1-1v-1c0-.6.4-1 1-1s1 .4 1 1v1c0 .6-.5 1-1 1" fill="#202225"/></g><g mask="url(#ah)"><path d="m147.1 108c-.6 0-1-.4-1-1v-1c0-.6.4-1 1-1s1 .4 1 1v1c0 .6-.5 1-1 1" fill="#202225"/></g><g mask="url(#ai)"><path d="m155.1 108c-.6 0-1-.4-1-1v-1c0-.6.4-1 1-1s1 .4 1 1v1c0 .6-.5 1-1 1" fill="#202225"/></g><g mask="url(#aj)"><path d="m151.1 108c-.6 0-1-.4-1-1v-1c0-.6.4-1 1-1s1 .4 1 1v1c0 .6-.5 1-1 1" fill="#202225"/></g><g mask="url(#ak)"><path d="m159.1 108c-.6 0-1-.4-1-1v-1c0-.6.4-1 1-1s1 .4 1 1v1c0 .6-.5 1-1 1" fill="#202225"/></g><g mask="url(#al)"><path d="m167.1 108c-.6 0-1-.4-1-1v-1c0-.6.4-1 1-1s1 .4 1 1v1c0 .6-.5 1-1 1" fill="#202225"/></g><g mask="url(#am)"><path d="m143.1 113c-.6 0-1-.4-1-1v-1c0-.6.4-1 1-1s1 .4 1 1v1c0 .6-.5 1-1 1" fill="#202225"/></g><g mask="url(#an)"><path d="m151.1 113c-.6 0-1-.4-1-1v-1c0-.6.4-1 1-1s1 .4 1 1v1c0 .6-.5 1-1 1" fill="#202225"/></g><g mask="url(#ao)"><path d="m143.1 126c-.6 0-1-.4-1-1v-1c0-.6.4-1 1-1s1 .4 1 1v1c0 .6-.5 1-1 1" fill="#202225"/></g><g mask="url(#ap)"><path d="m147.1 126c-.6 0-1-.4-1-1v-1c0-.6.4-1 1-1s1 .4 1 1v1c0 .6-.5 1-1 1" fill="#202225"/></g><g mask="url(#aq)"><path d="m155.1 126c-.6 0-1-.4-1-1v-1c0-.6.4-1 1-1s1 .4 1 1v1c0 .6-.5 1-1 1" fill="#202225"/></g><g mask="url(#ar)"><path d="m151.1 126c-.6 0-1-.4-1-1v-1c0-.6.4-1 1-1s1 .4 1 1v1c0 .6-.5 1-1 1" fill="#202225"/></g><g mask="url(#as)"><path d="m171.1 126c-.6 0-1-.4-1-1v-1c0-.6.4-1 1-1s1 .4 1 1v1c0 .6-.5 1-1 1" fill="#202225"/></g><g mask="url(#at)"><path d="m243.1 191c0-7.2-5.8-13-13-13s-13 5.8-13 13 5.8 13 13 13 13-5.8 13-13" fill="#72767d"/></g><g mask="url(#au)"><path d="m239.1 191c0-5-4-9-9-9s-9 4-9 9 4 9 9 9 9-4 9-9" fill="#4f545c"/></g><g mask="url(#av)"><path d="m236.5 191c0-.2 0-.4 0-.5l.6-.1-.2-1.1-.6.1c-.1-.3-.2-.7-.4-1l.5-.3-.6-1-.5.3c-.2-.3-.4-.6-.7-.8l.4-.5-.9-.8-.4.5c-.3-.2-.6-.4-.9-.5l.2-.6-1.1-.4-.2.6c-.3-.1-.7-.2-1.1-.2v-.7h-1.2v.6c-.4 0-.7.1-1.1.2l-.2-.6-1.1.4.2.6c-.3.2-.6.3-.9.5l-.4-.5-.9.8.4.5c-.3.3-.5.5-.7.8l-.5-.3-.6 1 .5.3c-.1.3-.3.7-.4 1l-.6-.1-.2 1.1.6.1v.5s0 .4 0 .5l-.6.1.2 1.1.6-.1c.1.3.2.7.4 1l-.5.3.6 1 .5-.3c.2.3.4.6.7.8l-.4.5.9.8.4-.5c.3.2.6.4.9.5l-.2.6 1.1.4.2-.6c.3.1.7.2 1.1.2v.6h1.2v-.6c.4 0 .7-.1 1.1-.2l.2.6 1.1-.4-.2-.6c.3-.2.6-.3.9-.5l.4.5.9-.8-.4-.5c.3-.3.5-.5.7-.8l.5.3.6-1-.5-.3c.1-.3.3-.7.4-1l.6.1.2-1.1-.6-.1s0-.2 0-.4" fill="#dcddde"/></g><g mask="url(#aw)"><path d="m234.1 191c0-2.2-1.8-4-4-4s-4 1.8-4 4 1.8 4 4 4 4-1.8 4-4" fill="#f6f6f7"/></g><g mask="url(#ax)"><path d="m243.1 159c0-7.2-5.8-13-13-13s-13 5.8-13 13 5.8 13 13 13 13-5.8 13-13" fill="#72767d"/></g><g mask="url(#ay)"><path d="m239.1 159c0-5-4-9-9-9s-9 4-9 9 4 9 9 9 9-4 9-9" fill="#4f545c"/></g><g mask="url(#az)"><path d="m236.5 159c0-.2 0-.4 0-.5l.6-.1-.2-1.1-.6.1c-.1-.3-.2-.7-.4-1l.5-.3-.6-1-.5.3c-.2-.3-.4-.6-.7-.8l.4-.5-.9-.8-.4.5c-.3-.2-.6-.4-.9-.5l.2-.6-1.1-.4-.2.6c-.3-.1-.7-.2-1.1-.2v-.7h-1.2v.6c-.4 0-.7.1-1.1.2l-.2-.6-1.1.4.2.6c-.3.2-.6.3-.9.5l-.4-.5-.9.8.4.5c-.3.3-.5.5-.7.8l-.5-.3-.6 1 .5.3c-.1.3-.3.7-.4 1l-.6-.1-.2 1.1.6.1v.5s0 .4 0 .5l-.6.1.2 1.1.6-.1c.1.3.2.7.4 1l-.5.3.6 1 .5-.3c.2.3.4.6.7.8l-.4.5.9.8.4-.5c.3.2.6.4.9.5l-.2.6 1.1.4.2-.6c.3.1.7.2 1.1.2v.6h1.2v-.6c.4 0 .7-.1 1.1-.2l.2.6 1.1-.4-.2-.6c.3-.2.6-.3.9-.5l.4.5.9-.8-.4-.5c.3-.3.5-.5.7-.8l.5.3.6-1-.5-.3c.1-.3.3-.7.4-1l.6.1.2-1.1-.6-.1s0-.2 0-.4" fill="#dcddde"/></g><g mask="url(#aA)"><path d="m234.1 159c0-2.2-1.8-4-4-4s-4 1.8-4 4 1.8 4 4 4 4-1.8 4-4" fill="#f6f6f7"/></g><g mask="url(#aB)"><path d="m124.1 200h12v-59h-12z" fill="#4f545c"/></g><g mask="url(#aC)"><path d="m130.1 146.5c1.1 0 2 .9 2 2v44c0 1.1-.9 2-2 2s-2-.9-2-2v-44c0-1.1.9-2 2-2" fill="#202225"/></g><g mask="url(#aD)"><path d="m134.1 166c0-2.2-1.8-4-4-4s-4 1.8-4 4 1.8 4 4 4 4-1.8 4-4" fill="#f6f6f7"/></g><g mask="url(#aE)"><path d="m109.1 200h12v-59h-12z" fill="#4f545c"/></g><g mask="url(#aF)"><path d="m115.1 146.5c1.1 0 2 .9 2 2v44c0 1.1-.9 2-2 2s-2-.9-2-2v-44c0-1.1.9-2 2-2" fill="#202225"/></g><g mask="url(#aG)"><path d="m119.1 181c0-2.2-1.8-4-4-4s-4 1.8-4 4 1.8 4 4 4 4-1.8 4-4" fill="#f6f6f7"/></g><g mask="url(#aH)"><path d="m138.1 86h108v-7h-108z" fill="#36393f"/></g><g mask="url(#aI)"><path d="m244.1 95h-59v-4h59c1.1 0 2 .9 2 2s-.9 2-2 2" fill="#72767d"/></g><g mask="url(#aJ)"><path d="m244.1 102h-59v-4h59c1.1 0 2 .9 2 2s-.9 2-2 2" fill="#72767d"/></g><g mask="url(#aK)"><path d="m244.1 109h-59v-4h59c1.1 0 2 .9 2 2s-.9 2-2 2" fill="#72767d"/></g><g mask="url(#aL)"><path d="m244.1 116h-59v-4h59c1.1 0 2 .9 2 2s-.9 2-2 2" fill="#72767d"/></g><g mask="url(#aM)"><path d="m244.1 123h-59v-4h59c1.1 0 2 .9 2 2s-.9 2-2 2" fill="#72767d"/></g><g mask="url(#aN)"><path d="m244.1 130h-59v-4h59c1.1 0 2 .9 2 2s-.9 2-2 2" fill="#72767d"/></g><g mask="url(#aO)"><g fill="#202225" transform="translate(173 191)"><path d="m.1 0v9"/><path d="m.1 14c-2.8 0-5-2.2-5-5v-9c0-2.8 2.2-5 5-5s5 2.2 5 5v9c0 2.8-2.3 5-5 5z"/></g></g><g mask="url(#aP)"><path d="m176.1 214c-.5 0-.9-.4-1-.9l-1-11c0-.6.4-1 .9-1.1.6-.1 1 .4 1.1.9l1 11c0 .6-.4 1-1 1.1z" fill="#202225"/></g><g mask="url(#aQ)"><path d="m170.1 214c-.6-.1-1-.5-1-1.1l1-11c.1-.5.5-1 1.1-.9.6 0 1 .5.9 1.1l-1 11c-.1.5-.5.9-1 .9z" fill="#202225"/></g><g mask="url(#aR)"><path d="m171.1 196c-.1 0-.3 0-.4-.1-6.6-3.3-4.6-13.7-4.5-14.1.1-.5.6-.9 1.2-.8.5.1.9.6.8 1.2 0 .1-1.8 9.3 3.5 11.9.5.2.7.8.4 1.3-.3.4-.6.6-1 .6z" fill="#202225"/></g><g mask="url(#aS)"><path d="m175.1 197c-.3 0-.6-.1-.8-.4-.3-.4-.2-1.1.2-1.4 3.7-2.8 5.6-9.4 5.6-9.5.2-.5.7-.8 1.2-.7.5.2.8.7.7 1.2-.1.3-2.1 7.4-6.4 10.5-.1.2-.3.3-.5.3z" fill="#202225"/></g><g mask="url(#aT)"><g fill="#202225" transform="translate(66 124)"><path d="m7.2 0s-.3 7.7-7.1 7.7"/><path d="m.1 12.7c-2.8 0-5-2.2-5-5s2.2-5 5-5c1.6 0 2.1-1.6 2.1-3 .1-2.7 2.4-4.8 5.2-4.7s4.9 2.5 4.8 5.2c-.2 5-3.5 12.5-12.1 12.5z"/></g></g><g mask="url(#aU)"><path d="m77 137c-.4 0-.8-.3-1-.7l-2.4-8.6c-.1-.5.2-1.1.7-1.2s1.1.2 1.2.7l2.4 8.6c.1.5-.2 1.1-.7 1.2 0 0-.1 0-.2 0z" fill="#202225"/></g><g mask="url(#aV)"><path d="m58.1 142c-.6 0-1-.4-1-1 0-5.4 4.5-7.6 6.8-8 .6-.1 1.1.3 1.2.8s-.3 1.1-.8 1.1c-.2 0-5.2 1-5.2 6 0 .7-.5 1.1-1 1.1z" fill="#202225"/></g><g mask="url(#aW)"><path d="m58.1 138c-.6 0-1-.4-1-1 0-4.7 3.9-6 6-6 .6 0 1 .4 1 1s-.4 1-1 1c-.4 0-4 .1-4 4 0 .6-.5 1-1 1z" fill="#202225"/></g><g mask="url(#aX)" opacity=".3"><path d="m367.4 48.6c-1.1-1.9-2.7-3.9-4.8-5.8-12.9-11.5-34.3-13.8-50.8-12-9.3 1-24.6 4.3-25.3 15.9-.8 13.1 14 24.4 24.8 29.2 10.9 4.9 24 6 35.6 3 14.4-3.7 28-17.2 20.5-30.3" fill="#4f545c"/></g><g mask="url(#aY)"><path d="m397.1 121.5h-.5c-1.7 0-3-1.3-3-3v-.5c0-.8-.7-1.5-1.5-1.5s-1.5.7-1.5 1.5v.5c0 1.7-1.3 3-3 3h-.5c-.8 0-1.5.7-1.5 1.5s.7 1.5 1.5 1.5h.5c1.7 0 3 1.3 3 3v.5c0 .8.7 1.5 1.5 1.5s1.5-.7 1.5-1.5v-.5c0-1.7 1.3-3 3-3h.5c.8 0 1.5-.7 1.5-1.5s-.7-1.5-1.5-1.5" fill="#b9bbbe"/></g><g mask="url(#aZ)"><path d="m72.3 71.3h-.5c-1.7 0-3-1.3-3-3v-.5c0-.8-.7-1.5-1.5-1.5s-1.5.7-1.5 1.5v.5c0 1.7-1.3 3-3 3h-.5c-.8 0-1.5.7-1.5 1.5s.7 1.5 1.5 1.5h.5c1.7 0 3 1.3 3 3v.5c0 .8.7 1.5 1.5 1.5s1.5-.7 1.5-1.5v-.5c0-1.7 1.3-3 3-3h.5c.8 0 1.5-.7 1.5-1.5s-.7-1.5-1.5-1.5" fill="#72767d"/></g><g mask="url(#a0)"><path d="m2.9 97.6c-.4 0-.8-.1-1.1-.4l-1.4-1.4c-.6-.6-.6-1.5 0-2.1.6-.7 1.6-.7 2.2-.1l1.4 1.4c.6.6.6 1.5 0 2.1-.3.4-.7.5-1.1.5" fill="#72767d"/></g><g mask="url(#a1)"><path d="m12.1 106.8c-.4 0-.8-.1-1.1-.4l-1.4-1.4c-.6-.6-.6-1.5 0-2.1s1.5-.6 2.1 0l1.4 1.4c.6.6.6 1.5 0 2.1-.2.3-.6.4-1 .4" fill="#72767d"/></g><g mask="url(#a2)"><path d="m10.7 97.6c-.4 0-.8-.1-1.1-.4-.6-.6-.6-1.6 0-2.2l1.4-1.4c.6-.6 1.5-.6 2.1 0s.6 1.5 0 2.1l-1.4 1.4c-.2.4-.6.5-1 .5" fill="#72767d"/></g><g mask="url(#a3)"><path d="m1.5 106.8c-.4 0-.8-.1-1.1-.4-.6-.6-.6-1.5 0-2.1l1.4-1.4c.6-.6 1.5-.6 2.1 0s.6 1.5 0 2.1l-1.4 1.4c-.2.3-.6.4-1 .4" fill="#72767d"/></g><g mask="url(#a4)"><path d="m376.6 95.5c-1.4 0-2.5 1.1-2.5 2.5s1.1 2.5 2.5 2.5 2.5-1.1 2.5-2.5-1.1-2.5-2.5-2.5m0 8c-3 0-5.5-2.5-5.5-5.5s2.5-5.5 5.5-5.5 5.5 2.5 5.5 5.5-2.5 5.5-5.5 5.5" fill="#72767d"/></g></g></g></svg>