<svg xmlns="http://www.w3.org/2000/svg" width="100" height="100">
  <g fill="none" fill-rule="evenodd">
    <circle cx="50" cy="50" r="50" fill="#FFF"/>
    <path fill="#99AAB5" d="M50 25l26 49H24l26-49zm0-6L18 77h64L50 19z"/>
    <path fill="#FAA61A" d="M50 43c-1.1 0-2 .9457778-2 2.1111111v14.7777778C48 61.0542222 48.9 62 50 62c1.104 0 2-.9457778 2-2.1111111V45.1111111C52 43.9457778 51.104 43 50 43zm-2 23c0 1.1045695.8877296 2 2 2 1.1045695 0 2-.8877296 2-2 0-1.1045695-.8877296-2-2-2-1.1045695 0-2 .8877296-2 2z"/>
  </g>
</svg>